<?xml version="1.0" encoding="UTF-8"?>
<svg version="1.1" xmlns="http://www.w3.org/2000/svg" width="197" height="202">
<path d="M0 0 C65.01 0 130.02 0 197 0 C197 66.66 197 133.32 197 202 C131.99 202 66.98 202 0 202 C0 135.34 0 68.68 0 0 Z " fill="#FEFDFD" transform="translate(0,0)"/>
<path d="M0 0 C65.01 0 130.02 0 197 0 C197 66.66 197 133.32 197 202 C131.99 202 66.98 202 0 202 C0 135.34 0 68.68 0 0 Z M20.79296875 33.4765625 C12.71361539 43.87929206 9.88232898 55.10896824 9.80712891 68.12231445 C9.79895142 68.91518356 9.79077393 69.70805267 9.78234863 70.52494812 C9.75763166 73.13771851 9.7410058 75.7504347 9.7265625 78.36328125 C9.72123882 79.2632955 9.71591515 80.16330975 9.71043015 81.09059715 C9.68374639 85.86287964 9.66436404 90.63513652 9.64990234 95.4074707 C9.63662331 99.32470359 9.60887605 103.24140813 9.56787109 107.15844727 C9.51806503 111.91818313 9.49372268 116.67744422 9.48667526 121.43742943 C9.48003738 123.23484682 9.4650154 125.03225678 9.44078445 126.82952309 C9.23196553 143.26761881 11.0497336 159.59087529 23 172 C36.6963957 185.02280247 52.55425266 186.77873324 70.59375 186.62890625 C72.43827453 186.62973799 74.28279897 186.63220878 76.12731934 186.63621521 C79.96645802 186.63905078 83.80500609 186.62459407 87.64404297 186.59692383 C92.51870352 186.56284525 97.39231012 186.56888107 102.26702118 186.5875864 C106.06793717 186.59824991 109.86861585 186.58913461 113.66950989 186.57420158 C115.46490266 186.56908758 117.26032094 186.56941715 119.05570984 186.57574654 C135.80856422 186.61265762 152.27745877 185.19152014 165.05078125 173.05078125 C166.83321111 171.10804721 168.43058307 169.11727114 170 167 C170.46019531 166.41992188 170.92039063 165.83984375 171.39453125 165.2421875 C179.93767934 153.31791434 179.59117327 138.01807193 179.49609375 124.0390625 C179.49624916 122.15391992 179.49774513 120.26877704 179.50050354 118.38363647 C179.50187734 114.46215426 179.48949505 110.54104237 179.46655273 106.61962891 C179.43805278 101.61323935 179.44095116 96.60745817 179.45364285 91.60102272 C179.46061826 87.71978622 179.45279144 83.83868868 179.44038582 79.95746994 C179.43589773 78.11163237 179.43551118 76.26577977 179.43945122 74.41994095 C179.44238495 71.83905965 179.42575854 69.25899966 179.40405273 66.67822266 C179.40855438 65.9299823 179.41305603 65.18174194 179.41769409 64.41082764 C179.35098017 59.5994887 178.43105629 55.61676167 176.76411533 51.10310936 C175.97286652 48.92531929 175.35523313 46.73574927 174.75 44.5 C171.65849735 35.35297669 164.70328926 29.38054174 157 24 C155.824375 23.13375 155.824375 23.13375 154.625 22.25 C140.82289531 15.6775692 124.58959074 16.8331341 109.6484375 16.796875 C108.44899946 16.79263393 108.44899946 16.79263393 107.22533035 16.78830719 C103.00340716 16.77345879 98.78151695 16.76413589 94.55957031 16.75976562 C90.23843119 16.75426371 85.91760433 16.73015816 81.59656334 16.70179367 C78.23337947 16.68305434 74.87026975 16.67795599 71.50703812 16.67642975 C69.9148549 16.67343442 68.32267197 16.66551376 66.73054123 16.65224457 C48.93546816 16.51435811 33.10295614 19.66323151 20.79296875 33.4765625 Z " fill="#FEFDFD" transform="translate(0,0)"/>
<path d="M0 0 C1.0644207 -0.00262848 1.0644207 -0.00262848 2.15034485 -0.00531006 C4.49625093 -0.00970939 6.84208143 -0.00679417 9.18798828 -0.00341797 C10.8302512 -0.0040923 12.47251403 -0.00506341 14.11477661 -0.00631714 C17.56301826 -0.00779214 21.01123402 -0.00564865 24.45947266 -0.00097656 C28.84112083 0.00467574 33.22270713 0.0014693 37.60435295 -0.00454903 C41.00194751 -0.00819853 44.39952792 -0.00699535 47.79712296 -0.00442123 C49.40996432 -0.00376169 51.02280704 -0.00454571 52.63564682 -0.00690079 C92.231698 -0.05197169 92.231698 -0.05197169 107.09033203 14.25439453 C119.24047984 27.76024305 120.65409598 43.64735215 120.51220703 60.97705078 C120.51303865 62.84639117 120.51550901 64.71573147 120.51951599 66.58506775 C120.52235172 70.47547799 120.50789171 74.36530544 120.48022461 78.25561523 C120.44612208 83.19987153 120.45218962 88.1430894 120.47088718 93.08739567 C120.48153998 96.93888246 120.47244527 100.79013459 120.45750237 104.64159966 C120.45238221 106.46293881 120.45272579 108.28430312 120.45904732 110.1056385 C120.49707066 127.63261689 118.50739732 142.95891588 105.83251953 156.28564453 C92.05613865 168.91176448 75.0311249 169.75834613 57.28955078 169.69580078 C55.44502453 169.70105473 53.60050095 169.70733757 51.75598145 169.71458435 C47.91694362 169.72490896 44.07827831 169.7205417 40.23925781 169.70581055 C35.3644952 169.68861831 30.49091103 169.71216575 25.6162796 169.74730015 C21.81537339 169.76945028 18.01474169 169.76779076 14.21379089 169.75953484 C12.41837774 169.75872525 10.62294235 169.76539458 8.82759094 169.78030586 C-6.62143367 169.88901647 -21.4326448 168.37008081 -33.11669922 157.12939453 C-34.00357422 156.32501953 -34.89044922 155.52064453 -35.80419922 154.69189453 C-36.56732422 153.84626953 -37.33044922 153.00064453 -38.11669922 152.12939453 C-38.59751953 151.63826172 -39.07833984 151.14712891 -39.57373047 150.64111328 C-49.72259403 139.0534235 -49.86824456 122.19075151 -49.74560547 107.65673828 C-49.74643746 105.83606322 -49.7489092 104.01538826 -49.75291443 102.19471741 C-49.75574741 98.40862995 -49.74131797 94.62314223 -49.71362305 90.8371582 C-49.67952025 86.03090308 -49.68559095 81.22571631 -49.70428562 76.41940975 C-49.71494966 72.66910696 -49.70583377 68.91904465 -49.6909008 65.16876411 C-49.68578884 63.39849122 -49.68611377 61.62819246 -49.69244576 59.85792351 C-49.73135472 42.45572783 -47.91805137 26.31570053 -35.25341797 13.19970703 C-33.60131299 11.72709904 -31.91461419 10.41732401 -30.11669922 9.12939453 C-29.25044922 8.42814453 -28.38419922 7.72689453 -27.49169922 7.00439453 C-22.33375312 4.13886892 -16.78608743 2.68957501 -11.11669922 1.12939453 C-10.54112274 0.94990265 -9.96554626 0.77041077 -9.37252808 0.58547974 C-6.22726886 -0.05043118 -3.20849943 0.00199231 0 0 Z M-27.04248047 26.23876953 C-34.86881329 37.19175145 -34.56573737 49.04953515 -34.51513672 61.94580078 C-34.51716138 63.77082943 -34.52007608 65.59585728 -34.52383423 67.42088318 C-34.52823799 71.23094445 -34.52188888 75.04079361 -34.5078125 78.85083008 C-34.49070959 83.71497994 -34.5005812 88.57863348 -34.51852989 93.44276524 C-34.52941016 97.20647367 -34.52590219 100.97006592 -34.51814651 104.733778 C-34.51615686 106.52659096 -34.51856001 108.31941474 -34.52558517 110.11221504 C-34.5638543 122.61903234 -34.31815457 134.72527158 -25.03466797 144.27001953 C-13.83528152 154.59648531 -0.46131982 154.44267841 14.19580078 154.39501953 C15.53938873 154.39637383 16.88297619 154.39832063 18.2265625 154.40081787 C21.02674071 154.40374143 23.82679009 154.39956747 26.62695312 154.39013672 C30.14864927 154.37883079 33.6700404 154.3854629 37.19172573 154.39700031 C49.8162461 154.43229221 62.42800201 154.41471684 75.01220703 153.28173828 C75.8411145 153.21001404 76.67002197 153.13828979 77.52404785 153.06439209 C83.98834552 152.38224118 88.99084496 150.55201117 93.88330078 146.12939453 C94.46982422 145.60216797 95.05634766 145.07494141 95.66064453 144.53173828 C103.80607015 136.10749614 104.99422547 124.90704278 105.02856445 113.71044922 C105.03192307 113.01654587 105.03528168 112.32264252 105.03874207 111.60771179 C105.04815429 109.33887893 105.05019034 107.07012065 105.05126953 104.80126953 C105.05448924 103.20477266 105.05785383 101.60827607 105.06135559 100.01177979 C105.06732285 96.67321083 105.06919801 93.33466766 105.06860352 89.99609375 C105.06850212 85.74883595 105.08214207 81.50174614 105.09937572 77.25452805 C105.11057539 73.95824445 105.11252028 70.66200043 105.11199379 67.36569977 C105.11316241 65.80143913 105.11752018 64.23717708 105.12532616 62.67293549 C105.33342484 41.97048081 105.33342484 41.97048081 95.63330078 24.37939453 C84.73949279 14.2041143 70.80784127 14.82586461 56.82080078 14.86376953 C55.06160427 14.86241993 53.30240813 14.86047695 51.54321289 14.85797119 C47.86845322 14.8550338 44.19379123 14.85927282 40.51904297 14.86865234 C35.82871218 14.88004602 31.13861037 14.87347911 26.44828796 14.86150742 C22.81927797 14.85425131 19.1903215 14.85659391 15.56130981 14.861763 C13.83269218 14.86308914 12.10406956 14.86148844 10.37545776 14.85680389 C-3.72944698 14.82696029 -16.79730642 15.01687504 -27.04248047 26.23876953 Z " fill="#F5C848" transform="translate(59.11669921875,16.87060546875)"/>
<path d="M0 0 C11.52652935 7.50425088 19.69024664 17.54131266 23 31 C24.43333904 43.66116151 22.8156596 55.59121974 14.8125 65.875 C7.52157528 74.04606898 0.54170133 78.91219457 -10 82 C-10.62390625 82.19078125 -11.2478125 82.3815625 -11.890625 82.578125 C-23.61169633 84.92233927 -34.38710116 82.63598477 -44.52734375 76.4609375 C-55.27711687 68.70640031 -61.18619609 58.76537647 -64 46 C-65.57884481 34.13278124 -62.84242799 22.74462733 -55.6875 13.0625 C-41.55227518 -3.3979999 -20.26028307 -9.81357461 0 0 Z " fill="#E93BAD" transform="translate(115,62)"/>
<path d="M0 0 C1.0644207 -0.00262848 1.0644207 -0.00262848 2.15034485 -0.00531006 C4.49625093 -0.00970939 6.84208143 -0.00679417 9.18798828 -0.00341797 C10.8302512 -0.0040923 12.47251403 -0.00506341 14.11477661 -0.00631714 C17.56301826 -0.00779214 21.01123402 -0.00564865 24.45947266 -0.00097656 C28.84112083 0.00467574 33.22270713 0.0014693 37.60435295 -0.00454903 C41.00194751 -0.00819853 44.39952792 -0.00699535 47.79712296 -0.00442123 C49.40996432 -0.00376169 51.02280704 -0.00454571 52.63564682 -0.00690079 C92.231698 -0.05197169 92.231698 -0.05197169 107.09033203 14.25439453 C119.08742811 27.59011396 120.7251557 42.91813845 119.88330078 60.12939453 C119.55330078 60.12939453 119.22330078 60.12939453 118.88330078 60.12939453 C118.82271484 59.08138672 118.76212891 58.03337891 118.69970703 56.95361328 C118.6152834 55.57469405 118.53063631 54.19578848 118.44580078 52.81689453 C118.40648437 52.12660156 118.36716797 51.43630859 118.32666016 50.72509766 C118.13402663 47.65777919 117.86007361 45.05971301 116.88330078 42.12939453 C116.30580078 42.48001953 115.72830078 42.83064453 115.13330078 43.19189453 C112.46483286 44.30375616 111.57949964 43.91216194 108.88330078 43.12939453 C105.7699783 43.79807767 105.7699783 43.79807767 104.69580078 46.19189453 C104.42767578 46.83126953 104.15955078 47.47064453 103.88330078 48.12939453 C103.78533203 47.35595703 103.68736328 46.58251953 103.58642578 45.78564453 C102.02438867 34.9052481 99.52477438 29.06160279 91.19970703 21.79345703 C81.32171767 14.69729604 68.38375988 15.83243388 56.82080078 15.86376953 C55.06160427 15.86241993 53.30240813 15.86047695 51.54321289 15.85797119 C47.86845322 15.8550338 44.19379123 15.85927282 40.51904297 15.86865234 C35.82871218 15.88004602 31.13861037 15.87347911 26.44828796 15.86150742 C22.81927797 15.85425131 19.1903215 15.85659391 15.56130981 15.861763 C13.83269218 15.86308914 12.10406956 15.86148844 10.37545776 15.85680389 C-3.0285705 15.82844322 -14.34309496 16.07356309 -25.11669922 25.12939453 C-32.64327555 34.3502002 -33.40238955 44.23467491 -33.67919922 55.69189453 C-34.04531887 68.95788955 -34.04531887 68.95788955 -35.11669922 75.12939453 C-36.88619534 75.6341065 -38.65735144 76.13300138 -40.42919922 76.62939453 C-41.41533203 76.90783203 -42.40146484 77.18626953 -43.41748047 77.47314453 C-46.11669922 78.12939453 -46.11669922 78.12939453 -49.11669922 78.12939453 C-49.21734215 73.43788564 -49.28898039 68.74703646 -49.33642578 64.0546875 C-49.3562519 62.46635972 -49.38332143 60.87810194 -49.41845703 59.29003906 C-49.77160741 42.88932016 -48.00566167 28.16346216 -37.11669922 15.12939453 C-34.92889057 12.86361367 -32.67342629 10.96089614 -30.11669922 9.12939453 C-29.25044922 8.42814453 -28.38419922 7.72689453 -27.49169922 7.00439453 C-22.33375312 4.13886892 -16.78608743 2.68957501 -11.11669922 1.12939453 C-10.54112274 0.94990265 -9.96554626 0.77041077 -9.37252808 0.58547974 C-6.22726886 -0.05043118 -3.20849943 0.00199231 0 0 Z " fill="#732BF3" transform="translate(59.11669921875,16.87060546875)"/>
<path d="M0 0 C8.50556831 4.447866 15.12804002 11.25912007 18.1875 20.4375 C18.9168126 28.40015883 18.18340996 34.49650762 14.1875 41.4375 C13.589375 42.51 12.99125 43.5825 12.375 44.6875 C7.59299124 50.69916816 0.91970199 54.8023051 -6.72265625 55.828125 C-15.28920919 56.27738403 -21.81259202 54.43889838 -28.8125 49.4375 C-31.62927535 46.67575934 -33.7709479 43.80427014 -35.8125 40.4375 C-36.451875 39.385625 -37.09125 38.33375 -37.75 37.25 C-40.00603035 29.15483227 -40.1632088 21.1290316 -36.375 13.5 C-33.07762584 8.20705189 -29.02186917 4.77415799 -23.8125 1.4375 C-22.905 0.798125 -21.9975 0.15875 -21.0625 -0.5 C-14.28994007 -2.71410613 -6.64640013 -2.67702228 0 0 Z " fill="#FEFBFC" transform="translate(104.8125,74.5625)"/>
<path d="M0 0 C2.16629428 3.55063733 2.37979311 6.66112471 2.61010742 10.77539062 C2.6474937 11.43467812 2.68487997 12.09396561 2.72339916 12.77323151 C3.10668309 20.04231593 3.20189297 27.31566305 3.23828125 34.59375 C3.24235678 35.30045334 3.2464323 36.00715668 3.25063133 36.73527527 C3.27124445 40.46788207 3.28565687 44.20045469 3.29516602 47.93310547 C3.30625388 51.73502125 3.34075293 55.53635586 3.38033772 59.3380661 C3.40674458 62.31362835 3.41487826 65.28905569 3.41844749 68.26472473 C3.42324163 69.66465741 3.43464296 71.06458717 3.45348549 72.46440125 C3.65931714 88.74943105 0.50683177 103.00424545 -11.05078125 115.15625 C-23.03050162 126.13572187 -35.33604317 127.49063438 -51 127 C-51.12375 126.195625 -51.2475 125.39125 -51.375 124.5625 C-51.58125 123.716875 -51.7875 122.87125 -52 122 C-52.66 121.67 -53.32 121.34 -54 121 C-53.67 122.32 -53.34 123.64 -53 125 C-54.485 125.495 -54.485 125.495 -56 126 C-56.309375 124.906875 -56.61875 123.81375 -56.9375 122.6875 C-57.58337897 120.44592006 -58.2623117 118.2130649 -59 116 C-58.34 116 -57.68 116 -57 116 C-56.505 115.01 -56.505 115.01 -56 114 C-52.16924369 112.9035154 -48.46082703 112.93859126 -44.5 112.875 C-35.23426192 112.25209324 -26.88743867 108.49307438 -20.4375 101.6875 C-13.86943315 92.86413308 -12.88345373 82.6856445 -12.79467773 72.0234375 C-12.78477814 71.27124435 -12.77487854 70.51905121 -12.76467896 69.74406433 C-12.73339689 67.28774024 -12.70844005 64.83139688 -12.68359375 62.375 C-12.66299537 60.66007011 -12.64199819 58.94514497 -12.62062073 57.23022461 C-12.56569769 52.738992 -12.51615843 48.24771586 -12.46777344 43.75640869 C-12.41733963 39.16438978 -12.36176832 34.57243328 -12.30664062 29.98046875 C-12.19942373 20.98703262 -12.09789937 11.99354205 -12 3 C-8.76415039 1.25126425 -6.69535898 0.80550742 -3 1 C-2.34 1 -1.68 1 -1 1 C-0.67 0.67 -0.34 0.34 0 0 Z " fill="#E63D74" transform="translate(176,58)"/>
<path d="M0 0 C3.63 0.33 7.26 0.66 11 1 C11.33 1.99 11.66 2.98 12 4 C12.99 4.33 13.98 4.66 15 5 C16.24609375 7.109375 16.24609375 7.109375 17.4375 9.75 C20.94188116 17.47583042 25.01157143 21.23161276 32.64453125 24.8203125 C39.1256293 27.09888248 45.41873096 27.31586332 51.90234375 24.93359375 C54.35346904 23.72782727 56.66702254 22.41783161 59 21 C59.71027344 20.69835937 60.42054687 20.39671875 61.15234375 20.0859375 C63.49960814 18.70636139 63.97213062 17.48972805 65 15 C65.34160156 14.32839844 65.68320313 13.65679687 66.03515625 12.96484375 C66.54369141 11.96130859 66.54369141 11.96130859 67.0625 10.9375 C67.40410156 10.26589844 67.74570313 9.59429687 68.09765625 8.90234375 C69.11490381 6.85671686 69.11490381 6.85671686 70 4 C73 2 73 2 75.4375 2.1875 C78.15969299 3.05063436 79.75531561 4.2790753 82 6 C82.99 6 83.98 6 85 6 C83.22541723 17.60483735 78.51375736 24.93793716 70 33 C59.39247078 40.56910136 46.86236872 43.44040802 34 42 C20.98602126 38.81436086 11.22609409 31.1735315 4 20 C0.63628772 13.28205069 -0.48942832 7.46378189 0 0 Z " fill="#EB6A4C" transform="translate(52,103)"/>
<path d="M0 0 C0.33 0 0.66 0 1 0 C1.00586624 0.70664291 1.01173248 1.41328583 1.01777649 2.14134216 C1.07592961 8.83459538 1.14813359 15.52753699 1.23571491 22.22047329 C1.28024578 25.66054838 1.31953845 29.10050975 1.34643555 32.54077148 C1.37766967 36.50529653 1.43245104 40.46933596 1.48828125 44.43359375 C1.49467117 45.65582138 1.5010611 46.87804901 1.50764465 48.13731384 C1.68122221 58.3140984 3.90171612 65.3329174 9 74 C9.83203125 75.87109375 9.83203125 75.87109375 10 78 C8.56640625 80.578125 8.56640625 80.578125 6.5625 83.25 C5.90378906 84.14203125 5.24507812 85.0340625 4.56640625 85.953125 C4.04949219 86.62859375 3.53257813 87.3040625 3 88 C-3.47867448 85.88111845 -5.79916005 81.78562046 -9 76 C-14.83646113 62.07051281 -14.60037137 48.32099316 -14.3125 33.4375 C-14.28735665 31.15432161 -14.26455427 28.8711162 -14.24414062 26.58789062 C-14.18969307 21.0579924 -14.10655705 15.52912714 -14 10 C-12.23050388 9.49528803 -10.45934777 8.99639315 -8.6875 8.5 C-7.70136719 8.2215625 -6.71523438 7.943125 -5.69921875 7.65625 C-3 7 -3 7 0 7 C0 4.69 0 2.38 0 0 Z " fill="#EA713D" transform="translate(24,85)"/>
<path d="M0 0 C12.15646265 3.38786664 21.53439805 9.73837032 28.51953125 20.296875 C35.12264669 32.35322298 35.65715658 44.56479876 35 58 C34.67 58 34.34 58 34 58 C33.93941406 56.95199219 33.87882812 55.90398437 33.81640625 54.82421875 C33.73198262 53.44529952 33.64733553 52.06639395 33.5625 50.6875 C33.52318359 49.99720703 33.48386719 49.30691406 33.44335938 48.59570312 C33.25072585 45.52838465 32.97677283 42.93031848 32 40 C31.4225 40.350625 30.845 40.70125 30.25 41.0625 C27.58153208 42.17436163 26.69619886 41.78276741 24 41 C20.88667752 41.66868314 20.88667752 41.66868314 19.8125 44.0625 C19.544375 44.701875 19.27625 45.34125 19 46 C18.90203125 45.2265625 18.8040625 44.453125 18.703125 43.65625 C17.14108789 32.77585357 14.6414736 26.93220826 6.31640625 19.6640625 C-1.53646427 14.02270863 -11.60912472 13.69825841 -20.94140625 13.5859375 C-22.45383156 13.55688828 -22.45383156 13.55688828 -23.99681091 13.5272522 C-27.18529062 13.46795567 -30.37380741 13.42127231 -33.5625 13.375 C-35.73764507 13.3367742 -37.91277575 13.29771986 -40.08789062 13.2578125 C-45.39179836 13.16229587 -50.69579435 13.07710564 -56 13 C-56 12.67 -56 12.34 -56 12 C-55.00371582 11.970271 -55.00371582 11.970271 -53.98730469 11.93994141 C-38.08099777 11.61476497 -38.08099777 11.61476497 -22.3671875 9.40234375 C-20 9 -20 9 -16.8125 9.0625 C-13.87680238 9.32694443 -13.87680238 9.32694443 -12.125 7.0625 C-9.70572573 4.71438085 -9.09227465 4.72567214 -5.875 4.5 C-3.956875 4.2525 -3.956875 4.2525 -2 4 C-0.71693196 2.03913812 -0.71693196 2.03913812 0 0 Z " fill="#E73FA1" transform="translate(144,19)"/>
<path d="M0 0 C5.86750998 -0.02499595 11.73498795 -0.04299796 17.60253906 -0.05493164 C19.59245342 -0.05991446 21.58236421 -0.06670314 23.57226562 -0.07543945 C55.18409893 -0.21060071 55.18409893 -0.21060071 60 3 C59.375 4.9375 59.375 4.9375 58 7 C52.81081081 8.40540541 52.81081081 8.40540541 50 7 C49.67 7.66 49.34 8.32 49 9 C47.40216995 10.98532775 46.63118429 11.92775602 44.0546875 12.22265625 C42.97574219 12.14337891 42.97574219 12.14337891 41.875 12.0625 C38.64959643 11.83211403 35.9759432 12.19567941 32.859375 12.95703125 C27.69614 14.16525586 22.66298595 14.45278073 17.375 14.625 C16.36824219 14.66294678 15.36148438 14.70089355 14.32421875 14.73999023 C0.55576046 15.19776241 -13.22623839 15.08867814 -27 15 C-25.68 14.34 -24.36 13.68 -23 13 C-23 12.34 -23 11.68 -23 11 C-18.545 10.505 -18.545 10.505 -14 10 C-14 9.34 -14 8.68 -14 8 C-13.46375 7.87625 -12.9275 7.7525 -12.375 7.625 C-6.2479074 6.26232036 -6.2479074 6.26232036 -2 2 C-1.67 2.33 -1.34 2.66 -1 3 C1.05396726 2.59070014 1.05396726 2.59070014 3 2 C2.01 1.34 1.02 0.68 0 0 Z M38 12 C40 13 40 13 40 13 Z " fill="#B031DA" transform="translate(84,17)"/>
<path d="M0 0 C1.32 0 2.64 0 4 0 C4.33692785 1.60341555 4.66941093 3.20776555 5 4.8125 C5.185625 5.70582031 5.37125 6.59914062 5.5625 7.51953125 C6.33757387 11.91392328 6.31912106 16.11088977 4 20 C-7.59485846 29.9094412 -19.54314908 30.4528248 -34 30 C-34.12375 29.195625 -34.2475 28.39125 -34.375 27.5625 C-34.58125 26.716875 -34.7875 25.87125 -35 25 C-35.66 24.67 -36.32 24.34 -37 24 C-36.67 25.32 -36.34 26.64 -36 28 C-36.99 28.33 -37.98 28.66 -39 29 C-39.309375 27.906875 -39.61875 26.81375 -39.9375 25.6875 C-40.58337897 23.44592006 -41.2623117 21.2130649 -42 19 C-41.34 19 -40.68 19 -40 19 C-39.67 18.34 -39.34 17.68 -39 17 C-35.16924369 15.9035154 -31.46082703 15.93859126 -27.5 15.875 C-18.67759011 15.27326166 -11.06413193 12.09265215 -4.7734375 5.7578125 C-2.94438352 3.62682545 -2.94438352 3.62682545 -1.46484375 1.50390625 C-0.98144531 1.00761719 -0.49804688 0.51132813 0 0 Z " fill="#E95957" transform="translate(159,155)"/>
<path d="M0 0 C0 0.99 0 1.98 0 3 C-0.99 3 -1.98 3 -3 3 C-2.67 3.66 -2.34 4.32 -2 5 C-0.845 4.95875 0.31 4.9175 1.5 4.875 C5.94481301 4.85912567 9.73724131 5.78206895 14 7 C14 7.66 14 8.32 14 9 C12.89591797 9.58007812 12.89591797 9.58007812 11.76953125 10.171875 C2.1530554 15.30404969 -4.00999747 19.46588504 -8 30 C-8.73436146 34.6779779 -8.98618448 39.26818334 -9 44 C-9.99 43.67 -10.98 43.34 -12 43 C-12.33 42.34 -12.66 41.68 -13 41 C-15.34907875 40.31068656 -15.34907875 40.31068656 -18.0625 39.875 C-18.98160156 39.70742187 -19.90070312 39.53984375 -20.84765625 39.3671875 C-21.91306641 39.18542969 -21.91306641 39.18542969 -23 39 C-23 40.65 -23 42.3 -23 44 C-23.33 44 -23.66 44 -24 44 C-24.89807775 30.86810754 -22.70739085 19.24726357 -13.8984375 8.9765625 C-5.27667984 0 -5.27667984 0 0 0 Z " fill="#E93F9F" transform="translate(75,64)"/>
<path d="M0 0 C0.99233376 6.5919314 1.15056693 13.02731363 1.125 19.6875 C1.12886719 20.70650391 1.13273438 21.72550781 1.13671875 22.77539062 C1.13542969 23.76087891 1.13414062 24.74636719 1.1328125 25.76171875 C1.13168457 26.64819092 1.13055664 27.53466309 1.12939453 28.44799805 C0.9973267 31.05272446 0.57499416 33.45934805 0 36 C-1.485 36.495 -1.485 36.495 -3 37 C-4.22445284 38.62948064 -4.22445284 38.62948064 -5.1875 40.5625 C-6.0846875 42.2640625 -6.0846875 42.2640625 -7 44 C-6.34 43.34 -5.68 42.68 -5 42 C-4.01 41.505 -4.01 41.505 -3 41 C-2.34786708 38.97536745 -2.34786708 38.97536745 -2 37 C-1.34 37 -0.68 37 0 37 C0.22893297 40.03336186 0.36475845 42.97465051 0 46 C-2 48.0625 -2 48.0625 -4 49 C-4.33 48.34 -4.66 47.68 -5 47 C-6.485 47.495 -6.485 47.495 -8 48 C-9.71567661 51.50294871 -9.71567661 51.50294871 -11 55 C-11.66 55 -12.32 55 -13 55 C-13.12374395 48.96776797 -13.21440813 42.93627715 -13.2746582 36.90307617 C-13.29977806 34.85151294 -13.33388036 32.80003899 -13.37719727 30.7487793 C-13.43796002 27.79713909 -13.46623492 24.8466835 -13.48828125 21.89453125 C-13.52699089 20.52238213 -13.52699089 20.52238213 -13.56648254 19.12251282 C-13.56849688 14.53270939 -13.48317937 12.62637269 -10.59448242 8.8815918 C-8 7 -8 7 -6 7 C-6 6.34 -6 5.68 -6 5 C-4.35 4.67 -2.7 4.34 -1 4 C-1 3.34 -1 2.68 -1 2 C-1.66 1.67 -2.32 1.34 -3 1 C-1 0 -1 0 0 0 Z " fill="#E73565" transform="translate(178,80)"/>
<path d="M0 0 C0.33 0 0.66 0 1 0 C1 1.65 1 3.3 1 5 C2.32 5.33 3.64 5.66 5 6 C4.01 6.33 3.02 6.66 2 7 C5.96 7.33 9.92 7.66 14 8 C14.0270922 11.68754983 14.04688402 15.37489844 14.0625 19.0625 C14.07087891 20.10083984 14.07925781 21.13917969 14.08789062 22.20898438 C14.10496442 27.58723069 13.95415152 32.70333211 13 38 C11.23050388 38.50471197 9.45934777 39.00360685 7.6875 39.5 C6.70136719 39.7784375 5.71523438 40.056875 4.69921875 40.34375 C2 41 2 41 -1 41 C-1.02481234 36.12532925 -1.0429131 31.25069568 -1.05493164 26.37597656 C-1.05994473 24.71939452 -1.06675689 23.06281687 -1.07543945 21.40625 C-1.08763793 19.01821811 -1.09325867 16.63024498 -1.09765625 14.2421875 C-1.10281754 13.50757294 -1.10797882 12.77295837 -1.11329651 12.01608276 C-1.11374023 7.90221178 -0.80210299 4.03549391 0 0 Z " fill="#E645AA" transform="translate(11,54)"/>
<path d="M0 0 C2.72219299 0.86313436 4.31781561 2.0915753 6.5625 3.8125 C7.5525 3.8125 8.5425 3.8125 9.5625 3.8125 C8.13982542 13.11604295 5.09311817 21.61856656 -2.4375 27.8125 C-3.7575 27.8125 -5.0775 27.8125 -6.4375 27.8125 C-6.4375 28.4725 -6.4375 29.1325 -6.4375 29.8125 C-9.4075 28.8225 -12.3775 27.8325 -15.4375 26.8125 C-15.4375 25.8225 -15.4375 24.8325 -15.4375 23.8125 C-17.0875 23.8125 -18.7375 23.8125 -20.4375 23.8125 C-19.04872646 20.45629729 -17.52072035 18.73951272 -14.4375 16.8125 C-13.7775 16.8125 -13.1175 16.8125 -12.4375 16.8125 C-12.00630859 15.94818359 -12.00630859 15.94818359 -11.56640625 15.06640625 C-10.84926327 13.63460175 -10.12833993 12.20467964 -9.40234375 10.77734375 C-9.06332031 10.10832031 -8.72429687 9.43929687 -8.375 8.75 C-8.03339844 8.07839844 -7.69179687 7.40679687 -7.33984375 6.71484375 C-6.32259619 4.66921686 -6.32259619 4.66921686 -5.4375 1.8125 C-2.4375 -0.1875 -2.4375 -0.1875 0 0 Z " fill="#E9406F" transform="translate(127.4375,105.1875)"/>
<path d="M0 0 C2.0078125 0.42578125 2.0078125 0.42578125 3.62890625 2.1484375 C9.37304832 11.63522172 9.49207116 20.70483251 9.0078125 31.42578125 C6.6640625 32.05078125 6.6640625 32.05078125 4.0078125 32.42578125 C2.34114583 31.09244792 0.67447917 29.75911458 -0.9921875 28.42578125 C-3.61674133 28.74209448 -3.61674133 28.74209448 -5.9921875 29.42578125 C-6.00636719 28.67554687 -6.02054687 27.9253125 -6.03515625 27.15234375 C-6.35273903 20.33718889 -7.46526057 15.47721512 -10.93359375 9.58203125 C-11.9921875 7.42578125 -11.9921875 7.42578125 -11.9921875 3.42578125 C-11.1878125 3.11640625 -10.3834375 2.80703125 -9.5546875 2.48828125 C-6.0094911 1.01832177 -4.07671849 0.218127 0 0 Z " fill="#E93895" transform="translate(128.9921875,77.57421875)"/>
<path d="M0 0 C7.5985115 2.11761796 13.50161164 5.56652009 20 10 C19.01 11.65 18.02 13.3 17 15 C16.01 14.67 15.02 14.34 14 14 C13.443125 15.2375 13.443125 15.2375 12.875 16.5 C11 19 11 19 8.1875 19.5 C4.60095845 18.93740525 2.22758097 17.64543344 -1 16 C-7.58338425 13.9797493 -14.10000974 13.66827877 -20.94140625 13.5859375 C-22.45383156 13.55688828 -22.45383156 13.55688828 -23.99681091 13.5272522 C-27.18529062 13.46795567 -30.37380741 13.42127231 -33.5625 13.375 C-35.73764507 13.3367742 -37.91277575 13.29771986 -40.08789062 13.2578125 C-45.39179836 13.16229587 -50.69579435 13.07710564 -56 13 C-56 12.67 -56 12.34 -56 12 C-55.00371582 11.970271 -55.00371582 11.970271 -53.98730469 11.93994141 C-38.08099777 11.61476497 -38.08099777 11.61476497 -22.3671875 9.40234375 C-20 9 -20 9 -16.8125 9.0625 C-13.87680238 9.32694443 -13.87680238 9.32694443 -12.125 7.0625 C-9.70572573 4.71438085 -9.09227465 4.72567214 -5.875 4.5 C-3.956875 4.2525 -3.956875 4.2525 -2 4 C-0.71693196 2.03913812 -0.71693196 2.03913812 0 0 Z " fill="#D239D1" transform="translate(144,19)"/>
<path d="M0 0 C0.33 0 0.66 0 1 0 C1 13.2 1 26.4 1 40 C0.67 40 0.34 40 0 40 C-0.33 37.36 -0.66 34.72 -1 32 C-3.89097095 33.85929927 -3.89097095 33.85929927 -6 35.625 C-8 37 -8 37 -11 37 C-11.33 37.99 -11.66 38.98 -12 40 C-12.33 40 -12.66 40 -13 40 C-13.72904559 29.97562315 -14.14141393 20.05610192 -14 10 C-12.23050388 9.49528803 -10.45934777 8.99639315 -8.6875 8.5 C-7.70136719 8.2215625 -6.71523438 7.943125 -5.69921875 7.65625 C-3 7 -3 7 0 7 C0 4.69 0 2.38 0 0 Z " fill="#EA5142" transform="translate(24,85)"/>
<path d="M0 0 C3.63 0.33 7.26 0.66 11 1 C10.01 1.495 10.01 1.495 9 2 C9 2.66 9 3.32 9 4 C10.77067416 4.16834933 12.54154612 4.33461909 14.3125 4.5 C15.79169922 4.63921875 15.79169922 4.63921875 17.30078125 4.78125 C21.39124534 5.11274926 24.97029523 4.71639196 29 4 C31.01136276 6.55991624 32.62845496 9.04590299 34 12 C35.299375 11.38125 35.299375 11.38125 36.625 10.75 C40 10 40 10 43.375 11.875 C44.24125 12.57625 45.1075 13.2775 46 14 C45.67 14.99 45.34 15.98 45 17 C37.36499256 20.11259296 26.64925314 18.64055914 19.125 15.9375 C11.46771136 12.6127486 4.73175062 7.99476178 0 1 C0 0.67 0 0.34 0 0 Z " fill="#EC7E45" transform="translate(60,127)"/>
<path d="M0 0 C0.66 0 1.32 0 2 0 C2.81752303 1.58074564 3.62881997 3.16471223 4.4375 4.75 C5.11619141 6.07257813 5.11619141 6.07257813 5.80859375 7.421875 C6.83455398 9.64198566 7.51508603 11.61444619 8 14 C2.88763219 16.07434732 -1.46330893 16.24424065 -6.875 16.125 C-8.050625 16.11146484 -8.050625 16.11146484 -9.25 16.09765625 C-11.16680055 16.07428063 -13.08344191 16.03841653 -15 16 C-15.12375 15.195625 -15.2475 14.39125 -15.375 13.5625 C-15.58125 12.716875 -15.7875 11.87125 -16 11 C-16.66 10.67 -17.32 10.34 -18 10 C-17.67 11.32 -17.34 12.64 -17 14 C-17.99 14.33 -18.98 14.66 -20 15 C-20.309375 13.906875 -20.61875 12.81375 -20.9375 11.6875 C-21.58337897 9.44592006 -22.2623117 7.2130649 -23 5 C-22.34 5 -21.68 5 -21 5 C-20.67 4.34 -20.34 3.68 -20 3 C-14.816013 1.54080366 -9.33131631 1.5918607 -3.984375 1.28125 C-1.11860784 1.33115556 -1.11860784 1.33115556 0 0 Z " fill="#EC773D" transform="translate(140,169)"/>
<path d="M0 0 C2.89375397 1.57025409 5.02422634 3.36370377 7 6 C7.76193644 9.55570339 7.86519282 11.59169343 5.9296875 14.7421875 C4.16701901 16.94816183 2.54406635 18.72796683 0 20 C-4.18144011 20.39447548 -6.30946048 20.45035186 -9.875 18.125 C-12.80038857 15.19961143 -12.96503325 14.42659437 -13.3125 10.1875 C-13.28232024 6.86772673 -13.0060988 6.00955479 -11.125 3.0625 C-7.52060309 -0.43588524 -4.98009538 -0.57148636 0 0 Z " fill="#E93EBF" transform="translate(143,46)"/>
<path d="M0 0 C3.3435951 4.17949388 7.56600571 9.54983917 8 15 C6.56640625 17.578125 6.56640625 17.578125 4.5625 20.25 C3.90378906 21.14203125 3.24507812 22.0340625 2.56640625 22.953125 C2.04949219 23.62859375 1.53257813 24.3040625 1 25 C-3.37048349 23.64651117 -5.26987545 21.91629416 -7.875 18.1875 C-8.49117187 17.33542969 -9.10734375 16.48335937 -9.7421875 15.60546875 C-11.2485132 12.48522265 -11.11474476 11.23114422 -10 8 C-7.77484696 4.70063515 -5.84504802 2.28168267 -2 1 C-1.34 1.33 -0.68 1.66 0 2 C0 1.34 0 0.68 0 0 Z " fill="#EE923D" transform="translate(26,148)"/>
<path d="M0 0 C1.24330078 -0.01836914 1.24330078 -0.01836914 2.51171875 -0.03710938 C3.70861328 -0.04000977 3.70861328 -0.04000977 4.9296875 -0.04296875 C6.02772705 -0.04913208 6.02772705 -0.04913208 7.14794922 -0.05541992 C9.125 0.1875 9.125 0.1875 12.125 2.1875 C11.5 4.125 11.5 4.125 10.125 6.1875 C4.93581081 7.59290541 4.93581081 7.59290541 2.125 6.1875 C1.795 6.8475 1.465 7.5075 1.125 8.1875 C-0.47283005 10.17282775 -1.24381571 11.11525602 -3.8203125 11.41015625 C-4.89925781 11.33087891 -4.89925781 11.33087891 -6 11.25 C-9.25983175 11.12965308 -11.91646108 11.33483525 -15.0625 12.1875 C-21.24290529 13.74909707 -27.54709167 13.34952326 -33.875 13.1875 C-30.77461571 10.08711571 -27.05760052 9.1716413 -22.875 8.1875 C-21.781875 7.8575 -20.68875 7.5275 -19.5625 7.1875 C-15.99674513 6.22051563 -12.53814854 5.6360488 -8.875 5.1875 C-9.060625 4.548125 -9.24625 3.90875 -9.4375 3.25 C-9.581875 2.569375 -9.72625 1.88875 -9.875 1.1875 C-7.72488047 -0.96261953 -2.97702202 0.00229355 0 0 Z M-9.875 11.1875 C-7.875 12.1875 -7.875 12.1875 -7.875 12.1875 Z " fill="#BE2DD8" transform="translate(131.875,17.8125)"/>
<path d="M0 0 C2.97923003 -0.02727678 5.95820379 -0.04697128 8.9375 -0.0625 C9.76830078 -0.07087891 10.59910156 -0.07925781 11.45507812 -0.08789062 C17.05226441 -0.10966956 22.44733582 0.28840732 28 1 C25.6038126 3.3961874 25.00734112 3.20724578 21.75 3.3125 C17.86011081 3.63510644 17.11202605 3.90626392 13.9375 6.5625 C9.93050282 9.88745511 8.09949834 9.24283325 3 9 C1.32254318 9.63903117 -0.34561387 10.30341637 -2 11 C-5.3125 11.125 -5.3125 11.125 -8 11 C-8.33 11.99 -8.66 12.98 -9 14 C-15.06696699 14.77040851 -20.88514973 15.09706112 -27 15 C-25.68 14.34 -24.36 13.68 -23 13 C-23 12.34 -23 11.68 -23 11 C-18.545 10.505 -18.545 10.505 -14 10 C-14 9.34 -14 8.68 -14 8 C-13.46375 7.87625 -12.9275 7.7525 -12.375 7.625 C-6.2479074 6.26232036 -6.2479074 6.26232036 -2 2 C-1.67 2.33 -1.34 2.66 -1 3 C1.05396726 2.59070014 1.05396726 2.59070014 3 2 C2.01 1.34 1.02 0.68 0 0 Z " fill="#8E25DB" transform="translate(84,17)"/>
<path d="M0 0 C3.17896475 0.06935923 5.42117618 0.44745079 8.125 2.25 C7.97160156 2.92417969 7.81820312 3.59835938 7.66015625 4.29296875 C7.04016143 7.71877952 6.7897426 11.08893447 6.5625 14.5625 C6.47871094 15.81675781 6.39492187 17.07101563 6.30859375 18.36328125 C6.24800781 19.31589844 6.18742187 20.26851562 6.125 21.25 C5.135 20.92 4.145 20.59 3.125 20.25 C2.795 19.59 2.465 18.93 2.125 18.25 C-0.22407875 17.56068656 -0.22407875 17.56068656 -2.9375 17.125 C-3.85660156 16.95742187 -4.77570312 16.78984375 -5.72265625 16.6171875 C-6.43292969 16.49601562 -7.14320312 16.37484375 -7.875 16.25 C-7.875 17.9 -7.875 19.55 -7.875 21.25 C-8.205 21.25 -8.535 21.25 -8.875 21.25 C-8.9564222 19.02144426 -9.01438079 16.79202345 -9.0625 14.5625 C-9.09730469 13.32113281 -9.13210937 12.07976562 -9.16796875 10.80078125 C-8.6696716 4.76141979 -6.27683292 0.40495696 0 0 Z " fill="#E94665" transform="translate(59.875,86.75)"/>
<path d="M0 0 C-0.33 0.66 -0.66 1.32 -1 2 C-3.94921875 2.34375 -3.94921875 2.34375 -7.6875 2.5 C-12.53470075 2.70473921 -16.44210576 3.34501058 -21 5 C-21.66 5 -22.32 5 -23 5 C-22.505 5.721875 -22.01 6.44375 -21.5 7.1875 C-19.92080715 10.14848659 -19.71821688 11.71253029 -20 15 C-19.34 14.34 -18.68 13.68 -18 13 C-18 12.01 -18 11.02 -18 10 C-17.01 10.33 -16.02 10.66 -15 11 C-14.67 12.32 -14.34 13.64 -14 15 C-10.7 15.33 -7.4 15.66 -4 16 C-4 16.33 -4 16.66 -4 17 C-7.27081471 17.02902429 -10.5415963 17.04680684 -13.8125 17.0625 C-14.74126953 17.07087891 -15.67003906 17.07925781 -16.62695312 17.08789062 C-17.51962891 17.09111328 -18.41230469 17.09433594 -19.33203125 17.09765625 C-20.56530151 17.10551147 -20.56530151 17.10551147 -21.82348633 17.11352539 C-24 17 -24 17 -27 16 C-31 10.62857143 -31 10.62857143 -31 8 C-31.99 7.67 -32.98 7.34 -34 7 C-34.66 7.66 -35.32 8.32 -36 9 C-36.33 8.01 -36.66 7.02 -37 6 C-40.00847418 4.77479736 -40.00847418 4.77479736 -43 4 C-40.10278845 1.10278845 -37.00300028 1.53827588 -33.10546875 1.3671875 C-31.92891472 1.30484421 -31.92891472 1.30484421 -30.72859192 1.24124146 C-28.21525514 1.11035297 -25.70148587 0.99268922 -23.1875 0.875 C-21.50451432 0.78859347 -19.82157068 0.70136371 -18.13867188 0.61328125 C-5.02307531 -0.05817039 -5.02307531 -0.05817039 0 0 Z " fill="#F2B54A" transform="translate(140,169)"/>
<path d="M0 0 C3.45195767 1.4258086 5.1014256 3.09746334 7.25 6.125 C7.77078125 6.84945312 8.2915625 7.57390625 8.828125 8.3203125 C9.40820312 9.15175781 9.40820312 9.15175781 10 10 C9 12 9 12 6 13.9375 C2.75756779 15.72295885 2.75756779 15.72295885 2 19 C0.35 19.33 -1.3 19.66 -3 20 C-6 16 -9 12 -12 8 C-10.68 8 -9.36 8 -8 8 C-7.34 6.35 -6.68 4.7 -6 3 C-5.01 3 -4.02 3 -3 3 C-1.31201173 1.56249809 -1.31201173 1.56249809 0 0 Z " fill="#E139B3" transform="translate(163,30)"/>
<path d="M0 0 C0.33 0 0.66 0 1 0 C1 1.65 1 3.3 1 5 C2.32 5.33 3.64 5.66 5 6 C4.01 6.33 3.02 6.66 2 7 C5.96 7.33 9.92 7.66 14 8 C14 12.62 14 17.24 14 22 C12.948125 21.608125 11.89625 21.21625 10.8125 20.8125 C7.07335776 19.60589668 7.07335776 19.60589668 4.1875 21.375 C3.465625 21.91125 2.74375 22.4475 2 23 C1.34 23 0.68 23 0 23 C-1.72005735 15.56006938 -1.65642737 7.45392316 0 0 Z " fill="#C64BEE" transform="translate(11,54)"/>
<path d="M0 0 C0.33 0.66 0.66 1.32 1 2 C1.66 2.33 2.32 2.66 3 3 C2.01 3 1.02 3 0 3 C1.29467677 5.05990478 1.29467677 5.05990478 3 7 C3.99 7 4.98 7 6 7 C6.33 7.99 6.66 8.98 7 10 C9.1385485 7.8614515 9.42655063 6.86724686 10 4 C11.65 4.33 13.3 4.66 15 5 C14.24360531 7.48444265 13.47090472 9.96158192 12.6875 12.4375 C12.47416016 13.14455078 12.26082031 13.85160156 12.04101562 14.58007812 C11.45169023 16.41842153 10.7329582 18.21405959 10 20 C6.90521121 21.03159626 5.47368607 20.97482862 2.3125 20.5625 C1.50425781 20.46066406 0.69601563 20.35882813 -0.13671875 20.25390625 C-1.05904297 20.12822266 -1.05904297 20.12822266 -2 20 C-4.39657011 12.81028968 -2.64784597 6.80874678 0 0 Z " fill="#9D32F4" transform="translate(15,42)"/>
<path d="M0 0 C0.33 0 0.66 0 1 0 C1 13.2 1 26.4 1 40 C0.67 40 0.34 40 0 40 C0 32.74 0 25.48 0 18 C-2.97 18.66 -5.94 19.32 -9 20 C-9.99 20 -10.98 20 -12 20 C-12.66 21.32 -13.32 22.64 -14 24 C-14 19.38 -14 14.76 -14 10 C-3.375 7 -3.375 7 0 7 C0 4.69 0 2.38 0 0 Z " fill="#E94571" transform="translate(24,85)"/>
<path d="M0 0 C0.33 0.66 0.66 1.32 1 2 C3.25946584 2.35557331 5.4899777 2.44330506 7.7734375 2.55859375 C10.40992861 3.08126655 11.31415098 3.96066651 13 6 C10.69 6 8.38 6 6 6 C6 6.66 6 7.32 6 8 C8.97 8.495 8.97 8.495 12 9 C11.3125 10.9375 11.3125 10.9375 10 13 C7.375 13.75 7.375 13.75 5 14 C5 14.66 5 15.32 5 16 C2.03 15.01 -0.94 14.02 -4 13 C-4 12.01 -4 11.02 -4 10 C-5.65 10 -7.3 10 -9 10 C-7.61122646 6.64379729 -6.08322035 4.92701272 -3 3 C-2.34 3 -1.68 3 -1 3 C-0.67 2.01 -0.34 1.02 0 0 Z " fill="#EA535C" transform="translate(116,119)"/>
<path d="M0 0 C-2.52153557 2.52153557 -4.5994115 2.88708013 -8 4 C-10.36386347 5.06870466 -12.70931782 6.16791997 -15.046875 7.29296875 C-15.69140625 7.52628906 -16.3359375 7.75960938 -17 8 C-17.66 7.67 -18.32 7.34 -19 7 C-19 7.66 -19 8.32 -19 9 C-21.31 9.33 -23.62 9.66 -26 10 C-23 8 -23 8 -21 7 C-21.99 6.01 -22.98 5.02 -24 4 C-24 4.99 -24 5.98 -24 7 C-26.31 7.33 -28.62 7.66 -31 8 C-30.34 7.01 -29.68 6.02 -29 5 C-29.66 5 -30.32 5 -31 5 C-31.33 4.01 -31.66 3.02 -32 2 C-26.06407521 -3.93592479 -7.77367097 -1.80383525 0 0 Z " fill="#7921E1" transform="translate(89,18)"/>
<path d="M0 0 C0.763125 0.20625 1.52625 0.4125 2.3125 0.625 C2.3125 1.285 2.3125 1.945 2.3125 2.625 C2.9725 2.625 3.6325 2.625 4.3125 2.625 C3.06554528 6.36586417 1.11983432 7.88295253 -1.6875 10.625 C-3.04305293 12.27364545 -4.38381653 13.93503995 -5.6875 15.625 C-6.1825 15.295 -6.6775 14.965 -7.1875 14.625 C-10.86655148 13.15337941 -13.72351163 13.3733182 -17.6875 13.625 C-18.6775 14.285 -19.6675 14.945 -20.6875 15.625 C-20.16481534 12.86223823 -19.57880413 10.2989124 -18.6875 7.625 C-14.35354405 5.44906757 -9.54369484 4.15504566 -4.6875 4.625 C-4.3575 3.965 -4.0275 3.305 -3.6875 2.625 C-4.3475 2.295 -5.0075 1.965 -5.6875 1.625 C-2.6875 -0.375 -2.6875 -0.375 0 0 Z " fill="#E9428D" transform="translate(73.6875,74.375)"/>
<path d="M0 0 C0.78693051 9.98527382 0.78693051 9.98527382 -2.375 14.0625 C-3.24125 14.701875 -4.1075 15.34125 -5 16 C-5.66 16.66 -6.32 17.32 -7 18 C-7 18.99 -7 19.98 -7 21 C-8.98 21.66 -10.96 22.32 -13 23 C-13.05398987 20.72942623 -13.09278742 18.45848712 -13.125 16.1875 C-13.14820313 14.92292969 -13.17140625 13.65835938 -13.1953125 12.35546875 C-13 9 -13 9 -11 6 C-9.01679982 4.96708324 -7.01652194 3.9662501 -5 3 C-4.34 2.34 -3.68 1.68 -3 1 C-1 0 -1 0 0 0 Z " fill="#E75C34" transform="translate(24,116)"/>
<path d="M0 0 C2.02558881 3.34939881 2.21738987 5.86962551 2.125 9.75 C2.10695312 10.73484375 2.08890625 11.7196875 2.0703125 12.734375 C2.03550781 13.85585937 2.03550781 13.85585937 2 15 C1.34 14.67 0.68 14.34 0 14 C-0.99 14 -1.98 14 -3 14 C-3.99 14 -4.98 14 -6 14 C-6 13.67 -6 13.34 -6 13 C-8.97 15.475 -8.97 15.475 -12 18 C-12 13.05 -12 8.1 -12 3 C-8.18835225 1.09417612 -7.00506796 0.78920695 -3 1 C-2.34 1 -1.68 1 -1 1 C-0.67 0.67 -0.34 0.34 0 0 Z " fill="#E9388B" transform="translate(176,58)"/>
<path d="M0 0 C10.55808656 -0.18451025 10.55808656 -0.18451025 15 1 C13.32382616 2.92759992 12.40227852 3.90534623 9.875 4.5 C9.25625 4.665 8.6375 4.83 8 5 C7.67 5.99 7.34 6.98 7 8 C6.278125 7.814375 5.55625 7.62875 4.8125 7.4375 C1.87173027 6.98004693 -0.14103058 7.26483643 -3 8 C-3 8.66 -3 9.32 -3 10 C-6.65570943 11.05453157 -10.30920031 12.07730008 -14 13 C-14.99 13.33 -15.98 13.66 -17 14 C-18.89470816 14.0685495 -20.7916834 14.08480372 -22.6875 14.0625 C-23.68136719 14.05347656 -24.67523438 14.04445313 -25.69921875 14.03515625 C-26.83810547 14.01775391 -26.83810547 14.01775391 -28 14 C-27.67 13.01 -27.34 12.02 -27 11 C-22.04737303 9.40808419 -17.25534839 8.71621211 -12.078125 8.34375 C-8.87056711 7.81317651 -6.63221363 6.54501175 -4.1875 4.4375 C-1.22474713 2.49054811 1.5150317 2.33509311 5 2 C2.525 1.505 2.525 1.505 0 1 C0 0.67 0 0.34 0 0 Z " fill="#A32AD8" transform="translate(103,17)"/>
<path d="M0 0 C1.76462683 3.08809695 2 4.23312136 2 8 C2.30830925 10.00401011 2.63729412 12.00511766 3 14 C0.03 14 -2.94 14 -6 14 C-6.12375 13.195625 -6.2475 12.39125 -6.375 11.5625 C-6.58125 10.716875 -6.7875 9.87125 -7 9 C-7.66 8.67 -8.32 8.34 -9 8 C-8.67 9.32 -8.34 10.64 -8 12 C-8.99 12.33 -9.98 12.66 -11 13 C-11.309375 11.906875 -11.61875 10.81375 -11.9375 9.6875 C-12.58337897 7.44592006 -13.2623117 5.2130649 -14 3 C-13.34 3 -12.68 3 -12 3 C-11.67 2.34 -11.34 1.68 -11 1 C-7.318488 -0.05186057 -3.80944893 -0.08859184 0 0 Z " fill="#EE943D" transform="translate(131,171)"/>
<path d="M0 0 C1.84507765 2.36169939 2.1849025 4.0547395 2.5625 7 C2.8925 7.66 3.2225 8.32 3.5625 9 C2.44542386 12.72358715 1.8895336 13.7819776 -1.4375 16 C-4.125 16.125 -4.125 16.125 -6.4375 16 C-7.11278223 14.42032193 -7.77739694 12.83608097 -8.4375 11.25 C-8.80875 10.36828125 -9.18 9.4865625 -9.5625 8.578125 C-10.4375 6 -10.4375 6 -10.4375 2 C-3.32754719 -1.36514757 -3.32754719 -1.36514757 0 0 Z " fill="#E95C45" transform="translate(153.4375,166)"/>
<path d="M0 0 C3.63 0.33 7.26 0.66 11 1 C11.33 1.99 11.66 2.98 12 4 C12.66 4.33 13.32 4.66 14 5 C14 6.32 14 7.64 14 9 C13.0409375 9.2165625 13.0409375 9.2165625 12.0625 9.4375 C10.02454854 9.81007181 10.02454854 9.81007181 9 11 C10.32 11.33 11.64 11.66 13 12 C13 12.99 13 13.98 13 15 C12.01 15 11.02 15 10 15 C10 14.34 10 13.68 10 13 C7.36 13 4.72 13 2 13 C-0.57688169 8.57669127 -0.14796678 5.0308706 0 0 Z " fill="#EA544B" transform="translate(52,103)"/>
<path d="M0 0 C2.55977217 2.22588884 3.40088444 3.68182149 4 7 C4.06688591 8.91561254 4.08531719 10.83335592 4.0625 12.75 C4.05347656 13.73484375 4.04445312 14.7196875 4.03515625 15.734375 C4.02355469 16.48203125 4.01195312 17.2296875 4 18 C3.67 18 3.34 18 3 18 C2.67 16.68 2.34 15.36 2 14 C0.35 14.33 -1.3 14.66 -3 15 C-3 15.66 -3 16.32 -3 17 C-4.53125 18.2890625 -4.53125 18.2890625 -6.5 19.625 C-7.1496875 20.07101563 -7.799375 20.51703125 -8.46875 20.9765625 C-8.9740625 21.31429687 -9.479375 21.65203125 -10 22 C-10.63196126 13.78450363 -10.63196126 13.78450363 -8.1875 10.75 C-7.465625 10.1725 -6.74375 9.595 -6 9 C-4.96986723 7.35178756 -3.96885372 5.68496298 -3 4 C-2.01755155 2.65368175 -1.02323436 1.31558703 0 0 Z " fill="#E93874" transform="translate(175,70)"/>
<path d="M0 0 C-0.33 1.32 -0.66 2.64 -1 4 C0.98 3.34 2.96 2.68 5 2 C5 1.34 5 0.68 5 0 C5.99 0 6.98 0 8 0 C8 4.62 8 9.24 8 14 C6.68 14.33 5.36 14.66 4 15 C3.195625 14.34 2.39125 13.68 1.5625 13 C-0.83134089 10.66248672 -0.83134089 10.66248672 -3.8125 11.25 C-4.534375 11.4975 -5.25625 11.745 -6 12 C-6.48979592 4.65306122 -6.48979592 4.65306122 -4.125 1.5 C-2 0 -2 0 0 0 Z " fill="#E9387C" transform="translate(129,95)"/>
<path d="M0 0 C0.33 0 0.66 0 1 0 C1.58753596 12.41985737 1.77881553 26.20682553 -7 36 C-8.75042706 28.99829176 -8.43473292 22.76314699 -6 16 C-5.34 15.34 -4.68 14.68 -4 14 C-3.65846063 12.33499557 -3.32550502 10.66821323 -3 9 C-2.34 8.01 -1.68 7.02 -1 6 C-0.60986284 4.0103005 -0.26797351 2.00980131 0 0 Z " fill="#E84085" transform="translate(178,128)"/>
<path d="M0 0 C1.65 1.32 3.3 2.64 5 4 C5.66 3.67 6.32 3.34 7 3 C7 6.33333333 7 9.66666667 7 13 C7.66 13 8.32 13 9 13 C9.48792229 16.25281528 9.40014561 18.34713084 7.6640625 21.1796875 C6.15782398 23.1667909 4.61782175 25.1029114 3 27 C2.34 26.01 1.68 25.02 1 24 C1.66 22.68 2.32 21.36 3 20 C2.34 19.34 1.68 18.68 1 18 C1.66 18 2.32 18 3 18 C2.34 17.01 1.68 16.02 1 15 C0.855625 14.154375 0.71125 13.30875 0.5625 12.4375 C0.21178049 9.64573325 0.21178049 9.64573325 -3 8 C-2.01 5.36 -1.02 2.72 0 0 Z " fill="#E84B71" transform="translate(162,146)"/>
<path d="M0 0 C0.33 0 0.66 0 1 0 C1.33 8.25 1.66 16.5 2 25 C0.68 25.33 -0.64 25.66 -2 26 C-3.68711423 27.6459651 -5.3545622 29.31237149 -7 31 C-7.99 31.33 -8.98 31.66 -10 32 C-10.66 29.69 -11.32 27.38 -12 25 C-11.360625 24.731875 -10.72125 24.46375 -10.0625 24.1875 C-7.66868314 23.11332248 -7.66868314 23.11332248 -7 20 C-6.34 20 -5.68 20 -5 20 C-4.67 19.01 -4.34 18.02 -4 17 C-3.34 17 -2.68 17 -2 17 C-2 16.34 -2 15.68 -2 15 C-1.34 15 -0.68 15 0 15 C-0.17402344 14.45859375 -0.34804688 13.9171875 -0.52734375 13.359375 C-1.09766505 10.51248191 -0.87137301 8.13281478 -0.5625 5.25 C-0.46066406 4.26515625 -0.35882813 3.2803125 -0.25390625 2.265625 C-0.17011719 1.51796875 -0.08632813 0.7703125 0 0 Z " fill="#EC7E38" transform="translate(24,125)"/>
<path d="M0 0 C4.93626062 4.21388102 4.93626062 4.21388102 5.1875 7.3125 C3.41050732 11.33411501 0.75897543 14.59979481 -2 18 C-6.6302521 16.53781513 -6.6302521 16.53781513 -8.375 14 C-9 12 -9 12 -8 10 C-7.34 10 -6.68 10 -6 10 C-5.731875 9.401875 -5.46375 8.80375 -5.1875 8.1875 C-4.00691239 6.01273336 -2.73183488 4.73183488 -1 3 C-0.67 2.01 -0.34 1.02 0 0 Z " fill="#F0A541" transform="translate(29,155)"/>
<path d="M0 0 C1.32 0.66 2.64 1.32 4 2 C4 3.65 4 5.3 4 7 C1.0339853 7.85609898 -1.59393947 8.12199467 -4.67675781 8.11352539 C-5.59741028 8.11344986 -6.51806274 8.11337433 -7.46661377 8.11329651 C-8.45216248 8.10813522 -9.43771118 8.10297394 -10.453125 8.09765625 C-11.46848328 8.0962413 -12.48384155 8.09482635 -13.52996826 8.09336853 C-16.77000892 8.08777516 -20.00998025 8.07522385 -23.25 8.0625 C-25.44791567 8.05748414 -27.64583242 8.05292139 -29.84375 8.04882812 C-35.22919029 8.0378079 -40.61459019 8.02107633 -46 8 C-46 7.67 -46 7.34 -46 7 C-45.00371582 6.970271 -45.00371582 6.970271 -43.98730469 6.93994141 C-28.08099777 6.61476497 -28.08099777 6.61476497 -12.3671875 4.40234375 C-10 4 -10 4 -6.84375 4.06640625 C-3.84528664 4.2932958 -3.84528664 4.2932958 -1.625 2 C-1.08875 1.34 -0.5525 0.68 0 0 Z " fill="#CD3FD9" transform="translate(134,24)"/>
<path d="M0 0 C2.32039314 3.48058971 2 3.98142912 2 8 C-1.42857143 13.71428571 -1.42857143 13.71428571 -4 15 C-3.99476318 16.27117676 -3.98952637 17.54235352 -3.98413086 18.85205078 C-3.96598895 23.58202405 -3.95453441 28.31199426 -3.94506836 33.04199219 C-3.94004914 35.08659381 -3.93323238 37.13119186 -3.92456055 39.17578125 C-3.91238926 42.11980065 -3.90674748 45.06377247 -3.90234375 48.0078125 C-3.89718246 48.9174173 -3.89202118 49.82702209 -3.88670349 50.76419067 C-3.88630581 55.29451709 -4.073 59.54141867 -5 64 C-5.33 64 -5.66 64 -6 64 C-6.1268844 56.13477827 -6.21438779 48.26982095 -6.2746582 40.40380859 C-6.29696178 37.72819073 -6.333886 35.05391007 -6.37719727 32.37841797 C-6.4379198 28.53075234 -6.4662284 24.68399523 -6.48828125 20.8359375 C-6.51408768 19.64197357 -6.5398941 18.44800964 -6.56648254 17.21786499 C-6.56960577 7.9495364 -6.56960577 7.9495364 -3.53198242 4.32275391 C-2.69642822 3.55624512 -1.86087402 2.78973633 -1 2 C-0.67 1.34 -0.34 0.68 0 0 Z " fill="#EA447D" transform="translate(170,68)"/>
<path d="M0 0 C0.2978711 2.92906579 0.50159903 5.14352551 0 8 C-3.11867131 11.65112739 -4.90326448 12.86987884 -9.6875 13.4375 C-13 13 -13 13 -16 11 C-16 10.01 -16 9.02 -16 8 C-15.16855469 7.59007812 -14.33710938 7.18015625 -13.48046875 6.7578125 C-12.39378906 6.21898437 -11.30710938 5.68015625 -10.1875 5.125 C-9.10855469 4.59132813 -8.02960938 4.05765625 -6.91796875 3.5078125 C-0.12953368 0 -0.12953368 0 0 0 Z " fill="#E939B0" transform="translate(149,53)"/>
<path d="M0 0 C0.495 0.391875 0.99 0.78375 1.5 1.1875 C-3.51265823 6.61787975 -3.51265823 6.61787975 -7.5 7.1875 C-9.22082924 8.90832924 -10.27008306 11.10198866 -11.5 13.1875 C-12.82 12.5275 -14.14 11.8675 -15.5 11.1875 C-14.84 11.1875 -14.18 11.1875 -13.5 11.1875 C-13.83 10.5275 -14.16 9.8675 -14.5 9.1875 C-15.49 9.1875 -16.48 9.1875 -17.5 9.1875 C-18.625 7.4375 -18.625 7.4375 -19.5 5.1875 C-18.625 2.9375 -18.625 2.9375 -17.5 1.1875 C-17.5 1.8475 -17.5 2.5075 -17.5 3.1875 C-13.42040852 2.76254255 -10.09610092 2.10430358 -6.3125 0.5 C-2.81185481 -0.91385281 -2.81185481 -0.91385281 0 0 Z " fill="#852FF3" transform="translate(34.5,39.8125)"/>
<path d="M0 0 C0.99 0.33 1.98 0.66 3 1 C2.67 2.32 2.34 3.64 2 5 C5.79646191 5.19156526 5.79646191 5.19156526 8.5 4.25 C9.325 4.1675 10.15 4.085 11 4 C13.3125 5.9375 13.3125 5.9375 15 8 C13.68 9.32 12.36 10.64 11 12 C10.34 11.67 9.68 11.34 9 11 C7.515 13.475 7.515 13.475 6 16 C4.35 15.67 2.7 15.34 1 15 C1.66 14.01 2.32 13.02 3 12 C1.33075929 8.95865509 1.33075929 8.95865509 -1 8 C-1.125 2.25 -1.125 2.25 0 0 Z " fill="#D835C3" transform="translate(149,22)"/>
<path d="M0 0 C0 2.31 0 4.62 0 7 C-3.96 8.32 -7.92 9.64 -12 11 C-13 10 -13 10 -13.09765625 8.15234375 C-13.06510417 6.1015625 -13.03255208 4.05078125 -13 2 C-8.78419444 0.81957444 -4.38457241 0 0 0 Z " fill="#EA4B55" transform="translate(24,103)"/>
<path d="M0 0 C0.33 0 0.66 0 1 0 C1 1.65 1 3.3 1 5 C3.91517292 3.92598892 5.77810176 3.22189824 8 1 C11.465 2.485 11.465 2.485 15 4 C15 6.97 15 9.94 15 13 C14.67 12.01 14.34 11.02 14 10 C11.69 10.33 9.38 10.66 7 11 C7 10.34 7 9.68 7 9 C4.03 8.505 4.03 8.505 1 8 C0.67 9.32 0.34 10.64 0 12 C0 8.04 0 4.08 0 0 Z " fill="#DC45D5" transform="translate(10,72)"/>
<path d="M0 0 C0.33692785 1.60341555 0.66941093 3.20776555 1 4.8125 C1.185625 5.70582031 1.37125 6.59914062 1.5625 7.51953125 C2.22379234 11.26882263 1.79608093 14.31812571 1 18 C0.01 17.67 -0.98 17.34 -2 17 C-2 15.02 -2 13.04 -2 11 C-3.32 11 -4.64 11 -6 11 C-7.33521524 4.68807339 -7.33521524 4.68807339 -5.8125 1.5625 C-4 0 -4 0 0 0 Z " fill="#E85165" transform="translate(163,155)"/>
<path d="M0 0 C3.16115776 1.36983503 3.9927092 1.9890638 6 5 C4.88625 5.226875 3.7725 5.45375 2.625 5.6875 C-1.16038373 6.60623658 -1.16038373 6.60623658 -2.4375 9.625 C-2.7159375 10.800625 -2.7159375 10.800625 -3 12 C-3.66 12 -4.32 12 -5 12 C-5.33 12.99 -5.66 13.98 -6 15 C-7.98 12.69 -9.96 10.38 -12 8 C-10.68 8 -9.36 8 -8 8 C-7.34 6.35 -6.68 4.7 -6 3 C-5.01 3 -4.02 3 -3 3 C-1.31201173 1.56249809 -1.31201173 1.56249809 0 0 Z " fill="#DE3DBE" transform="translate(163,30)"/>
<path d="M0 0 C0.33 0 0.66 0 1 0 C1 13.2 1 26.4 1 40 C0.67 40 0.34 40 0 40 C0 29.77 0 19.54 0 9 C-1.32 9 -2.64 9 -4 9 C-4.33 10.32 -4.66 11.64 -5 13 C-7.31 13 -9.62 13 -12 13 C-12.33 16.63 -12.66 20.26 -13 24 C-13.33 24 -13.66 24 -14 24 C-14 19.38 -14 14.76 -14 10 C-3.375 7 -3.375 7 0 7 C0 4.69 0 2.38 0 0 Z " fill="#EB5D81" transform="translate(24,85)"/>
<path d="M0 0 C0.83108276 0.09849243 0.83108276 0.09849243 1.67895508 0.19897461 C11.65635592 1.2482638 21.66570716 1.34592249 31.6875 1.5625 C33.56446097 1.60578082 35.44141422 1.64939784 37.31835938 1.69335938 C41.87882646 1.79945023 46.43937398 1.90098746 51 2 C51 2.33 51 2.66 51 3 C50.14881592 3.01981934 49.29763184 3.03963867 48.4206543 3.06005859 C45.20916976 3.1389777 41.99800853 3.22568955 38.78686523 3.31738281 C37.40706245 3.35525157 36.02717498 3.3901708 34.6472168 3.421875 C26.2474191 3.61714818 18.21058083 4.16053593 10 6 C9.67 4.68 9.34 3.36 9 2 C6.03 1.67 3.06 1.34 0 1 C0 0.67 0 0.34 0 0 Z " fill="#F6D061" transform="translate(48,169)"/>
<path d="M0 0 C0 2.64 0 5.28 0 8 C-1.051875 7.608125 -2.10375 7.21625 -3.1875 6.8125 C-6.92664224 5.60589668 -6.92664224 5.60589668 -9.8125 7.375 C-10.534375 7.91125 -11.25625 8.4475 -12 9 C-12.66 9 -13.32 9 -14 9 C-14.125 6.625 -14.125 6.625 -14 4 C-11.48637826 1.48637826 -9.90797944 1.44511787 -6.4375 0.875 C-4.95056641 0.62363281 -4.95056641 0.62363281 -3.43359375 0.3671875 C-1 0 -1 0 0 0 Z " fill="#D03DE0" transform="translate(25,68)"/>
<path d="M0 0 C2.8203125 0.2421875 2.8203125 0.2421875 6.125 0.875 C7.22070312 1.07867187 8.31640625 1.28234375 9.4453125 1.4921875 C10.28835937 1.65976563 11.13140625 1.82734375 12 2 C12 2.99 12 3.98 12 5 C10.23050388 5.50471197 8.45934777 6.00360685 6.6875 6.5 C5.20830078 6.91765625 5.20830078 6.91765625 3.69921875 7.34375 C1 8 1 8 -2 8 C-2.125 5.125 -2.125 5.125 -2 2 C-1.34 1.34 -0.68 0.68 0 0 Z " fill="#E8459E" transform="translate(12,87)"/>
<path d="M0 0 C5.841744 -0.35050464 9.8531808 -0.16727335 15 3 C13.125 7.875 13.125 7.875 12 9 C9.66055264 8.71269945 7.3260857 8.38063221 5 8 C4.67 6.35 4.34 4.7 4 3 C2.68 2.67 1.36 2.34 0 2 C0 1.34 0 0.68 0 0 Z " fill="#E9455E" transform="translate(117,119)"/>
<path d="M0 0 C1.77503906 0.03480469 1.77503906 0.03480469 3.5859375 0.0703125 C5.36871094 0.09738281 5.36871094 0.09738281 7.1875 0.125 C8.10273437 0.14820312 9.01796875 0.17140625 9.9609375 0.1953125 C9.3009375 1.8453125 8.6409375 3.4953125 7.9609375 5.1953125 C7.6309375 4.2053125 7.3009375 3.2153125 6.9609375 2.1953125 C6.3009375 2.1953125 5.6409375 2.1953125 4.9609375 2.1953125 C4.9609375 2.8553125 4.9609375 3.5153125 4.9609375 4.1953125 C4.3009375 4.1953125 3.6409375 4.1953125 2.9609375 4.1953125 C2.9609375 5.1853125 2.9609375 6.1753125 2.9609375 7.1953125 C0.6509375 7.5253125 -1.6590625 7.8553125 -4.0390625 8.1953125 C-3.3790625 7.2053125 -2.7190625 6.2153125 -2.0390625 5.1953125 C-2.6990625 5.1953125 -3.3590625 5.1953125 -4.0390625 5.1953125 C-4.3690625 4.2053125 -4.6990625 3.2153125 -5.0390625 2.1953125 C-3.0390625 0.1953125 -3.0390625 0.1953125 0 0 Z " fill="#6D1DEB" transform="translate(62.0390625,17.8046875)"/>
<path d="M0 0 C0.33 0 0.66 0 1 0 C1.5155634 10.89843744 0.9198235 20.68542795 -3 31 C-3.66 31.33 -4.32 31.66 -5 32 C-5.33 29.03 -5.66 26.06 -6 23 C-5.34 23 -4.68 23 -4 23 C-0.96846681 15.35526412 -0.3376774 8.185766 0 0 Z " fill="#EB5397" transform="translate(178,128)"/>
<path d="M0 0 C0.66 0.33 1.32 0.66 2 1 C0.18690997 4.77727089 -1.9073259 8.37269822 -4 12 C-4.66 12 -5.32 12 -6 12 C-6 11.34 -6 10.68 -6 10 C-6.66 10 -7.32 10 -8 10 C-8 10.66 -8 11.32 -8 12 C-9.65 12.66 -11.3 13.32 -13 14 C-9.66258296 8.19579645 -5.09057916 4.28565853 0 0 Z " fill="#EA46A7" transform="translate(71,64)"/>
<path d="M0 0 C0.33 0.66 0.66 1.32 1 2 C1.66 2.33 2.32 2.66 3 3 C2.01 3 1.02 3 0 3 C1.29467677 5.05990478 1.29467677 5.05990478 3 7 C3.99 7 4.98 7 6 7 C6.66 8.65 7.32 10.3 8 12 C6.54176788 12.0270043 5.08339325 12.04639787 3.625 12.0625 C2.81289063 12.07410156 2.00078125 12.08570313 1.1640625 12.09765625 C-1 12 -1 12 -3 11 C-2.01 7.37 -1.02 3.74 0 0 Z " fill="#9741F4" transform="translate(15,42)"/>
<path d="M0 0 C0.99 0.33 1.98 0.66 3 1 C3 1.66 3 2.32 3 3 C5.97 3 8.94 3 12 3 C12 3.33 12 3.66 12 4 C-3.84 4 -19.68 4 -36 4 C-36 3.67 -36 3.34 -36 3 C-24.12 2.67 -12.24 2.34 0 2 C0 1.34 0 0.68 0 0 Z " fill="#F7D962" transform="translate(87,182)"/>
<path d="M0 0 C0.66 0.33 1.32 0.66 2 1 C1.34 1.66 0.68 2.32 0 3 C-0.99 4.485 -0.99 4.485 -2 6 C-1.34 6 -0.68 6 0 6 C3 11.75 3 11.75 3 14 C3.99 14.33 4.98 14.66 6 15 C5 16 5 16 2.4375 16.0625 C1.633125 16.041875 0.82875 16.02125 0 16 C-0.67528223 14.42032193 -1.33989694 12.83608097 -2 11.25 C-2.37125 10.36828125 -2.7425 9.4865625 -3.125 8.578125 C-4 6 -4 6 -4 2 C-2.125 0.9375 -2.125 0.9375 0 0 Z " fill="#EA6A47" transform="translate(147,166)"/>
<path d="M0 0 C4.29 0.33 8.58 0.66 13 1 C13 2.32 13 3.64 13 5 C10.03 5.66 7.06 6.32 4 7 C3.67 6.01 3.34 5.02 3 4 C2.34 3.67 1.68 3.34 1 3 C1 3.66 1 4.32 1 5 C0.34 5 -0.32 5 -1 5 C-0.67 3.35 -0.34 1.7 0 0 Z " fill="#B939EF" transform="translate(12,61)"/>
<path d="M0 0 C-0.33 0.66 -0.66 1.32 -1 2 C-3.94921875 2.34375 -3.94921875 2.34375 -7.6875 2.5 C-12.53470075 2.70473921 -16.44210576 3.34501058 -21 5 C-21.66 5 -22.32 5 -23 5 C-23.33 6.32 -23.66 7.64 -24 9 C-24.99 8.34 -25.98 7.68 -27 7 C-27 5.68 -27 4.36 -27 3 C-18.10574499 0.73874873 -9.17629789 -0.10195887 0 0 Z " fill="#F2AB62" transform="translate(140,169)"/>
<path d="M0 0 C1.88856668 2.83285002 3.50546052 5.6948727 5.125 8.6875 C5.66382812 9.68136719 6.20265625 10.67523438 6.7578125 11.69921875 C7.16773437 12.45847656 7.57765625 13.21773437 8 14 C5.03 13.505 5.03 13.505 2 13 C2.33 11.68 2.66 10.36 3 9 C0.34771188 7.92474806 -2.28368454 6.90543849 -5 6 C-4.67 5.34 -4.34 4.68 -4 4 C-3.01 4 -2.02 4 -1 4 C-1.33 3.34 -1.66 2.68 -2 2 C-1.34 2 -0.68 2 0 2 C0 1.34 0 0.68 0 0 Z " fill="#EB5F55" transform="translate(66,108)"/>
<path d="M0 0 C1.65 0.33 3.3 0.66 5 1 C5 6.28 5 11.56 5 17 C4.67 17 4.34 17 4 17 C4 12.38 4 7.76 4 3 C3.01 3 2.02 3 1 3 C1 3.66 1 4.32 1 5 C-0.98 5.66 -2.96 6.32 -5 7 C-3.72431911 4.15425032 -2.58503711 1.81910019 0 0 Z " fill="#EA4A8D" transform="translate(133,92)"/>
<path d="M0 0 C0 2.97 0 5.94 0 9 C-0.33 8.01 -0.66 7.02 -1 6 C-3.31 6.33 -5.62 6.66 -8 7 C-8 6.34 -8 5.68 -8 5 C-9.32 4.67 -10.64 4.34 -12 4 C-11.443125 3.896875 -10.88625 3.79375 -10.3125 3.6875 C-7.86382567 3.06678342 -7.86382567 3.06678342 -5.4375 1.4375 C-3 0 -3 0 0 0 Z " fill="#DE49CA" transform="translate(25,76)"/>
<path d="M0 0 C0.66 0 1.32 0 2 0 C1.67 1.65 1.34 3.3 1 5 C-2.03164585 6.01054862 -3.51750751 6.0265912 -6.625 5.6875 C-7.42164063 5.60886719 -8.21828125 5.53023437 -9.0390625 5.44921875 C-10.00972656 5.22685547 -10.00972656 5.22685547 -11 5 C-11.33 4.34 -11.66 3.68 -12 3 C-8.14762249 1.18711647 -5.22840198 0.90389996 -1 1 C-0.67 0.67 -0.34 0.34 0 0 Z " fill="#AB35F3" transform="translate(24,57)"/>
<path d="M0 0 C5.875 0.875 5.875 0.875 7 2 C8.99958364 2.04080783 11.00045254 2.04254356 13 2 C13 2.99 13 3.98 13 5 C9.7 5.33 6.4 5.66 3 6 C3 5.34 3 4.68 3 4 C2.01 4 1.02 4 0 4 C0 2.68 0 1.36 0 0 Z " fill="#E33EBD" transform="translate(11,80)"/>
<path d="M0 0 C0.99 0.33 1.98 0.66 3 1 C2.67 2.32 2.34 3.64 2 5 C2.66 5 3.32 5 4 5 C6 8 6 8 5.625 10.6875 C5.41875 11.450625 5.2125 12.21375 5 13 C4.566875 12.54625 4.13375 12.0925 3.6875 11.625 C1.89201658 9.79975666 1.89201658 9.79975666 -1 8 C-1.25660094 4.92078868 -1.39431504 2.78863007 0 0 Z " fill="#D22FC9" transform="translate(149,22)"/>
<path d="M0 0 C4.77576339 0.4682121 8.04476345 1.24331998 12 4 C8.375 7 8.375 7 5 7 C5 6.34 5 5.68 5 5 C4.01 4.67 3.02 4.34 2 4 C0.8125 1.9375 0.8125 1.9375 0 0 Z " fill="#EC734E" transform="translate(101,136)"/>
<path d="M0 0 C0.99 0.33 1.98 0.66 3 1 C3.33 1.99 3.66 2.98 4 4 C1.36 4.66 -1.28 5.32 -4 6 C-4 6.66 -4 7.32 -4 8 C-5.8125 9.0625 -5.8125 9.0625 -8 10 C-8.99 9.67 -9.98 9.34 -11 9 C-9 7 -9 7 -7 6 C-7 5.34 -7 4.68 -7 4 C-3.535 3.505 -3.535 3.505 0 3 C0 2.01 0 1.02 0 0 Z " fill="#7F28EA" transform="translate(65,22)"/>
<path d="M0 0 C0.66 1.32 1.32 2.64 2 4 C4.55742677 7.49963663 7.92372608 8.00015923 12 9 C11.67 9.66 11.34 10.32 11 11 C7.7 10.34 4.4 9.68 1 9 C1 10.65 1 12.3 1 14 C0.67 14 0.34 14 0 14 C0 9.38 0 4.76 0 0 Z " fill="#EB5B65" transform="translate(51,94)"/>
<path d="M0 0 C1.32 0.33 2.64 0.66 4 1 C4 1.99 4 2.98 4 4 C2.58461283 4.33872513 1.16762037 4.67074624 -0.25 5 C-1.03890625 5.185625 -1.8278125 5.37125 -2.640625 5.5625 C-5 6 -5 6 -9 6 C-8.67 5.01 -8.34 4.02 -8 3 C-6.0625 2.25 -6.0625 2.25 -4 2 C-3.34 2.33 -2.68 2.66 -2 3 C-1.34 2.01 -0.68 1.02 0 0 Z " fill="#E84661" transform="translate(20,99)"/>
<path d="M0 0 C2.72923388 -0.0270817 5.45819637 -0.04687847 8.1875 -0.0625 C8.95642578 -0.07087891 9.72535156 -0.07925781 10.51757812 -0.08789062 C14.48526789 -0.10491934 18.12571234 0.01395885 22 1 C21.34 2.32 20.68 3.64 20 5 C18.0625 4.625 18.0625 4.625 16 4 C15.67 3.34 15.34 2.68 15 2 C12.45058627 1.68758629 9.99638487 1.48696579 7.4375 1.375 C6.72658203 1.33632813 6.01566406 1.29765625 5.28320312 1.2578125 C3.52257575 1.16328217 1.76132272 1.08054183 0 1 C0 0.67 0 0.34 0 0 Z " fill="#EB4FBE" transform="translate(85,58)"/>
<path d="M0 0 C3 1 3 1 5 4 C3.68 4 2.36 4 1 4 C0.67 4.99 0.34 5.98 0 7 C-2.31 7 -4.62 7 -7 7 C-6.67 6.01 -6.34 5.02 -6 4 C-2.9375 2.8125 -2.9375 2.8125 0 2 C0 1.34 0 0.68 0 0 Z M4 1 C7 2 7 2 7 2 Z " fill="#932ADD" transform="translate(75,24)"/>
<path d="M0 0 C1.32 0 2.64 0 4 0 C4.103125 0.5775 4.20625 1.155 4.3125 1.75 C4.87507258 4.09150505 4.87507258 4.09150505 6.5625 5.9375 C8.3264151 8.46833471 8.25163514 9.98037834 8 13 C7.01 12.67 6.02 12.34 5 12 C5 10.02 5 8.04 5 6 C3.68 6 2.36 6 1 6 C0.67 4.02 0.34 2.04 0 0 Z " fill="#E84A57" transform="translate(156,160)"/>
<path d="M0 0 C4.75 0.75 4.75 0.75 7 3 C5.68 3 4.36 3 3 3 C3 3.66 3 4.32 3 5 C0.69 5 -1.62 5 -4 5 C-2.68 3.35 -1.36 1.7 0 0 Z " fill="#E94275" transform="translate(56,87)"/>
<path d="M0 0 C2.97 0.99 5.94 1.98 9 3 C9 3.33 9 3.66 9 4 C4.05 4 -0.9 4 -6 4 C-6 3.67 -6 3.34 -6 3 C-4.35 3 -2.7 3 -1 3 C-0.67 2.01 -0.34 1.02 0 0 Z " fill="#EF9256" transform="translate(92,141)"/>
<path d="M0 0 C0.99 0 1.98 0 3 0 C3 0.99 3 1.98 3 3 C-1.29 3.99 -5.58 4.98 -10 6 C-10 5.34 -10 4.68 -10 4 C-6.7 3.34 -3.4 2.68 0 2 C0 1.34 0 0.68 0 0 Z " fill="#E8428F" transform="translate(21,89)"/>
<path d="M0 0 C3.37503669 1.1858237 5.64722731 2.27573689 8 5 C5.525 6.485 5.525 6.485 3 8 C3 7.34 3 6.68 3 6 C2.34 6 1.68 6 1 6 C1.33 4.68 1.66 3.36 2 2 C1.34 2 0.68 2 0 2 C0 1.34 0 0.68 0 0 Z " fill="#D342CE" transform="translate(150,21)"/>
<path d="M0 0 C2.31 0 4.62 0 7 0 C7 0.99 7 1.98 7 3 C5.02 3.99 3.04 4.98 1 6 C0 3 0 3 0 0 Z " fill="#873BF4" transform="translate(35,34)"/>
<path d="M0 0 C1.670625 0.061875 1.670625 0.061875 3.375 0.125 C3.705 1.775 4.035 3.425 4.375 5.125 C1.075 4.135 -2.225 3.145 -5.625 2.125 C-3.625 0.125 -3.625 0.125 0 0 Z " fill="#EF934F" transform="translate(80.625,138.875)"/>
<path d="M0 0 C0.99 0 1.98 0 3 0 C2.4140625 6.15234375 2.4140625 6.15234375 2 8 C1.01 8.495 1.01 8.495 0 9 C-0.99 8.34 -1.98 7.68 -3 7 C-1.68 7 -0.36 7 1 7 C1 6.34 1 5.68 1 5 C0.01 5 -0.98 5 -2 5 C-2 4.34 -2 3.68 -2 3 C-0.68 3 0.64 3 2 3 C2 2.34 2 1.68 2 1 C1.34 0.67 0.68 0.34 0 0 Z " fill="#EB5778" transform="translate(132,114)"/>
<path d="M0 0 C2.0625 0.4375 2.0625 0.4375 4 1 C3.625 3.9375 3.625 3.9375 3 7 C2.01 7.495 2.01 7.495 1 8 C1 6.35 1 4.7 1 3 C0.34 3.99 -0.32 4.98 -1 6 C-1.042721 4.33388095 -1.04063832 2.66617115 -1 1 C-0.67 0.67 -0.34 0.34 0 0 Z " fill="#E53868" transform="translate(165,136)"/>
<path d="M0 0 C-0.33 1.98 -0.66 3.96 -1 6 C-2.98 5.01 -4.96 4.02 -7 3 C-2.5 0 -2.5 0 0 0 Z " fill="#E94783" transform="translate(70,84)"/>
<path d="M0 0 C2.31 0 4.62 0 7 0 C7.33 0.66 7.66 1.32 8 2 C6.68 2.99 5.36 3.98 4 5 C2.68 3.35 1.36 1.7 0 0 Z " fill="#E145C4" transform="translate(151,38)"/>
<path d="M0 0 C1.32 0.99 2.64 1.98 4 3 C0.7 3.66 -2.6 4.32 -6 5 C-6 4.01 -6 3.02 -6 2 C-3.25 0.8125 -3.25 0.8125 0 0 Z " fill="#812EF3" transform="translate(50,30)"/>
<path d="M0 0 C1.32 0 2.64 0 4 0 C4.33 1.32 4.66 2.64 5 4 C2.03 4 -0.94 4 -4 4 C-2.68 3.34 -1.36 2.68 0 2 C0 1.34 0 0.68 0 0 Z " fill="#8D30E8" transform="translate(61,28)"/>
<path d="M0 0 C0.99 0.33 1.98 0.66 3 1 C2.67 2.98 2.34 4.96 2 7 C0.35 6.67 -1.3 6.34 -3 6 C-3 5.01 -3 4.02 -3 3 C-2.01 3 -1.02 3 0 3 C0 2.01 0 1.02 0 0 Z " fill="#EC7651" transform="translate(76,124)"/>
<path d="M0 0 C0.66 0.33 1.32 0.66 2 1 C0.95125002 3.62187494 0.35068687 4.79371361 -2.125 6.25 C-2.74375 6.4975 -3.3625 6.745 -4 7 C-4.66 6.34 -5.32 5.68 -6 5 C-4.02 3.35 -2.04 1.7 0 0 Z " fill="#EB50B4" transform="translate(71,64)"/>
<path d="M0 0 C1.65 0.33 3.3 0.66 5 1 C4.34 2.65 3.68 4.3 3 6 C1.68 5.34 0.36 4.68 -1 4 C-0.67 2.68 -0.34 1.36 0 0 Z " fill="#933AF4" transform="translate(25,46)"/>
<path d="M0 0 C2.52588702 2.36292656 3.88820837 3.66462511 5 7 C2.03 6.505 2.03 6.505 -1 6 C-0.67 4.02 -0.34 2.04 0 0 Z " fill="#EC6F5A" transform="translate(69,115)"/>
<path d="M0 0 C0.66 0.33 1.32 0.66 2 1 C-0.97 3.475 -0.97 3.475 -4 6 C-4 5.34 -4 4.68 -4 4 C-4.66 3.67 -5.32 3.34 -6 3 C-4.03533587 1.93224776 -2.03144641 0.93446535 0 0 Z " fill="#ED5FBE" transform="translate(79,60)"/>
<path d="M0 0 C1.32 0.33 2.64 0.66 4 1 C3.34 4.3 2.68 7.6 2 11 C1.67 11 1.34 11 1 11 C0.67 7.37 0.34 3.74 0 0 Z " fill="#EA4EA9" transform="translate(162,54)"/>
<path d="M0 0 C0.99 0.33 1.98 0.66 3 1 C3.6875 3.0625 3.6875 3.0625 4 5 C2.68 5.33 1.36 5.66 0 6 C0 4.02 0 2.04 0 0 Z " fill="#F0A244" transform="translate(122,179)"/>
<path d="M0 0 C0.33 1.32 0.66 2.64 1 4 C-0.8125 5.0625 -0.8125 5.0625 -3 6 C-3.99 5.67 -4.98 5.34 -6 5 C-4.02 3.35 -2.04 1.7 0 0 Z " fill="#EB6B66" transform="translate(155,160)"/>
<path d="M0 0 C1.32 0 2.64 0 4 0 C4.33 1.32 4.66 2.64 5 4 C3.35 4.33 1.7 4.66 0 5 C0 3.35 0 1.7 0 0 Z " fill="#E849B7" transform="translate(10,84)"/>
<path d="M0 0 C0.66 0 1.32 0 2 0 C2.33 0.99 2.66 1.98 3 3 C2.01 3 1.02 3 0 3 C0 3.66 0 4.32 0 5 C-1.32 5.33 -2.64 5.66 -4 6 C-3.34 4.68 -2.68 3.36 -2 2 C-1.34 2 -0.68 2 0 2 C0 1.34 0 0.68 0 0 Z " fill="#B637D7" transform="translate(100,25)"/>
</svg>
