<svg xmlns="http://www.w3.org/2000/svg" xmlns:xlink="http://www.w3.org/1999/xlink" width="600" zoomAndPan="magnify" viewBox="0 0 450 449.999984" height="600" preserveAspectRatio="xMidYMid meet" version="1.0"><defs><clipPath id="874586e236"><path d="M 103.117188 104.183594 L 164.003906 104.183594 L 164.003906 165.070312 L 103.117188 165.070312 Z M 103.117188 104.183594 " clip-rule="nonzero"/></clipPath><clipPath id="9287026a2e"><path d="M 133.558594 104.183594 C 116.746094 104.183594 103.117188 117.8125 103.117188 134.625 C 103.117188 151.441406 116.746094 165.070312 133.558594 165.070312 C 150.375 165.070312 164.003906 151.441406 164.003906 134.625 C 164.003906 117.8125 150.375 104.183594 133.558594 104.183594 Z M 133.558594 104.183594 " clip-rule="nonzero"/></clipPath><clipPath id="eda3a49531"><path d="M 0.117188 0.183594 L 61.003906 0.183594 L 61.003906 61.070312 L 0.117188 61.070312 Z M 0.117188 0.183594 " clip-rule="nonzero"/></clipPath><clipPath id="d4e80c35f6"><path d="M 30.558594 0.183594 C 13.746094 0.183594 0.117188 13.8125 0.117188 30.625 C 0.117188 47.441406 13.746094 61.070312 30.558594 61.070312 C 47.375 61.070312 61.003906 47.441406 61.003906 30.625 C 61.003906 13.8125 47.375 0.183594 30.558594 0.183594 Z M 30.558594 0.183594 " clip-rule="nonzero"/></clipPath><clipPath id="cd4ae8f2f6"><rect x="0" width="62" y="0" height="62"/></clipPath><clipPath id="26ea7103bc"><path d="M 103.117188 299.59375 L 164.003906 299.59375 L 164.003906 360.484375 L 103.117188 360.484375 Z M 103.117188 299.59375 " clip-rule="nonzero"/></clipPath><clipPath id="9857f1c0a1"><path d="M 133.558594 299.59375 C 116.746094 299.59375 103.117188 313.226562 103.117188 330.039062 C 103.117188 346.851562 116.746094 360.484375 133.558594 360.484375 C 150.375 360.484375 164.003906 346.851562 164.003906 330.039062 C 164.003906 313.226562 150.375 299.59375 133.558594 299.59375 Z M 133.558594 299.59375 " clip-rule="nonzero"/></clipPath><clipPath id="6847526a71"><path d="M 0.117188 0.59375 L 61.003906 0.59375 L 61.003906 61.484375 L 0.117188 61.484375 Z M 0.117188 0.59375 " clip-rule="nonzero"/></clipPath><clipPath id="136a494ca4"><path d="M 30.558594 0.59375 C 13.746094 0.59375 0.117188 14.226562 0.117188 31.039062 C 0.117188 47.851562 13.746094 61.484375 30.558594 61.484375 C 47.375 61.484375 61.003906 47.851562 61.003906 31.039062 C 61.003906 14.226562 47.375 0.59375 30.558594 0.59375 Z M 30.558594 0.59375 " clip-rule="nonzero"/></clipPath><clipPath id="3c0516c632"><rect x="0" width="62" y="0" height="62"/></clipPath><clipPath id="ab987af4c0"><path d="M 281.46875 299.59375 L 342.355469 299.59375 L 342.355469 360.484375 L 281.46875 360.484375 Z M 281.46875 299.59375 " clip-rule="nonzero"/></clipPath><clipPath id="a2c030f03f"><path d="M 311.910156 299.59375 C 295.097656 299.59375 281.46875 313.226562 281.46875 330.039062 C 281.46875 346.851562 295.097656 360.484375 311.910156 360.484375 C 328.726562 360.484375 342.355469 346.851562 342.355469 330.039062 C 342.355469 313.226562 328.726562 299.59375 311.910156 299.59375 Z M 311.910156 299.59375 " clip-rule="nonzero"/></clipPath><clipPath id="4395f2709e"><path d="M 0.46875 0.59375 L 61.355469 0.59375 L 61.355469 61.484375 L 0.46875 61.484375 Z M 0.46875 0.59375 " clip-rule="nonzero"/></clipPath><clipPath id="63ee0a8d94"><path d="M 30.910156 0.59375 C 14.097656 0.59375 0.46875 14.226562 0.46875 31.039062 C 0.46875 47.851562 14.097656 61.484375 30.910156 61.484375 C 47.726562 61.484375 61.355469 47.851562 61.355469 31.039062 C 61.355469 14.226562 47.726562 0.59375 30.910156 0.59375 Z M 30.910156 0.59375 " clip-rule="nonzero"/></clipPath><clipPath id="9ad02719fd"><rect x="0" width="62" y="0" height="62"/></clipPath><clipPath id="0ff409471f"><path d="M 281.46875 104.183594 L 342.355469 104.183594 L 342.355469 165.070312 L 281.46875 165.070312 Z M 281.46875 104.183594 " clip-rule="nonzero"/></clipPath><clipPath id="818c61bbe6"><path d="M 311.910156 104.183594 C 295.097656 104.183594 281.46875 117.8125 281.46875 134.625 C 281.46875 151.441406 295.097656 165.070312 311.910156 165.070312 C 328.726562 165.070312 342.355469 151.441406 342.355469 134.625 C 342.355469 117.8125 328.726562 104.183594 311.910156 104.183594 Z M 311.910156 104.183594 " clip-rule="nonzero"/></clipPath><clipPath id="0a85ee6984"><path d="M 0.46875 0.183594 L 61.355469 0.183594 L 61.355469 61.070312 L 0.46875 61.070312 Z M 0.46875 0.183594 " clip-rule="nonzero"/></clipPath><clipPath id="c0309a2936"><path d="M 30.910156 0.183594 C 14.097656 0.183594 0.46875 13.8125 0.46875 30.625 C 0.46875 47.441406 14.097656 61.070312 30.910156 61.070312 C 47.726562 61.070312 61.355469 47.441406 61.355469 30.625 C 61.355469 13.8125 47.726562 0.183594 30.910156 0.183594 Z M 30.910156 0.183594 " clip-rule="nonzero"/></clipPath><clipPath id="af2d872d67"><rect x="0" width="62" y="0" height="62"/></clipPath></defs><path stroke-linecap="butt" transform="matrix(0.75, 0, 0, 0.75, 45.000005, 223.499983)" fill="none" stroke-linejoin="miter" d="M -0.00000619333 2.000023 L 480.000031 2.000023 " stroke="#000000" stroke-width="4" stroke-opacity="1" stroke-miterlimit="4"/><path stroke-linecap="butt" transform="matrix(0, 0.75, -0.75, 0, 226.499991, 44.999996)" fill="none" stroke-linejoin="miter" d="M 0.00000467333 1.999987 L 480.000042 1.999987 " stroke="#000000" stroke-width="4" stroke-opacity="1" stroke-miterlimit="4"/><g clip-path="url(#874586e236)"><g clip-path="url(#9287026a2e)"><g transform="matrix(1, 0, 0, 1, 103, 104)"><g clip-path="url(#cd4ae8f2f6)"><g clip-path="url(#eda3a49531)"><g clip-path="url(#d4e80c35f6)"><path fill="#2d4d31" d="M 0.117188 0.183594 L 61.003906 0.183594 L 61.003906 61.070312 L 0.117188 61.070312 Z M 0.117188 0.183594 " fill-opacity="1" fill-rule="nonzero"/></g></g></g></g></g></g><g clip-path="url(#26ea7103bc)"><g clip-path="url(#9857f1c0a1)"><g transform="matrix(1, 0, 0, 1, 103, 299)"><g clip-path="url(#3c0516c632)"><g clip-path="url(#6847526a71)"><g clip-path="url(#136a494ca4)"><path fill="#2d4d31" d="M 0.117188 0.59375 L 61.003906 0.59375 L 61.003906 61.484375 L 0.117188 61.484375 Z M 0.117188 0.59375 " fill-opacity="1" fill-rule="nonzero"/></g></g></g></g></g></g><g clip-path="url(#ab987af4c0)"><g clip-path="url(#a2c030f03f)"><g transform="matrix(1, 0, 0, 1, 281, 299)"><g clip-path="url(#9ad02719fd)"><g clip-path="url(#4395f2709e)"><g clip-path="url(#63ee0a8d94)"><path fill="#2d4d31" d="M 0.46875 0.59375 L 61.355469 0.59375 L 61.355469 61.484375 L 0.46875 61.484375 Z M 0.46875 0.59375 " fill-opacity="1" fill-rule="nonzero"/></g></g></g></g></g></g><g clip-path="url(#0ff409471f)"><g clip-path="url(#818c61bbe6)"><g transform="matrix(1, 0, 0, 1, 281, 104)"><g clip-path="url(#af2d872d67)"><g clip-path="url(#0a85ee6984)"><g clip-path="url(#c0309a2936)"><path fill="#2d4d31" d="M 0.46875 0.183594 L 61.355469 0.183594 L 61.355469 61.070312 L 0.46875 61.070312 Z M 0.46875 0.183594 " fill-opacity="1" fill-rule="nonzero"/></g></g></g></g></g></g></svg>