<svg xmlns="http://www.w3.org/2000/svg" xmlns:xlink="http://www.w3.org/1999/xlink" width="600" zoomAndPan="magnify" viewBox="0 0 450 449.999984" height="600" preserveAspectRatio="xMidYMid meet" version="1.0"><defs><clipPath id="2242af44de"><path d="M 45 45 L 405 45 L 405 405 L 45 405 Z M 45 45 " clip-rule="nonzero"/></clipPath><clipPath id="1c0247343d"><path d="M 225 45 L 405 225 L 225 405 L 45 225 Z M 225 45 " clip-rule="nonzero"/></clipPath><clipPath id="54af8874b4"><path d="M 0 0 L 360 0 L 360 360 L 0 360 Z M 0 0 " clip-rule="nonzero"/></clipPath><clipPath id="87936d2269"><path d="M 180 0 L 360 180 L 180 360 L 0 180 Z M 180 0 " clip-rule="nonzero"/></clipPath><clipPath id="f73d999025"><rect x="0" width="360" y="0" height="360"/></clipPath></defs><g clip-path="url(#2242af44de)"><g clip-path="url(#1c0247343d)"><g transform="matrix(1, 0, 0, 1, 45, 45)"><g clip-path="url(#f73d999025)"><g clip-path="url(#54af8874b4)"><g clip-path="url(#87936d2269)"><rect x="-144" width="648" fill="#ffffff" height="647.999977" y="-143.999996" fill-opacity="1"/></g></g></g></g><path stroke-linecap="butt" transform="matrix(0.75, 0, 0, 0.75, 45.000005, 44.999996)" fill="none" stroke-linejoin="miter" d="M 239.999997 0.00000467333 L 480 240.000008 L 239.999997 480.000011 L -0.00000619333 240.000008 Z M 239.999997 0.00000467333 " stroke="#000000" stroke-width="8" stroke-opacity="1" stroke-miterlimit="4"/></g></g><path stroke-linecap="butt" transform="matrix(0.53033, 0.53033, -0.53033, 0.53033, 47.120227, 45.002692)" fill="none" stroke-linejoin="miter" d="M -0.00172046 2.000114 L 678.82084 2.000114 " stroke="#000000" stroke-width="4" stroke-opacity="1" stroke-miterlimit="4"/><path stroke-linecap="butt" transform="matrix(0.53033, -0.53033, 0.53033, 0.53033, 46.059566, 406.057936)" fill="none" stroke-linejoin="miter" d="M 0.00214627 1.999489 L 678.824706 1.999489 " stroke="#000000" stroke-width="4" stroke-opacity="1" stroke-miterlimit="4"/></svg>