<svg xmlns="http://www.w3.org/2000/svg" xmlns:xlink="http://www.w3.org/1999/xlink" width="600" zoomAndPan="magnify" viewBox="0 0 450 449.999984" height="600" preserveAspectRatio="xMidYMid meet" version="1.0"><defs><clipPath id="15dacd63ce"><path d="M 45 45 L 405 45 L 405 405 L 45 405 Z M 45 45 " clip-rule="nonzero"/></clipPath><clipPath id="10cfe12a3e"><path d="M 225 45 L 405 225 L 225 405 L 45 225 Z M 225 45 " clip-rule="nonzero"/></clipPath><clipPath id="499b853dfe"><path d="M 0 0 L 360 0 L 360 360 L 0 360 Z M 0 0 " clip-rule="nonzero"/></clipPath><clipPath id="06fe8c9fe7"><path d="M 180 0 L 360 180 L 180 360 L 0 180 Z M 180 0 " clip-rule="nonzero"/></clipPath><clipPath id="4c4778f696"><rect x="0" width="360" y="0" height="360"/></clipPath><clipPath id="cc63feaf5c"><path d="M 66.0625 72.460938 L 126.953125 72.460938 L 126.953125 133.351562 L 66.0625 133.351562 Z M 66.0625 72.460938 " clip-rule="nonzero"/></clipPath><clipPath id="9f65456612"><path d="M 96.507812 72.460938 C 79.695312 72.460938 66.0625 86.09375 66.0625 102.90625 C 66.0625 119.71875 79.695312 133.351562 96.507812 133.351562 C 113.320312 133.351562 126.953125 119.71875 126.953125 102.90625 C 126.953125 86.09375 113.320312 72.460938 96.507812 72.460938 Z M 96.507812 72.460938 " clip-rule="nonzero"/></clipPath><clipPath id="d4cd1c8298"><path d="M 0.0625 0.460938 L 60.953125 0.460938 L 60.953125 61.351562 L 0.0625 61.351562 Z M 0.0625 0.460938 " clip-rule="nonzero"/></clipPath><clipPath id="3638445263"><path d="M 30.507812 0.460938 C 13.695312 0.460938 0.0625 14.09375 0.0625 30.90625 C 0.0625 47.71875 13.695312 61.351562 30.507812 61.351562 C 47.320312 61.351562 60.953125 47.71875 60.953125 30.90625 C 60.953125 14.09375 47.320312 0.460938 30.507812 0.460938 Z M 30.507812 0.460938 " clip-rule="nonzero"/></clipPath><clipPath id="a9e9f564e2"><rect x="0" width="61" y="0" height="62"/></clipPath><clipPath id="f52ac2230a"><path d="M 66.0625 326.523438 L 126.953125 326.523438 L 126.953125 387.414062 L 66.0625 387.414062 Z M 66.0625 326.523438 " clip-rule="nonzero"/></clipPath><clipPath id="b6010e4ca2"><path d="M 96.507812 326.523438 C 79.695312 326.523438 66.0625 340.152344 66.0625 356.96875 C 66.0625 373.78125 79.695312 387.414062 96.507812 387.414062 C 113.320312 387.414062 126.953125 373.78125 126.953125 356.96875 C 126.953125 340.152344 113.320312 326.523438 96.507812 326.523438 Z M 96.507812 326.523438 " clip-rule="nonzero"/></clipPath><clipPath id="637b8f9803"><path d="M 0.0625 0.523438 L 60.953125 0.523438 L 60.953125 61.414062 L 0.0625 61.414062 Z M 0.0625 0.523438 " clip-rule="nonzero"/></clipPath><clipPath id="51efbbe153"><path d="M 30.507812 0.523438 C 13.695312 0.523438 0.0625 14.152344 0.0625 30.96875 C 0.0625 47.78125 13.695312 61.414062 30.507812 61.414062 C 47.320312 61.414062 60.953125 47.78125 60.953125 30.96875 C 60.953125 14.152344 47.320312 0.523438 30.507812 0.523438 Z M 30.507812 0.523438 " clip-rule="nonzero"/></clipPath><clipPath id="230e495dc3"><rect x="0" width="61" y="0" height="62"/></clipPath><clipPath id="93e90da987"><path d="M 322.257812 326.523438 L 383.148438 326.523438 L 383.148438 387.414062 L 322.257812 387.414062 Z M 322.257812 326.523438 " clip-rule="nonzero"/></clipPath><clipPath id="e306c55291"><path d="M 352.703125 326.523438 C 335.886719 326.523438 322.257812 340.152344 322.257812 356.96875 C 322.257812 373.78125 335.886719 387.414062 352.703125 387.414062 C 369.515625 387.414062 383.148438 373.78125 383.148438 356.96875 C 383.148438 340.152344 369.515625 326.523438 352.703125 326.523438 Z M 352.703125 326.523438 " clip-rule="nonzero"/></clipPath><clipPath id="a59bf10f1b"><path d="M 0.257812 0.523438 L 61.148438 0.523438 L 61.148438 61.414062 L 0.257812 61.414062 Z M 0.257812 0.523438 " clip-rule="nonzero"/></clipPath><clipPath id="8ae01f28de"><path d="M 30.703125 0.523438 C 13.886719 0.523438 0.257812 14.152344 0.257812 30.96875 C 0.257812 47.78125 13.886719 61.414062 30.703125 61.414062 C 47.515625 61.414062 61.148438 47.78125 61.148438 30.96875 C 61.148438 14.152344 47.515625 0.523438 30.703125 0.523438 Z M 30.703125 0.523438 " clip-rule="nonzero"/></clipPath><clipPath id="b1da1c8896"><rect x="0" width="62" y="0" height="62"/></clipPath><clipPath id="67512093fd"><path d="M 322.257812 72.460938 L 383.148438 72.460938 L 383.148438 133.351562 L 322.257812 133.351562 Z M 322.257812 72.460938 " clip-rule="nonzero"/></clipPath><clipPath id="d74a3201cb"><path d="M 352.703125 72.460938 C 335.886719 72.460938 322.257812 86.09375 322.257812 102.90625 C 322.257812 119.71875 335.886719 133.351562 352.703125 133.351562 C 369.515625 133.351562 383.148438 119.71875 383.148438 102.90625 C 383.148438 86.09375 369.515625 72.460938 352.703125 72.460938 Z M 352.703125 72.460938 " clip-rule="nonzero"/></clipPath><clipPath id="b8742c0fa0"><path d="M 0.257812 0.460938 L 61.148438 0.460938 L 61.148438 61.351562 L 0.257812 61.351562 Z M 0.257812 0.460938 " clip-rule="nonzero"/></clipPath><clipPath id="d781f87e72"><path d="M 30.703125 0.460938 C 13.886719 0.460938 0.257812 14.09375 0.257812 30.90625 C 0.257812 47.71875 13.886719 61.351562 30.703125 61.351562 C 47.515625 61.351562 61.148438 47.71875 61.148438 30.90625 C 61.148438 14.09375 47.515625 0.460938 30.703125 0.460938 Z M 30.703125 0.460938 " clip-rule="nonzero"/></clipPath><clipPath id="a732055fb6"><rect x="0" width="62" y="0" height="62"/></clipPath><clipPath id="54370c7ba1"><path d="M 78.0625 84.460938 L 138.953125 84.460938 L 138.953125 145.351562 L 78.0625 145.351562 Z M 78.0625 84.460938 " clip-rule="nonzero"/></clipPath><clipPath id="aba552043f"><path d="M 108.507812 84.460938 C 91.695312 84.460938 78.0625 98.09375 78.0625 114.90625 C 78.0625 131.71875 91.695312 145.351562 108.507812 145.351562 C 125.320312 145.351562 138.953125 131.71875 138.953125 114.90625 C 138.953125 98.09375 125.320312 84.460938 108.507812 84.460938 Z M 108.507812 84.460938 " clip-rule="nonzero"/></clipPath><clipPath id="9978b35162"><path d="M 0.0625 0.460938 L 60.953125 0.460938 L 60.953125 61.351562 L 0.0625 61.351562 Z M 0.0625 0.460938 " clip-rule="nonzero"/></clipPath><clipPath id="775a66237f"><path d="M 30.507812 0.460938 C 13.695312 0.460938 0.0625 14.09375 0.0625 30.90625 C 0.0625 47.71875 13.695312 61.351562 30.507812 61.351562 C 47.320312 61.351562 60.953125 47.71875 60.953125 30.90625 C 60.953125 14.09375 47.320312 0.460938 30.507812 0.460938 Z M 30.507812 0.460938 " clip-rule="nonzero"/></clipPath><clipPath id="75097f801d"><rect x="0" width="61" y="0" height="62"/></clipPath></defs><g clip-path="url(#15dacd63ce)"><g clip-path="url(#10cfe12a3e)"><g transform="matrix(1, 0, 0, 1, 45, 45)"><g clip-path="url(#4c4778f696)"><g clip-path="url(#499b853dfe)"><g clip-path="url(#06fe8c9fe7)"><rect x="-144" width="648" fill="#ffffff" height="647.999977" y="-143.999996" fill-opacity="1"/></g></g></g></g><path stroke-linecap="butt" transform="matrix(0.75, 0, 0, 0.75, 45.000005, 44.999996)" fill="none" stroke-linejoin="miter" d="M 239.999997 0.00000467333 L 480 240.000008 L 239.999997 480.000011 L -0.00000619333 240.000008 Z M 239.999997 0.00000467333 " stroke="#000000" stroke-width="8" stroke-opacity="1" stroke-miterlimit="4"/></g></g><g clip-path="url(#cc63feaf5c)"><g clip-path="url(#9f65456612)"><g transform="matrix(1, 0, 0, 1, 66, 72)"><g clip-path="url(#a9e9f564e2)"><g clip-path="url(#d4cd1c8298)"><g clip-path="url(#3638445263)"><path fill="#2d4d31" d="M 0.0625 0.460938 L 60.953125 0.460938 L 60.953125 61.351562 L 0.0625 61.351562 Z M 0.0625 0.460938 " fill-opacity="1" fill-rule="nonzero"/></g></g></g></g></g></g><g clip-path="url(#f52ac2230a)"><g clip-path="url(#b6010e4ca2)"><g transform="matrix(1, 0, 0, 1, 66, 326)"><g clip-path="url(#230e495dc3)"><g clip-path="url(#637b8f9803)"><g clip-path="url(#51efbbe153)"><path fill="#2d4d31" d="M 0.0625 0.523438 L 60.953125 0.523438 L 60.953125 61.414062 L 0.0625 61.414062 Z M 0.0625 0.523438 " fill-opacity="1" fill-rule="nonzero"/></g></g></g></g></g></g><g clip-path="url(#93e90da987)"><g clip-path="url(#e306c55291)"><g transform="matrix(1, 0, 0, 1, 322, 326)"><g clip-path="url(#b1da1c8896)"><g clip-path="url(#a59bf10f1b)"><g clip-path="url(#8ae01f28de)"><path fill="#2d4d31" d="M 0.257812 0.523438 L 61.148438 0.523438 L 61.148438 61.414062 L 0.257812 61.414062 Z M 0.257812 0.523438 " fill-opacity="1" fill-rule="nonzero"/></g></g></g></g></g></g><g clip-path="url(#67512093fd)"><g clip-path="url(#d74a3201cb)"><g transform="matrix(1, 0, 0, 1, 322, 72)"><g clip-path="url(#a732055fb6)"><g clip-path="url(#b8742c0fa0)"><g clip-path="url(#d781f87e72)"><path fill="#2d4d31" d="M 0.257812 0.460938 L 61.148438 0.460938 L 61.148438 61.351562 L 0.257812 61.351562 Z M 0.257812 0.460938 " fill-opacity="1" fill-rule="nonzero"/></g></g></g></g></g></g><g clip-path="url(#54370c7ba1)"><g clip-path="url(#aba552043f)"><g transform="matrix(1, 0, 0, 1, 78, 84)"><g clip-path="url(#75097f801d)"><g clip-path="url(#9978b35162)"><g clip-path="url(#775a66237f)"><path fill="#2d4d31" d="M 0.0625 0.460938 L 60.953125 0.460938 L 60.953125 61.351562 L 0.0625 61.351562 Z M 0.0625 0.460938 " fill-opacity="1" fill-rule="nonzero"/></g></g></g></g></g></g></svg>