<svg xmlns="http://www.w3.org/2000/svg" xmlns:xlink="http://www.w3.org/1999/xlink" width="600" zoomAndPan="magnify" viewBox="0 0 450 449.999984" height="600" preserveAspectRatio="xMidYMid meet" version="1.0"><defs><clipPath id="d5290f6d60"><path d="M 45 191.25 L 405 191.25 L 405 258.75 L 45 258.75 Z M 45 191.25 " clip-rule="nonzero"/></clipPath><clipPath id="862e385b4e"><path d="M 78.75 191.25 L 371.25 191.25 C 389.890625 191.25 405 206.359375 405 225 C 405 243.640625 389.890625 258.75 371.25 258.75 L 78.75 258.75 C 60.109375 258.75 45 243.640625 45 225 C 45 206.359375 60.109375 191.25 78.75 191.25 Z M 78.75 191.25 " clip-rule="nonzero"/></clipPath><clipPath id="32361c5ec9"><path d="M 0 0.25 L 360 0.25 L 360 67.75 L 0 67.75 Z M 0 0.25 " clip-rule="nonzero"/></clipPath><clipPath id="66f5f50f1d"><path d="M 33.75 0.25 L 326.25 0.25 C 344.890625 0.25 360 15.359375 360 34 C 360 52.640625 344.890625 67.75 326.25 67.75 L 33.75 67.75 C 15.109375 67.75 0 52.640625 0 34 C 0 15.359375 15.109375 0.25 33.75 0.25 Z M 33.75 0.25 " clip-rule="nonzero"/></clipPath><clipPath id="f553c1c7a6"><rect x="0" width="360" y="0" height="68"/></clipPath><clipPath id="bdb018cd7f"><path d="M 191.25 45 L 258.75 45 L 258.75 405 L 191.25 405 Z M 191.25 45 " clip-rule="nonzero"/></clipPath><clipPath id="8d0c7a8a99"><path d="M 191.25 371.25 L 191.25 78.75 C 191.25 60.109375 206.359375 45 225 45 C 243.640625 45 258.75 60.109375 258.75 78.75 L 258.75 371.25 C 258.75 389.890625 243.640625 405 225 405 C 206.359375 405 191.25 389.890625 191.25 371.25 Z M 191.25 371.25 " clip-rule="nonzero"/></clipPath><clipPath id="19bf313d31"><path d="M 0.25 0 L 67.75 0 L 67.75 360 L 0.25 360 Z M 0.25 0 " clip-rule="nonzero"/></clipPath><clipPath id="2e171244db"><path d="M 0.25 326.25 L 0.25 33.75 C 0.25 15.109375 15.359375 0 34 0 C 52.640625 0 67.75 15.109375 67.75 33.75 L 67.75 326.25 C 67.75 344.890625 52.640625 360 34 360 C 15.359375 360 0.25 344.890625 0.25 326.25 Z M 0.25 326.25 " clip-rule="nonzero"/></clipPath><clipPath id="289145c7b5"><rect x="0" width="68" y="0" height="360"/></clipPath><clipPath id="a871f04ef4"><path d="M 191.25 191.25 L 258.75 191.25 L 258.75 258.75 L 191.25 258.75 Z M 191.25 191.25 " clip-rule="nonzero"/></clipPath><clipPath id="2a563df7cd"><path d="M 0.25 0.25 L 67.75 0.25 L 67.75 67.75 L 0.25 67.75 Z M 0.25 0.25 " clip-rule="nonzero"/></clipPath><clipPath id="cd1ed65faa"><rect x="0" width="68" y="0" height="68"/></clipPath></defs><g clip-path="url(#d5290f6d60)"><g clip-path="url(#862e385b4e)"><g transform="matrix(1, 0, 0, 1, 45, 191)"><g clip-path="url(#f553c1c7a6)"><g clip-path="url(#32361c5ec9)"><g clip-path="url(#66f5f50f1d)"><path fill="#ffffff" d="M 0 0.25 L 359.910156 0.25 L 359.910156 67.75 L 0 67.75 Z M 0 0.25 " fill-opacity="1" fill-rule="nonzero"/></g></g></g></g><path stroke-linecap="butt" transform="matrix(0.75, 0, 0, 0.75, 45.000005, 191.249985)" fill="none" stroke-linejoin="miter" d="M 44.999997 0.0000198617 L 435.000028 0.0000198617 C 459.854196 0.0000198617 480.000031 20.145855 480.000031 45.000023 C 480.000031 69.854192 459.854196 90.000027 435.000028 90.000027 L 44.999997 90.000027 C 20.145829 90.000027 -0.00000619333 69.854192 -0.00000619333 45.000023 C -0.00000619333 20.145855 20.145829 0.0000198617 44.999997 0.0000198617 Z M 44.999997 0.0000198617 " stroke="#000000" stroke-width="8" stroke-opacity="1" stroke-miterlimit="4"/></g></g><g clip-path="url(#bdb018cd7f)"><g clip-path="url(#8d0c7a8a99)"><g transform="matrix(1, 0, 0, 1, 191, 45)"><g clip-path="url(#289145c7b5)"><g clip-path="url(#19bf313d31)"><g clip-path="url(#2e171244db)"><path fill="#ffffff" d="M 0.25 360 L 0.25 0.0859375 L 67.75 0.0859375 L 67.75 360 Z M 0.25 360 " fill-opacity="1" fill-rule="nonzero"/></g></g></g></g><path stroke-linecap="butt" transform="matrix(0, -0.75, 0.75, 0, 191.249993, 404.999968)" fill="none" stroke-linejoin="miter" d="M 44.999961 0.000008995 L 434.999992 0.000008995 C 459.85416 0.000008995 479.999995 20.145844 479.999995 45.000013 C 479.999995 69.854181 459.85416 90.000016 434.999992 90.000016 L 44.999961 90.000016 C 20.145793 90.000016 -0.00004206 69.854181 -0.00004206 45.000013 C -0.00004206 20.145844 20.145793 0.000008995 44.999961 0.000008995 Z M 44.999961 0.000008995 " stroke="#000000" stroke-width="8" stroke-opacity="1" stroke-miterlimit="4"/></g></g><g clip-path="url(#a871f04ef4)"><g transform="matrix(1, 0, 0, 1, 191, 191)"><g clip-path="url(#cd1ed65faa)"><g clip-path="url(#2a563df7cd)"><path fill="#f3f4f6" d="M 0.25 0.25 L 67.75 0.25 L 67.75 67.75 L 0.25 67.75 Z M 0.25 0.25 " fill-opacity="1" fill-rule="nonzero"/></g></g></g><path stroke-linecap="butt" transform="matrix(0.75, 0, 0, 0.75, 191.249993, 191.249985)" fill="none" stroke-linejoin="miter" d="M 0.000008995 0.0000198617 L 90.000016 0.0000198617 L 90.000016 90.000027 L 0.000008995 90.000027 Z M 0.000008995 0.0000198617 " stroke="#000000" stroke-width="8" stroke-opacity="1" stroke-miterlimit="4"/></g><path stroke-linecap="butt" transform="matrix(0.53033, 0.53033, -0.53033, 0.53033, 45.529238, 43.411638)" fill="none" stroke-linejoin="miter" d="M 0.000499526 2.000175 L 678.82306 2.000175 " stroke="#000000" stroke-width="4" stroke-opacity="1" stroke-miterlimit="4"/><path stroke-linecap="butt" transform="matrix(0.53033, -0.53033, 0.53033, 0.53033, 44.468577, 404.467)" fill="none" stroke-linejoin="miter" d="M -0.0014868 1.997916 L 678.821073 1.997916 " stroke="#000000" stroke-width="4" stroke-opacity="1" stroke-miterlimit="4"/></svg>