<svg xmlns="http://www.w3.org/2000/svg" xmlns:xlink="http://www.w3.org/1999/xlink" width="600" zoomAndPan="magnify" viewBox="0 0 450 449.999984" height="600" preserveAspectRatio="xMidYMid meet" version="1.0"><defs><clipPath id="4a603368a8"><path d="M 45 191.25 L 405 191.25 L 405 258.75 L 45 258.75 Z M 45 191.25 " clip-rule="nonzero"/></clipPath><clipPath id="9416cdb13d"><path d="M 78.75 191.25 L 371.25 191.25 C 389.890625 191.25 405 206.359375 405 225 C 405 243.640625 389.890625 258.75 371.25 258.75 L 78.75 258.75 C 60.109375 258.75 45 243.640625 45 225 C 45 206.359375 60.109375 191.25 78.75 191.25 Z M 78.75 191.25 " clip-rule="nonzero"/></clipPath><clipPath id="1e58dc8576"><path d="M 0 0.25 L 360 0.25 L 360 67.75 L 0 67.75 Z M 0 0.25 " clip-rule="nonzero"/></clipPath><clipPath id="f29d5074fa"><path d="M 33.75 0.25 L 326.25 0.25 C 344.890625 0.25 360 15.359375 360 34 C 360 52.640625 344.890625 67.75 326.25 67.75 L 33.75 67.75 C 15.109375 67.75 0 52.640625 0 34 C 0 15.359375 15.109375 0.25 33.75 0.25 Z M 33.75 0.25 " clip-rule="nonzero"/></clipPath><clipPath id="5e9347b737"><rect x="0" width="360" y="0" height="68"/></clipPath><clipPath id="7cc9ced4f3"><path d="M 191.25 45 L 258.75 45 L 258.75 405 L 191.25 405 Z M 191.25 45 " clip-rule="nonzero"/></clipPath><clipPath id="d61438626e"><path d="M 191.25 371.25 L 191.25 78.75 C 191.25 60.109375 206.359375 45 225 45 C 243.640625 45 258.75 60.109375 258.75 78.75 L 258.75 371.25 C 258.75 389.890625 243.640625 405 225 405 C 206.359375 405 191.25 389.890625 191.25 371.25 Z M 191.25 371.25 " clip-rule="nonzero"/></clipPath><clipPath id="5e51f0724d"><path d="M 0.25 0 L 67.75 0 L 67.75 360 L 0.25 360 Z M 0.25 0 " clip-rule="nonzero"/></clipPath><clipPath id="c8dd5f075d"><path d="M 0.25 326.25 L 0.25 33.75 C 0.25 15.109375 15.359375 0 34 0 C 52.640625 0 67.75 15.109375 67.75 33.75 L 67.75 326.25 C 67.75 344.890625 52.640625 360 34 360 C 15.359375 360 0.25 344.890625 0.25 326.25 Z M 0.25 326.25 " clip-rule="nonzero"/></clipPath><clipPath id="bbb2643a8b"><rect x="0" width="68" y="0" height="360"/></clipPath><clipPath id="d18f055e14"><path d="M 191.25 191.25 L 258.75 191.25 L 258.75 258.75 L 191.25 258.75 Z M 191.25 191.25 " clip-rule="nonzero"/></clipPath><clipPath id="7c43160c99"><path d="M 0.25 0.25 L 67.75 0.25 L 67.75 67.75 L 0.25 67.75 Z M 0.25 0.25 " clip-rule="nonzero"/></clipPath><clipPath id="bd05c4afd0"><rect x="0" width="68" y="0" height="68"/></clipPath><clipPath id="fcb279223f"><path d="M 194.554688 97.527344 L 255.445312 97.527344 L 255.445312 158.417969 L 194.554688 158.417969 Z M 194.554688 97.527344 " clip-rule="nonzero"/></clipPath><clipPath id="20bb3be2e0"><path d="M 225 97.527344 C 208.1875 97.527344 194.554688 111.160156 194.554688 127.972656 C 194.554688 144.785156 208.1875 158.417969 225 158.417969 C 241.8125 158.417969 255.445312 144.785156 255.445312 127.972656 C 255.445312 111.160156 241.8125 97.527344 225 97.527344 Z M 225 97.527344 " clip-rule="nonzero"/></clipPath><clipPath id="48af09b46b"><path d="M 0.554688 0.527344 L 61.445312 0.527344 L 61.445312 61.417969 L 0.554688 61.417969 Z M 0.554688 0.527344 " clip-rule="nonzero"/></clipPath><clipPath id="7ca0e1b43b"><path d="M 31 0.527344 C 14.1875 0.527344 0.554688 14.160156 0.554688 30.972656 C 0.554688 47.785156 14.1875 61.417969 31 61.417969 C 47.8125 61.417969 61.445312 47.785156 61.445312 30.972656 C 61.445312 14.160156 47.8125 0.527344 31 0.527344 Z M 31 0.527344 " clip-rule="nonzero"/></clipPath><clipPath id="daa4127bb6"><rect x="0" width="62" y="0" height="62"/></clipPath><clipPath id="33ce07c6da"><path d="M 194.554688 299.339844 L 255.445312 299.339844 L 255.445312 360.226562 L 194.554688 360.226562 Z M 194.554688 299.339844 " clip-rule="nonzero"/></clipPath><clipPath id="1d397d8a0e"><path d="M 225 299.339844 C 208.1875 299.339844 194.554688 312.96875 194.554688 329.78125 C 194.554688 346.597656 208.1875 360.226562 225 360.226562 C 241.8125 360.226562 255.445312 346.597656 255.445312 329.78125 C 255.445312 312.96875 241.8125 299.339844 225 299.339844 Z M 225 299.339844 " clip-rule="nonzero"/></clipPath><clipPath id="1146376850"><path d="M 0.554688 0.339844 L 61.445312 0.339844 L 61.445312 61.226562 L 0.554688 61.226562 Z M 0.554688 0.339844 " clip-rule="nonzero"/></clipPath><clipPath id="d139d122c0"><path d="M 31 0.339844 C 14.1875 0.339844 0.554688 13.96875 0.554688 30.78125 C 0.554688 47.597656 14.1875 61.226562 31 61.226562 C 47.8125 61.226562 61.445312 47.597656 61.445312 30.78125 C 61.445312 13.96875 47.8125 0.339844 31 0.339844 Z M 31 0.339844 " clip-rule="nonzero"/></clipPath><clipPath id="f1779ed754"><rect x="0" width="62" y="0" height="62"/></clipPath></defs><g clip-path="url(#4a603368a8)"><g clip-path="url(#9416cdb13d)"><g transform="matrix(1, 0, 0, 1, 45, 191)"><g clip-path="url(#5e9347b737)"><g clip-path="url(#1e58dc8576)"><g clip-path="url(#f29d5074fa)"><path fill="#ffffff" d="M 0 0.25 L 359.910156 0.25 L 359.910156 67.75 L 0 67.75 Z M 0 0.25 " fill-opacity="1" fill-rule="nonzero"/></g></g></g></g><path stroke-linecap="butt" transform="matrix(0.75, 0, 0, 0.75, 45.000005, 191.249985)" fill="none" stroke-linejoin="miter" d="M 44.999997 0.0000198617 L 435.000028 0.0000198617 C 459.854196 0.0000198617 480.000031 20.145855 480.000031 45.000023 C 480.000031 69.854192 459.854196 90.000027 435.000028 90.000027 L 44.999997 90.000027 C 20.145829 90.000027 -0.00000619333 69.854192 -0.00000619333 45.000023 C -0.00000619333 20.145855 20.145829 0.0000198617 44.999997 0.0000198617 Z M 44.999997 0.0000198617 " stroke="#000000" stroke-width="8" stroke-opacity="1" stroke-miterlimit="4"/></g></g><g clip-path="url(#7cc9ced4f3)"><g clip-path="url(#d61438626e)"><g transform="matrix(1, 0, 0, 1, 191, 45)"><g clip-path="url(#bbb2643a8b)"><g clip-path="url(#5e51f0724d)"><g clip-path="url(#c8dd5f075d)"><path fill="#ffffff" d="M 0.25 360 L 0.25 0.0859375 L 67.75 0.0859375 L 67.75 360 Z M 0.25 360 " fill-opacity="1" fill-rule="nonzero"/></g></g></g></g><path stroke-linecap="butt" transform="matrix(0, -0.75, 0.75, 0, 191.249993, 404.999968)" fill="none" stroke-linejoin="miter" d="M 44.999961 0.000008995 L 434.999992 0.000008995 C 459.85416 0.000008995 479.999995 20.145844 479.999995 45.000013 C 479.999995 69.854181 459.85416 90.000016 434.999992 90.000016 L 44.999961 90.000016 C 20.145793 90.000016 -0.00004206 69.854181 -0.00004206 45.000013 C -0.00004206 20.145844 20.145793 0.000008995 44.999961 0.000008995 Z M 44.999961 0.000008995 " stroke="#000000" stroke-width="8" stroke-opacity="1" stroke-miterlimit="4"/></g></g><g clip-path="url(#d18f055e14)"><g transform="matrix(1, 0, 0, 1, 191, 191)"><g clip-path="url(#bd05c4afd0)"><g clip-path="url(#7c43160c99)"><path fill="#f3f4f6" d="M 0.25 0.25 L 67.75 0.25 L 67.75 67.75 L 0.25 67.75 Z M 0.25 0.25 " fill-opacity="1" fill-rule="nonzero"/></g></g></g><path stroke-linecap="butt" transform="matrix(0.75, 0, 0, 0.75, 191.249993, 191.249985)" fill="none" stroke-linejoin="miter" d="M 0.000008995 0.0000198617 L 90.000016 0.0000198617 L 90.000016 90.000027 L 0.000008995 90.000027 Z M 0.000008995 0.0000198617 " stroke="#000000" stroke-width="8" stroke-opacity="1" stroke-miterlimit="4"/></g><g clip-path="url(#fcb279223f)"><g clip-path="url(#20bb3be2e0)"><g transform="matrix(1, 0, 0, 1, 194, 97)"><g clip-path="url(#daa4127bb6)"><g clip-path="url(#48af09b46b)"><g clip-path="url(#7ca0e1b43b)"><path fill="#2d4d31" d="M 0.554688 0.527344 L 61.445312 0.527344 L 61.445312 61.417969 L 0.554688 61.417969 Z M 0.554688 0.527344 " fill-opacity="1" fill-rule="nonzero"/></g></g></g></g></g></g><g clip-path="url(#33ce07c6da)"><g clip-path="url(#1d397d8a0e)"><g transform="matrix(1, 0, 0, 1, 194, 299)"><g clip-path="url(#f1779ed754)"><g clip-path="url(#1146376850)"><g clip-path="url(#d139d122c0)"><path fill="#2d4d31" d="M 0.554688 0.339844 L 61.445312 0.339844 L 61.445312 61.226562 L 0.554688 61.226562 Z M 0.554688 0.339844 " fill-opacity="1" fill-rule="nonzero"/></g></g></g></g></g></g></svg>