<svg xmlns="http://www.w3.org/2000/svg" xmlns:xlink="http://www.w3.org/1999/xlink" width="600" zoomAndPan="magnify" viewBox="0 0 450 449.999984" height="600" preserveAspectRatio="xMidYMid meet" version="1.0"><defs><clipPath id="f2c01b2b2c"><path d="M 45 191.25 L 405 191.25 L 405 258.75 L 45 258.75 Z M 45 191.25 " clip-rule="nonzero"/></clipPath><clipPath id="afe888589d"><path d="M 78.75 191.25 L 371.25 191.25 C 389.890625 191.25 405 206.359375 405 225 C 405 243.640625 389.890625 258.75 371.25 258.75 L 78.75 258.75 C 60.109375 258.75 45 243.640625 45 225 C 45 206.359375 60.109375 191.25 78.75 191.25 Z M 78.75 191.25 " clip-rule="nonzero"/></clipPath><clipPath id="24f0b467a0"><path d="M 0 0.25 L 360 0.25 L 360 67.75 L 0 67.75 Z M 0 0.25 " clip-rule="nonzero"/></clipPath><clipPath id="71a5e58a1b"><path d="M 33.75 0.25 L 326.25 0.25 C 344.890625 0.25 360 15.359375 360 34 C 360 52.640625 344.890625 67.75 326.25 67.75 L 33.75 67.75 C 15.109375 67.75 0 52.640625 0 34 C 0 15.359375 15.109375 0.25 33.75 0.25 Z M 33.75 0.25 " clip-rule="nonzero"/></clipPath><clipPath id="149cf1fe02"><rect x="0" width="360" y="0" height="68"/></clipPath><clipPath id="82d9fa0e0d"><path d="M 191.25 45 L 258.75 45 L 258.75 405 L 191.25 405 Z M 191.25 45 " clip-rule="nonzero"/></clipPath><clipPath id="7c0a5b43aa"><path d="M 191.25 371.25 L 191.25 78.75 C 191.25 60.109375 206.359375 45 225 45 C 243.640625 45 258.75 60.109375 258.75 78.75 L 258.75 371.25 C 258.75 389.890625 243.640625 405 225 405 C 206.359375 405 191.25 389.890625 191.25 371.25 Z M 191.25 371.25 " clip-rule="nonzero"/></clipPath><clipPath id="7befbc00ec"><path d="M 0.25 0 L 67.75 0 L 67.75 360 L 0.25 360 Z M 0.25 0 " clip-rule="nonzero"/></clipPath><clipPath id="9b92e003ad"><path d="M 0.25 326.25 L 0.25 33.75 C 0.25 15.109375 15.359375 0 34 0 C 52.640625 0 67.75 15.109375 67.75 33.75 L 67.75 326.25 C 67.75 344.890625 52.640625 360 34 360 C 15.359375 360 0.25 344.890625 0.25 326.25 Z M 0.25 326.25 " clip-rule="nonzero"/></clipPath><clipPath id="8d3b67bb67"><rect x="0" width="68" y="0" height="360"/></clipPath><clipPath id="93ae3df765"><path d="M 191.25 191.25 L 258.75 191.25 L 258.75 258.75 L 191.25 258.75 Z M 191.25 191.25 " clip-rule="nonzero"/></clipPath><clipPath id="8278492730"><path d="M 0.25 0.25 L 67.75 0.25 L 67.75 67.75 L 0.25 67.75 Z M 0.25 0.25 " clip-rule="nonzero"/></clipPath><clipPath id="ce984bff6a"><rect x="0" width="68" y="0" height="68"/></clipPath><clipPath id="c70f4a6458"><path d="M 279.863281 97.527344 L 340.753906 97.527344 L 340.753906 158.417969 L 279.863281 158.417969 Z M 279.863281 97.527344 " clip-rule="nonzero"/></clipPath><clipPath id="7c66bb8b80"><path d="M 310.308594 97.527344 C 293.492188 97.527344 279.863281 111.160156 279.863281 127.972656 C 279.863281 144.785156 293.492188 158.417969 310.308594 158.417969 C 327.121094 158.417969 340.753906 144.785156 340.753906 127.972656 C 340.753906 111.160156 327.121094 97.527344 310.308594 97.527344 Z M 310.308594 97.527344 " clip-rule="nonzero"/></clipPath><clipPath id="4277b57033"><path d="M 0.863281 0.527344 L 61.753906 0.527344 L 61.753906 61.417969 L 0.863281 61.417969 Z M 0.863281 0.527344 " clip-rule="nonzero"/></clipPath><clipPath id="feefde60f5"><path d="M 31.308594 0.527344 C 14.492188 0.527344 0.863281 14.160156 0.863281 30.972656 C 0.863281 47.785156 14.492188 61.417969 31.308594 61.417969 C 48.121094 61.417969 61.753906 47.785156 61.753906 30.972656 C 61.753906 14.160156 48.121094 0.527344 31.308594 0.527344 Z M 31.308594 0.527344 " clip-rule="nonzero"/></clipPath><clipPath id="235078c19a"><rect x="0" width="62" y="0" height="62"/></clipPath><clipPath id="11507e6682"><path d="M 279.863281 298.273438 L 340.753906 298.273438 L 340.753906 359.160156 L 279.863281 359.160156 Z M 279.863281 298.273438 " clip-rule="nonzero"/></clipPath><clipPath id="9484801106"><path d="M 310.308594 298.273438 C 293.492188 298.273438 279.863281 311.902344 279.863281 328.71875 C 279.863281 345.53125 293.492188 359.160156 310.308594 359.160156 C 327.121094 359.160156 340.753906 345.53125 340.753906 328.71875 C 340.753906 311.902344 327.121094 298.273438 310.308594 298.273438 Z M 310.308594 298.273438 " clip-rule="nonzero"/></clipPath><clipPath id="4c2420ca86"><path d="M 0.863281 0.273438 L 61.753906 0.273438 L 61.753906 61.160156 L 0.863281 61.160156 Z M 0.863281 0.273438 " clip-rule="nonzero"/></clipPath><clipPath id="34be7d5670"><path d="M 31.308594 0.273438 C 14.492188 0.273438 0.863281 13.902344 0.863281 30.71875 C 0.863281 47.53125 14.492188 61.160156 31.308594 61.160156 C 48.121094 61.160156 61.753906 47.53125 61.753906 30.71875 C 61.753906 13.902344 48.121094 0.273438 31.308594 0.273438 Z M 31.308594 0.273438 " clip-rule="nonzero"/></clipPath><clipPath id="21fc0dff0b"><rect x="0" width="62" y="0" height="62"/></clipPath><clipPath id="adce6add10"><path d="M 92.457031 298.273438 L 153.34375 298.273438 L 153.34375 359.160156 L 92.457031 359.160156 Z M 92.457031 298.273438 " clip-rule="nonzero"/></clipPath><clipPath id="73c99841f3"><path d="M 122.902344 298.273438 C 106.085938 298.273438 92.457031 311.902344 92.457031 328.71875 C 92.457031 345.53125 106.085938 359.160156 122.902344 359.160156 C 139.714844 359.160156 153.34375 345.53125 153.34375 328.71875 C 153.34375 311.902344 139.714844 298.273438 122.902344 298.273438 Z M 122.902344 298.273438 " clip-rule="nonzero"/></clipPath><clipPath id="559c038d38"><path d="M 0.457031 0.273438 L 61.34375 0.273438 L 61.34375 61.160156 L 0.457031 61.160156 Z M 0.457031 0.273438 " clip-rule="nonzero"/></clipPath><clipPath id="ab24fb98c9"><path d="M 30.902344 0.273438 C 14.085938 0.273438 0.457031 13.902344 0.457031 30.71875 C 0.457031 47.53125 14.085938 61.160156 30.902344 61.160156 C 47.714844 61.160156 61.34375 47.53125 61.34375 30.71875 C 61.34375 13.902344 47.714844 0.273438 30.902344 0.273438 Z M 30.902344 0.273438 " clip-rule="nonzero"/></clipPath><clipPath id="3516b8caef"><rect x="0" width="62" y="0" height="62"/></clipPath><clipPath id="283df565d2"><path d="M 92.457031 97.527344 L 153.34375 97.527344 L 153.34375 158.417969 L 92.457031 158.417969 Z M 92.457031 97.527344 " clip-rule="nonzero"/></clipPath><clipPath id="b675d28781"><path d="M 122.902344 97.527344 C 106.085938 97.527344 92.457031 111.160156 92.457031 127.972656 C 92.457031 144.785156 106.085938 158.417969 122.902344 158.417969 C 139.714844 158.417969 153.34375 144.785156 153.34375 127.972656 C 153.34375 111.160156 139.714844 97.527344 122.902344 97.527344 Z M 122.902344 97.527344 " clip-rule="nonzero"/></clipPath><clipPath id="e82ea338ba"><path d="M 0.457031 0.527344 L 61.34375 0.527344 L 61.34375 61.417969 L 0.457031 61.417969 Z M 0.457031 0.527344 " clip-rule="nonzero"/></clipPath><clipPath id="6185ab8c71"><path d="M 30.902344 0.527344 C 14.085938 0.527344 0.457031 14.160156 0.457031 30.972656 C 0.457031 47.785156 14.085938 61.417969 30.902344 61.417969 C 47.714844 61.417969 61.34375 47.785156 61.34375 30.972656 C 61.34375 14.160156 47.714844 0.527344 30.902344 0.527344 Z M 30.902344 0.527344 " clip-rule="nonzero"/></clipPath><clipPath id="4184e262e3"><rect x="0" width="62" y="0" height="62"/></clipPath></defs><g clip-path="url(#f2c01b2b2c)"><g clip-path="url(#afe888589d)"><g transform="matrix(1, 0, 0, 1, 45, 191)"><g clip-path="url(#149cf1fe02)"><g clip-path="url(#24f0b467a0)"><g clip-path="url(#71a5e58a1b)"><path fill="#ffffff" d="M 0 0.25 L 359.910156 0.25 L 359.910156 67.75 L 0 67.75 Z M 0 0.25 " fill-opacity="1" fill-rule="nonzero"/></g></g></g></g><path stroke-linecap="butt" transform="matrix(0.75, 0, 0, 0.75, 45.000005, 191.249985)" fill="none" stroke-linejoin="miter" d="M 44.999997 0.0000198617 L 435.000028 0.0000198617 C 459.854196 0.0000198617 480.000031 20.145855 480.000031 45.000023 C 480.000031 69.854192 459.854196 90.000027 435.000028 90.000027 L 44.999997 90.000027 C 20.145829 90.000027 -0.00000619333 69.854192 -0.00000619333 45.000023 C -0.00000619333 20.145855 20.145829 0.0000198617 44.999997 0.0000198617 Z M 44.999997 0.0000198617 " stroke="#000000" stroke-width="8" stroke-opacity="1" stroke-miterlimit="4"/></g></g><g clip-path="url(#82d9fa0e0d)"><g clip-path="url(#7c0a5b43aa)"><g transform="matrix(1, 0, 0, 1, 191, 45)"><g clip-path="url(#8d3b67bb67)"><g clip-path="url(#7befbc00ec)"><g clip-path="url(#9b92e003ad)"><path fill="#ffffff" d="M 0.25 360 L 0.25 0.0859375 L 67.75 0.0859375 L 67.75 360 Z M 0.25 360 " fill-opacity="1" fill-rule="nonzero"/></g></g></g></g><path stroke-linecap="butt" transform="matrix(0, -0.75, 0.75, 0, 191.249993, 404.999968)" fill="none" stroke-linejoin="miter" d="M 44.999961 0.000008995 L 434.999992 0.000008995 C 459.85416 0.000008995 479.999995 20.145844 479.999995 45.000013 C 479.999995 69.854181 459.85416 90.000016 434.999992 90.000016 L 44.999961 90.000016 C 20.145793 90.000016 -0.00004206 69.854181 -0.00004206 45.000013 C -0.00004206 20.145844 20.145793 0.000008995 44.999961 0.000008995 Z M 44.999961 0.000008995 " stroke="#000000" stroke-width="8" stroke-opacity="1" stroke-miterlimit="4"/></g></g><g clip-path="url(#93ae3df765)"><g transform="matrix(1, 0, 0, 1, 191, 191)"><g clip-path="url(#ce984bff6a)"><g clip-path="url(#8278492730)"><path fill="#f3f4f6" d="M 0.25 0.25 L 67.75 0.25 L 67.75 67.75 L 0.25 67.75 Z M 0.25 0.25 " fill-opacity="1" fill-rule="nonzero"/></g></g></g><path stroke-linecap="butt" transform="matrix(0.75, 0, 0, 0.75, 191.249993, 191.249985)" fill="none" stroke-linejoin="miter" d="M 0.000008995 0.0000198617 L 90.000016 0.0000198617 L 90.000016 90.000027 L 0.000008995 90.000027 Z M 0.000008995 0.0000198617 " stroke="#000000" stroke-width="8" stroke-opacity="1" stroke-miterlimit="4"/></g><g clip-path="url(#c70f4a6458)"><g clip-path="url(#7c66bb8b80)"><g transform="matrix(1, 0, 0, 1, 279, 97)"><g clip-path="url(#235078c19a)"><g clip-path="url(#4277b57033)"><g clip-path="url(#feefde60f5)"><path fill="#2d4d31" d="M 0.863281 0.527344 L 61.753906 0.527344 L 61.753906 61.417969 L 0.863281 61.417969 Z M 0.863281 0.527344 " fill-opacity="1" fill-rule="nonzero"/></g></g></g></g></g></g><g clip-path="url(#11507e6682)"><g clip-path="url(#9484801106)"><g transform="matrix(1, 0, 0, 1, 279, 298)"><g clip-path="url(#21fc0dff0b)"><g clip-path="url(#4c2420ca86)"><g clip-path="url(#34be7d5670)"><path fill="#2d4d31" d="M 0.863281 0.273438 L 61.753906 0.273438 L 61.753906 61.160156 L 0.863281 61.160156 Z M 0.863281 0.273438 " fill-opacity="1" fill-rule="nonzero"/></g></g></g></g></g></g><g clip-path="url(#adce6add10)"><g clip-path="url(#73c99841f3)"><g transform="matrix(1, 0, 0, 1, 92, 298)"><g clip-path="url(#3516b8caef)"><g clip-path="url(#559c038d38)"><g clip-path="url(#ab24fb98c9)"><path fill="#2d4d31" d="M 0.457031 0.273438 L 61.34375 0.273438 L 61.34375 61.160156 L 0.457031 61.160156 Z M 0.457031 0.273438 " fill-opacity="1" fill-rule="nonzero"/></g></g></g></g></g></g><g clip-path="url(#283df565d2)"><g clip-path="url(#b675d28781)"><g transform="matrix(1, 0, 0, 1, 92, 97)"><g clip-path="url(#4184e262e3)"><g clip-path="url(#e82ea338ba)"><g clip-path="url(#6185ab8c71)"><path fill="#2d4d31" d="M 0.457031 0.527344 L 61.34375 0.527344 L 61.34375 61.417969 L 0.457031 61.417969 Z M 0.457031 0.527344 " fill-opacity="1" fill-rule="nonzero"/></g></g></g></g></g></g></svg>