<svg xmlns="http://www.w3.org/2000/svg" xmlns:xlink="http://www.w3.org/1999/xlink" width="600" zoomAndPan="magnify" viewBox="0 0 450 449.999984" height="600" preserveAspectRatio="xMidYMid meet" version="1.0"><defs><clipPath id="d8df904a05"><path d="M 45 191.25 L 405 191.25 L 405 258.75 L 45 258.75 Z M 45 191.25 " clip-rule="nonzero"/></clipPath><clipPath id="479ae64365"><path d="M 78.75 191.25 L 371.25 191.25 C 389.890625 191.25 405 206.359375 405 225 C 405 243.640625 389.890625 258.75 371.25 258.75 L 78.75 258.75 C 60.109375 258.75 45 243.640625 45 225 C 45 206.359375 60.109375 191.25 78.75 191.25 Z M 78.75 191.25 " clip-rule="nonzero"/></clipPath><clipPath id="7fa04adb2c"><path d="M 0 0.25 L 360 0.25 L 360 67.75 L 0 67.75 Z M 0 0.25 " clip-rule="nonzero"/></clipPath><clipPath id="09cc043513"><path d="M 33.75 0.25 L 326.25 0.25 C 344.890625 0.25 360 15.359375 360 34 C 360 52.640625 344.890625 67.75 326.25 67.75 L 33.75 67.75 C 15.109375 67.75 0 52.640625 0 34 C 0 15.359375 15.109375 0.25 33.75 0.25 Z M 33.75 0.25 " clip-rule="nonzero"/></clipPath><clipPath id="8d1e063a59"><rect x="0" width="360" y="0" height="68"/></clipPath><clipPath id="b98e409b98"><path d="M 191.25 45 L 258.75 45 L 258.75 405 L 191.25 405 Z M 191.25 45 " clip-rule="nonzero"/></clipPath><clipPath id="45fb9e8a5b"><path d="M 191.25 371.25 L 191.25 78.75 C 191.25 60.109375 206.359375 45 225 45 C 243.640625 45 258.75 60.109375 258.75 78.75 L 258.75 371.25 C 258.75 389.890625 243.640625 405 225 405 C 206.359375 405 191.25 389.890625 191.25 371.25 Z M 191.25 371.25 " clip-rule="nonzero"/></clipPath><clipPath id="3d713bf9a3"><path d="M 0.25 0 L 67.75 0 L 67.75 360 L 0.25 360 Z M 0.25 0 " clip-rule="nonzero"/></clipPath><clipPath id="b96f95e7d1"><path d="M 0.25 326.25 L 0.25 33.75 C 0.25 15.109375 15.359375 0 34 0 C 52.640625 0 67.75 15.109375 67.75 33.75 L 67.75 326.25 C 67.75 344.890625 52.640625 360 34 360 C 15.359375 360 0.25 344.890625 0.25 326.25 Z M 0.25 326.25 " clip-rule="nonzero"/></clipPath><clipPath id="1caec59711"><rect x="0" width="68" y="0" height="360"/></clipPath><clipPath id="36732538f9"><path d="M 191.25 191.25 L 258.75 191.25 L 258.75 258.75 L 191.25 258.75 Z M 191.25 191.25 " clip-rule="nonzero"/></clipPath><clipPath id="17ae99f396"><path d="M 0.25 0.25 L 67.75 0.25 L 67.75 67.75 L 0.25 67.75 Z M 0.25 0.25 " clip-rule="nonzero"/></clipPath><clipPath id="1ef29fa71d"><rect x="0" width="68" y="0" height="68"/></clipPath><clipPath id="6c2e158eea"><path d="M 298.261719 194.554688 L 359.152344 194.554688 L 359.152344 255.445312 L 298.261719 255.445312 Z M 298.261719 194.554688 " clip-rule="nonzero"/></clipPath><clipPath id="f144938259"><path d="M 328.707031 194.554688 C 311.890625 194.554688 298.261719 208.1875 298.261719 225 C 298.261719 241.8125 311.890625 255.445312 328.707031 255.445312 C 345.519531 255.445312 359.152344 241.8125 359.152344 225 C 359.152344 208.1875 345.519531 194.554688 328.707031 194.554688 Z M 328.707031 194.554688 " clip-rule="nonzero"/></clipPath><clipPath id="233001e32e"><path d="M 0.261719 0.554688 L 61.152344 0.554688 L 61.152344 61.445312 L 0.261719 61.445312 Z M 0.261719 0.554688 " clip-rule="nonzero"/></clipPath><clipPath id="ff4b2e7895"><path d="M 30.707031 0.554688 C 13.890625 0.554688 0.261719 14.1875 0.261719 31 C 0.261719 47.8125 13.890625 61.445312 30.707031 61.445312 C 47.519531 61.445312 61.152344 47.8125 61.152344 31 C 61.152344 14.1875 47.519531 0.554688 30.707031 0.554688 Z M 30.707031 0.554688 " clip-rule="nonzero"/></clipPath><clipPath id="8cfb540ae5"><rect x="0" width="62" y="0" height="62"/></clipPath><clipPath id="83e3ff5928"><path d="M 88.191406 194.554688 L 149.078125 194.554688 L 149.078125 255.445312 L 88.191406 255.445312 Z M 88.191406 194.554688 " clip-rule="nonzero"/></clipPath><clipPath id="e25c216c4c"><path d="M 118.636719 194.554688 C 101.820312 194.554688 88.191406 208.1875 88.191406 225 C 88.191406 241.8125 101.820312 255.445312 118.636719 255.445312 C 135.449219 255.445312 149.078125 241.8125 149.078125 225 C 149.078125 208.1875 135.449219 194.554688 118.636719 194.554688 Z M 118.636719 194.554688 " clip-rule="nonzero"/></clipPath><clipPath id="bb1824d4c4"><path d="M 0.191406 0.554688 L 61.078125 0.554688 L 61.078125 61.445312 L 0.191406 61.445312 Z M 0.191406 0.554688 " clip-rule="nonzero"/></clipPath><clipPath id="96783e41ea"><path d="M 30.636719 0.554688 C 13.820312 0.554688 0.191406 14.1875 0.191406 31 C 0.191406 47.8125 13.820312 61.445312 30.636719 61.445312 C 47.449219 61.445312 61.078125 47.8125 61.078125 31 C 61.078125 14.1875 47.449219 0.554688 30.636719 0.554688 Z M 30.636719 0.554688 " clip-rule="nonzero"/></clipPath><clipPath id="226d297721"><rect x="0" width="62" y="0" height="62"/></clipPath></defs><g clip-path="url(#d8df904a05)"><g clip-path="url(#479ae64365)"><g transform="matrix(1, 0, 0, 1, 45, 191)"><g clip-path="url(#8d1e063a59)"><g clip-path="url(#7fa04adb2c)"><g clip-path="url(#09cc043513)"><path fill="#ffffff" d="M 0 0.25 L 359.910156 0.25 L 359.910156 67.75 L 0 67.75 Z M 0 0.25 " fill-opacity="1" fill-rule="nonzero"/></g></g></g></g><path stroke-linecap="butt" transform="matrix(0.75, 0, 0, 0.75, 45.000005, 191.249985)" fill="none" stroke-linejoin="miter" d="M 44.999997 0.0000198617 L 435.000028 0.0000198617 C 459.854196 0.0000198617 480.000031 20.145855 480.000031 45.000023 C 480.000031 69.854192 459.854196 90.000027 435.000028 90.000027 L 44.999997 90.000027 C 20.145829 90.000027 -0.00000619333 69.854192 -0.00000619333 45.000023 C -0.00000619333 20.145855 20.145829 0.0000198617 44.999997 0.0000198617 Z M 44.999997 0.0000198617 " stroke="#000000" stroke-width="8" stroke-opacity="1" stroke-miterlimit="4"/></g></g><g clip-path="url(#b98e409b98)"><g clip-path="url(#45fb9e8a5b)"><g transform="matrix(1, 0, 0, 1, 191, 45)"><g clip-path="url(#1caec59711)"><g clip-path="url(#3d713bf9a3)"><g clip-path="url(#b96f95e7d1)"><path fill="#ffffff" d="M 0.25 360 L 0.25 0.0859375 L 67.75 0.0859375 L 67.75 360 Z M 0.25 360 " fill-opacity="1" fill-rule="nonzero"/></g></g></g></g><path stroke-linecap="butt" transform="matrix(0, -0.75, 0.75, 0, 191.249993, 404.999968)" fill="none" stroke-linejoin="miter" d="M 44.999961 0.000008995 L 434.999992 0.000008995 C 459.85416 0.000008995 479.999995 20.145844 479.999995 45.000013 C 479.999995 69.854181 459.85416 90.000016 434.999992 90.000016 L 44.999961 90.000016 C 20.145793 90.000016 -0.00004206 69.854181 -0.00004206 45.000013 C -0.00004206 20.145844 20.145793 0.000008995 44.999961 0.000008995 Z M 44.999961 0.000008995 " stroke="#000000" stroke-width="8" stroke-opacity="1" stroke-miterlimit="4"/></g></g><g clip-path="url(#36732538f9)"><g transform="matrix(1, 0, 0, 1, 191, 191)"><g clip-path="url(#1ef29fa71d)"><g clip-path="url(#17ae99f396)"><path fill="#f3f4f6" d="M 0.25 0.25 L 67.75 0.25 L 67.75 67.75 L 0.25 67.75 Z M 0.25 0.25 " fill-opacity="1" fill-rule="nonzero"/></g></g></g><path stroke-linecap="butt" transform="matrix(0.75, 0, 0, 0.75, 191.249993, 191.249985)" fill="none" stroke-linejoin="miter" d="M 0.000008995 0.0000198617 L 90.000016 0.0000198617 L 90.000016 90.000027 L 0.000008995 90.000027 Z M 0.000008995 0.0000198617 " stroke="#000000" stroke-width="8" stroke-opacity="1" stroke-miterlimit="4"/></g><g clip-path="url(#6c2e158eea)"><g clip-path="url(#f144938259)"><g transform="matrix(1, 0, 0, 1, 298, 194)"><g clip-path="url(#8cfb540ae5)"><g clip-path="url(#233001e32e)"><g clip-path="url(#ff4b2e7895)"><path fill="#2d4d31" d="M 0.261719 0.554688 L 61.152344 0.554688 L 61.152344 61.445312 L 0.261719 61.445312 Z M 0.261719 0.554688 " fill-opacity="1" fill-rule="nonzero"/></g></g></g></g></g></g><g clip-path="url(#83e3ff5928)"><g clip-path="url(#e25c216c4c)"><g transform="matrix(1, 0, 0, 1, 88, 194)"><g clip-path="url(#226d297721)"><g clip-path="url(#bb1824d4c4)"><g clip-path="url(#96783e41ea)"><path fill="#2d4d31" d="M 0.191406 0.554688 L 61.078125 0.554688 L 61.078125 61.445312 L 0.191406 61.445312 Z M 0.191406 0.554688 " fill-opacity="1" fill-rule="nonzero"/></g></g></g></g></g></g></svg>