<svg xmlns="http://www.w3.org/2000/svg" xmlns:xlink="http://www.w3.org/1999/xlink" width="600" zoomAndPan="magnify" viewBox="0 0 450 449.999984" height="600" preserveAspectRatio="xMidYMid meet" version="1.0"><defs><clipPath id="fb626cf1ce"><path d="M 301.585938 79.050781 L 343.6875 79.050781 L 343.6875 121.15625 L 301.585938 121.15625 Z M 301.585938 79.050781 " clip-rule="nonzero"/></clipPath><clipPath id="7b9dd9af20"><path d="M 322.636719 79.050781 L 329.335938 93.40625 L 343.6875 100.101562 L 329.335938 106.800781 L 322.636719 121.15625 L 315.9375 106.800781 L 301.585938 100.101562 L 315.9375 93.40625 Z M 322.636719 79.050781 " clip-rule="nonzero"/></clipPath><clipPath id="df8a812b56"><path d="M 0.585938 0.0507812 L 42.6875 0.0507812 L 42.6875 42.15625 L 0.585938 42.15625 Z M 0.585938 0.0507812 " clip-rule="nonzero"/></clipPath><clipPath id="ac7b223c32"><path d="M 21.636719 0.0507812 L 28.335938 14.40625 L 42.6875 21.101562 L 28.335938 27.800781 L 21.636719 42.15625 L 14.9375 27.800781 L 0.585938 21.101562 L 14.9375 14.40625 Z M 21.636719 0.0507812 " clip-rule="nonzero"/></clipPath><clipPath id="3dec03806f"><rect x="0" width="43" y="0" height="43"/></clipPath><clipPath id="da2134b13e"><path d="M 157.5 131.773438 L 292.5 131.773438 L 292.5 266.773438 L 157.5 266.773438 Z M 157.5 131.773438 " clip-rule="nonzero"/></clipPath><clipPath id="32520fe865"><path d="M 225 131.773438 L 157.5 199.273438 L 191.25 199.273438 L 191.25 266.773438 L 258.75 266.773438 L 258.75 199.273438 L 292.5 199.273438 Z M 225 131.773438 " clip-rule="nonzero"/></clipPath><clipPath id="1ec6e3b55f"><path d="M 0.5 0.773438 L 135.5 0.773438 L 135.5 135.773438 L 0.5 135.773438 Z M 0.5 0.773438 " clip-rule="nonzero"/></clipPath><clipPath id="1233885ec2"><path d="M 68 0.773438 L 0.5 68.273438 L 34.25 68.273438 L 34.25 135.773438 L 101.75 135.773438 L 101.75 68.273438 L 135.5 68.273438 Z M 68 0.773438 " clip-rule="nonzero"/></clipPath><clipPath id="cc6a2f5ded"><rect x="0" width="136" y="0" height="136"/></clipPath></defs><g clip-path="url(#fb626cf1ce)"><g clip-path="url(#7b9dd9af20)"><g transform="matrix(1, 0, 0, 1, 301, 79)"><g clip-path="url(#3dec03806f)"><g clip-path="url(#df8a812b56)"><g clip-path="url(#ac7b223c32)"><path fill="#2d4d31" d="M 0.585938 0.0507812 L 42.6875 0.0507812 L 42.6875 42.15625 L 0.585938 42.15625 Z M 0.585938 0.0507812 " fill-opacity="1" fill-rule="nonzero"/></g></g></g></g></g></g><g clip-path="url(#da2134b13e)"><g clip-path="url(#32520fe865)"><g transform="matrix(1, 0, 0, 1, 157, 131)"><g clip-path="url(#cc6a2f5ded)"><g clip-path="url(#1ec6e3b55f)"><g clip-path="url(#1233885ec2)"><path fill="#ffffff" d="M 0.5 0.773438 L 135.5 0.773438 L 135.5 135.773438 L 0.5 135.773438 Z M 0.5 0.773438 " fill-opacity="1" fill-rule="nonzero"/></g></g></g></g><path stroke-linecap="butt" transform="matrix(0.75, 0, 0, 0.75, 157.499996, 131.771767)" fill="none" stroke-linejoin="miter" d="M 90.000013 0.00222795 L 0.00000549 90.002235 L 45.000009 90.002235 L 45.000009 180.002242 L 135.000016 180.002242 L 135.000016 90.002235 L 180.00002 90.002235 Z M 90.000013 0.00222795 " stroke="#000000" stroke-width="4" stroke-opacity="1" stroke-miterlimit="4"/></g></g></svg>