<svg xmlns="http://www.w3.org/2000/svg" xmlns:xlink="http://www.w3.org/1999/xlink" width="600" zoomAndPan="magnify" viewBox="0 0 450 449.999984" height="600" preserveAspectRatio="xMidYMid meet" version="1.0"><defs><clipPath id="e524cd7d88"><path d="M 299.308594 250.4375 L 341.414062 250.4375 L 341.414062 292.539062 L 299.308594 292.539062 Z M 299.308594 250.4375 " clip-rule="nonzero"/></clipPath><clipPath id="898d0a2951"><path d="M 320.359375 250.4375 L 327.058594 264.789062 L 341.414062 271.488281 L 327.058594 278.1875 L 320.359375 292.539062 L 313.664062 278.1875 L 299.308594 271.488281 L 313.664062 264.789062 Z M 320.359375 250.4375 " clip-rule="nonzero"/></clipPath><clipPath id="9a3ed72953"><path d="M 0.308594 0.4375 L 42.414062 0.4375 L 42.414062 42.539062 L 0.308594 42.539062 Z M 0.308594 0.4375 " clip-rule="nonzero"/></clipPath><clipPath id="e7d035b119"><path d="M 21.359375 0.4375 L 28.058594 14.789062 L 42.414062 21.488281 L 28.058594 28.1875 L 21.359375 42.539062 L 14.664062 28.1875 L 0.308594 21.488281 L 14.664062 14.789062 Z M 21.359375 0.4375 " clip-rule="nonzero"/></clipPath><clipPath id="7700d1fcc8"><rect x="0" width="43" y="0" height="43"/></clipPath><clipPath id="c5913cbb79"><path d="M 157.5 131.773438 L 292.5 131.773438 L 292.5 266.773438 L 157.5 266.773438 Z M 157.5 131.773438 " clip-rule="nonzero"/></clipPath><clipPath id="b17c80a87a"><path d="M 225 266.773438 L 292.5 199.273438 L 258.75 199.273438 L 258.75 131.773438 L 191.25 131.773438 L 191.25 199.273438 L 157.5 199.273438 Z M 225 266.773438 " clip-rule="nonzero"/></clipPath><clipPath id="2373f0a72c"><path d="M 0.5 0.773438 L 135.5 0.773438 L 135.5 135.773438 L 0.5 135.773438 Z M 0.5 0.773438 " clip-rule="nonzero"/></clipPath><clipPath id="cc62d90f22"><path d="M 68 135.773438 L 135.5 68.273438 L 101.75 68.273438 L 101.75 0.773438 L 34.25 0.773438 L 34.25 68.273438 L 0.5 68.273438 Z M 68 135.773438 " clip-rule="nonzero"/></clipPath><clipPath id="e0a358bf2e"><rect x="0" width="136" y="0" height="136"/></clipPath></defs><g clip-path="url(#e524cd7d88)"><g clip-path="url(#898d0a2951)"><g transform="matrix(1, 0, 0, 1, 299, 250)"><g clip-path="url(#7700d1fcc8)"><g clip-path="url(#9a3ed72953)"><g clip-path="url(#e7d035b119)"><path fill="#2d4d31" d="M 0.308594 0.4375 L 42.414062 0.4375 L 42.414062 42.539062 L 0.308594 42.539062 Z M 0.308594 0.4375 " fill-opacity="1" fill-rule="nonzero"/></g></g></g></g></g></g><g clip-path="url(#c5913cbb79)"><g clip-path="url(#b17c80a87a)"><g transform="matrix(1, 0, 0, 1, 157, 131)"><g clip-path="url(#e0a358bf2e)"><g clip-path="url(#2373f0a72c)"><g clip-path="url(#cc62d90f22)"><path fill="#ffffff" d="M 135.5 135.773438 L 0.5 135.773438 L 0.5 0.773438 L 135.5 0.773438 Z M 135.5 135.773438 " fill-opacity="1" fill-rule="nonzero"/></g></g></g></g><path stroke-linecap="butt" transform="matrix(-0.75, 0, 0, -0.75, 292.499985, 266.771698)" fill="none" stroke-linejoin="miter" d="M 89.999987 -0.00231877 L -0.00001951 89.997688 L 44.999984 89.997688 L 44.999984 179.997695 L 134.999991 179.997695 L 134.999991 89.997688 L 179.999995 89.997688 Z M 89.999987 -0.00231877 " stroke="#000000" stroke-width="4" stroke-opacity="1" stroke-miterlimit="4"/></g></g></svg>