<svg xmlns="http://www.w3.org/2000/svg" xmlns:xlink="http://www.w3.org/1999/xlink" width="600" zoomAndPan="magnify" viewBox="0 0 450 449.999984" height="600" preserveAspectRatio="xMidYMid meet" version="1.0"><defs><clipPath id="43ca4175f3"><path d="M 95.316406 89.667969 L 137.417969 89.667969 L 137.417969 131.773438 L 95.316406 131.773438 Z M 95.316406 89.667969 " clip-rule="nonzero"/></clipPath><clipPath id="4160ef34e9"><path d="M 116.367188 89.667969 L 123.066406 104.019531 L 137.417969 110.71875 L 123.066406 117.417969 L 116.367188 131.773438 L 109.667969 117.417969 L 95.316406 110.71875 L 109.667969 104.019531 Z M 116.367188 89.667969 " clip-rule="nonzero"/></clipPath><clipPath id="089a82c70f"><path d="M 0.316406 0.667969 L 42.417969 0.667969 L 42.417969 42.773438 L 0.316406 42.773438 Z M 0.316406 0.667969 " clip-rule="nonzero"/></clipPath><clipPath id="2c22e7dd1e"><path d="M 21.367188 0.667969 L 28.066406 15.019531 L 42.417969 21.71875 L 28.066406 28.417969 L 21.367188 42.773438 L 14.667969 28.417969 L 0.316406 21.71875 L 14.667969 15.019531 Z M 21.367188 0.667969 " clip-rule="nonzero"/></clipPath><clipPath id="e657878267"><rect x="0" width="43" y="0" height="43"/></clipPath><clipPath id="c059934da3"><path d="M 157.5 131.773438 L 292.5 131.773438 L 292.5 266.773438 L 157.5 266.773438 Z M 157.5 131.773438 " clip-rule="nonzero"/></clipPath><clipPath id="150d66453f"><path d="M 225 266.773438 L 292.5 199.273438 L 258.75 199.273438 L 258.75 131.773438 L 191.25 131.773438 L 191.25 199.273438 L 157.5 199.273438 Z M 225 266.773438 " clip-rule="nonzero"/></clipPath><clipPath id="4e4f9295ec"><path d="M 0.5 0.773438 L 135.5 0.773438 L 135.5 135.773438 L 0.5 135.773438 Z M 0.5 0.773438 " clip-rule="nonzero"/></clipPath><clipPath id="1e02242eb4"><path d="M 68 135.773438 L 135.5 68.273438 L 101.75 68.273438 L 101.75 0.773438 L 34.25 0.773438 L 34.25 68.273438 L 0.5 68.273438 Z M 68 135.773438 " clip-rule="nonzero"/></clipPath><clipPath id="1f261bfc72"><rect x="0" width="136" y="0" height="136"/></clipPath></defs><g clip-path="url(#43ca4175f3)"><g clip-path="url(#4160ef34e9)"><g transform="matrix(1, 0, 0, 1, 95, 89)"><g clip-path="url(#e657878267)"><g clip-path="url(#089a82c70f)"><g clip-path="url(#2c22e7dd1e)"><path fill="#2d4d31" d="M 0.316406 0.667969 L 42.417969 0.667969 L 42.417969 42.773438 L 0.316406 42.773438 Z M 0.316406 0.667969 " fill-opacity="1" fill-rule="nonzero"/></g></g></g></g></g></g><g clip-path="url(#c059934da3)"><g clip-path="url(#150d66453f)"><g transform="matrix(1, 0, 0, 1, 157, 131)"><g clip-path="url(#1f261bfc72)"><g clip-path="url(#4e4f9295ec)"><g clip-path="url(#1e02242eb4)"><path fill="#2d4d31" d="M 135.5 135.773438 L 0.5 135.773438 L 0.5 0.773438 L 135.5 0.773438 Z M 135.5 135.773438 " fill-opacity="1" fill-rule="nonzero"/></g></g></g></g></g></g></svg>