<svg xmlns="http://www.w3.org/2000/svg" xmlns:xlink="http://www.w3.org/1999/xlink" width="600" zoomAndPan="magnify" viewBox="0 0 450 449.999984" height="600" preserveAspectRatio="xMidYMid meet" version="1.0"><defs><clipPath id="717579ea93"><path d="M 338.742188 110.71875 L 380.847656 110.71875 L 380.847656 152.824219 L 338.742188 152.824219 Z M 338.742188 110.71875 " clip-rule="nonzero"/></clipPath><clipPath id="510d9044c8"><path d="M 359.792969 110.71875 L 366.492188 125.074219 L 380.847656 131.773438 L 366.492188 138.46875 L 359.792969 152.824219 L 353.097656 138.46875 L 338.742188 131.773438 L 353.097656 125.074219 Z M 359.792969 110.71875 " clip-rule="nonzero"/></clipPath><clipPath id="5fbce30d54"><path d="M 0.742188 0.71875 L 42.847656 0.71875 L 42.847656 42.824219 L 0.742188 42.824219 Z M 0.742188 0.71875 " clip-rule="nonzero"/></clipPath><clipPath id="062f374b91"><path d="M 21.792969 0.71875 L 28.492188 15.074219 L 42.847656 21.773438 L 28.492188 28.46875 L 21.792969 42.824219 L 15.097656 28.46875 L 0.742188 21.773438 L 15.097656 15.074219 Z M 21.792969 0.71875 " clip-rule="nonzero"/></clipPath><clipPath id="9cca63347f"><rect x="0" width="43" y="0" height="43"/></clipPath><clipPath id="6ecd838334"><path d="M 157.5 131.773438 L 292.5 131.773438 L 292.5 266.773438 L 157.5 266.773438 Z M 157.5 131.773438 " clip-rule="nonzero"/></clipPath><clipPath id="09b115f448"><path d="M 225 131.773438 L 157.5 199.273438 L 191.25 199.273438 L 191.25 266.773438 L 258.75 266.773438 L 258.75 199.273438 L 292.5 199.273438 Z M 225 131.773438 " clip-rule="nonzero"/></clipPath><clipPath id="86d64c29e1"><path d="M 0.5 0.773438 L 135.5 0.773438 L 135.5 135.773438 L 0.5 135.773438 Z M 0.5 0.773438 " clip-rule="nonzero"/></clipPath><clipPath id="4f711389c1"><path d="M 68 0.773438 L 0.5 68.273438 L 34.25 68.273438 L 34.25 135.773438 L 101.75 135.773438 L 101.75 68.273438 L 135.5 68.273438 Z M 68 0.773438 " clip-rule="nonzero"/></clipPath><clipPath id="9037b0b8e6"><rect x="0" width="136" y="0" height="136"/></clipPath></defs><g clip-path="url(#717579ea93)"><g clip-path="url(#510d9044c8)"><g transform="matrix(1, 0, 0, 1, 338, 110)"><g clip-path="url(#9cca63347f)"><g clip-path="url(#5fbce30d54)"><g clip-path="url(#062f374b91)"><path fill="#2d4d31" d="M 0.742188 0.71875 L 42.847656 0.71875 L 42.847656 42.824219 L 0.742188 42.824219 Z M 0.742188 0.71875 " fill-opacity="1" fill-rule="nonzero"/></g></g></g></g></g></g><g clip-path="url(#6ecd838334)"><g clip-path="url(#09b115f448)"><g transform="matrix(1, 0, 0, 1, 157, 131)"><g clip-path="url(#9037b0b8e6)"><g clip-path="url(#86d64c29e1)"><g clip-path="url(#4f711389c1)"><path fill="#2d4d31" d="M 0.5 0.773438 L 135.5 0.773438 L 135.5 135.773438 L 0.5 135.773438 Z M 0.5 0.773438 " fill-opacity="1" fill-rule="nonzero"/></g></g></g></g></g></g></svg>