<svg xmlns="http://www.w3.org/2000/svg" xmlns:xlink="http://www.w3.org/1999/xlink" width="600" zoomAndPan="magnify" viewBox="0 0 450 449.999984" height="600" preserveAspectRatio="xMidYMid meet" version="1.0"><defs><clipPath id="a387c2eee2"><path d="M 257.601562 279.253906 L 299.703125 279.253906 L 299.703125 321.355469 L 257.601562 321.355469 Z M 257.601562 279.253906 " clip-rule="nonzero"/></clipPath><clipPath id="fbf6a6cd59"><path d="M 278.652344 279.253906 L 285.351562 293.605469 L 299.703125 300.304688 L 285.351562 307.003906 L 278.652344 321.355469 L 271.953125 307.003906 L 257.601562 300.304688 L 271.953125 293.605469 Z M 278.652344 279.253906 " clip-rule="nonzero"/></clipPath><clipPath id="cf256c2bac"><path d="M 0.601562 0.253906 L 42.703125 0.253906 L 42.703125 42.355469 L 0.601562 42.355469 Z M 0.601562 0.253906 " clip-rule="nonzero"/></clipPath><clipPath id="c005cc50ae"><path d="M 21.652344 0.253906 L 28.351562 14.605469 L 42.703125 21.304688 L 28.351562 28.003906 L 21.652344 42.355469 L 14.953125 28.003906 L 0.601562 21.304688 L 14.953125 14.605469 Z M 21.652344 0.253906 " clip-rule="nonzero"/></clipPath><clipPath id="945709e98b"><rect x="0" width="43" y="0" height="43"/></clipPath><clipPath id="792ab86120"><path d="M 157.5 131.773438 L 292.5 131.773438 L 292.5 266.773438 L 157.5 266.773438 Z M 157.5 131.773438 " clip-rule="nonzero"/></clipPath><clipPath id="fc97197fae"><path d="M 225 266.773438 L 292.5 199.273438 L 258.75 199.273438 L 258.75 131.773438 L 191.25 131.773438 L 191.25 199.273438 L 157.5 199.273438 Z M 225 266.773438 " clip-rule="nonzero"/></clipPath><clipPath id="84c0ba73dd"><path d="M 0.5 0.773438 L 135.5 0.773438 L 135.5 135.773438 L 0.5 135.773438 Z M 0.5 0.773438 " clip-rule="nonzero"/></clipPath><clipPath id="a357aa79bf"><path d="M 68 135.773438 L 135.5 68.273438 L 101.75 68.273438 L 101.75 0.773438 L 34.25 0.773438 L 34.25 68.273438 L 0.5 68.273438 Z M 68 135.773438 " clip-rule="nonzero"/></clipPath><clipPath id="49b6213439"><rect x="0" width="136" y="0" height="136"/></clipPath></defs><g clip-path="url(#a387c2eee2)"><g clip-path="url(#fbf6a6cd59)"><g transform="matrix(1, 0, 0, 1, 257, 279)"><g clip-path="url(#945709e98b)"><g clip-path="url(#cf256c2bac)"><g clip-path="url(#c005cc50ae)"><path fill="#2d4d31" d="M 0.601562 0.253906 L 42.703125 0.253906 L 42.703125 42.355469 L 0.601562 42.355469 Z M 0.601562 0.253906 " fill-opacity="1" fill-rule="nonzero"/></g></g></g></g></g></g><g clip-path="url(#792ab86120)"><g clip-path="url(#fc97197fae)"><g transform="matrix(1, 0, 0, 1, 157, 131)"><g clip-path="url(#49b6213439)"><g clip-path="url(#84c0ba73dd)"><g clip-path="url(#a357aa79bf)"><path fill="#2d4d31" d="M 135.5 135.773438 L 0.5 135.773438 L 0.5 0.773438 L 135.5 0.773438 Z M 135.5 135.773438 " fill-opacity="1" fill-rule="nonzero"/></g></g></g></g></g></g></svg>