<svg xmlns="http://www.w3.org/2000/svg" xmlns:xlink="http://www.w3.org/1999/xlink" width="600" zoomAndPan="magnify" viewBox="0 0 450 449.999984" height="600" preserveAspectRatio="xMidYMid meet" version="1.0"><defs><clipPath id="4a01bc7668"><path d="M 109.726562 314.894531 L 151.828125 314.894531 L 151.828125 357 L 109.726562 357 Z M 109.726562 314.894531 " clip-rule="nonzero"/></clipPath><clipPath id="a6416809b9"><path d="M 130.777344 314.894531 L 137.476562 329.246094 L 151.828125 335.945312 L 137.476562 342.644531 L 130.777344 357 L 124.078125 342.644531 L 109.726562 335.945312 L 124.078125 329.246094 Z M 130.777344 314.894531 " clip-rule="nonzero"/></clipPath><clipPath id="ea3b8f4689"><path d="M 0.726562 0.894531 L 42.828125 0.894531 L 42.828125 43 L 0.726562 43 Z M 0.726562 0.894531 " clip-rule="nonzero"/></clipPath><clipPath id="881fb2aa8a"><path d="M 21.777344 0.894531 L 28.476562 15.246094 L 42.828125 21.945312 L 28.476562 28.644531 L 21.777344 43 L 15.078125 28.644531 L 0.726562 21.945312 L 15.078125 15.246094 Z M 21.777344 0.894531 " clip-rule="nonzero"/></clipPath><clipPath id="73ea965140"><rect x="0" width="43" y="0" height="43"/></clipPath><clipPath id="abf5a2ce1a"><path d="M 157.5 131.773438 L 292.5 131.773438 L 292.5 266.773438 L 157.5 266.773438 Z M 157.5 131.773438 " clip-rule="nonzero"/></clipPath><clipPath id="de5e1717af"><path d="M 225 131.773438 L 157.5 199.273438 L 191.25 199.273438 L 191.25 266.773438 L 258.75 266.773438 L 258.75 199.273438 L 292.5 199.273438 Z M 225 131.773438 " clip-rule="nonzero"/></clipPath><clipPath id="c294e0ac37"><path d="M 0.5 0.773438 L 135.5 0.773438 L 135.5 135.773438 L 0.5 135.773438 Z M 0.5 0.773438 " clip-rule="nonzero"/></clipPath><clipPath id="5b25586c1e"><path d="M 68 0.773438 L 0.5 68.273438 L 34.25 68.273438 L 34.25 135.773438 L 101.75 135.773438 L 101.75 68.273438 L 135.5 68.273438 Z M 68 0.773438 " clip-rule="nonzero"/></clipPath><clipPath id="45b510b0c4"><rect x="0" width="136" y="0" height="136"/></clipPath></defs><g clip-path="url(#4a01bc7668)"><g clip-path="url(#a6416809b9)"><g transform="matrix(1, 0, 0, 1, 109, 314)"><g clip-path="url(#73ea965140)"><g clip-path="url(#ea3b8f4689)"><g clip-path="url(#881fb2aa8a)"><path fill="#2d4d31" d="M 0.726562 0.894531 L 42.828125 0.894531 L 42.828125 43 L 0.726562 43 Z M 0.726562 0.894531 " fill-opacity="1" fill-rule="nonzero"/></g></g></g></g></g></g><g clip-path="url(#abf5a2ce1a)"><g clip-path="url(#de5e1717af)"><g transform="matrix(1, 0, 0, 1, 157, 131)"><g clip-path="url(#45b510b0c4)"><g clip-path="url(#c294e0ac37)"><g clip-path="url(#5b25586c1e)"><path fill="#ffffff" d="M 0.5 0.773438 L 135.5 0.773438 L 135.5 135.773438 L 0.5 135.773438 Z M 0.5 0.773438 " fill-opacity="1" fill-rule="nonzero"/></g></g></g></g><path stroke-linecap="butt" transform="matrix(0.75, 0, 0, 0.75, 157.499996, 131.771709)" fill="none" stroke-linejoin="miter" d="M 90.000013 0.00230475 L 0.00000549 90.002312 L 45.000009 90.002312 L 45.000009 180.002319 L 135.000016 180.002319 L 135.000016 90.002312 L 180.00002 90.002312 Z M 90.000013 0.00230475 " stroke="#000000" stroke-width="4" stroke-opacity="1" stroke-miterlimit="4"/></g></g></svg>