<svg xmlns="http://www.w3.org/2000/svg" xmlns:xlink="http://www.w3.org/1999/xlink" width="600" zoomAndPan="magnify" viewBox="0 0 450 449.999984" height="600" preserveAspectRatio="xMidYMid meet" version="1.0"><defs><clipPath id="af58a4b0ba"><path d="M 257.601562 279.253906 L 299.703125 279.253906 L 299.703125 321.355469 L 257.601562 321.355469 Z M 257.601562 279.253906 " clip-rule="nonzero"/></clipPath><clipPath id="60bbf2dce3"><path d="M 278.652344 279.253906 L 285.351562 293.605469 L 299.703125 300.304688 L 285.351562 307.003906 L 278.652344 321.355469 L 271.953125 307.003906 L 257.601562 300.304688 L 271.953125 293.605469 Z M 278.652344 279.253906 " clip-rule="nonzero"/></clipPath><clipPath id="45bbd5da1f"><path d="M 0.601562 0.253906 L 42.703125 0.253906 L 42.703125 42.355469 L 0.601562 42.355469 Z M 0.601562 0.253906 " clip-rule="nonzero"/></clipPath><clipPath id="f9c37b9571"><path d="M 21.652344 0.253906 L 28.351562 14.605469 L 42.703125 21.304688 L 28.351562 28.003906 L 21.652344 42.355469 L 14.953125 28.003906 L 0.601562 21.304688 L 14.953125 14.605469 Z M 21.652344 0.253906 " clip-rule="nonzero"/></clipPath><clipPath id="fa083e7733"><rect x="0" width="43" y="0" height="43"/></clipPath><clipPath id="75160c4eb7"><path d="M 157.5 131.773438 L 292.5 131.773438 L 292.5 266.773438 L 157.5 266.773438 Z M 157.5 131.773438 " clip-rule="nonzero"/></clipPath><clipPath id="189e81a954"><path d="M 225 266.773438 L 292.5 199.273438 L 258.75 199.273438 L 258.75 131.773438 L 191.25 131.773438 L 191.25 199.273438 L 157.5 199.273438 Z M 225 266.773438 " clip-rule="nonzero"/></clipPath><clipPath id="6091d58d48"><path d="M 0.5 0.773438 L 135.5 0.773438 L 135.5 135.773438 L 0.5 135.773438 Z M 0.5 0.773438 " clip-rule="nonzero"/></clipPath><clipPath id="cb32dd9ede"><path d="M 68 135.773438 L 135.5 68.273438 L 101.75 68.273438 L 101.75 0.773438 L 34.25 0.773438 L 34.25 68.273438 L 0.5 68.273438 Z M 68 135.773438 " clip-rule="nonzero"/></clipPath><clipPath id="cbfeecc0eb"><rect x="0" width="136" y="0" height="136"/></clipPath></defs><g clip-path="url(#af58a4b0ba)"><g clip-path="url(#60bbf2dce3)"><g transform="matrix(1, 0, 0, 1, 257, 279)"><g clip-path="url(#fa083e7733)"><g clip-path="url(#45bbd5da1f)"><g clip-path="url(#f9c37b9571)"><path fill="#2d4d31" d="M 0.601562 0.253906 L 42.703125 0.253906 L 42.703125 42.355469 L 0.601562 42.355469 Z M 0.601562 0.253906 " fill-opacity="1" fill-rule="nonzero"/></g></g></g></g></g></g><g clip-path="url(#75160c4eb7)"><g clip-path="url(#189e81a954)"><g transform="matrix(1, 0, 0, 1, 157, 131)"><g clip-path="url(#cbfeecc0eb)"><g clip-path="url(#6091d58d48)"><g clip-path="url(#cb32dd9ede)"><path fill="#2d4d31" d="M 135.5 135.773438 L 0.5 135.773438 L 0.5 0.773438 L 135.5 0.773438 Z M 135.5 135.773438 " fill-opacity="1" fill-rule="nonzero"/></g></g></g></g></g></g></svg>