<svg xmlns="http://www.w3.org/2000/svg" xmlns:xlink="http://www.w3.org/1999/xlink" width="600" zoomAndPan="magnify" viewBox="0 0 450 449.999984" height="600" preserveAspectRatio="xMidYMid meet" version="1.0"><defs><clipPath id="9c0b9cae93"><path d="M 302.34375 315.472656 L 344.445312 315.472656 L 344.445312 357.574219 L 302.34375 357.574219 Z M 302.34375 315.472656 " clip-rule="nonzero"/></clipPath><clipPath id="6ffbdc19ae"><path d="M 323.394531 315.472656 L 330.09375 329.824219 L 344.445312 336.523438 L 330.09375 343.222656 L 323.394531 357.574219 L 316.695312 343.222656 L 302.34375 336.523438 L 316.695312 329.824219 Z M 323.394531 315.472656 " clip-rule="nonzero"/></clipPath><clipPath id="a998dcfa31"><path d="M 0.34375 0.472656 L 42.445312 0.472656 L 42.445312 42.574219 L 0.34375 42.574219 Z M 0.34375 0.472656 " clip-rule="nonzero"/></clipPath><clipPath id="3492649280"><path d="M 21.394531 0.472656 L 28.09375 14.824219 L 42.445312 21.523438 L 28.09375 28.222656 L 21.394531 42.574219 L 14.695312 28.222656 L 0.34375 21.523438 L 14.695312 14.824219 Z M 21.394531 0.472656 " clip-rule="nonzero"/></clipPath><clipPath id="328e880dd7"><rect x="0" width="43" y="0" height="43"/></clipPath><clipPath id="01017c2e47"><path d="M 157.5 131.773438 L 292.5 131.773438 L 292.5 266.773438 L 157.5 266.773438 Z M 157.5 131.773438 " clip-rule="nonzero"/></clipPath><clipPath id="63d61fd253"><path d="M 225 131.773438 L 157.5 199.273438 L 191.25 199.273438 L 191.25 266.773438 L 258.75 266.773438 L 258.75 199.273438 L 292.5 199.273438 Z M 225 131.773438 " clip-rule="nonzero"/></clipPath><clipPath id="ea6af7775f"><path d="M 0.5 0.773438 L 135.5 0.773438 L 135.5 135.773438 L 0.5 135.773438 Z M 0.5 0.773438 " clip-rule="nonzero"/></clipPath><clipPath id="75f694b661"><path d="M 68 0.773438 L 0.5 68.273438 L 34.25 68.273438 L 34.25 135.773438 L 101.75 135.773438 L 101.75 68.273438 L 135.5 68.273438 Z M 68 0.773438 " clip-rule="nonzero"/></clipPath><clipPath id="33f25be2e5"><rect x="0" width="136" y="0" height="136"/></clipPath></defs><g clip-path="url(#9c0b9cae93)"><g clip-path="url(#6ffbdc19ae)"><g transform="matrix(1, 0, 0, 1, 302, 315)"><g clip-path="url(#328e880dd7)"><g clip-path="url(#a998dcfa31)"><g clip-path="url(#3492649280)"><path fill="#2d4d31" d="M 0.34375 0.472656 L 42.445312 0.472656 L 42.445312 42.574219 L 0.34375 42.574219 Z M 0.34375 0.472656 " fill-opacity="1" fill-rule="nonzero"/></g></g></g></g></g></g><g clip-path="url(#01017c2e47)"><g clip-path="url(#63d61fd253)"><g transform="matrix(1, 0, 0, 1, 157, 131)"><g clip-path="url(#33f25be2e5)"><g clip-path="url(#ea6af7775f)"><g clip-path="url(#75f694b661)"><path fill="#2d4d31" d="M 0.5 0.773438 L 135.5 0.773438 L 135.5 135.773438 L 0.5 135.773438 Z M 0.5 0.773438 " fill-opacity="1" fill-rule="nonzero"/></g></g></g></g></g></g></svg>