<svg xmlns="http://www.w3.org/2000/svg" xmlns:xlink="http://www.w3.org/1999/xlink" width="600" zoomAndPan="magnify" viewBox="0 0 450 449.999984" height="600" preserveAspectRatio="xMidYMid meet" version="1.0"><defs><clipPath id="14cd928786"><path d="M 71.808594 72.984375 L 113.910156 72.984375 L 113.910156 115.089844 L 71.808594 115.089844 Z M 71.808594 72.984375 " clip-rule="nonzero"/></clipPath><clipPath id="73cdee9027"><path d="M 92.859375 72.984375 L 99.558594 87.339844 L 113.910156 94.035156 L 99.558594 100.734375 L 92.859375 115.089844 L 86.160156 100.734375 L 71.808594 94.035156 L 86.160156 87.339844 Z M 92.859375 72.984375 " clip-rule="nonzero"/></clipPath><clipPath id="6a6f9039b3"><path d="M 0.808594 0.984375 L 42.910156 0.984375 L 42.910156 43.089844 L 0.808594 43.089844 Z M 0.808594 0.984375 " clip-rule="nonzero"/></clipPath><clipPath id="774ed91fb6"><path d="M 21.859375 0.984375 L 28.558594 15.339844 L 42.910156 22.035156 L 28.558594 28.734375 L 21.859375 43.089844 L 15.160156 28.734375 L 0.808594 22.035156 L 15.160156 15.339844 Z M 21.859375 0.984375 " clip-rule="nonzero"/></clipPath><clipPath id="f6700f8f1a"><rect x="0" width="43" y="0" height="44"/></clipPath><clipPath id="9034b8e082"><path d="M 157.5 131.773438 L 292.5 131.773438 L 292.5 266.773438 L 157.5 266.773438 Z M 157.5 131.773438 " clip-rule="nonzero"/></clipPath><clipPath id="d9d2f386eb"><path d="M 225 131.773438 L 157.5 199.273438 L 191.25 199.273438 L 191.25 266.773438 L 258.75 266.773438 L 258.75 199.273438 L 292.5 199.273438 Z M 225 131.773438 " clip-rule="nonzero"/></clipPath><clipPath id="30d5edf2e1"><path d="M 0.5 0.773438 L 135.5 0.773438 L 135.5 135.773438 L 0.5 135.773438 Z M 0.5 0.773438 " clip-rule="nonzero"/></clipPath><clipPath id="40abd08be5"><path d="M 68 0.773438 L 0.5 68.273438 L 34.25 68.273438 L 34.25 135.773438 L 101.75 135.773438 L 101.75 68.273438 L 135.5 68.273438 Z M 68 0.773438 " clip-rule="nonzero"/></clipPath><clipPath id="9b7bfd0fc7"><rect x="0" width="136" y="0" height="136"/></clipPath></defs><g clip-path="url(#14cd928786)"><g clip-path="url(#73cdee9027)"><g transform="matrix(1, 0, 0, 1, 71, 72)"><g clip-path="url(#f6700f8f1a)"><g clip-path="url(#6a6f9039b3)"><g clip-path="url(#774ed91fb6)"><path fill="#2d4d31" d="M 0.808594 0.984375 L 42.910156 0.984375 L 42.910156 43.089844 L 0.808594 43.089844 Z M 0.808594 0.984375 " fill-opacity="1" fill-rule="nonzero"/></g></g></g></g></g></g><g clip-path="url(#9034b8e082)"><g clip-path="url(#d9d2f386eb)"><g transform="matrix(1, 0, 0, 1, 157, 131)"><g clip-path="url(#9b7bfd0fc7)"><g clip-path="url(#30d5edf2e1)"><g clip-path="url(#40abd08be5)"><path fill="#ffffff" d="M 0.5 0.773438 L 135.5 0.773438 L 135.5 135.773438 L 0.5 135.773438 Z M 0.5 0.773438 " fill-opacity="1" fill-rule="nonzero"/></g></g></g></g><path stroke-linecap="butt" transform="matrix(0.75, 0, 0, 0.75, 157.499996, 131.771752)" fill="none" stroke-linejoin="miter" d="M 90.000013 0.00224715 L 0.00000549 90.002254 L 45.000009 90.002254 L 45.000009 180.002261 L 135.000016 180.002261 L 135.000016 90.002254 L 180.00002 90.002254 Z M 90.000013 0.00224715 " stroke="#000000" stroke-width="4" stroke-opacity="1" stroke-miterlimit="4"/></g></g></svg>