<svg xmlns="http://www.w3.org/2000/svg" xmlns:xlink="http://www.w3.org/1999/xlink" width="600" zoomAndPan="magnify" viewBox="0 0 450 449.999984" height="600" preserveAspectRatio="xMidYMid meet" version="1.0"><defs><clipPath id="a19c068b2d"><path d="M 95.316406 89.667969 L 137.417969 89.667969 L 137.417969 131.773438 L 95.316406 131.773438 Z M 95.316406 89.667969 " clip-rule="nonzero"/></clipPath><clipPath id="06c5cf7584"><path d="M 116.367188 89.667969 L 123.066406 104.019531 L 137.417969 110.71875 L 123.066406 117.417969 L 116.367188 131.773438 L 109.667969 117.417969 L 95.316406 110.71875 L 109.667969 104.019531 Z M 116.367188 89.667969 " clip-rule="nonzero"/></clipPath><clipPath id="e99dce5342"><path d="M 0.316406 0.667969 L 42.417969 0.667969 L 42.417969 42.773438 L 0.316406 42.773438 Z M 0.316406 0.667969 " clip-rule="nonzero"/></clipPath><clipPath id="352541e199"><path d="M 21.367188 0.667969 L 28.066406 15.019531 L 42.417969 21.71875 L 28.066406 28.417969 L 21.367188 42.773438 L 14.667969 28.417969 L 0.316406 21.71875 L 14.667969 15.019531 Z M 21.367188 0.667969 " clip-rule="nonzero"/></clipPath><clipPath id="ae5ab93bbe"><rect x="0" width="43" y="0" height="43"/></clipPath><clipPath id="80752188b6"><path d="M 157.5 131.773438 L 292.5 131.773438 L 292.5 266.773438 L 157.5 266.773438 Z M 157.5 131.773438 " clip-rule="nonzero"/></clipPath><clipPath id="c054223cd7"><path d="M 225 131.773438 L 157.5 199.273438 L 191.25 199.273438 L 191.25 266.773438 L 258.75 266.773438 L 258.75 199.273438 L 292.5 199.273438 Z M 225 131.773438 " clip-rule="nonzero"/></clipPath><clipPath id="2de966a83e"><path d="M 0.5 0.773438 L 135.5 0.773438 L 135.5 135.773438 L 0.5 135.773438 Z M 0.5 0.773438 " clip-rule="nonzero"/></clipPath><clipPath id="1774055585"><path d="M 68 0.773438 L 0.5 68.273438 L 34.25 68.273438 L 34.25 135.773438 L 101.75 135.773438 L 101.75 68.273438 L 135.5 68.273438 Z M 68 0.773438 " clip-rule="nonzero"/></clipPath><clipPath id="551cd44dbd"><rect x="0" width="136" y="0" height="136"/></clipPath></defs><g clip-path="url(#a19c068b2d)"><g clip-path="url(#06c5cf7584)"><g transform="matrix(1, 0, 0, 1, 95, 89)"><g clip-path="url(#ae5ab93bbe)"><g clip-path="url(#e99dce5342)"><g clip-path="url(#352541e199)"><path fill="#2d4d31" d="M 0.316406 0.667969 L 42.417969 0.667969 L 42.417969 42.773438 L 0.316406 42.773438 Z M 0.316406 0.667969 " fill-opacity="1" fill-rule="nonzero"/></g></g></g></g></g></g><g clip-path="url(#80752188b6)"><g clip-path="url(#c054223cd7)"><g transform="matrix(1, 0, 0, 1, 157, 131)"><g clip-path="url(#551cd44dbd)"><g clip-path="url(#2de966a83e)"><g clip-path="url(#1774055585)"><path fill="#2d4d31" d="M 0.5 0.773438 L 135.5 0.773438 L 135.5 135.773438 L 0.5 135.773438 Z M 0.5 0.773438 " fill-opacity="1" fill-rule="nonzero"/></g></g></g></g></g></g></svg>