<svg xmlns="http://www.w3.org/2000/svg" xmlns:xlink="http://www.w3.org/1999/xlink" width="600" zoomAndPan="magnify" viewBox="0 0 450 449.999984" height="600" preserveAspectRatio="xMidYMid meet" version="1.0"><defs><clipPath id="aa11eeb080"><path d="M 45 92.085938 L 405 92.085938 L 405 230.308594 L 45 230.308594 Z M 45 92.085938 " clip-rule="nonzero"/></clipPath><clipPath id="a2ae7896f6"><path d="M 78.75 92.085938 L 371.25 92.085938 L 405 230.308594 L 45 230.308594 Z M 78.75 92.085938 " clip-rule="nonzero"/></clipPath><clipPath id="b70b3e9385"><path d="M 0 0.0859375 L 360 0.0859375 L 360 138.308594 L 0 138.308594 Z M 0 0.0859375 " clip-rule="nonzero"/></clipPath><clipPath id="4839db1310"><path d="M 33.75 0.0859375 L 326.25 0.0859375 L 360 138.308594 L 0 138.308594 Z M 33.75 0.0859375 " clip-rule="nonzero"/></clipPath><clipPath id="4529a4c2cd"><rect x="0" width="360" y="0" height="139"/></clipPath><clipPath id="d2c90371d5"><path d="M 45 92.085938 L 405 92.085938 L 405 230.085938 L 45 230.085938 Z M 45 92.085938 " clip-rule="nonzero"/></clipPath><clipPath id="3546c4cf05"><path d="M 78.75 92.085938 L 371.25 92.085938 L 405 230.308594 L 45 230.308594 Z M 78.75 92.085938 " clip-rule="nonzero"/></clipPath><clipPath id="a510e096f2"><path d="M 183.214844 122.375 L 261.210938 122.375 L 261.210938 200.375 L 183.214844 200.375 Z M 183.214844 122.375 " clip-rule="nonzero"/></clipPath><clipPath id="72dc82d438"><path d="M 45 230.308594 L 405 230.308594 L 405 368.53125 L 45 368.53125 Z M 45 230.308594 " clip-rule="nonzero"/></clipPath><clipPath id="fb55cd89d8"><path d="M 371.25 368.53125 L 78.75 368.53125 L 45 230.308594 L 405 230.308594 Z M 371.25 368.53125 " clip-rule="nonzero"/></clipPath><clipPath id="786a66b321"><path d="M 0 0.308594 L 360 0.308594 L 360 138.53125 L 0 138.53125 Z M 0 0.308594 " clip-rule="nonzero"/></clipPath><clipPath id="260b7f5e8f"><path d="M 326.25 138.53125 L 33.75 138.53125 L 0 0.308594 L 360 0.308594 Z M 326.25 138.53125 " clip-rule="nonzero"/></clipPath><clipPath id="93b03876f1"><rect x="0" width="360" y="0" height="139"/></clipPath><clipPath id="42eb2dfcdc"><path d="M 45 230.53125 L 405 230.53125 L 405 368.53125 L 45 368.53125 Z M 45 230.53125 " clip-rule="nonzero"/></clipPath><clipPath id="e99727af4d"><path d="M 371.25 368.53125 L 78.75 368.53125 L 45 230.308594 L 405 230.308594 Z M 371.25 368.53125 " clip-rule="nonzero"/></clipPath><clipPath id="9756ccf453"><path d="M 182.535156 253.136719 L 261.285156 253.136719 L 261.285156 331.886719 L 182.535156 331.886719 Z M 182.535156 253.136719 " clip-rule="nonzero"/></clipPath></defs><g clip-path="url(#aa11eeb080)"><g clip-path="url(#a2ae7896f6)"><g transform="matrix(1, 0, 0, 1, 45, 92)"><g clip-path="url(#4529a4c2cd)"><g clip-path="url(#b70b3e9385)"><g clip-path="url(#4839db1310)"><path fill="#ffffff" d="M 0 0.0859375 L 360.136719 0.0859375 L 360.136719 138.308594 L 0 138.308594 Z M 0 0.0859375 " fill-opacity="1" fill-rule="nonzero"/></g></g></g></g></g></g><g clip-path="url(#d2c90371d5)"><g clip-path="url(#3546c4cf05)"><path stroke-linecap="butt" transform="matrix(0.75, 0, 0, 0.75, 45.001677, 92.085403)" fill="none" stroke-linejoin="miter" d="M 44.997767 0.000712363 L 434.997797 0.000712363 L 479.997801 184.297602 L -0.00223659 184.297602 Z M 44.997767 0.000712363 " stroke="#000000" stroke-width="4" stroke-opacity="1" stroke-miterlimit="4"/></g></g><g clip-path="url(#a510e096f2)"><path fill="#231f20" d="M 222.214844 200.375 C 200.703125 200.375 183.214844 182.882812 183.214844 161.375 C 183.214844 139.867188 200.703125 122.375 222.214844 122.375 C 243.722656 122.375 261.214844 139.867188 261.214844 161.375 C 261.214844 182.882812 243.722656 200.375 222.214844 200.375 Z M 222.214844 124.6875 C 201.980469 124.6875 185.527344 141.144531 185.527344 161.375 C 185.527344 181.605469 201.980469 198.0625 222.214844 198.0625 C 242.445312 198.0625 258.898438 181.605469 258.898438 161.375 C 258.898438 141.144531 242.445312 124.6875 222.214844 124.6875 Z M 222.214844 124.6875 " fill-opacity="1" fill-rule="nonzero"/></g><path fill="#231f20" d="M 225.804688 171.765625 L 221.5625 171.765625 L 221.5625 160.15625 L 221.605469 158.25 L 221.664062 156.160156 C 220.953125 156.871094 220.46875 157.335938 220.203125 157.539062 L 217.890625 159.386719 L 215.839844 156.828125 L 222.3125 151.675781 L 225.804688 151.675781 Z M 225.804688 171.765625 " fill-opacity="1" fill-rule="nonzero"/><g clip-path="url(#72dc82d438)"><g clip-path="url(#fb55cd89d8)"><g transform="matrix(1, 0, 0, 1, 45, 230)"><g clip-path="url(#93b03876f1)"><g clip-path="url(#786a66b321)"><g clip-path="url(#260b7f5e8f)"><path fill="#ffffff" d="M 360 138.53125 L -0.136719 138.53125 L -0.136719 0.308594 L 360 0.308594 Z M 360 138.53125 " fill-opacity="1" fill-rule="nonzero"/></g></g></g></g></g></g><g clip-path="url(#42eb2dfcdc)"><g clip-path="url(#e99727af4d)"><path stroke-linecap="butt" transform="matrix(-0.75, 0, 0, -0.75, 404.998297, 368.531923)" fill="none" stroke-linejoin="miter" d="M 44.997732 0.000897727 L 434.997763 0.000897727 L 479.997766 184.297787 L -0.00227119 184.297787 Z M 44.997732 0.000897727 " stroke="#000000" stroke-width="4" stroke-opacity="1" stroke-miterlimit="4"/></g></g><g clip-path="url(#9756ccf453)"><path fill="#231f20" d="M 221.910156 331.886719 C 200.195312 331.886719 182.535156 314.226562 182.535156 292.511719 C 182.535156 270.796875 200.195312 253.136719 221.910156 253.136719 C 243.628906 253.136719 261.285156 270.796875 261.285156 292.511719 C 261.285156 314.226562 243.628906 331.886719 221.910156 331.886719 Z M 221.910156 255.472656 C 201.488281 255.472656 184.871094 272.085938 184.871094 292.511719 C 184.871094 312.9375 201.488281 329.550781 221.910156 329.550781 C 242.335938 329.550781 258.949219 312.9375 258.949219 292.511719 C 258.949219 272.085938 242.335938 255.472656 221.910156 255.472656 Z M 221.910156 255.472656 " fill-opacity="1" fill-rule="nonzero"/></g><path fill="#231f20" d="M 229.121094 303 L 214.945312 303 L 214.945312 300.03125 L 220.027344 294.886719 C 221.542969 293.351562 222.527344 292.265625 222.976562 291.671875 C 223.449219 291.078125 223.777344 290.523438 223.980469 290.011719 C 224.183594 289.5 224.289062 288.96875 224.289062 288.433594 C 224.289062 287.613281 224.0625 287.019531 223.613281 286.609375 C 223.160156 286.222656 222.566406 286.015625 221.808594 286.015625 C 221.03125 286.015625 220.253906 286.203125 219.515625 286.550781 C 218.777344 286.917969 218 287.429688 217.199219 288.085938 L 214.882812 285.339844 C 215.886719 284.5 216.707031 283.886719 217.363281 283.539062 C 218.019531 283.191406 218.734375 282.921875 219.515625 282.71875 C 220.292969 282.535156 221.152344 282.433594 222.117188 282.433594 C 223.386719 282.433594 224.492188 282.65625 225.476562 283.128906 C 226.4375 283.601562 227.195312 284.234375 227.730469 285.074219 C 228.261719 285.914062 228.527344 286.855469 228.527344 287.921875 C 228.527344 288.863281 228.363281 289.726562 228.035156 290.542969 C 227.710938 291.363281 227.195312 292.203125 226.519531 293.0625 C 225.824219 293.925781 224.617188 295.152344 222.875 296.730469 L 220.273438 299.191406 L 220.273438 299.375 L 229.101562 299.375 L 229.101562 303 Z M 229.121094 303 " fill-opacity="1" fill-rule="nonzero"/></svg>