<svg xmlns="http://www.w3.org/2000/svg" xmlns:xlink="http://www.w3.org/1999/xlink" width="600" zoomAndPan="magnify" viewBox="0 0 450 449.999984" height="600" preserveAspectRatio="xMidYMid meet" version="1.0"><defs><clipPath id="b635e03262"><path d="M 116.242188 79.488281 L 383.390625 79.488281 L 383.390625 225 L 116.242188 225 Z M 116.242188 79.488281 " clip-rule="nonzero"/></clipPath><clipPath id="682271d774"><path d="M 164.746094 79.488281 L 383.355469 79.488281 L 334.851562 225 L 116.242188 225 Z M 164.746094 79.488281 " clip-rule="nonzero"/></clipPath><clipPath id="296bf1b59b"><path d="M 0.242188 0.488281 L 267.390625 0.488281 L 267.390625 146 L 0.242188 146 Z M 0.242188 0.488281 " clip-rule="nonzero"/></clipPath><clipPath id="3e21a1e094"><path d="M 48.746094 0.488281 L 267.355469 0.488281 L 218.851562 146 L 0.242188 146 Z M 48.746094 0.488281 " clip-rule="nonzero"/></clipPath><clipPath id="f3fbb52802"><rect x="0" width="268" y="0" height="146"/></clipPath><clipPath id="d43d2637db"><path d="M 116.246094 79.488281 L 383.242188 79.488281 L 383.242188 224.988281 L 116.246094 224.988281 Z M 116.246094 79.488281 " clip-rule="nonzero"/></clipPath><clipPath id="9e04e8110a"><path d="M 164.746094 79.488281 L 383.34375 79.488281 L 334.84375 224.988281 L 116.246094 224.988281 Z M 164.746094 79.488281 " clip-rule="nonzero"/></clipPath><clipPath id="860764329a"><path d="M 66.644531 225 L 333.792969 225 L 333.792969 370.511719 L 66.644531 370.511719 Z M 66.644531 225 " clip-rule="nonzero"/></clipPath><clipPath id="d0e56c33f5"><path d="M 115.148438 225 L 333.757812 225 L 285.253906 370.511719 L 66.644531 370.511719 Z M 115.148438 225 " clip-rule="nonzero"/></clipPath><clipPath id="4e320c5f10"><path d="M 0.644531 0 L 267.792969 0 L 267.792969 145.511719 L 0.644531 145.511719 Z M 0.644531 0 " clip-rule="nonzero"/></clipPath><clipPath id="50cefacd00"><path d="M 49.148438 0 L 267.757812 0 L 219.253906 145.511719 L 0.644531 145.511719 Z M 49.148438 0 " clip-rule="nonzero"/></clipPath><clipPath id="bc89569c61"><rect x="0" width="268" y="0" height="146"/></clipPath><clipPath id="b9f201f6cd"><path d="M 66.648438 225 L 333.644531 225 L 333.644531 370.5 L 66.648438 370.5 Z M 66.648438 225 " clip-rule="nonzero"/></clipPath><clipPath id="782549868b"><path d="M 115.148438 225 L 333.742188 225 L 285.242188 370.5 L 66.648438 370.5 Z M 115.148438 225 " clip-rule="nonzero"/></clipPath><clipPath id="ec782dce00"><path d="M 186.175781 124.449219 L 264.175781 124.449219 L 264.175781 202.449219 L 186.175781 202.449219 Z M 186.175781 124.449219 " clip-rule="nonzero"/></clipPath><clipPath id="b258bbb295"><path d="M 185.5 249.527344 L 264.25 249.527344 L 264.25 328.277344 L 185.5 328.277344 Z M 185.5 249.527344 " clip-rule="nonzero"/></clipPath></defs><g clip-path="url(#b635e03262)"><g clip-path="url(#682271d774)"><g transform="matrix(1, 0, 0, 1, 116, 79)"><g clip-path="url(#f3fbb52802)"><g clip-path="url(#296bf1b59b)"><g clip-path="url(#3e21a1e094)"><path fill="#ffffff" d="M 0.242188 0.488281 L 267.390625 0.488281 L 267.390625 146 L 0.242188 146 Z M 0.242188 0.488281 " fill-opacity="1" fill-rule="nonzero"/></g></g></g></g></g></g><g clip-path="url(#d43d2637db)"><g clip-path="url(#9e04e8110a)"><path stroke-linecap="butt" transform="matrix(0.75, 0, 0, 0.75, 116.247757, 79.489446)" fill="none" stroke-linejoin="miter" d="M 64.664453 -0.00155274 L 356.128018 -0.00155274 L 291.461346 193.998462 L -0.00221833 193.998462 Z M 64.664453 -0.00155274 " stroke="#000000" stroke-width="4" stroke-opacity="1" stroke-miterlimit="4"/></g></g><g clip-path="url(#860764329a)"><g clip-path="url(#d0e56c33f5)"><g transform="matrix(1, 0, 0, 1, 66, 225)"><g clip-path="url(#bc89569c61)"><g clip-path="url(#4e320c5f10)"><g clip-path="url(#50cefacd00)"><path fill="#ffffff" d="M 0.644531 0 L 267.792969 0 L 267.792969 145.511719 L 0.644531 145.511719 Z M 0.644531 0 " fill-opacity="1" fill-rule="nonzero"/></g></g></g></g></g></g><g clip-path="url(#b9f201f6cd)"><g clip-path="url(#782549868b)"><path stroke-linecap="butt" transform="matrix(0.75, 0, 0, 0.75, 66.648569, 224.999982)" fill="none" stroke-linejoin="miter" d="M 64.666496 0.0000233667 L 356.124852 0.0000233667 L 291.45818 194.000038 L -0.000175812 194.000038 Z M 64.666496 0.0000233667 " stroke="#000000" stroke-width="4" stroke-opacity="1" stroke-miterlimit="4"/></g></g><g clip-path="url(#ec782dce00)"><path fill="#231f20" d="M 225.175781 202.449219 C 203.667969 202.449219 186.175781 184.957031 186.175781 163.449219 C 186.175781 141.941406 203.667969 124.449219 225.175781 124.449219 C 246.6875 124.449219 264.175781 141.941406 264.175781 163.449219 C 264.175781 184.957031 246.6875 202.449219 225.175781 202.449219 Z M 225.175781 126.761719 C 204.945312 126.761719 188.492188 143.21875 188.492188 163.449219 C 188.492188 183.679688 204.945312 200.136719 225.175781 200.136719 C 245.40625 200.136719 261.863281 183.679688 261.863281 163.449219 C 261.863281 143.21875 245.40625 126.761719 225.175781 126.761719 Z M 225.175781 126.761719 " fill-opacity="1" fill-rule="nonzero"/></g><path fill="#231f20" d="M 228.769531 173.839844 L 224.527344 173.839844 L 224.527344 162.230469 L 224.570312 160.324219 L 224.628906 158.234375 C 223.917969 158.945312 223.433594 159.410156 223.167969 159.613281 L 220.855469 161.460938 L 218.804688 158.902344 L 225.277344 153.75 L 228.769531 153.75 Z M 228.769531 173.839844 " fill-opacity="1" fill-rule="nonzero"/><g clip-path="url(#b258bbb295)"><path fill="#231f20" d="M 224.875 328.277344 C 203.160156 328.277344 185.5 310.621094 185.5 288.902344 C 185.5 267.1875 203.160156 249.527344 224.875 249.527344 C 246.589844 249.527344 264.25 267.1875 264.25 288.902344 C 264.25 310.621094 246.589844 328.277344 224.875 328.277344 Z M 224.875 251.863281 C 204.449219 251.863281 187.835938 268.480469 187.835938 288.902344 C 187.835938 309.328125 204.449219 325.945312 224.875 325.945312 C 245.300781 325.945312 261.914062 309.328125 261.914062 288.902344 C 261.914062 268.480469 245.300781 251.863281 224.875 251.863281 Z M 224.875 251.863281 " fill-opacity="1" fill-rule="nonzero"/></g><path fill="#231f20" d="M 232.085938 299.394531 L 217.910156 299.394531 L 217.910156 296.421875 L 222.992188 291.28125 C 224.507812 289.742188 225.492188 288.660156 225.941406 288.0625 C 226.414062 287.46875 226.742188 286.917969 226.945312 286.40625 C 227.148438 285.890625 227.253906 285.359375 227.253906 284.828125 C 227.253906 284.007812 227.027344 283.414062 226.578125 283.003906 C 226.125 282.613281 225.53125 282.410156 224.773438 282.410156 C 223.996094 282.410156 223.214844 282.59375 222.480469 282.941406 C 221.742188 283.3125 220.964844 283.824219 220.164062 284.480469 L 217.847656 281.734375 C 218.851562 280.894531 219.671875 280.277344 220.328125 279.929688 C 220.984375 279.582031 221.699219 279.316406 222.480469 279.113281 C 223.257812 278.925781 224.117188 278.824219 225.082031 278.824219 C 226.351562 278.824219 227.457031 279.050781 228.441406 279.519531 C 229.402344 279.992188 230.160156 280.628906 230.695312 281.46875 C 231.226562 282.308594 231.492188 283.25 231.492188 284.316406 C 231.492188 285.257812 231.328125 286.117188 231 286.9375 C 230.671875 287.757812 230.160156 288.597656 229.484375 289.457031 C 228.789062 290.316406 227.582031 291.546875 225.839844 293.125 L 223.238281 295.582031 L 223.238281 295.765625 L 232.066406 295.765625 L 232.066406 299.394531 Z M 232.085938 299.394531 " fill-opacity="1" fill-rule="nonzero"/></svg>