<svg xmlns="http://www.w3.org/2000/svg" xmlns:xlink="http://www.w3.org/1999/xlink" width="600" zoomAndPan="magnify" viewBox="0 0 450 449.999984" height="600" preserveAspectRatio="xMidYMid meet" version="1.0"><defs><clipPath id="3e24658849"><path d="M 52 224.996094 L 391.992188 224.996094 L 391.992188 398.285156 L 52 398.285156 Z M 52 224.996094 " clip-rule="nonzero"/></clipPath><clipPath id="877db7cf5d"><path d="M 52.078125 224.996094 C 52.078125 319.382812 129.460938 398.285156 222.035156 398.285156 C 314.609375 398.285156 391.992188 319.382812 391.992188 224.996094 Z M 52.078125 224.996094 " clip-rule="nonzero"/></clipPath><clipPath id="c42b4dd545"><path d="M 0 0.996094 L 339.992188 0.996094 L 339.992188 174.285156 L 0 174.285156 Z M 0 0.996094 " clip-rule="nonzero"/></clipPath><clipPath id="e38a750f59"><path d="M 0.078125 0.996094 C 0.078125 95.382812 77.460938 174.285156 170.035156 174.285156 C 262.609375 174.285156 339.992188 95.382812 339.992188 0.996094 Z M 0.078125 0.996094 " clip-rule="nonzero"/></clipPath><clipPath id="a59d79d3de"><rect x="0" width="340" y="0" height="175"/></clipPath><clipPath id="5f68626b0e"><path d="M 52.242188 225.035156 L 391.988281 225.035156 L 391.988281 398.285156 L 52.242188 398.285156 Z M 52.242188 225.035156 " clip-rule="nonzero"/></clipPath><clipPath id="bacb61c6cc"><path d="M 52.082031 225 C 52.082031 319.386719 129.464844 398.285156 222.035156 398.285156 C 314.605469 398.285156 391.988281 319.386719 391.988281 225 Z M 52.082031 225 " clip-rule="nonzero"/></clipPath><clipPath id="c19af36dd3"><path d="M 182.535156 253.136719 L 261.285156 253.136719 L 261.285156 331.886719 L 182.535156 331.886719 Z M 182.535156 253.136719 " clip-rule="nonzero"/></clipPath></defs><g clip-path="url(#3e24658849)"><g clip-path="url(#877db7cf5d)"><g transform="matrix(1, 0, 0, 1, 52, 224)"><g clip-path="url(#a59d79d3de)"><g clip-path="url(#c42b4dd545)"><g clip-path="url(#e38a750f59)"><path fill="#ffffff" d="M 339.992188 174.285156 L 0.183594 174.285156 L 0.183594 0.996094 L 339.992188 0.996094 Z M 339.992188 174.285156 " fill-opacity="1" fill-rule="nonzero"/></g></g></g></g></g></g><g clip-path="url(#5f68626b0e)"><g clip-path="url(#bacb61c6cc)"><path stroke-linecap="butt" transform="matrix(-0.75, 0, 0, -0.75, 391.988298, 398.285124)" fill="none" stroke-linejoin="miter" d="M 453.208392 231.04685 C 453.208392 105.197882 350.0313 -0.0000427627 226.604207 -0.0000427627 C 103.177114 -0.0000427627 0.0000228913 105.197882 0.0000228913 231.04685 Z M 453.208392 231.04685 " stroke="#000000" stroke-width="4" stroke-opacity="1" stroke-miterlimit="4"/></g></g><g clip-path="url(#c19af36dd3)"><path fill="#231f20" d="M 221.910156 331.886719 C 200.195312 331.886719 182.535156 314.226562 182.535156 292.511719 C 182.535156 270.796875 200.195312 253.136719 221.910156 253.136719 C 243.628906 253.136719 261.285156 270.796875 261.285156 292.511719 C 261.285156 314.226562 243.628906 331.886719 221.910156 331.886719 Z M 221.910156 255.472656 C 201.488281 255.472656 184.871094 272.085938 184.871094 292.511719 C 184.871094 312.9375 201.488281 329.550781 221.910156 329.550781 C 242.335938 329.550781 258.949219 312.9375 258.949219 292.511719 C 258.949219 272.085938 242.335938 255.472656 221.910156 255.472656 Z M 221.910156 255.472656 " fill-opacity="1" fill-rule="nonzero"/></g><path fill="#231f20" d="M 229.121094 303 L 214.945312 303 L 214.945312 300.03125 L 220.027344 294.886719 C 221.542969 293.351562 222.527344 292.265625 222.976562 291.671875 C 223.449219 291.078125 223.777344 290.523438 223.980469 290.011719 C 224.183594 289.5 224.289062 288.96875 224.289062 288.433594 C 224.289062 287.613281 224.0625 287.019531 223.613281 286.609375 C 223.160156 286.222656 222.566406 286.015625 221.808594 286.015625 C 221.03125 286.015625 220.253906 286.203125 219.515625 286.550781 C 218.777344 286.917969 218 287.429688 217.199219 288.085938 L 214.882812 285.339844 C 215.886719 284.5 216.707031 283.886719 217.363281 283.539062 C 218.019531 283.191406 218.734375 282.921875 219.515625 282.71875 C 220.292969 282.535156 221.152344 282.433594 222.117188 282.433594 C 223.386719 282.433594 224.492188 282.65625 225.476562 283.128906 C 226.4375 283.601562 227.195312 284.234375 227.730469 285.074219 C 228.261719 285.914062 228.527344 286.855469 228.527344 287.921875 C 228.527344 288.863281 228.363281 289.726562 228.035156 290.542969 C 227.710938 291.363281 227.195312 292.203125 226.519531 293.066406 C 225.824219 293.925781 224.617188 295.152344 222.875 296.730469 L 220.273438 299.191406 L 220.273438 299.375 L 229.101562 299.375 L 229.101562 303 Z M 229.121094 303 " fill-opacity="1" fill-rule="nonzero"/></svg>