<svg xmlns="http://www.w3.org/2000/svg" xmlns:xlink="http://www.w3.org/1999/xlink" width="600" zoomAndPan="magnify" viewBox="0 0 450 449.999984" height="600" preserveAspectRatio="xMidYMid meet" version="1.0"><defs><clipPath id="0101fc5c33"><path d="M 45 230.308594 L 405 230.308594 L 405 368.53125 L 45 368.53125 Z M 45 230.308594 " clip-rule="nonzero"/></clipPath><clipPath id="707661eb3f"><path d="M 371.25 368.53125 L 78.75 368.53125 L 45 230.308594 L 405 230.308594 Z M 371.25 368.53125 " clip-rule="nonzero"/></clipPath><clipPath id="f5e3ed5b2d"><path d="M 0 0.308594 L 360 0.308594 L 360 138.53125 L 0 138.53125 Z M 0 0.308594 " clip-rule="nonzero"/></clipPath><clipPath id="9576f6b314"><path d="M 326.25 138.53125 L 33.75 138.53125 L 0 0.308594 L 360 0.308594 Z M 326.25 138.53125 " clip-rule="nonzero"/></clipPath><clipPath id="bb336e9b85"><rect x="0" width="360" y="0" height="139"/></clipPath><clipPath id="2c5735dc04"><path d="M 45 230.53125 L 405 230.53125 L 405 368.53125 L 45 368.53125 Z M 45 230.53125 " clip-rule="nonzero"/></clipPath><clipPath id="c34b58d95e"><path d="M 371.25 368.53125 L 78.75 368.53125 L 45 230.308594 L 405 230.308594 Z M 371.25 368.53125 " clip-rule="nonzero"/></clipPath><clipPath id="1aec16ddc3"><path d="M 182.535156 253.136719 L 261.285156 253.136719 L 261.285156 331.886719 L 182.535156 331.886719 Z M 182.535156 253.136719 " clip-rule="nonzero"/></clipPath><clipPath id="50d8d79c8e"><path d="M 45 92.085938 L 405 92.085938 L 405 230.308594 L 45 230.308594 Z M 45 92.085938 " clip-rule="nonzero"/></clipPath><clipPath id="f2d7bb2671"><path d="M 371.25 230.308594 L 78.75 230.308594 L 45 92.085938 L 405 92.085938 Z M 371.25 230.308594 " clip-rule="nonzero"/></clipPath><clipPath id="a262ae3cfe"><path d="M 0 0.0859375 L 360 0.0859375 L 360 138.308594 L 0 138.308594 Z M 0 0.0859375 " clip-rule="nonzero"/></clipPath><clipPath id="8bfbc5fb59"><path d="M 326.25 138.308594 L 33.75 138.308594 L 0 0.0859375 L 360 0.0859375 Z M 326.25 138.308594 " clip-rule="nonzero"/></clipPath><clipPath id="5fb2b04b39"><rect x="0" width="360" y="0" height="139"/></clipPath><clipPath id="c3a1b77639"><path d="M 45 92.308594 L 405 92.308594 L 405 230.308594 L 45 230.308594 Z M 45 92.308594 " clip-rule="nonzero"/></clipPath><clipPath id="454b4155d2"><path d="M 371.25 230.308594 L 78.75 230.308594 L 45 92.085938 L 405 92.085938 Z M 371.25 230.308594 " clip-rule="nonzero"/></clipPath><clipPath id="5e3cff4191"><path d="M 186.175781 113.335938 L 264.175781 113.335938 L 264.175781 191.335938 L 186.175781 191.335938 Z M 186.175781 113.335938 " clip-rule="nonzero"/></clipPath></defs><g clip-path="url(#0101fc5c33)"><g clip-path="url(#707661eb3f)"><g transform="matrix(1, 0, 0, 1, 45, 230)"><g clip-path="url(#bb336e9b85)"><g clip-path="url(#f5e3ed5b2d)"><g clip-path="url(#9576f6b314)"><path fill="#ffffff" d="M 360 138.53125 L -0.136719 138.53125 L -0.136719 0.308594 L 360 0.308594 Z M 360 138.53125 " fill-opacity="1" fill-rule="nonzero"/></g></g></g></g></g></g><g clip-path="url(#2c5735dc04)"><g clip-path="url(#c34b58d95e)"><path stroke-linecap="butt" transform="matrix(-0.75, 0, 0, -0.75, 404.998297, 368.531923)" fill="none" stroke-linejoin="miter" d="M 44.997732 0.000897727 L 434.997763 0.000897727 L 479.997766 184.297787 L -0.00227119 184.297787 Z M 44.997732 0.000897727 " stroke="#000000" stroke-width="4" stroke-opacity="1" stroke-miterlimit="4"/></g></g><g clip-path="url(#1aec16ddc3)"><path fill="#231f20" d="M 221.910156 331.886719 C 200.195312 331.886719 182.535156 314.226562 182.535156 292.511719 C 182.535156 270.796875 200.195312 253.136719 221.910156 253.136719 C 243.628906 253.136719 261.285156 270.796875 261.285156 292.511719 C 261.285156 314.226562 243.628906 331.886719 221.910156 331.886719 Z M 221.910156 255.472656 C 201.488281 255.472656 184.871094 272.085938 184.871094 292.511719 C 184.871094 312.9375 201.488281 329.550781 221.910156 329.550781 C 242.335938 329.550781 258.949219 312.9375 258.949219 292.511719 C 258.949219 272.085938 242.335938 255.472656 221.910156 255.472656 Z M 221.910156 255.472656 " fill-opacity="1" fill-rule="nonzero"/></g><path fill="#231f20" d="M 229.121094 303 L 214.945312 303 L 214.945312 300.03125 L 220.027344 294.886719 C 221.542969 293.351562 222.527344 292.265625 222.976562 291.671875 C 223.449219 291.078125 223.777344 290.523438 223.980469 290.011719 C 224.183594 289.5 224.289062 288.96875 224.289062 288.433594 C 224.289062 287.613281 224.0625 287.019531 223.613281 286.609375 C 223.160156 286.222656 222.566406 286.015625 221.808594 286.015625 C 221.03125 286.015625 220.253906 286.203125 219.515625 286.550781 C 218.777344 286.917969 218 287.429688 217.199219 288.085938 L 214.882812 285.339844 C 215.886719 284.5 216.707031 283.886719 217.363281 283.539062 C 218.019531 283.191406 218.734375 282.921875 219.515625 282.71875 C 220.292969 282.535156 221.152344 282.433594 222.117188 282.433594 C 223.386719 282.433594 224.492188 282.65625 225.476562 283.128906 C 226.4375 283.601562 227.195312 284.234375 227.730469 285.074219 C 228.261719 285.914062 228.527344 286.855469 228.527344 287.921875 C 228.527344 288.863281 228.363281 289.726562 228.035156 290.542969 C 227.710938 291.363281 227.195312 292.203125 226.519531 293.0625 C 225.824219 293.925781 224.617188 295.152344 222.875 296.730469 L 220.273438 299.191406 L 220.273438 299.375 L 229.101562 299.375 L 229.101562 303 Z M 229.121094 303 " fill-opacity="1" fill-rule="nonzero"/><g clip-path="url(#50d8d79c8e)"><g clip-path="url(#f2d7bb2671)"><g transform="matrix(1, 0, 0, 1, 45, 92)"><g clip-path="url(#5fb2b04b39)"><g clip-path="url(#a262ae3cfe)"><g clip-path="url(#8bfbc5fb59)"><path fill="#ffffff" d="M 360 138.308594 L -0.136719 138.308594 L -0.136719 0.0859375 L 360 0.0859375 Z M 360 138.308594 " fill-opacity="1" fill-rule="nonzero"/></g></g></g></g></g></g><g clip-path="url(#c3a1b77639)"><g clip-path="url(#454b4155d2)"><path stroke-linecap="butt" transform="matrix(-0.75, 0, 0, -0.75, 404.998297, 230.30799)" fill="none" stroke-linejoin="miter" d="M 44.997732 -0.000804918 L 434.997763 -0.000804918 L 479.997766 184.296084 L -0.00227119 184.296084 Z M 44.997732 -0.000804918 " stroke="#000000" stroke-width="4" stroke-opacity="1" stroke-miterlimit="4"/></g></g><g clip-path="url(#5e3cff4191)"><path fill="#231f20" d="M 225.175781 191.335938 C 203.667969 191.335938 186.175781 173.84375 186.175781 152.335938 C 186.175781 130.828125 203.667969 113.335938 225.175781 113.335938 C 246.6875 113.335938 264.175781 130.828125 264.175781 152.335938 C 264.175781 173.84375 246.6875 191.335938 225.175781 191.335938 Z M 225.175781 115.648438 C 204.945312 115.648438 188.492188 132.105469 188.492188 152.335938 C 188.492188 172.566406 204.945312 189.023438 225.175781 189.023438 C 245.40625 189.023438 261.863281 172.566406 261.863281 152.335938 C 261.863281 132.105469 245.40625 115.648438 225.175781 115.648438 Z M 225.175781 115.648438 " fill-opacity="1" fill-rule="nonzero"/></g><path fill="#231f20" d="M 228.769531 162.726562 L 224.527344 162.726562 L 224.527344 151.117188 L 224.570312 149.210938 L 224.628906 147.121094 C 223.917969 147.832031 223.433594 148.296875 223.167969 148.5 L 220.855469 150.347656 L 218.804688 147.789062 L 225.277344 142.636719 L 228.769531 142.636719 Z M 228.769531 162.726562 " fill-opacity="1" fill-rule="nonzero"/></svg>