<svg xmlns="http://www.w3.org/2000/svg" xmlns:xlink="http://www.w3.org/1999/xlink" width="600" zoomAndPan="magnify" viewBox="0 0 450 449.999984" height="600" preserveAspectRatio="xMidYMid meet" version="1.0"><defs><clipPath id="7712c12f34"><path d="M 63.25 78.898438 L 337.757812 78.898438 L 337.757812 225 L 63.25 225 Z M 63.25 78.898438 " clip-rule="nonzero"/></clipPath><clipPath id="78e88baf80"><path d="M 288.726562 78.898438 L 63.25 78.898438 L 111.949219 225 L 337.425781 225 Z M 288.726562 78.898438 " clip-rule="nonzero"/></clipPath><clipPath id="53557ab9fc"><path d="M 0.25 0.898438 L 274.441406 0.898438 L 274.441406 147 L 0.25 147 Z M 0.25 0.898438 " clip-rule="nonzero"/></clipPath><clipPath id="91b1dd851f"><path d="M 225.726562 0.898438 L 0.25 0.898438 L 48.949219 147 L 274.425781 147 Z M 225.726562 0.898438 " clip-rule="nonzero"/></clipPath><clipPath id="e36b4cfccf"><rect x="0" width="275" y="0" height="147"/></clipPath><clipPath id="7457c51d2a"><path d="M 63.25 78.902344 L 337.75 78.902344 L 337.75 224.996094 L 63.25 224.996094 Z M 63.25 78.902344 " clip-rule="nonzero"/></clipPath><clipPath id="74c4ec87b4"><path d="M 288.722656 78.902344 L 63.25 78.902344 L 111.949219 224.996094 L 337.421875 224.996094 Z M 288.722656 78.902344 " clip-rule="nonzero"/></clipPath><clipPath id="35b6474894"><path d="M 161.515625 124.449219 L 239.515625 124.449219 L 239.515625 202.449219 L 161.515625 202.449219 Z M 161.515625 124.449219 " clip-rule="nonzero"/></clipPath><clipPath id="15c5d3d033"><path d="M 112.574219 225 L 387 225 L 387 371.101562 L 112.574219 371.101562 Z M 112.574219 225 " clip-rule="nonzero"/></clipPath><clipPath id="e127f57875"><path d="M 338.050781 225 L 112.574219 225 L 161.273438 371.101562 L 386.75 371.101562 Z M 338.050781 225 " clip-rule="nonzero"/></clipPath><clipPath id="477e5ebff7"><path d="M 0.574219 0 L 274.878906 0 L 274.878906 146.101562 L 0.574219 146.101562 Z M 0.574219 0 " clip-rule="nonzero"/></clipPath><clipPath id="ee113b7c01"><path d="M 226.050781 0 L 0.574219 0 L 49.273438 146.101562 L 274.75 146.101562 Z M 226.050781 0 " clip-rule="nonzero"/></clipPath><clipPath id="6140e13137"><rect x="0" width="275" y="0" height="147"/></clipPath><clipPath id="ecb0e15cdc"><path d="M 112.574219 225 L 387 225 L 387 371.097656 L 112.574219 371.097656 Z M 112.574219 225 " clip-rule="nonzero"/></clipPath><clipPath id="d1029c9781"><path d="M 338.046875 225 L 112.574219 225 L 161.273438 371.097656 L 386.746094 371.097656 Z M 338.046875 225 " clip-rule="nonzero"/></clipPath><clipPath id="c248c79142"><path d="M 210.164062 246.554688 L 288.914062 246.554688 L 288.914062 325.304688 L 210.164062 325.304688 Z M 210.164062 246.554688 " clip-rule="nonzero"/></clipPath></defs><g clip-path="url(#7712c12f34)"><g clip-path="url(#78e88baf80)"><g transform="matrix(1, 0, 0, 1, 63, 78)"><g clip-path="url(#e36b4cfccf)"><g clip-path="url(#53557ab9fc)"><g clip-path="url(#91b1dd851f)"><path fill="#ffffff" d="M 0.25 0.898438 L 274.1875 0.898438 L 274.1875 147 L 0.25 147 Z M 0.25 0.898438 " fill-opacity="1" fill-rule="nonzero"/></g></g></g></g></g></g><g clip-path="url(#7457c51d2a)"><g clip-path="url(#74c4ec87b4)"><path stroke-linecap="butt" transform="matrix(0.75, 0, 0, 0.75, 63.250038, 78.900419)" fill="none" stroke-linejoin="miter" d="M 300.630182 0.00256679 L -0.0000501647 0.00256679 L 64.932247 194.794249 L 365.562478 194.794249 Z M 300.630182 0.00256679 " stroke="#000000" stroke-width="4" stroke-opacity="1" stroke-miterlimit="4"/></g></g><g clip-path="url(#35b6474894)"><path fill="#231f20" d="M 200.515625 202.449219 C 179.007812 202.449219 161.515625 184.957031 161.515625 163.449219 C 161.515625 141.941406 179.007812 124.449219 200.515625 124.449219 C 222.023438 124.449219 239.515625 141.941406 239.515625 163.449219 C 239.515625 184.957031 222.023438 202.449219 200.515625 202.449219 Z M 200.515625 126.761719 C 180.285156 126.761719 163.828125 143.21875 163.828125 163.449219 C 163.828125 183.679688 180.285156 200.136719 200.515625 200.136719 C 220.746094 200.136719 237.203125 183.679688 237.203125 163.449219 C 237.203125 143.21875 220.746094 126.761719 200.515625 126.761719 Z M 200.515625 126.761719 " fill-opacity="1" fill-rule="nonzero"/></g><path fill="#231f20" d="M 204.109375 173.839844 L 199.867188 173.839844 L 199.867188 162.230469 L 199.90625 160.324219 L 199.96875 158.234375 C 199.257812 158.945312 198.769531 159.410156 198.507812 159.613281 L 196.195312 161.460938 L 194.144531 158.902344 L 200.617188 153.75 L 204.109375 153.75 Z M 204.109375 173.839844 " fill-opacity="1" fill-rule="nonzero"/><g clip-path="url(#15c5d3d033)"><g clip-path="url(#e127f57875)"><g transform="matrix(1, 0, 0, 1, 112, 225)"><g clip-path="url(#6140e13137)"><g clip-path="url(#477e5ebff7)"><g clip-path="url(#ee113b7c01)"><path fill="#ffffff" d="M 0.574219 0 L 274.511719 0 L 274.511719 146.101562 L 0.574219 146.101562 Z M 0.574219 0 " fill-opacity="1" fill-rule="nonzero"/></g></g></g></g></g></g><g clip-path="url(#ecb0e15cdc)"><g clip-path="url(#d1029c9781)"><path stroke-linecap="butt" transform="matrix(0.75, 0, 0, 0.75, 112.572671, 225.00029)" fill="none" stroke-linejoin="miter" d="M 300.632295 -0.000386233 L 0.00206316 -0.000386233 L 64.93436 194.796504 L 365.564592 194.796504 Z M 300.632295 -0.000386233 " stroke="#000000" stroke-width="4" stroke-opacity="1" stroke-miterlimit="4"/></g></g><g clip-path="url(#c248c79142)"><path fill="#231f20" d="M 249.539062 325.304688 C 227.820312 325.304688 210.164062 307.644531 210.164062 285.929688 C 210.164062 264.210938 227.820312 246.554688 249.539062 246.554688 C 271.253906 246.554688 288.914062 264.210938 288.914062 285.929688 C 288.914062 307.644531 271.253906 325.304688 249.539062 325.304688 Z M 249.539062 248.886719 C 229.113281 248.886719 212.496094 265.503906 212.496094 285.929688 C 212.496094 306.351562 229.113281 322.96875 249.539062 322.96875 C 269.960938 322.96875 286.578125 306.351562 286.578125 285.929688 C 286.578125 265.503906 269.960938 248.886719 249.539062 248.886719 Z M 249.539062 248.886719 " fill-opacity="1" fill-rule="nonzero"/></g><path fill="#231f20" d="M 256.75 296.417969 L 242.570312 296.417969 L 242.570312 293.445312 L 247.652344 288.304688 C 249.167969 286.769531 250.152344 285.683594 250.601562 285.089844 C 251.074219 284.492188 251.402344 283.941406 251.605469 283.429688 C 251.8125 282.917969 251.914062 282.382812 251.914062 281.851562 C 251.914062 281.03125 251.6875 280.4375 251.238281 280.027344 C 250.785156 279.640625 250.191406 279.433594 249.433594 279.433594 C 248.65625 279.433594 247.878906 279.617188 247.140625 279.964844 C 246.402344 280.335938 245.625 280.847656 244.824219 281.503906 L 242.511719 278.757812 C 243.515625 277.917969 244.332031 277.304688 244.988281 276.953125 C 245.644531 276.605469 246.363281 276.339844 247.140625 276.136719 C 247.917969 275.953125 248.78125 275.847656 249.742188 275.847656 C 251.011719 275.847656 252.117188 276.074219 253.101562 276.546875 C 254.066406 277.015625 254.824219 277.652344 255.355469 278.492188 C 255.886719 279.332031 256.15625 280.273438 256.15625 281.339844 C 256.15625 282.28125 255.992188 283.140625 255.664062 283.960938 C 255.335938 284.78125 254.824219 285.621094 254.148438 286.480469 C 253.449219 287.339844 252.242188 288.570312 250.5 290.148438 L 247.898438 292.605469 L 247.898438 292.792969 L 256.726562 292.792969 L 256.726562 296.417969 Z M 256.75 296.417969 " fill-opacity="1" fill-rule="nonzero"/></svg>