<svg xmlns="http://www.w3.org/2000/svg" xmlns:xlink="http://www.w3.org/1999/xlink" width="600" zoomAndPan="magnify" viewBox="0 0 450 449.999984" height="600" preserveAspectRatio="xMidYMid meet" version="1.0"><defs><clipPath id="7d82468d6b"><path d="M 63.25 78.898438 L 337.757812 78.898438 L 337.757812 225 L 63.25 225 Z M 63.25 78.898438 " clip-rule="nonzero"/></clipPath><clipPath id="2c6fdfc345"><path d="M 288.726562 78.898438 L 63.25 78.898438 L 111.949219 225 L 337.425781 225 Z M 288.726562 78.898438 " clip-rule="nonzero"/></clipPath><clipPath id="6c325fbf2a"><path d="M 0.25 0.898438 L 274.441406 0.898438 L 274.441406 147 L 0.25 147 Z M 0.25 0.898438 " clip-rule="nonzero"/></clipPath><clipPath id="07d5f8efc8"><path d="M 225.726562 0.898438 L 0.25 0.898438 L 48.949219 147 L 274.425781 147 Z M 225.726562 0.898438 " clip-rule="nonzero"/></clipPath><clipPath id="ebd8b37c17"><rect x="0" width="275" y="0" height="147"/></clipPath><clipPath id="7abf522454"><path d="M 63.25 78.898438 L 337.75 78.898438 L 337.75 224.996094 L 63.25 224.996094 Z M 63.25 78.898438 " clip-rule="nonzero"/></clipPath><clipPath id="4b9c4752dd"><path d="M 288.722656 78.898438 L 63.25 78.898438 L 111.949219 224.996094 L 337.421875 224.996094 Z M 288.722656 78.898438 " clip-rule="nonzero"/></clipPath><clipPath id="6e28983f3b"><path d="M 161.515625 124.449219 L 239.515625 124.449219 L 239.515625 202.449219 L 161.515625 202.449219 Z M 161.515625 124.449219 " clip-rule="nonzero"/></clipPath><clipPath id="96f8d588c4"><path d="M 63.25 225 L 337.789062 225 L 337.789062 370.511719 L 63.25 370.511719 Z M 63.25 225 " clip-rule="nonzero"/></clipPath><clipPath id="a43db81a85"><path d="M 111.753906 225 L 337.425781 225 L 288.921875 370.511719 L 63.25 370.511719 Z M 111.753906 225 " clip-rule="nonzero"/></clipPath><clipPath id="1079da06e5"><path d="M 0.25 0 L 274.441406 0 L 274.441406 145.511719 L 0.25 145.511719 Z M 0.25 0 " clip-rule="nonzero"/></clipPath><clipPath id="a892eef42d"><path d="M 48.753906 0 L 274.425781 0 L 225.921875 145.511719 L 0.25 145.511719 Z M 48.753906 0 " clip-rule="nonzero"/></clipPath><clipPath id="1eb0eec437"><rect x="0" width="275" y="0" height="146"/></clipPath><clipPath id="e3889f3272"><path d="M 63.257812 225 L 337.75 225 L 337.75 370.5 L 63.257812 370.5 Z M 63.257812 225 " clip-rule="nonzero"/></clipPath><clipPath id="b36e4bd7fe"><path d="M 111.757812 225 L 337.414062 225 L 288.914062 370.5 L 63.257812 370.5 Z M 111.757812 225 " clip-rule="nonzero"/></clipPath><clipPath id="a71865e3ac"><path d="M 161.515625 250.160156 L 240.265625 250.160156 L 240.265625 328.910156 L 161.515625 328.910156 Z M 161.515625 250.160156 " clip-rule="nonzero"/></clipPath></defs><g clip-path="url(#7d82468d6b)"><g clip-path="url(#2c6fdfc345)"><g transform="matrix(1, 0, 0, 1, 63, 78)"><g clip-path="url(#ebd8b37c17)"><g clip-path="url(#6c325fbf2a)"><g clip-path="url(#07d5f8efc8)"><path fill="#ffffff" d="M 0.25 0.898438 L 274.1875 0.898438 L 274.1875 147 L 0.25 147 Z M 0.25 0.898438 " fill-opacity="1" fill-rule="nonzero"/></g></g></g></g></g></g><g clip-path="url(#7abf522454)"><g clip-path="url(#4b9c4752dd)"><path stroke-linecap="butt" transform="matrix(0.75, 0, 0, 0.75, 63.250038, 78.900368)" fill="none" stroke-linejoin="miter" d="M 300.630182 -0.00257434 L -0.0000501647 -0.00257434 L 64.932247 194.794316 L 365.562478 194.794316 Z M 300.630182 -0.00257434 " stroke="#000000" stroke-width="4" stroke-opacity="1" stroke-miterlimit="4"/></g></g><g clip-path="url(#6e28983f3b)"><path fill="#231f20" d="M 200.515625 202.449219 C 179.007812 202.449219 161.515625 184.957031 161.515625 163.449219 C 161.515625 141.941406 179.007812 124.449219 200.515625 124.449219 C 222.023438 124.449219 239.515625 141.941406 239.515625 163.449219 C 239.515625 184.957031 222.023438 202.449219 200.515625 202.449219 Z M 200.515625 126.761719 C 180.285156 126.761719 163.828125 143.21875 163.828125 163.449219 C 163.828125 183.679688 180.285156 200.136719 200.515625 200.136719 C 220.746094 200.136719 237.203125 183.679688 237.203125 163.449219 C 237.203125 143.21875 220.746094 126.761719 200.515625 126.761719 Z M 200.515625 126.761719 " fill-opacity="1" fill-rule="nonzero"/></g><path fill="#231f20" d="M 204.109375 173.839844 L 199.867188 173.839844 L 199.867188 162.230469 L 199.90625 160.324219 L 199.96875 158.234375 C 199.257812 158.945312 198.769531 159.410156 198.507812 159.613281 L 196.195312 161.460938 L 194.144531 158.902344 L 200.617188 153.75 L 204.109375 153.75 Z M 204.109375 173.839844 " fill-opacity="1" fill-rule="nonzero"/><g clip-path="url(#96f8d588c4)"><g clip-path="url(#a43db81a85)"><g transform="matrix(1, 0, 0, 1, 63, 225)"><g clip-path="url(#1eb0eec437)"><g clip-path="url(#1079da06e5)"><g clip-path="url(#a892eef42d)"><path fill="#ffffff" d="M 0.25 0 L 274.21875 0 L 274.21875 145.511719 L 0.25 145.511719 Z M 0.25 0 " fill-opacity="1" fill-rule="nonzero"/></g></g></g></g></g></g><g clip-path="url(#e3889f3272)"><g clip-path="url(#b36e4bd7fe)"><path stroke-linecap="butt" transform="matrix(0.75, 0, 0, 0.75, 63.257238, 224.999982)" fill="none" stroke-linejoin="miter" d="M 64.667438 0.0000233667 L 365.542462 0.0000233667 L 300.87579 194.000038 L 0.000766503 194.000038 Z M 64.667438 0.0000233667 " stroke="#000000" stroke-width="4" stroke-opacity="1" stroke-miterlimit="4"/></g></g><g clip-path="url(#a71865e3ac)"><path fill="#231f20" d="M 200.890625 328.910156 C 179.175781 328.910156 161.515625 311.25 161.515625 289.535156 C 161.515625 267.820312 179.175781 250.160156 200.890625 250.160156 C 222.605469 250.160156 240.265625 267.820312 240.265625 289.535156 C 240.265625 311.25 222.605469 328.910156 200.890625 328.910156 Z M 200.890625 252.496094 C 180.464844 252.496094 163.851562 269.109375 163.851562 289.535156 C 163.851562 309.960938 180.464844 326.574219 200.890625 326.574219 C 221.316406 326.574219 237.929688 309.960938 237.929688 289.535156 C 237.929688 269.109375 221.316406 252.496094 200.890625 252.496094 Z M 200.890625 252.496094 " fill-opacity="1" fill-rule="nonzero"/></g><path fill="#231f20" d="M 208.101562 300.023438 L 193.925781 300.023438 L 193.925781 297.054688 L 199.007812 291.910156 C 200.523438 290.375 201.503906 289.289062 201.957031 288.695312 C 202.425781 288.101562 202.753906 287.546875 202.960938 287.035156 C 203.164062 286.523438 203.265625 285.992188 203.265625 285.457031 C 203.265625 284.640625 203.042969 284.042969 202.589844 283.636719 C 202.140625 283.246094 201.546875 283.042969 200.789062 283.042969 C 200.011719 283.042969 199.230469 283.226562 198.492188 283.574219 C 197.757812 283.941406 196.976562 284.453125 196.179688 285.109375 L 193.863281 282.363281 C 194.867188 281.523438 195.6875 280.910156 196.34375 280.5625 C 197 280.214844 197.714844 279.949219 198.492188 279.742188 C 199.273438 279.558594 200.132812 279.457031 201.097656 279.457031 C 202.367188 279.457031 203.472656 279.679688 204.457031 280.152344 C 205.417969 280.625 206.175781 281.257812 206.710938 282.097656 C 207.242188 282.9375 207.507812 283.882812 207.507812 284.945312 C 207.507812 285.890625 207.34375 286.75 207.015625 287.570312 C 206.6875 288.386719 206.175781 289.226562 205.5 290.089844 C 204.804688 290.949219 203.59375 292.179688 201.855469 293.753906 L 199.253906 296.214844 L 199.253906 296.398438 L 208.082031 296.398438 L 208.082031 300.023438 Z M 208.101562 300.023438 " fill-opacity="1" fill-rule="nonzero"/></svg>