<svg xmlns="http://www.w3.org/2000/svg" xmlns:xlink="http://www.w3.org/1999/xlink" width="600" zoomAndPan="magnify" viewBox="0 0 450 449.999984" height="600" preserveAspectRatio="xMidYMid meet" version="1.0"><defs><clipPath id="c2b3130574"><path d="M 109.179688 79.488281 L 383.714844 79.488281 L 383.714844 225 L 109.179688 225 Z M 109.179688 79.488281 " clip-rule="nonzero"/></clipPath><clipPath id="2efe7357a9"><path d="M 157.683594 79.488281 L 383.355469 79.488281 L 334.851562 225 L 109.179688 225 Z M 157.683594 79.488281 " clip-rule="nonzero"/></clipPath><clipPath id="dfc9ec79a2"><path d="M 0.179688 0.488281 L 274.519531 0.488281 L 274.519531 146 L 0.179688 146 Z M 0.179688 0.488281 " clip-rule="nonzero"/></clipPath><clipPath id="f9eb3e6208"><path d="M 48.683594 0.488281 L 274.355469 0.488281 L 225.851562 146 L 0.179688 146 Z M 48.683594 0.488281 " clip-rule="nonzero"/></clipPath><clipPath id="9b73c62e7e"><rect x="0" width="275" y="0" height="146"/></clipPath><clipPath id="acffe060a7"><path d="M 109.1875 79.488281 L 383.679688 79.488281 L 383.679688 224.988281 L 109.1875 224.988281 Z M 109.1875 79.488281 " clip-rule="nonzero"/></clipPath><clipPath id="170241a58f"><path d="M 157.6875 79.488281 L 383.34375 79.488281 L 334.84375 224.988281 L 109.1875 224.988281 Z M 157.6875 79.488281 " clip-rule="nonzero"/></clipPath><clipPath id="abf29cdc2f"><path d="M 210.976562 123.546875 L 288.976562 123.546875 L 288.976562 201.546875 L 210.976562 201.546875 Z M 210.976562 123.546875 " clip-rule="nonzero"/></clipPath><clipPath id="4e76b8a47c"><path d="M 109.179688 225 L 383.6875 225 L 383.6875 371.101562 L 109.179688 371.101562 Z M 109.179688 225 " clip-rule="nonzero"/></clipPath><clipPath id="fdc3012932"><path d="M 334.65625 225 L 109.179688 225 L 157.878906 371.101562 L 383.355469 371.101562 Z M 334.65625 225 " clip-rule="nonzero"/></clipPath><clipPath id="32fc5d2946"><path d="M 0.179688 0 L 274.519531 0 L 274.519531 146.101562 L 0.179688 146.101562 Z M 0.179688 0 " clip-rule="nonzero"/></clipPath><clipPath id="c98ff9a446"><path d="M 225.65625 0 L 0.179688 0 L 48.878906 146.101562 L 274.355469 146.101562 Z M 225.65625 0 " clip-rule="nonzero"/></clipPath><clipPath id="abd1f6d7dc"><rect x="0" width="275" y="0" height="147"/></clipPath><clipPath id="1148dd021c"><path d="M 109.179688 225 L 383.679688 225 L 383.679688 371.097656 L 109.179688 371.097656 Z M 109.179688 225 " clip-rule="nonzero"/></clipPath><clipPath id="db6552d42b"><path d="M 334.652344 225 L 109.179688 225 L 157.878906 371.097656 L 383.351562 371.097656 Z M 334.652344 225 " clip-rule="nonzero"/></clipPath><clipPath id="8ecd8e3e95"><path d="M 206.769531 258.550781 L 285.519531 258.550781 L 285.519531 337.300781 L 206.769531 337.300781 Z M 206.769531 258.550781 " clip-rule="nonzero"/></clipPath></defs><g clip-path="url(#c2b3130574)"><g clip-path="url(#2efe7357a9)"><g transform="matrix(1, 0, 0, 1, 109, 79)"><g clip-path="url(#9b73c62e7e)"><g clip-path="url(#dfc9ec79a2)"><g clip-path="url(#f9eb3e6208)"><path fill="#ffffff" d="M 0.179688 0.488281 L 274.148438 0.488281 L 274.148438 146 L 0.179688 146 Z M 0.179688 0.488281 " fill-opacity="1" fill-rule="nonzero"/></g></g></g></g></g></g><g clip-path="url(#acffe060a7)"><g clip-path="url(#170241a58f)"><path stroke-linecap="butt" transform="matrix(0.75, 0, 0, 0.75, 109.186617, 79.489446)" fill="none" stroke-linejoin="miter" d="M 64.667849 -0.00155274 L 365.542872 -0.00155274 L 300.8762 193.998462 L 0.00117701 193.998462 Z M 64.667849 -0.00155274 " stroke="#000000" stroke-width="4" stroke-opacity="1" stroke-miterlimit="4"/></g></g><g clip-path="url(#abf29cdc2f)"><path fill="#231f20" d="M 249.976562 201.546875 C 228.46875 201.546875 210.976562 184.054688 210.976562 162.546875 C 210.976562 141.039062 228.46875 123.546875 249.976562 123.546875 C 271.484375 123.546875 288.976562 141.039062 288.976562 162.546875 C 288.976562 184.054688 271.484375 201.546875 249.976562 201.546875 Z M 249.976562 125.859375 C 229.746094 125.859375 213.289062 142.316406 213.289062 162.546875 C 213.289062 182.777344 229.746094 199.234375 249.976562 199.234375 C 270.207031 199.234375 286.664062 182.777344 286.664062 162.546875 C 286.664062 142.316406 270.207031 125.859375 249.976562 125.859375 Z M 249.976562 125.859375 " fill-opacity="1" fill-rule="nonzero"/></g><path fill="#231f20" d="M 253.570312 172.9375 L 249.328125 172.9375 L 249.328125 161.328125 L 249.367188 159.421875 L 249.429688 157.332031 C 248.71875 158.042969 248.230469 158.507812 247.96875 158.710938 L 245.65625 160.558594 L 243.605469 158 L 250.078125 152.847656 L 253.570312 152.847656 Z M 253.570312 172.9375 " fill-opacity="1" fill-rule="nonzero"/><g clip-path="url(#4e76b8a47c)"><g clip-path="url(#fdc3012932)"><g transform="matrix(1, 0, 0, 1, 109, 225)"><g clip-path="url(#abd1f6d7dc)"><g clip-path="url(#32fc5d2946)"><g clip-path="url(#c98ff9a446)"><path fill="#ffffff" d="M 0.179688 0 L 274.117188 0 L 274.117188 146.101562 L 0.179688 146.101562 Z M 0.179688 0 " fill-opacity="1" fill-rule="nonzero"/></g></g></g></g></g></g><g clip-path="url(#1148dd021c)"><g clip-path="url(#db6552d42b)"><path stroke-linecap="butt" transform="matrix(0.75, 0, 0, 0.75, 109.17942, 225.00029)" fill="none" stroke-linejoin="miter" d="M 300.630589 -0.000386233 L 0.000357139 -0.000386233 L 64.932654 194.796504 L 365.562886 194.796504 Z M 300.630589 -0.000386233 " stroke="#000000" stroke-width="4" stroke-opacity="1" stroke-miterlimit="4"/></g></g><g clip-path="url(#8ecd8e3e95)"><path fill="#231f20" d="M 246.144531 337.300781 C 224.429688 337.300781 206.769531 319.640625 206.769531 297.925781 C 206.769531 276.210938 224.429688 258.550781 246.144531 258.550781 C 267.859375 258.550781 285.519531 276.210938 285.519531 297.925781 C 285.519531 319.640625 267.859375 337.300781 246.144531 337.300781 Z M 246.144531 260.886719 C 225.71875 260.886719 209.105469 277.5 209.105469 297.925781 C 209.105469 318.351562 225.71875 334.964844 246.144531 334.964844 C 266.570312 334.964844 283.183594 318.351562 283.183594 297.925781 C 283.183594 277.5 266.570312 260.886719 246.144531 260.886719 Z M 246.144531 260.886719 " fill-opacity="1" fill-rule="nonzero"/></g><path fill="#231f20" d="M 253.355469 308.414062 L 239.179688 308.414062 L 239.179688 305.445312 L 244.257812 300.300781 C 245.773438 298.765625 246.757812 297.679688 247.210938 297.085938 C 247.679688 296.492188 248.007812 295.9375 248.214844 295.425781 C 248.417969 294.914062 248.519531 294.382812 248.519531 293.847656 C 248.519531 293.03125 248.296875 292.4375 247.84375 292.027344 C 247.394531 291.636719 246.800781 291.433594 246.042969 291.433594 C 245.261719 291.433594 244.484375 291.617188 243.746094 291.964844 C 243.007812 292.332031 242.230469 292.84375 241.433594 293.5 L 239.117188 290.753906 C 240.121094 289.914062 240.941406 289.300781 241.597656 288.953125 C 242.25 288.605469 242.96875 288.339844 243.746094 288.132812 C 244.527344 287.949219 245.386719 287.847656 246.347656 287.847656 C 247.617188 287.847656 248.726562 288.070312 249.707031 288.542969 C 250.671875 289.015625 251.429688 289.648438 251.960938 290.488281 C 252.496094 291.328125 252.761719 292.273438 252.761719 293.335938 C 252.761719 294.28125 252.597656 295.140625 252.269531 295.960938 C 251.941406 296.777344 251.429688 297.617188 250.753906 298.480469 C 250.058594 299.339844 248.847656 300.570312 247.105469 302.144531 L 244.503906 304.605469 L 244.503906 304.789062 L 253.335938 304.789062 L 253.335938 308.414062 Z M 253.355469 308.414062 " fill-opacity="1" fill-rule="nonzero"/></svg>