<svg xmlns="http://www.w3.org/2000/svg" xmlns:xlink="http://www.w3.org/1999/xlink" width="600" zoomAndPan="magnify" viewBox="0 0 450 449.999984" height="600" preserveAspectRatio="xMidYMid meet" version="1.0"><defs><clipPath id="bd4945106a"><path d="M 45 314.785156 L 135.214844 314.785156 L 135.214844 405 L 45 405 Z M 45 314.785156 " clip-rule="nonzero"/></clipPath><clipPath id="652c75e161"><path d="M 90.105469 314.785156 C 65.195312 314.785156 45 334.980469 45 359.894531 C 45 384.804688 65.195312 405 90.105469 405 C 115.019531 405 135.214844 384.804688 135.214844 359.894531 C 135.214844 334.980469 115.019531 314.785156 90.105469 314.785156 Z M 90.105469 314.785156 " clip-rule="nonzero"/></clipPath><clipPath id="4f567ed930"><path d="M 0 0.785156 L 90.214844 0.785156 L 90.214844 91 L 0 91 Z M 0 0.785156 " clip-rule="nonzero"/></clipPath><clipPath id="c879e8c1fb"><path d="M 45.105469 0.785156 C 20.195312 0.785156 0 20.980469 0 45.894531 C 0 70.804688 20.195312 91 45.105469 91 C 70.019531 91 90.214844 70.804688 90.214844 45.894531 C 90.214844 20.980469 70.019531 0.785156 45.105469 0.785156 Z M 45.105469 0.785156 " clip-rule="nonzero"/></clipPath><clipPath id="452715d785"><rect x="0" width="91" y="0" height="91"/></clipPath><clipPath id="b4f03d8e74"><path d="M 45 314.785156 L 135 314.785156 L 135 404.785156 L 45 404.785156 Z M 45 314.785156 " clip-rule="nonzero"/></clipPath><clipPath id="1605cdcf64"><path d="M 90.105469 314.785156 C 65.195312 314.785156 45 334.980469 45 359.890625 C 45 384.804688 65.195312 404.996094 90.105469 404.996094 C 115.015625 404.996094 135.210938 384.804688 135.210938 359.890625 C 135.210938 334.980469 115.015625 314.785156 90.105469 314.785156 Z M 90.105469 314.785156 " clip-rule="nonzero"/></clipPath><clipPath id="06055a2ca2"><path d="M 173.542969 179.976562 L 276.609375 179.976562 L 276.609375 270.023438 L 173.542969 270.023438 Z M 173.542969 179.976562 " clip-rule="nonzero"/></clipPath><clipPath id="0dfebb3dc7"><path d="M 225 179.976562 L 276.457031 270.023438 L 173.542969 270.023438 Z M 225 179.976562 " clip-rule="nonzero"/></clipPath><clipPath id="5c25f31c1f"><path d="M 0.542969 0.976562 L 103.480469 0.976562 L 103.480469 91.023438 L 0.542969 91.023438 Z M 0.542969 0.976562 " clip-rule="nonzero"/></clipPath><clipPath id="1eb38be012"><path d="M 52 0.976562 L 103.457031 91.023438 L 0.542969 91.023438 Z M 52 0.976562 " clip-rule="nonzero"/></clipPath><clipPath id="f5dffd29bb"><rect x="0" width="104" y="0" height="92"/></clipPath><clipPath id="ce17841a52"><path d="M 173.542969 179.976562 L 276.292969 179.976562 L 276.292969 269.972656 L 173.542969 269.972656 Z M 173.542969 179.976562 " clip-rule="nonzero"/></clipPath><clipPath id="34874911dc"><path d="M 225 179.976562 L 276.453125 270.019531 L 173.542969 270.019531 Z M 225 179.976562 " clip-rule="nonzero"/></clipPath><clipPath id="b33ab681d4"><path d="M 302.085938 45 L 405 45 L 405 135.050781 L 302.085938 135.050781 Z M 302.085938 45 " clip-rule="nonzero"/></clipPath><clipPath id="7458fec88b"><path d="M 353.542969 45 L 405 135.050781 L 302.085938 135.050781 Z M 353.542969 45 " clip-rule="nonzero"/></clipPath><clipPath id="ac81a05db4"><path d="M 0.0859375 0 L 103 0 L 103 90.050781 L 0.0859375 90.050781 Z M 0.0859375 0 " clip-rule="nonzero"/></clipPath><clipPath id="2db1eef00d"><path d="M 51.542969 0 L 103 90.050781 L 0.0859375 90.050781 Z M 51.542969 0 " clip-rule="nonzero"/></clipPath><clipPath id="553e65593a"><rect x="0" width="103" y="0" height="91"/></clipPath><clipPath id="3152d69c7e"><path d="M 302.085938 45 L 404.835938 45 L 404.835938 135 L 302.085938 135 Z M 302.085938 45 " clip-rule="nonzero"/></clipPath><clipPath id="7d4ea7f1b2"><path d="M 353.542969 45 L 404.996094 135.046875 L 302.085938 135.046875 Z M 353.542969 45 " clip-rule="nonzero"/></clipPath></defs><g clip-path="url(#bd4945106a)"><g clip-path="url(#652c75e161)"><g transform="matrix(1, 0, 0, 1, 45, 314)"><g clip-path="url(#452715d785)"><g clip-path="url(#4f567ed930)"><g clip-path="url(#c879e8c1fb)"><path fill="#ffffff" d="M 0 0.785156 L 90.214844 0.785156 L 90.214844 91 L 0 91 Z M 0 0.785156 " fill-opacity="1" fill-rule="nonzero"/></g></g></g></g></g></g><g clip-path="url(#b4f03d8e74)"><g clip-path="url(#1605cdcf64)"><path stroke-linecap="butt" transform="matrix(0.75, 0, 0, 0.75, 45.000005, 314.786695)" fill="none" stroke-linejoin="miter" d="M 60.140623 -0.00205124 C 26.927079 -0.00205124 -0.00000619333 26.925034 -0.00000619333 60.138578 C -0.00000619333 93.357331 26.927079 120.279208 60.140623 120.279208 C 93.354168 120.279208 120.281253 93.357331 120.281253 60.138578 C 120.281253 26.925034 93.354168 -0.00205124 60.140623 -0.00205124 Z M 60.140623 -0.00205124 " stroke="#000000" stroke-width="4" stroke-opacity="1" stroke-miterlimit="4"/></g></g><g clip-path="url(#06055a2ca2)"><g clip-path="url(#0dfebb3dc7)"><g transform="matrix(1, 0, 0, 1, 173, 179)"><g clip-path="url(#f5dffd29bb)"><g clip-path="url(#5c25f31c1f)"><g clip-path="url(#1eb38be012)"><path fill="#ffffff" d="M 0.542969 0.976562 L 103.609375 0.976562 L 103.609375 91.023438 L 0.542969 91.023438 Z M 0.542969 0.976562 " fill-opacity="1" fill-rule="nonzero"/></g></g></g></g></g></g><g clip-path="url(#ce17841a52)"><g clip-path="url(#34874911dc)"><path stroke-linecap="butt" transform="matrix(0.75, 0, 0, 0.75, 173.544105, 179.97463)" fill="none" stroke-linejoin="miter" d="M 68.607865 0.00257669 L 137.212037 120.065086 L -0.00151504 120.065086 Z M 68.607865 0.00257669 " stroke="#000000" stroke-width="4" stroke-opacity="1" stroke-miterlimit="4"/></g></g><g clip-path="url(#b33ab681d4)"><g clip-path="url(#7458fec88b)"><g transform="matrix(1, 0, 0, 1, 302, 45)"><g clip-path="url(#553e65593a)"><g clip-path="url(#ac81a05db4)"><g clip-path="url(#2db1eef00d)"><path fill="#ffffff" d="M 0.0859375 0 L 103.152344 0 L 103.152344 90.050781 L 0.0859375 90.050781 Z M 0.0859375 0 " fill-opacity="1" fill-rule="nonzero"/></g></g></g></g></g></g><g clip-path="url(#3152d69c7e)"><g clip-path="url(#7d4ea7f1b2)"><path stroke-linecap="butt" transform="matrix(0.75, 0, 0, 0.75, 302.086537, 44.999996)" fill="none" stroke-linejoin="miter" d="M 68.60858 0.00000467333 L 137.212752 120.062514 L -0.000799894 120.062514 Z M 68.60858 0.00000467333 " stroke="#000000" stroke-width="4" stroke-opacity="1" stroke-miterlimit="4"/></g></g></svg>