<svg xmlns="http://www.w3.org/2000/svg" xmlns:xlink="http://www.w3.org/1999/xlink" width="600" zoomAndPan="magnify" viewBox="0 0 450 449.999984" height="600" preserveAspectRatio="xMidYMid meet" version="1.0"><defs><clipPath id="b3e0a6ce7b"><path d="M 45 44.835938 L 135.214844 44.835938 L 135.214844 135.050781 L 45 135.050781 Z M 45 44.835938 " clip-rule="nonzero"/></clipPath><clipPath id="14212ff209"><path d="M 90.105469 44.835938 C 65.195312 44.835938 45 65.03125 45 89.945312 C 45 114.855469 65.195312 135.050781 90.105469 135.050781 C 115.019531 135.050781 135.214844 114.855469 135.214844 89.945312 C 135.214844 65.03125 115.019531 44.835938 90.105469 44.835938 Z M 90.105469 44.835938 " clip-rule="nonzero"/></clipPath><clipPath id="837aa6d971"><path d="M 0 0.835938 L 90.214844 0.835938 L 90.214844 91.050781 L 0 91.050781 Z M 0 0.835938 " clip-rule="nonzero"/></clipPath><clipPath id="6b6ee453fc"><path d="M 45.105469 0.835938 C 20.195312 0.835938 0 21.03125 0 45.945312 C 0 70.855469 20.195312 91.050781 45.105469 91.050781 C 70.019531 91.050781 90.214844 70.855469 90.214844 45.945312 C 90.214844 21.03125 70.019531 0.835938 45.105469 0.835938 Z M 45.105469 0.835938 " clip-rule="nonzero"/></clipPath><clipPath id="dfd3994291"><rect x="0" width="91" y="0" height="92"/></clipPath><clipPath id="08b8ff88cd"><path d="M 45 44.835938 L 135 44.835938 L 135 134.835938 L 45 134.835938 Z M 45 44.835938 " clip-rule="nonzero"/></clipPath><clipPath id="ebfe57bae1"><path d="M 90.105469 44.835938 C 65.195312 44.835938 45 65.03125 45 89.941406 C 45 114.855469 65.195312 135.046875 90.105469 135.046875 C 115.015625 135.046875 135.210938 114.855469 135.210938 89.941406 C 135.210938 65.03125 115.015625 44.835938 90.105469 44.835938 Z M 90.105469 44.835938 " clip-rule="nonzero"/></clipPath><clipPath id="2e0f7111d5"><path d="M 173.542969 179.976562 L 276.609375 179.976562 L 276.609375 270.023438 L 173.542969 270.023438 Z M 173.542969 179.976562 " clip-rule="nonzero"/></clipPath><clipPath id="1edb397374"><path d="M 225 179.976562 L 276.457031 270.023438 L 173.542969 270.023438 Z M 225 179.976562 " clip-rule="nonzero"/></clipPath><clipPath id="ce79c9e92c"><path d="M 0.542969 0.976562 L 103.480469 0.976562 L 103.480469 91.023438 L 0.542969 91.023438 Z M 0.542969 0.976562 " clip-rule="nonzero"/></clipPath><clipPath id="e2521ab885"><path d="M 52 0.976562 L 103.457031 91.023438 L 0.542969 91.023438 Z M 52 0.976562 " clip-rule="nonzero"/></clipPath><clipPath id="73d391142a"><rect x="0" width="104" y="0" height="92"/></clipPath><clipPath id="78cefa9837"><path d="M 173.542969 179.976562 L 276.292969 179.976562 L 276.292969 269.972656 L 173.542969 269.972656 Z M 173.542969 179.976562 " clip-rule="nonzero"/></clipPath><clipPath id="8b8558803c"><path d="M 225 179.976562 L 276.453125 270.019531 L 173.542969 270.019531 Z M 225 179.976562 " clip-rule="nonzero"/></clipPath><clipPath id="3b9eabf828"><path d="M 302.085938 314.949219 L 405 314.949219 L 405 405 L 302.085938 405 Z M 302.085938 314.949219 " clip-rule="nonzero"/></clipPath><clipPath id="05c130dfd5"><path d="M 353.542969 314.949219 L 405 405 L 302.085938 405 Z M 353.542969 314.949219 " clip-rule="nonzero"/></clipPath><clipPath id="677f4ca739"><path d="M 0.0859375 0.949219 L 103 0.949219 L 103 91 L 0.0859375 91 Z M 0.0859375 0.949219 " clip-rule="nonzero"/></clipPath><clipPath id="f17a66af6e"><path d="M 51.542969 0.949219 L 103 91 L 0.0859375 91 Z M 51.542969 0.949219 " clip-rule="nonzero"/></clipPath><clipPath id="0f55f73808"><rect x="0" width="103" y="0" height="91"/></clipPath><clipPath id="7f0f41a65a"><path d="M 302.085938 314.949219 L 404.835938 314.949219 L 404.835938 404.949219 L 302.085938 404.949219 Z M 302.085938 314.949219 " clip-rule="nonzero"/></clipPath><clipPath id="a6a3dbc13d"><path d="M 353.542969 314.949219 L 404.996094 404.996094 L 302.085938 404.996094 Z M 353.542969 314.949219 " clip-rule="nonzero"/></clipPath><clipPath id="44b3bb40bf"><path d="M 314.785156 45 L 405 45 L 405 135.214844 L 314.785156 135.214844 Z M 314.785156 45 " clip-rule="nonzero"/></clipPath><clipPath id="cf636f3036"><path d="M 359.894531 45 C 334.980469 45 314.785156 65.195312 314.785156 90.105469 C 314.785156 115.019531 334.980469 135.214844 359.894531 135.214844 C 384.804688 135.214844 405 115.019531 405 90.105469 C 405 65.195312 384.804688 45 359.894531 45 Z M 359.894531 45 " clip-rule="nonzero"/></clipPath><clipPath id="fbb1f08925"><path d="M 0.785156 0 L 91 0 L 91 90.214844 L 0.785156 90.214844 Z M 0.785156 0 " clip-rule="nonzero"/></clipPath><clipPath id="b8bec07d90"><path d="M 45.894531 0 C 20.980469 0 0.785156 20.195312 0.785156 45.105469 C 0.785156 70.019531 20.980469 90.214844 45.894531 90.214844 C 70.804688 90.214844 91 70.019531 91 45.105469 C 91 20.195312 70.804688 0 45.894531 0 Z M 45.894531 0 " clip-rule="nonzero"/></clipPath><clipPath id="bda9dc2e6d"><rect x="0" width="91" y="0" height="91"/></clipPath><clipPath id="2126566261"><path d="M 314.785156 45 L 404.785156 45 L 404.785156 135 L 314.785156 135 Z M 314.785156 45 " clip-rule="nonzero"/></clipPath><clipPath id="89083385b0"><path d="M 359.890625 45 C 334.980469 45 314.785156 65.195312 314.785156 90.105469 C 314.785156 115.015625 334.980469 135.210938 359.890625 135.210938 C 384.804688 135.210938 404.996094 115.015625 404.996094 90.105469 C 404.996094 65.195312 384.804688 45 359.890625 45 Z M 359.890625 45 " clip-rule="nonzero"/></clipPath></defs><g clip-path="url(#b3e0a6ce7b)"><g clip-path="url(#14212ff209)"><g transform="matrix(1, 0, 0, 1, 45, 44)"><g clip-path="url(#dfd3994291)"><g clip-path="url(#837aa6d971)"><g clip-path="url(#6b6ee453fc)"><path fill="#ffffff" d="M 0 0.835938 L 90.214844 0.835938 L 90.214844 91.050781 L 0 91.050781 Z M 0 0.835938 " fill-opacity="1" fill-rule="nonzero"/></g></g></g></g></g></g><g clip-path="url(#08b8ff88cd)"><g clip-path="url(#ebfe57bae1)"><path stroke-linecap="butt" transform="matrix(0.75, 0, 0, 0.75, 45.000005, 44.837457)" fill="none" stroke-linejoin="miter" d="M 60.140623 -0.00202534 C 26.927079 -0.00202534 -0.00000619333 26.92506 -0.00000619333 60.138604 C -0.00000619333 93.357357 26.927079 120.279234 60.140623 120.279234 C 93.354168 120.279234 120.281253 93.357357 120.281253 60.138604 C 120.281253 26.92506 93.354168 -0.00202534 60.140623 -0.00202534 Z M 60.140623 -0.00202534 " stroke="#000000" stroke-width="4" stroke-opacity="1" stroke-miterlimit="4"/></g></g><g clip-path="url(#2e0f7111d5)"><g clip-path="url(#1edb397374)"><g transform="matrix(1, 0, 0, 1, 173, 179)"><g clip-path="url(#73d391142a)"><g clip-path="url(#ce79c9e92c)"><g clip-path="url(#e2521ab885)"><path fill="#ffffff" d="M 0.542969 0.976562 L 103.609375 0.976562 L 103.609375 91.023438 L 0.542969 91.023438 Z M 0.542969 0.976562 " fill-opacity="1" fill-rule="nonzero"/></g></g></g></g></g></g><g clip-path="url(#78cefa9837)"><g clip-path="url(#8b8558803c)"><path stroke-linecap="butt" transform="matrix(0.75, 0, 0, 0.75, 173.544105, 179.974616)" fill="none" stroke-linejoin="miter" d="M 68.607865 0.00259589 L 137.212037 120.059897 L -0.00151504 120.059897 Z M 68.607865 0.00259589 " stroke="#000000" stroke-width="4" stroke-opacity="1" stroke-miterlimit="4"/></g></g><g clip-path="url(#3b9eabf828)"><g clip-path="url(#05c130dfd5)"><g transform="matrix(1, 0, 0, 1, 302, 314)"><g clip-path="url(#0f55f73808)"><g clip-path="url(#677f4ca739)"><g clip-path="url(#f17a66af6e)"><path fill="#ffffff" d="M 0.0859375 0.949219 L 103.152344 0.949219 L 103.152344 91 L 0.0859375 91 Z M 0.0859375 0.949219 " fill-opacity="1" fill-rule="nonzero"/></g></g></g></g></g></g><g clip-path="url(#7f0f41a65a)"><g clip-path="url(#a6a3dbc13d)"><path stroke-linecap="butt" transform="matrix(0.75, 0, 0, 0.75, 302.086537, 314.949232)" fill="none" stroke-linejoin="miter" d="M 68.60858 -0.0000180253 L 137.212752 120.062491 L -0.000799894 120.062491 Z M 68.60858 -0.0000180253 " stroke="#000000" stroke-width="4" stroke-opacity="1" stroke-miterlimit="4"/></g></g><g clip-path="url(#44b3bb40bf)"><g clip-path="url(#cf636f3036)"><g transform="matrix(1, 0, 0, 1, 314, 45)"><g clip-path="url(#bda9dc2e6d)"><g clip-path="url(#fbb1f08925)"><g clip-path="url(#b8bec07d90)"><path fill="#ffffff" d="M 0.785156 0 L 91 0 L 91 90.214844 L 0.785156 90.214844 Z M 0.785156 0 " fill-opacity="1" fill-rule="nonzero"/></g></g></g></g></g></g><g clip-path="url(#2126566261)"><g clip-path="url(#89083385b0)"><path stroke-linecap="butt" transform="matrix(0.75, 0, 0, 0.75, 314.786703, 44.999996)" fill="none" stroke-linejoin="miter" d="M 60.138568 0.00000467333 C 26.925023 0.00000467333 -0.00206211 26.92709 -0.00206211 60.140634 C -0.00206211 93.354179 26.925023 120.281264 60.138568 120.281264 C 93.35732 120.281264 120.279197 93.354179 120.279197 60.140634 C 120.279197 26.92709 93.35732 0.00000467333 60.138568 0.00000467333 Z M 60.138568 0.00000467333 " stroke="#000000" stroke-width="4" stroke-opacity="1" stroke-miterlimit="4"/></g></g></svg>