<svg xmlns="http://www.w3.org/2000/svg" xmlns:xlink="http://www.w3.org/1999/xlink" width="600" zoomAndPan="magnify" viewBox="0 0 450 449.999984" height="600" preserveAspectRatio="xMidYMid meet" version="1.0"><defs><clipPath id="94fa08bad8"><path d="M 173.542969 179.976562 L 276.609375 179.976562 L 276.609375 270.023438 L 173.542969 270.023438 Z M 173.542969 179.976562 " clip-rule="nonzero"/></clipPath><clipPath id="40b326808a"><path d="M 225 179.976562 L 276.457031 270.023438 L 173.542969 270.023438 Z M 225 179.976562 " clip-rule="nonzero"/></clipPath><clipPath id="2fd8ef06f0"><path d="M 0.542969 0.976562 L 103.480469 0.976562 L 103.480469 91.023438 L 0.542969 91.023438 Z M 0.542969 0.976562 " clip-rule="nonzero"/></clipPath><clipPath id="1cef77f20c"><path d="M 52 0.976562 L 103.457031 91.023438 L 0.542969 91.023438 Z M 52 0.976562 " clip-rule="nonzero"/></clipPath><clipPath id="45a0c041ae"><rect x="0" width="104" y="0" height="92"/></clipPath><clipPath id="ea287d193f"><path d="M 173.542969 179.976562 L 276.292969 179.976562 L 276.292969 269.976562 L 173.542969 269.976562 Z M 173.542969 179.976562 " clip-rule="nonzero"/></clipPath><clipPath id="eb3a8c0844"><path d="M 225 179.976562 L 276.453125 270.023438 L 173.542969 270.023438 Z M 225 179.976562 " clip-rule="nonzero"/></clipPath><clipPath id="a46ba56dbd"><path d="M 302.085938 314.949219 L 405 314.949219 L 405 405 L 302.085938 405 Z M 302.085938 314.949219 " clip-rule="nonzero"/></clipPath><clipPath id="1c98bfbe2f"><path d="M 353.542969 314.949219 L 405 405 L 302.085938 405 Z M 353.542969 314.949219 " clip-rule="nonzero"/></clipPath><clipPath id="74379c0028"><path d="M 0.0859375 0.949219 L 103 0.949219 L 103 91 L 0.0859375 91 Z M 0.0859375 0.949219 " clip-rule="nonzero"/></clipPath><clipPath id="016e92c5ba"><path d="M 51.542969 0.949219 L 103 91 L 0.0859375 91 Z M 51.542969 0.949219 " clip-rule="nonzero"/></clipPath><clipPath id="ef808f3220"><rect x="0" width="103" y="0" height="91"/></clipPath><clipPath id="449108a483"><path d="M 302.085938 314.949219 L 404.835938 314.949219 L 404.835938 404.949219 L 302.085938 404.949219 Z M 302.085938 314.949219 " clip-rule="nonzero"/></clipPath><clipPath id="b1d3ea881a"><path d="M 353.542969 314.949219 L 404.996094 404.996094 L 302.085938 404.996094 Z M 353.542969 314.949219 " clip-rule="nonzero"/></clipPath><clipPath id="9da55cae1e"><path d="M 314.785156 45 L 405 45 L 405 135.214844 L 314.785156 135.214844 Z M 314.785156 45 " clip-rule="nonzero"/></clipPath><clipPath id="6e3f03f635"><path d="M 359.894531 45 C 334.980469 45 314.785156 65.195312 314.785156 90.105469 C 314.785156 115.019531 334.980469 135.214844 359.894531 135.214844 C 384.804688 135.214844 405 115.019531 405 90.105469 C 405 65.195312 384.804688 45 359.894531 45 Z M 359.894531 45 " clip-rule="nonzero"/></clipPath><clipPath id="e49316291f"><path d="M 0.785156 0 L 91 0 L 91 90.214844 L 0.785156 90.214844 Z M 0.785156 0 " clip-rule="nonzero"/></clipPath><clipPath id="87795fae70"><path d="M 45.894531 0 C 20.980469 0 0.785156 20.195312 0.785156 45.105469 C 0.785156 70.019531 20.980469 90.214844 45.894531 90.214844 C 70.804688 90.214844 91 70.019531 91 45.105469 C 91 20.195312 70.804688 0 45.894531 0 Z M 45.894531 0 " clip-rule="nonzero"/></clipPath><clipPath id="e43aac9bd1"><rect x="0" width="91" y="0" height="91"/></clipPath><clipPath id="f82e8e24e1"><path d="M 314.785156 45 L 404.785156 45 L 404.785156 135 L 314.785156 135 Z M 314.785156 45 " clip-rule="nonzero"/></clipPath><clipPath id="411aab7870"><path d="M 359.890625 45 C 334.980469 45 314.785156 65.195312 314.785156 90.105469 C 314.785156 115.015625 334.980469 135.210938 359.890625 135.210938 C 384.804688 135.210938 404.996094 115.015625 404.996094 90.105469 C 404.996094 65.195312 384.804688 45 359.890625 45 Z M 359.890625 45 " clip-rule="nonzero"/></clipPath><clipPath id="bca4147f67"><path d="M 46.113281 45.164062 L 149.179688 45.164062 L 149.179688 135.214844 L 46.113281 135.214844 Z M 46.113281 45.164062 " clip-rule="nonzero"/></clipPath><clipPath id="8186fe7648"><path d="M 97.570312 45.164062 L 149.027344 135.214844 L 46.113281 135.214844 Z M 97.570312 45.164062 " clip-rule="nonzero"/></clipPath><clipPath id="f323d95f19"><path d="M 0.113281 0.164062 L 103.039062 0.164062 L 103.039062 90.214844 L 0.113281 90.214844 Z M 0.113281 0.164062 " clip-rule="nonzero"/></clipPath><clipPath id="4632681d27"><path d="M 51.570312 0.164062 L 103.027344 90.214844 L 0.113281 90.214844 Z M 51.570312 0.164062 " clip-rule="nonzero"/></clipPath><clipPath id="2f8236da99"><rect x="0" width="104" y="0" height="91"/></clipPath><clipPath id="a08a83faf9"><path d="M 46.113281 45.164062 L 148.863281 45.164062 L 148.863281 135.164062 L 46.113281 135.164062 Z M 46.113281 45.164062 " clip-rule="nonzero"/></clipPath><clipPath id="bc5ba74221"><path d="M 97.570312 45.164062 L 149.027344 135.210938 L 46.113281 135.210938 Z M 97.570312 45.164062 " clip-rule="nonzero"/></clipPath><clipPath id="ca8d7d9c52"><path d="M 45 314.785156 L 135.214844 314.785156 L 135.214844 405 L 45 405 Z M 45 314.785156 " clip-rule="nonzero"/></clipPath><clipPath id="6ea26d4158"><path d="M 90.105469 314.785156 C 65.195312 314.785156 45 334.980469 45 359.894531 C 45 384.804688 65.195312 405 90.105469 405 C 115.019531 405 135.214844 384.804688 135.214844 359.894531 C 135.214844 334.980469 115.019531 314.785156 90.105469 314.785156 Z M 90.105469 314.785156 " clip-rule="nonzero"/></clipPath><clipPath id="fd1f86dbe1"><path d="M 0 0.785156 L 90.214844 0.785156 L 90.214844 91 L 0 91 Z M 0 0.785156 " clip-rule="nonzero"/></clipPath><clipPath id="f9ada130cf"><path d="M 45.105469 0.785156 C 20.195312 0.785156 0 20.980469 0 45.894531 C 0 70.804688 20.195312 91 45.105469 91 C 70.019531 91 90.214844 70.804688 90.214844 45.894531 C 90.214844 20.980469 70.019531 0.785156 45.105469 0.785156 Z M 45.105469 0.785156 " clip-rule="nonzero"/></clipPath><clipPath id="eb7278039b"><rect x="0" width="91" y="0" height="91"/></clipPath><clipPath id="03d0c387bf"><path d="M 45 314.785156 L 135 314.785156 L 135 404.785156 L 45 404.785156 Z M 45 314.785156 " clip-rule="nonzero"/></clipPath><clipPath id="21ebc5ade3"><path d="M 90.105469 314.785156 C 65.195312 314.785156 45 334.980469 45 359.890625 C 45 384.804688 65.195312 404.996094 90.105469 404.996094 C 115.015625 404.996094 135.210938 384.804688 135.210938 359.890625 C 135.210938 334.980469 115.015625 314.785156 90.105469 314.785156 Z M 90.105469 314.785156 " clip-rule="nonzero"/></clipPath></defs><g clip-path="url(#94fa08bad8)"><g clip-path="url(#40b326808a)"><g transform="matrix(1, 0, 0, 1, 173, 179)"><g clip-path="url(#45a0c041ae)"><g clip-path="url(#2fd8ef06f0)"><g clip-path="url(#1cef77f20c)"><path fill="#ffffff" d="M 0.542969 0.976562 L 103.609375 0.976562 L 103.609375 91.023438 L 0.542969 91.023438 Z M 0.542969 0.976562 " fill-opacity="1" fill-rule="nonzero"/></g></g></g></g></g></g><g clip-path="url(#ea287d193f)"><g clip-path="url(#eb3a8c0844)"><path stroke-linecap="butt" transform="matrix(0.75, 0, 0, 0.75, 173.544105, 179.974673)" fill="none" stroke-linejoin="miter" d="M 68.607865 0.00251909 L 137.212037 120.065028 L -0.00151504 120.065028 Z M 68.607865 0.00251909 " stroke="#000000" stroke-width="4" stroke-opacity="1" stroke-miterlimit="4"/></g></g><g clip-path="url(#a46ba56dbd)"><g clip-path="url(#1c98bfbe2f)"><g transform="matrix(1, 0, 0, 1, 302, 314)"><g clip-path="url(#ef808f3220)"><g clip-path="url(#74379c0028)"><g clip-path="url(#016e92c5ba)"><path fill="#ffffff" d="M 0.0859375 0.949219 L 103.152344 0.949219 L 103.152344 91 L 0.0859375 91 Z M 0.0859375 0.949219 " fill-opacity="1" fill-rule="nonzero"/></g></g></g></g></g></g><g clip-path="url(#449108a483)"><g clip-path="url(#b1d3ea881a)"><path stroke-linecap="butt" transform="matrix(0.75, 0, 0, 0.75, 302.086537, 314.949232)" fill="none" stroke-linejoin="miter" d="M 68.60858 -0.0000180253 L 137.212752 120.062491 L -0.000799894 120.062491 Z M 68.60858 -0.0000180253 " stroke="#000000" stroke-width="4" stroke-opacity="1" stroke-miterlimit="4"/></g></g><g clip-path="url(#9da55cae1e)"><g clip-path="url(#6e3f03f635)"><g transform="matrix(1, 0, 0, 1, 314, 45)"><g clip-path="url(#e43aac9bd1)"><g clip-path="url(#e49316291f)"><g clip-path="url(#87795fae70)"><path fill="#ffffff" d="M 0.785156 0 L 91 0 L 91 90.214844 L 0.785156 90.214844 Z M 0.785156 0 " fill-opacity="1" fill-rule="nonzero"/></g></g></g></g></g></g><g clip-path="url(#f82e8e24e1)"><g clip-path="url(#411aab7870)"><path stroke-linecap="butt" transform="matrix(0.75, 0, 0, 0.75, 314.786703, 44.999996)" fill="none" stroke-linejoin="miter" d="M 60.138568 0.00000467333 C 26.925023 0.00000467333 -0.00206211 26.92709 -0.00206211 60.140634 C -0.00206211 93.354179 26.925023 120.281264 60.138568 120.281264 C 93.35732 120.281264 120.279197 93.354179 120.279197 60.140634 C 120.279197 26.92709 93.35732 0.00000467333 60.138568 0.00000467333 Z M 60.138568 0.00000467333 " stroke="#000000" stroke-width="4" stroke-opacity="1" stroke-miterlimit="4"/></g></g><g clip-path="url(#bca4147f67)"><g clip-path="url(#8186fe7648)"><g transform="matrix(1, 0, 0, 1, 46, 45)"><g clip-path="url(#2f8236da99)"><g clip-path="url(#f323d95f19)"><g clip-path="url(#4632681d27)"><path fill="#ffffff" d="M 0.113281 0.164062 L 103.179688 0.164062 L 103.179688 90.214844 L 0.113281 90.214844 Z M 0.113281 0.164062 " fill-opacity="1" fill-rule="nonzero"/></g></g></g></g></g></g><g clip-path="url(#a08a83faf9)"><g clip-path="url(#bc5ba74221)"><path stroke-linecap="butt" transform="matrix(0.75, 0, 0, 0.75, 46.115213, 45.162476)" fill="none" stroke-linejoin="miter" d="M 68.606805 0.00211469 L 137.216186 120.064624 L -0.00257508 120.064624 Z M 68.606805 0.00211469 " stroke="#000000" stroke-width="4" stroke-opacity="1" stroke-miterlimit="4"/></g></g><g clip-path="url(#ca8d7d9c52)"><g clip-path="url(#6ea26d4158)"><g transform="matrix(1, 0, 0, 1, 45, 314)"><g clip-path="url(#eb7278039b)"><g clip-path="url(#fd1f86dbe1)"><g clip-path="url(#f9ada130cf)"><path fill="#ffffff" d="M 0 0.785156 L 90.214844 0.785156 L 90.214844 91 L 0 91 Z M 0 0.785156 " fill-opacity="1" fill-rule="nonzero"/></g></g></g></g></g></g><g clip-path="url(#03d0c387bf)"><g clip-path="url(#21ebc5ade3)"><path stroke-linecap="butt" transform="matrix(0.75, 0, 0, 0.75, 45.000005, 314.786695)" fill="none" stroke-linejoin="miter" d="M 60.140623 -0.00205124 C 26.927079 -0.00205124 -0.00000619333 26.925034 -0.00000619333 60.138578 C -0.00000619333 93.357331 26.927079 120.279208 60.140623 120.279208 C 93.354168 120.279208 120.281253 93.357331 120.281253 60.138578 C 120.281253 26.925034 93.354168 -0.00205124 60.140623 -0.00205124 Z M 60.140623 -0.00205124 " stroke="#000000" stroke-width="4" stroke-opacity="1" stroke-miterlimit="4"/></g></g></svg>