<svg xmlns="http://www.w3.org/2000/svg" xmlns:xlink="http://www.w3.org/1999/xlink" width="600" zoomAndPan="magnify" viewBox="0 0 450 449.999984" height="600" preserveAspectRatio="xMidYMid meet" version="1.0"><defs><clipPath id="d1c1b406de"><path d="M 208.125 180 L 241.875 180 L 241.875 208.125 L 208.125 208.125 Z M 180 208.125 L 270 208.125 L 270 241.875 L 180 241.875 Z M 208.125 241.875 L 241.875 241.875 L 241.875 270 L 208.125 270 Z M 208.125 241.875 " clip-rule="nonzero"/></clipPath><clipPath id="32c5b97d79"><path d="M 28.125 0 L 61.875 0 L 61.875 28.125 L 28.125 28.125 Z M 0 28.125 L 90 28.125 L 90 61.875 L 0 61.875 Z M 28.125 61.875 L 61.875 61.875 L 61.875 90 L 28.125 90 Z M 28.125 61.875 " clip-rule="nonzero"/></clipPath><clipPath id="9a146cac1a"><rect x="0" width="90" y="0" height="90"/></clipPath><clipPath id="e0cb876c23"><path d="M 343.125 45 L 376.875 45 L 376.875 73.125 L 343.125 73.125 Z M 315 73.125 L 405 73.125 L 405 106.875 L 315 106.875 Z M 343.125 106.875 L 376.875 106.875 L 376.875 135 L 343.125 135 Z M 343.125 106.875 " clip-rule="nonzero"/></clipPath><clipPath id="bb42c6bf19"><path d="M 28.125 0 L 61.875 0 L 61.875 28.125 L 28.125 28.125 Z M 0 28.125 L 90 28.125 L 90 61.875 L 0 61.875 Z M 28.125 61.875 L 61.875 61.875 L 61.875 90 L 28.125 90 Z M 28.125 61.875 " clip-rule="nonzero"/></clipPath><clipPath id="760256a4b1"><rect x="0" width="90" y="0" height="90"/></clipPath></defs><g clip-path="url(#d1c1b406de)"><g transform="matrix(1, 0, 0, 1, 180, 180)"><g clip-path="url(#9a146cac1a)"><g clip-path="url(#32c5b97d79)"><rect x="-279" width="648" fill="#000000" height="647.999977" y="-278.999996" fill-opacity="1"/></g></g></g><path stroke-linecap="butt" transform="matrix(0.75, 0, 0, 0.75, 179.999994, 179.999986)" fill="none" stroke-linejoin="miter" d="M 82.500009 0.0000186933 L 37.500008 0.0000186933 L 37.500008 37.500019 L 0.00000782667 37.500019 L 0.00000782667 82.50002 L 37.500008 82.50002 L 37.500008 120.00002 L 82.500009 120.00002 L 82.500009 82.50002 L 120.000009 82.50002 L 120.000009 37.500019 L 82.500009 37.500019 Z M 82.500009 0.0000186933 " stroke="#000000" stroke-width="4" stroke-opacity="1" stroke-miterlimit="4"/></g><g clip-path="url(#e0cb876c23)"><g transform="matrix(1, 0, 0, 1, 315, 45)"><g clip-path="url(#760256a4b1)"><g clip-path="url(#bb42c6bf19)"><rect x="-414" width="648" fill="#000000" height="647.999977" y="-143.999996" fill-opacity="1"/></g></g></g><path stroke-linecap="butt" transform="matrix(0.75, 0, 0, 0.75, 314.999984, 44.999996)" fill="none" stroke-linejoin="miter" d="M 82.500023 0.00000467333 L 37.500022 0.00000467333 L 37.500022 37.500005 L 0.0000218467 37.500005 L 0.0000218467 82.500006 L 37.500022 82.500006 L 37.500022 120.000006 L 82.500023 120.000006 L 82.500023 82.500006 L 120.000024 82.500006 L 120.000024 37.500005 L 82.500023 37.500005 Z M 82.500023 0.00000467333 " stroke="#000000" stroke-width="4" stroke-opacity="1" stroke-miterlimit="4"/></g></svg>