<svg xmlns="http://www.w3.org/2000/svg" xmlns:xlink="http://www.w3.org/1999/xlink" width="600" zoomAndPan="magnify" viewBox="0 0 450 449.999984" height="600" preserveAspectRatio="xMidYMid meet" version="1.0"><defs><clipPath id="957f120a27"><path d="M 208.125 180 L 241.875 180 L 241.875 208.125 L 208.125 208.125 Z M 180 208.125 L 270 208.125 L 270 241.875 L 180 241.875 Z M 208.125 241.875 L 241.875 241.875 L 241.875 270 L 208.125 270 Z M 208.125 241.875 " clip-rule="nonzero"/></clipPath><clipPath id="54a5bd7e8a"><path d="M 28.125 0 L 61.875 0 L 61.875 28.125 L 28.125 28.125 Z M 0 28.125 L 90 28.125 L 90 61.875 L 0 61.875 Z M 28.125 61.875 L 61.875 61.875 L 61.875 90 L 28.125 90 Z M 28.125 61.875 " clip-rule="nonzero"/></clipPath><clipPath id="7543e7435e"><rect x="0" width="90" y="0" height="90"/></clipPath><clipPath id="b3156efcbb"><path d="M 73.125 45 L 106.875 45 L 106.875 73.125 L 73.125 73.125 Z M 45 73.125 L 135 73.125 L 135 106.875 L 45 106.875 Z M 73.125 106.875 L 106.875 106.875 L 106.875 135 L 73.125 135 Z M 73.125 106.875 " clip-rule="nonzero"/></clipPath><clipPath id="f50bdc833b"><path d="M 28.125 0 L 61.875 0 L 61.875 28.125 L 28.125 28.125 Z M 0 28.125 L 90 28.125 L 90 61.875 L 0 61.875 Z M 28.125 61.875 L 61.875 61.875 L 61.875 90 L 28.125 90 Z M 28.125 61.875 " clip-rule="nonzero"/></clipPath><clipPath id="66ba3e7305"><rect x="0" width="90" y="0" height="90"/></clipPath><clipPath id="32d034cf2b"><path d="M 73.125 315 L 106.875 315 L 106.875 343.125 L 73.125 343.125 Z M 45 343.125 L 135 343.125 L 135 376.875 L 45 376.875 Z M 73.125 376.875 L 106.875 376.875 L 106.875 405 L 73.125 405 Z M 73.125 376.875 " clip-rule="nonzero"/></clipPath><clipPath id="a38b84da9a"><path d="M 28.125 0 L 61.875 0 L 61.875 28.125 L 28.125 28.125 Z M 0 28.125 L 90 28.125 L 90 61.875 L 0 61.875 Z M 28.125 61.875 L 61.875 61.875 L 61.875 90 L 28.125 90 Z M 28.125 61.875 " clip-rule="nonzero"/></clipPath><clipPath id="137a0f0936"><rect x="0" width="90" y="0" height="90"/></clipPath><clipPath id="23486f5a28"><path d="M 343.125 45 L 376.875 45 L 376.875 73.125 L 343.125 73.125 Z M 315 73.125 L 405 73.125 L 405 106.875 L 315 106.875 Z M 343.125 106.875 L 376.875 106.875 L 376.875 135 L 343.125 135 Z M 343.125 106.875 " clip-rule="nonzero"/></clipPath><clipPath id="d51b8a2346"><path d="M 28.125 0 L 61.875 0 L 61.875 28.125 L 28.125 28.125 Z M 0 28.125 L 90 28.125 L 90 61.875 L 0 61.875 Z M 28.125 61.875 L 61.875 61.875 L 61.875 90 L 28.125 90 Z M 28.125 61.875 " clip-rule="nonzero"/></clipPath><clipPath id="e1cd564fdf"><rect x="0" width="90" y="0" height="90"/></clipPath></defs><g clip-path="url(#957f120a27)"><g transform="matrix(1, 0, 0, 1, 180, 180)"><g clip-path="url(#7543e7435e)"><g clip-path="url(#54a5bd7e8a)"><rect x="-279" width="648" fill="#000000" height="647.999977" y="-278.999996" fill-opacity="1"/></g></g></g><path stroke-linecap="butt" transform="matrix(0.75, 0, 0, 0.75, 179.999994, 179.999986)" fill="none" stroke-linejoin="miter" d="M 82.500009 0.0000186933 L 37.500008 0.0000186933 L 37.500008 37.500019 L 0.00000782667 37.500019 L 0.00000782667 82.50002 L 37.500008 82.50002 L 37.500008 120.00002 L 82.500009 120.00002 L 82.500009 82.50002 L 120.000009 82.50002 L 120.000009 37.500019 L 82.500009 37.500019 Z M 82.500009 0.0000186933 " stroke="#000000" stroke-width="4" stroke-opacity="1" stroke-miterlimit="4"/></g><g clip-path="url(#b3156efcbb)"><g transform="matrix(1, 0, 0, 1, 45, 45)"><g clip-path="url(#66ba3e7305)"><g clip-path="url(#f50bdc833b)"><rect x="-144" width="648" fill="#000000" height="647.999977" y="-143.999996" fill-opacity="1"/></g></g></g><path stroke-linecap="butt" transform="matrix(0.75, 0, 0, 0.75, 45.000005, 44.999996)" fill="none" stroke-linejoin="miter" d="M 82.499995 0.00000467333 L 37.499994 0.00000467333 L 37.499994 37.500005 L -0.00000619333 37.500005 L -0.00000619333 82.500006 L 37.499994 82.500006 L 37.499994 120.000006 L 82.499995 120.000006 L 82.499995 82.500006 L 119.999995 82.500006 L 119.999995 37.500005 L 82.499995 37.500005 Z M 82.499995 0.00000467333 " stroke="#000000" stroke-width="4" stroke-opacity="1" stroke-miterlimit="4"/></g><g clip-path="url(#32d034cf2b)"><g transform="matrix(1, 0, 0, 1, 45, 315)"><g clip-path="url(#137a0f0936)"><g clip-path="url(#a38b84da9a)"><rect x="-144" width="648" fill="#000000" height="647.999977" y="-413.999996" fill-opacity="1"/></g></g></g><path stroke-linecap="butt" transform="matrix(0.75, 0, 0, 0.75, 45.000005, 314.999975)" fill="none" stroke-linejoin="miter" d="M 82.499995 0.0000327133 L 37.499994 0.0000327133 L 37.499994 37.500033 L -0.00000619333 37.500033 L -0.00000619333 82.500034 L 37.499994 82.500034 L 37.499994 120.000034 L 82.499995 120.000034 L 82.499995 82.500034 L 119.999995 82.500034 L 119.999995 37.500033 L 82.499995 37.500033 Z M 82.499995 0.0000327133 " stroke="#000000" stroke-width="4" stroke-opacity="1" stroke-miterlimit="4"/></g><g clip-path="url(#23486f5a28)"><g transform="matrix(1, 0, 0, 1, 315, 45)"><g clip-path="url(#e1cd564fdf)"><g clip-path="url(#d51b8a2346)"><rect x="-414" width="648" fill="#000000" height="647.999977" y="-143.999996" fill-opacity="1"/></g></g></g><path stroke-linecap="butt" transform="matrix(0.75, 0, 0, 0.75, 314.999984, 44.999996)" fill="none" stroke-linejoin="miter" d="M 82.500023 0.00000467333 L 37.500022 0.00000467333 L 37.500022 37.500005 L 0.0000218467 37.500005 L 0.0000218467 82.500006 L 37.500022 82.500006 L 37.500022 120.000006 L 82.500023 120.000006 L 82.500023 82.500006 L 120.000024 82.500006 L 120.000024 37.500005 L 82.500023 37.500005 Z M 82.500023 0.00000467333 " stroke="#000000" stroke-width="4" stroke-opacity="1" stroke-miterlimit="4"/></g></svg>