<svg xmlns="http://www.w3.org/2000/svg" xmlns:xlink="http://www.w3.org/1999/xlink" width="600" zoomAndPan="magnify" viewBox="0 0 450 449.999984" height="600" preserveAspectRatio="xMidYMid meet" version="1.0"><defs><clipPath id="3883dccb7c"><path d="M 105.78125 274.265625 L 195.996094 274.265625 L 195.996094 364.480469 L 105.78125 364.480469 Z M 105.78125 274.265625 " clip-rule="nonzero"/></clipPath><clipPath id="28ef347941"><path d="M 150.886719 274.265625 C 125.976562 274.265625 105.78125 294.460938 105.78125 319.371094 C 105.78125 344.285156 125.976562 364.480469 150.886719 364.480469 C 175.800781 364.480469 195.996094 344.285156 195.996094 319.371094 C 195.996094 294.460938 175.800781 274.265625 150.886719 274.265625 Z M 150.886719 274.265625 " clip-rule="nonzero"/></clipPath><clipPath id="06d5bc32bf"><path d="M 0.78125 0.265625 L 90.996094 0.265625 L 90.996094 90.480469 L 0.78125 90.480469 Z M 0.78125 0.265625 " clip-rule="nonzero"/></clipPath><clipPath id="111e61e608"><path d="M 45.886719 0.265625 C 20.976562 0.265625 0.78125 20.460938 0.78125 45.371094 C 0.78125 70.285156 20.976562 90.480469 45.886719 90.480469 C 70.800781 90.480469 90.996094 70.285156 90.996094 45.371094 C 90.996094 20.460938 70.800781 0.265625 45.886719 0.265625 Z M 45.886719 0.265625 " clip-rule="nonzero"/></clipPath><clipPath id="654317c2a5"><rect x="0" width="91" y="0" height="91"/></clipPath><clipPath id="87fff39aa9"><path d="M 105.78125 274.265625 L 195.78125 274.265625 L 195.78125 364.265625 L 105.78125 364.265625 Z M 105.78125 274.265625 " clip-rule="nonzero"/></clipPath><clipPath id="9c73a640a5"><path d="M 150.886719 274.265625 C 125.976562 274.265625 105.78125 294.460938 105.78125 319.371094 C 105.78125 344.28125 125.976562 364.476562 150.886719 364.476562 C 175.796875 364.476562 195.992188 344.28125 195.992188 319.371094 C 195.992188 294.460938 175.796875 274.265625 150.886719 274.265625 Z M 150.886719 274.265625 " clip-rule="nonzero"/></clipPath></defs><g clip-path="url(#3883dccb7c)"><g clip-path="url(#28ef347941)"><g transform="matrix(1, 0, 0, 1, 105, 274)"><g clip-path="url(#654317c2a5)"><g clip-path="url(#06d5bc32bf)"><g clip-path="url(#111e61e608)"><path fill="#000000" d="M 0.78125 0.265625 L 90.996094 0.265625 L 90.996094 90.480469 L 0.78125 90.480469 Z M 0.78125 0.265625 " fill-opacity="1" fill-rule="nonzero"/></g></g></g></g></g></g><g clip-path="url(#87fff39aa9)"><g clip-path="url(#9c73a640a5)"><path stroke-linecap="butt" transform="matrix(0.75, 0, 0, 0.75, 105.781985, 274.265369)" fill="none" stroke-linejoin="miter" d="M 60.13965 0.000341283 C 26.926106 0.000341283 -0.000979614 26.927427 -0.000979614 60.140971 C -0.000979614 93.354515 26.926106 120.281601 60.13965 120.281601 C 93.353194 120.281601 120.28028 93.354515 120.28028 60.140971 C 120.28028 26.927427 93.353194 0.000341283 60.13965 0.000341283 Z M 60.13965 0.000341283 " stroke="#000000" stroke-width="4" stroke-opacity="1" stroke-miterlimit="4"/></g></g></svg>