<svg xmlns="http://www.w3.org/2000/svg" xmlns:xlink="http://www.w3.org/1999/xlink" width="600" zoomAndPan="magnify" viewBox="0 0 450 449.999984" height="600" preserveAspectRatio="xMidYMid meet" version="1.0"><defs><clipPath id="e99183a984"><path d="M 158.992188 270.105469 L 249.207031 270.105469 L 249.207031 360.320312 L 158.992188 360.320312 Z M 158.992188 270.105469 " clip-rule="nonzero"/></clipPath><clipPath id="a9bc3b7902"><path d="M 204.097656 270.105469 C 179.1875 270.105469 158.992188 290.300781 158.992188 315.214844 C 158.992188 340.125 179.1875 360.320312 204.097656 360.320312 C 229.011719 360.320312 249.207031 340.125 249.207031 315.214844 C 249.207031 290.300781 229.011719 270.105469 204.097656 270.105469 Z M 204.097656 270.105469 " clip-rule="nonzero"/></clipPath><clipPath id="558ea8cbbe"><path d="M 0.992188 0.105469 L 91.207031 0.105469 L 91.207031 90.320312 L 0.992188 90.320312 Z M 0.992188 0.105469 " clip-rule="nonzero"/></clipPath><clipPath id="35d935a753"><path d="M 46.097656 0.105469 C 21.1875 0.105469 0.992188 20.300781 0.992188 45.214844 C 0.992188 70.125 21.1875 90.320312 46.097656 90.320312 C 71.011719 90.320312 91.207031 70.125 91.207031 45.214844 C 91.207031 20.300781 71.011719 0.105469 46.097656 0.105469 Z M 46.097656 0.105469 " clip-rule="nonzero"/></clipPath><clipPath id="0a8d736a52"><rect x="0" width="92" y="0" height="91"/></clipPath><clipPath id="8335d7875b"><path d="M 158.992188 270.105469 L 248.992188 270.105469 L 248.992188 360.105469 L 158.992188 360.105469 Z M 158.992188 270.105469 " clip-rule="nonzero"/></clipPath><clipPath id="8828e8b48a"><path d="M 204.097656 270.105469 C 179.1875 270.105469 158.992188 290.300781 158.992188 315.210938 C 158.992188 340.125 179.1875 360.316406 204.097656 360.316406 C 229.007812 360.316406 249.203125 340.125 249.203125 315.210938 C 249.203125 290.300781 229.007812 270.105469 204.097656 270.105469 Z M 204.097656 270.105469 " clip-rule="nonzero"/></clipPath><clipPath id="122c8fb4b3"><path d="M 249.207031 179.894531 L 339.417969 179.894531 L 339.417969 270.105469 L 249.207031 270.105469 Z M 249.207031 179.894531 " clip-rule="nonzero"/></clipPath><clipPath id="4474d02ef4"><path d="M 294.3125 179.894531 C 269.402344 179.894531 249.207031 200.089844 249.207031 225 C 249.207031 249.910156 269.402344 270.105469 294.3125 270.105469 C 319.222656 270.105469 339.417969 249.910156 339.417969 225 C 339.417969 200.089844 319.222656 179.894531 294.3125 179.894531 Z M 294.3125 179.894531 " clip-rule="nonzero"/></clipPath><clipPath id="22c094b2ee"><path d="M 0.207031 0.894531 L 90.417969 0.894531 L 90.417969 91.105469 L 0.207031 91.105469 Z M 0.207031 0.894531 " clip-rule="nonzero"/></clipPath><clipPath id="6bf5b31593"><path d="M 45.3125 0.894531 C 20.402344 0.894531 0.207031 21.089844 0.207031 46 C 0.207031 70.910156 20.402344 91.105469 45.3125 91.105469 C 70.222656 91.105469 90.417969 70.910156 90.417969 46 C 90.417969 21.089844 70.222656 0.894531 45.3125 0.894531 Z M 45.3125 0.894531 " clip-rule="nonzero"/></clipPath><clipPath id="f772a56b25"><rect x="0" width="91" y="0" height="92"/></clipPath><clipPath id="db105ba292"><path d="M 249.207031 179.894531 L 339.207031 179.894531 L 339.207031 269.894531 L 249.207031 269.894531 Z M 249.207031 179.894531 " clip-rule="nonzero"/></clipPath><clipPath id="180fb03ca4"><path d="M 294.3125 179.894531 C 269.402344 179.894531 249.207031 200.085938 249.207031 225 C 249.207031 249.910156 269.402344 270.105469 294.3125 270.105469 C 319.222656 270.105469 339.417969 249.910156 339.417969 225 C 339.417969 200.085938 319.222656 179.894531 294.3125 179.894531 Z M 294.3125 179.894531 " clip-rule="nonzero"/></clipPath></defs><g clip-path="url(#e99183a984)"><g clip-path="url(#a9bc3b7902)"><g transform="matrix(1, 0, 0, 1, 158, 270)"><g clip-path="url(#0a8d736a52)"><g clip-path="url(#558ea8cbbe)"><g clip-path="url(#35d935a753)"><path fill="#000000" d="M 0.992188 0.105469 L 91.207031 0.105469 L 91.207031 90.320312 L 0.992188 90.320312 Z M 0.992188 0.105469 " fill-opacity="1" fill-rule="nonzero"/></g></g></g></g></g></g><g clip-path="url(#8335d7875b)"><g clip-path="url(#8828e8b48a)"><path stroke-linecap="butt" transform="matrix(0.75, 0, 0, 0.75, 158.992892, 270.106621)" fill="none" stroke-linejoin="miter" d="M 60.139691 -0.00153575 C 26.926146 -0.00153575 -0.000939022 26.92555 -0.000939022 60.139094 C -0.000939022 93.357847 26.926146 120.279724 60.139691 120.279724 C 93.353235 120.279724 120.28032 93.357847 120.28032 60.139094 C 120.28032 26.92555 93.353235 -0.00153575 60.139691 -0.00153575 Z M 60.139691 -0.00153575 " stroke="#000000" stroke-width="4" stroke-opacity="1" stroke-miterlimit="4"/></g></g><g clip-path="url(#122c8fb4b3)"><g clip-path="url(#4474d02ef4)"><g transform="matrix(1, 0, 0, 1, 249, 179)"><g clip-path="url(#f772a56b25)"><g clip-path="url(#22c094b2ee)"><g clip-path="url(#6bf5b31593)"><path fill="#000000" d="M 0.207031 0.894531 L 90.417969 0.894531 L 90.417969 91.105469 L 0.207031 91.105469 Z M 0.207031 0.894531 " fill-opacity="1" fill-rule="nonzero"/></g></g></g></g></g></g><g clip-path="url(#db105ba292)"><g clip-path="url(#180fb03ca4)"><path stroke-linecap="butt" transform="matrix(0.75, 0, 0, 0.75, 249.206151, 179.893344)" fill="none" stroke-linejoin="miter" d="M 60.141803 0.00158248 C 26.928259 0.00158248 0.00117348 26.92346 0.00117348 60.142212 C 0.00117348 93.355756 26.928259 120.282842 60.141803 120.282842 C 93.355347 120.282842 120.282433 93.355756 120.282433 60.142212 C 120.282433 26.92346 93.355347 0.00158248 60.141803 0.00158248 Z M 60.141803 0.00158248 " stroke="#000000" stroke-width="4" stroke-opacity="1" stroke-miterlimit="4"/></g></g></svg>