<svg xmlns="http://www.w3.org/2000/svg" xmlns:xlink="http://www.w3.org/1999/xlink" width="600" zoomAndPan="magnify" viewBox="0 0 450 449.999984" height="600" preserveAspectRatio="xMidYMid meet" version="1.0"><defs><clipPath id="cc706c2f94"><path d="M 64.085938 265.839844 L 154.300781 265.839844 L 154.300781 356.054688 L 64.085938 356.054688 Z M 64.085938 265.839844 " clip-rule="nonzero"/></clipPath><clipPath id="5ab0c4838d"><path d="M 109.195312 265.839844 C 84.28125 265.839844 64.085938 286.035156 64.085938 310.949219 C 64.085938 335.859375 84.28125 356.054688 109.195312 356.054688 C 134.105469 356.054688 154.300781 335.859375 154.300781 310.949219 C 154.300781 286.035156 134.105469 265.839844 109.195312 265.839844 Z M 109.195312 265.839844 " clip-rule="nonzero"/></clipPath><clipPath id="e1b1e4d333"><path d="M 0.0859375 0.839844 L 90.300781 0.839844 L 90.300781 91.054688 L 0.0859375 91.054688 Z M 0.0859375 0.839844 " clip-rule="nonzero"/></clipPath><clipPath id="b2450e1f76"><path d="M 45.195312 0.839844 C 20.28125 0.839844 0.0859375 21.035156 0.0859375 45.949219 C 0.0859375 70.859375 20.28125 91.054688 45.195312 91.054688 C 70.105469 91.054688 90.300781 70.859375 90.300781 45.949219 C 90.300781 21.035156 70.105469 0.839844 45.195312 0.839844 Z M 45.195312 0.839844 " clip-rule="nonzero"/></clipPath><clipPath id="aafd977e1e"><rect x="0" width="91" y="0" height="92"/></clipPath><clipPath id="45b19b85fa"><path d="M 64.085938 265.839844 L 154.085938 265.839844 L 154.085938 355.839844 L 64.085938 355.839844 Z M 64.085938 265.839844 " clip-rule="nonzero"/></clipPath><clipPath id="e7d0a0e88b"><path d="M 109.191406 265.839844 C 84.28125 265.839844 64.085938 286.035156 64.085938 310.945312 C 64.085938 335.859375 84.28125 356.050781 109.191406 356.050781 C 134.105469 356.050781 154.296875 335.859375 154.296875 310.945312 C 154.296875 286.035156 134.105469 265.839844 109.191406 265.839844 Z M 109.191406 265.839844 " clip-rule="nonzero"/></clipPath><clipPath id="4fa7879a4f"><path d="M 147.960938 143.636719 L 238.171875 143.636719 L 238.171875 233.851562 L 147.960938 233.851562 Z M 147.960938 143.636719 " clip-rule="nonzero"/></clipPath><clipPath id="13d49d8969"><path d="M 193.066406 143.636719 C 168.15625 143.636719 147.960938 163.832031 147.960938 188.742188 C 147.960938 213.65625 168.15625 233.851562 193.066406 233.851562 C 217.976562 233.851562 238.171875 213.65625 238.171875 188.742188 C 238.171875 163.832031 217.976562 143.636719 193.066406 143.636719 Z M 193.066406 143.636719 " clip-rule="nonzero"/></clipPath><clipPath id="e33fe27773"><path d="M 0.960938 0.636719 L 91.171875 0.636719 L 91.171875 90.851562 L 0.960938 90.851562 Z M 0.960938 0.636719 " clip-rule="nonzero"/></clipPath><clipPath id="edf6e78965"><path d="M 46.066406 0.636719 C 21.15625 0.636719 0.960938 20.832031 0.960938 45.742188 C 0.960938 70.65625 21.15625 90.851562 46.066406 90.851562 C 70.976562 90.851562 91.171875 70.65625 91.171875 45.742188 C 91.171875 20.832031 70.976562 0.636719 46.066406 0.636719 Z M 46.066406 0.636719 " clip-rule="nonzero"/></clipPath><clipPath id="9774d5b6c6"><rect x="0" width="92" y="0" height="91"/></clipPath><clipPath id="f8d8ea640f"><path d="M 147.960938 143.636719 L 237.960938 143.636719 L 237.960938 233.636719 L 147.960938 233.636719 Z M 147.960938 143.636719 " clip-rule="nonzero"/></clipPath><clipPath id="c3699caef9"><path d="M 193.066406 143.636719 C 168.152344 143.636719 147.960938 163.832031 147.960938 188.742188 C 147.960938 213.652344 168.152344 233.847656 193.066406 233.847656 C 217.976562 233.847656 238.171875 213.652344 238.171875 188.742188 C 238.171875 163.832031 217.976562 143.636719 193.066406 143.636719 Z M 193.066406 143.636719 " clip-rule="nonzero"/></clipPath><clipPath id="29afec9966"><path d="M 238.171875 250.914062 L 328.386719 250.914062 L 328.386719 341.125 L 238.171875 341.125 Z M 238.171875 250.914062 " clip-rule="nonzero"/></clipPath><clipPath id="7d00c65af1"><path d="M 283.28125 250.914062 C 258.367188 250.914062 238.171875 271.105469 238.171875 296.019531 C 238.171875 320.929688 258.367188 341.125 283.28125 341.125 C 308.191406 341.125 328.386719 320.929688 328.386719 296.019531 C 328.386719 271.105469 308.191406 250.914062 283.28125 250.914062 Z M 283.28125 250.914062 " clip-rule="nonzero"/></clipPath><clipPath id="40fd735376"><path d="M 0.171875 0.914062 L 90.386719 0.914062 L 90.386719 91.125 L 0.171875 91.125 Z M 0.171875 0.914062 " clip-rule="nonzero"/></clipPath><clipPath id="7218df2e56"><path d="M 45.28125 0.914062 C 20.367188 0.914062 0.171875 21.105469 0.171875 46.019531 C 0.171875 70.929688 20.367188 91.125 45.28125 91.125 C 70.191406 91.125 90.386719 70.929688 90.386719 46.019531 C 90.386719 21.105469 70.191406 0.914062 45.28125 0.914062 Z M 45.28125 0.914062 " clip-rule="nonzero"/></clipPath><clipPath id="fa154e0180"><rect x="0" width="91" y="0" height="92"/></clipPath><clipPath id="febf5fafb6"><path d="M 238.171875 250.914062 L 328.171875 250.914062 L 328.171875 340.914062 L 238.171875 340.914062 Z M 238.171875 250.914062 " clip-rule="nonzero"/></clipPath><clipPath id="672392ccdf"><path d="M 283.277344 250.914062 C 258.367188 250.914062 238.171875 271.105469 238.171875 296.019531 C 238.171875 320.929688 258.367188 341.125 283.277344 341.125 C 308.191406 341.125 328.382812 320.929688 328.382812 296.019531 C 328.382812 271.105469 308.191406 250.914062 283.277344 250.914062 Z M 283.277344 250.914062 " clip-rule="nonzero"/></clipPath></defs><g clip-path="url(#cc706c2f94)"><g clip-path="url(#5ab0c4838d)"><g transform="matrix(1, 0, 0, 1, 64, 265)"><g clip-path="url(#aafd977e1e)"><g clip-path="url(#e1b1e4d333)"><g clip-path="url(#b2450e1f76)"><path fill="#000000" d="M 0.0859375 0.839844 L 90.300781 0.839844 L 90.300781 91.054688 L 0.0859375 91.054688 Z M 0.0859375 0.839844 " fill-opacity="1" fill-rule="nonzero"/></g></g></g></g></g></g><g clip-path="url(#45b19b85fa)"><g clip-path="url(#e7d0a0e88b)"><path stroke-linecap="butt" transform="matrix(0.75, 0, 0, 0.75, 64.087678, 265.84123)" fill="none" stroke-linejoin="miter" d="M 60.138309 -0.00184899 C 26.924764 -0.00184899 -0.00232114 26.925236 -0.00232114 60.138781 C -0.00232114 93.357533 26.924764 120.27941 60.138309 120.27941 C 93.357061 120.27941 120.278938 93.357533 120.278938 60.138781 C 120.278938 26.925236 93.357061 -0.00184899 60.138309 -0.00184899 Z M 60.138309 -0.00184899 " stroke="#000000" stroke-width="4" stroke-opacity="1" stroke-miterlimit="4"/></g></g><g clip-path="url(#4fa7879a4f)"><g clip-path="url(#13d49d8969)"><g transform="matrix(1, 0, 0, 1, 147, 143)"><g clip-path="url(#9774d5b6c6)"><g clip-path="url(#e33fe27773)"><g clip-path="url(#edf6e78965)"><path fill="#000000" d="M 0.960938 0.636719 L 91.171875 0.636719 L 91.171875 90.851562 L 0.960938 90.851562 Z M 0.960938 0.636719 " fill-opacity="1" fill-rule="nonzero"/></g></g></g></g></g></g><g clip-path="url(#f8d8ea640f)"><g clip-path="url(#c3699caef9)"><path stroke-linecap="butt" transform="matrix(0.75, 0, 0, 0.75, 147.959704, 143.637411)" fill="none" stroke-linejoin="miter" d="M 60.142275 -0.000923283 C 26.923522 -0.000923283 0.0016449 26.926162 0.0016449 60.139706 C 0.0016449 93.353251 26.923522 120.280336 60.142275 120.280336 C 93.355819 120.280336 120.282904 93.353251 120.282904 60.139706 C 120.282904 26.926162 93.355819 -0.000923283 60.142275 -0.000923283 Z M 60.142275 -0.000923283 " stroke="#000000" stroke-width="4" stroke-opacity="1" stroke-miterlimit="4"/></g></g><g clip-path="url(#29afec9966)"><g clip-path="url(#7d00c65af1)"><g transform="matrix(1, 0, 0, 1, 238, 250)"><g clip-path="url(#fa154e0180)"><g clip-path="url(#40fd735376)"><g clip-path="url(#7218df2e56)"><path fill="#000000" d="M 0.171875 0.914062 L 90.386719 0.914062 L 90.386719 91.125 L 0.171875 91.125 Z M 0.171875 0.914062 " fill-opacity="1" fill-rule="nonzero"/></g></g></g></g></g></g><g clip-path="url(#febf5fafb6)"><g clip-path="url(#672392ccdf)"><path stroke-linecap="butt" transform="matrix(0.75, 0, 0, 0.75, 238.172992, 250.912363)" fill="none" stroke-linejoin="miter" d="M 60.13914 0.00226619 C 26.925596 0.00226619 -0.00148933 26.924143 -0.00148933 60.142896 C -0.00148933 93.35644 26.925596 120.283526 60.13914 120.283526 C 93.357893 120.283526 120.27977 93.35644 120.27977 60.142896 C 120.27977 26.924143 93.357893 0.00226619 60.13914 0.00226619 Z M 60.13914 0.00226619 " stroke="#000000" stroke-width="4" stroke-opacity="1" stroke-miterlimit="4"/></g></g></svg>