<svg xmlns="http://www.w3.org/2000/svg" xmlns:xlink="http://www.w3.org/1999/xlink" width="600" zoomAndPan="magnify" viewBox="0 0 450 449.999984" height="600" preserveAspectRatio="xMidYMid meet" version="1.0"><defs><clipPath id="6098864ea3"><path d="M 74.75 289.300781 L 164.964844 289.300781 L 164.964844 379.515625 L 74.75 379.515625 Z M 74.75 289.300781 " clip-rule="nonzero"/></clipPath><clipPath id="c6aed7bab3"><path d="M 119.859375 289.300781 C 94.945312 289.300781 74.75 309.496094 74.75 334.40625 C 74.75 359.320312 94.945312 379.515625 119.859375 379.515625 C 144.769531 379.515625 164.964844 359.320312 164.964844 334.40625 C 164.964844 309.496094 144.769531 289.300781 119.859375 289.300781 Z M 119.859375 289.300781 " clip-rule="nonzero"/></clipPath><clipPath id="1e5b9c7f39"><path d="M 0.75 0.300781 L 90.964844 0.300781 L 90.964844 90.515625 L 0.75 90.515625 Z M 0.75 0.300781 " clip-rule="nonzero"/></clipPath><clipPath id="a41ab2613f"><path d="M 45.859375 0.300781 C 20.945312 0.300781 0.75 20.496094 0.75 45.40625 C 0.75 70.320312 20.945312 90.515625 45.859375 90.515625 C 70.769531 90.515625 90.964844 70.320312 90.964844 45.40625 C 90.964844 20.496094 70.769531 0.300781 45.859375 0.300781 Z M 45.859375 0.300781 " clip-rule="nonzero"/></clipPath><clipPath id="406820ba9d"><rect x="0" width="91" y="0" height="91"/></clipPath><clipPath id="449ef05bd2"><path d="M 74.75 289.300781 L 164.75 289.300781 L 164.75 379.300781 L 74.75 379.300781 Z M 74.75 289.300781 " clip-rule="nonzero"/></clipPath><clipPath id="9dd0e5384e"><path d="M 119.855469 289.300781 C 94.945312 289.300781 74.75 309.496094 74.75 334.40625 C 74.75 359.316406 94.945312 379.511719 119.855469 379.511719 C 144.769531 379.511719 164.960938 359.316406 164.960938 334.40625 C 164.960938 309.496094 144.769531 289.300781 119.855469 289.300781 Z M 119.855469 289.300781 " clip-rule="nonzero"/></clipPath><clipPath id="e3ee19d799"><path d="M 179.894531 179.894531 L 270.105469 179.894531 L 270.105469 270.105469 L 179.894531 270.105469 Z M 179.894531 179.894531 " clip-rule="nonzero"/></clipPath><clipPath id="66a631c572"><path d="M 225 179.894531 C 200.089844 179.894531 179.894531 200.089844 179.894531 225 C 179.894531 249.910156 200.089844 270.105469 225 270.105469 C 249.910156 270.105469 270.105469 249.910156 270.105469 225 C 270.105469 200.089844 249.910156 179.894531 225 179.894531 Z M 225 179.894531 " clip-rule="nonzero"/></clipPath><clipPath id="df23b8f45a"><path d="M 0.894531 0.894531 L 91.105469 0.894531 L 91.105469 91.105469 L 0.894531 91.105469 Z M 0.894531 0.894531 " clip-rule="nonzero"/></clipPath><clipPath id="e440e69fcc"><path d="M 46 0.894531 C 21.089844 0.894531 0.894531 21.089844 0.894531 46 C 0.894531 70.910156 21.089844 91.105469 46 91.105469 C 70.910156 91.105469 91.105469 70.910156 91.105469 46 C 91.105469 21.089844 70.910156 0.894531 46 0.894531 Z M 46 0.894531 " clip-rule="nonzero"/></clipPath><clipPath id="286f8fd5da"><rect x="0" width="92" y="0" height="92"/></clipPath><clipPath id="60c39c9bbf"><path d="M 179.894531 179.894531 L 269.894531 179.894531 L 269.894531 269.894531 L 179.894531 269.894531 Z M 179.894531 179.894531 " clip-rule="nonzero"/></clipPath><clipPath id="60d40b0196"><path d="M 225 179.894531 C 200.085938 179.894531 179.894531 200.085938 179.894531 225 C 179.894531 249.910156 200.085938 270.105469 225 270.105469 C 249.910156 270.105469 270.105469 249.910156 270.105469 225 C 270.105469 200.085938 249.910156 179.894531 225 179.894531 Z M 225 179.894531 " clip-rule="nonzero"/></clipPath></defs><g clip-path="url(#6098864ea3)"><g clip-path="url(#c6aed7bab3)"><g transform="matrix(1, 0, 0, 1, 74, 289)"><g clip-path="url(#406820ba9d)"><g clip-path="url(#1e5b9c7f39)"><g clip-path="url(#a41ab2613f)"><path fill="#000000" d="M 0.75 0.300781 L 90.964844 0.300781 L 90.964844 90.515625 L 0.75 90.515625 Z M 0.75 0.300781 " fill-opacity="1" fill-rule="nonzero"/></g></g></g></g></g></g><g clip-path="url(#449ef05bd2)"><g clip-path="url(#9dd0e5384e)"><path stroke-linecap="butt" transform="matrix(0.75, 0, 0, 0.75, 74.751185, 289.300993)" fill="none" stroke-linejoin="miter" d="M 60.13905 -0.000282956 C 26.925506 -0.000282956 -0.00157964 26.926802 -0.00157964 60.140347 C -0.00157964 93.353891 26.925506 120.280976 60.13905 120.280976 C 93.357803 120.280976 120.27968 93.353891 120.27968 60.140347 C 120.27968 26.926802 93.357803 -0.000282956 60.13905 -0.000282956 Z M 60.13905 -0.000282956 " stroke="#000000" stroke-width="4" stroke-opacity="1" stroke-miterlimit="4"/></g></g><g clip-path="url(#e3ee19d799)"><g clip-path="url(#66a631c572)"><g transform="matrix(1, 0, 0, 1, 179, 179)"><g clip-path="url(#286f8fd5da)"><g clip-path="url(#df23b8f45a)"><g clip-path="url(#e440e69fcc)"><path fill="#000000" d="M 0.894531 0.894531 L 91.105469 0.894531 L 91.105469 91.105469 L 0.894531 91.105469 Z M 0.894531 0.894531 " fill-opacity="1" fill-rule="nonzero"/></g></g></g></g></g></g><g clip-path="url(#60c39c9bbf)"><g clip-path="url(#60d40b0196)"><path stroke-linecap="butt" transform="matrix(0.75, 0, 0, 0.75, 179.893353, 179.893344)" fill="none" stroke-linejoin="miter" d="M 60.142201 0.00158248 C 26.923449 0.00158248 0.00157162 26.92346 0.00157162 60.142212 C 0.00157162 93.355756 26.923449 120.282842 60.142201 120.282842 C 93.355746 120.282842 120.282831 93.355756 120.282831 60.142212 C 120.282831 26.92346 93.355746 0.00158248 60.142201 0.00158248 Z M 60.142201 0.00158248 " stroke="#000000" stroke-width="4" stroke-opacity="1" stroke-miterlimit="4"/></g></g></svg>