<svg xmlns="http://www.w3.org/2000/svg" xmlns:xlink="http://www.w3.org/1999/xlink" width="600" zoomAndPan="magnify" viewBox="0 0 450 449.999984" height="600" preserveAspectRatio="xMidYMid meet" version="1.0"><defs><clipPath id="1928f268dd"><path d="M 53.425781 303.164062 L 143.636719 303.164062 L 143.636719 393.375 L 53.425781 393.375 Z M 53.425781 303.164062 " clip-rule="nonzero"/></clipPath><clipPath id="e8728fc0eb"><path d="M 98.53125 303.164062 C 73.617188 303.164062 53.425781 323.359375 53.425781 348.269531 C 53.425781 373.183594 73.617188 393.375 98.53125 393.375 C 123.441406 393.375 143.636719 373.183594 143.636719 348.269531 C 143.636719 323.359375 123.441406 303.164062 98.53125 303.164062 Z M 98.53125 303.164062 " clip-rule="nonzero"/></clipPath><clipPath id="7a6b13af10"><path d="M 0.425781 0.164062 L 90.636719 0.164062 L 90.636719 90.375 L 0.425781 90.375 Z M 0.425781 0.164062 " clip-rule="nonzero"/></clipPath><clipPath id="3d9e6ac30c"><path d="M 45.53125 0.164062 C 20.617188 0.164062 0.425781 20.359375 0.425781 45.269531 C 0.425781 70.183594 20.617188 90.375 45.53125 90.375 C 70.441406 90.375 90.636719 70.183594 90.636719 45.269531 C 90.636719 20.359375 70.441406 0.164062 45.53125 0.164062 Z M 45.53125 0.164062 " clip-rule="nonzero"/></clipPath><clipPath id="083c5c5684"><rect x="0" width="91" y="0" height="91"/></clipPath><clipPath id="ebf4379b2e"><path d="M 53.425781 303.164062 L 143.425781 303.164062 L 143.425781 393.164062 L 53.425781 393.164062 Z M 53.425781 303.164062 " clip-rule="nonzero"/></clipPath><clipPath id="b85bab22e0"><path d="M 98.53125 303.164062 C 73.617188 303.164062 53.425781 323.359375 53.425781 348.269531 C 53.425781 373.179688 73.617188 393.375 98.53125 393.375 C 123.441406 393.375 143.636719 373.179688 143.636719 348.269531 C 143.636719 323.359375 123.441406 303.164062 98.53125 303.164062 Z M 98.53125 303.164062 " clip-rule="nonzero"/></clipPath><clipPath id="d18baf5329"><path d="M 143.636719 212.949219 L 233.851562 212.949219 L 233.851562 303.164062 L 143.636719 303.164062 Z M 143.636719 212.949219 " clip-rule="nonzero"/></clipPath><clipPath id="8502b1ac5d"><path d="M 188.742188 212.949219 C 163.832031 212.949219 143.636719 233.144531 143.636719 258.058594 C 143.636719 282.96875 163.832031 303.164062 188.742188 303.164062 C 213.65625 303.164062 233.851562 282.96875 233.851562 258.058594 C 233.851562 233.144531 213.65625 212.949219 188.742188 212.949219 Z M 188.742188 212.949219 " clip-rule="nonzero"/></clipPath><clipPath id="fcbdde01c7"><path d="M 0.636719 0.949219 L 90.851562 0.949219 L 90.851562 91.164062 L 0.636719 91.164062 Z M 0.636719 0.949219 " clip-rule="nonzero"/></clipPath><clipPath id="dae2921052"><path d="M 45.742188 0.949219 C 20.832031 0.949219 0.636719 21.144531 0.636719 46.058594 C 0.636719 70.96875 20.832031 91.164062 45.742188 91.164062 C 70.65625 91.164062 90.851562 70.96875 90.851562 46.058594 C 90.851562 21.144531 70.65625 0.949219 45.742188 0.949219 Z M 45.742188 0.949219 " clip-rule="nonzero"/></clipPath><clipPath id="008bf673c7"><rect x="0" width="91" y="0" height="92"/></clipPath><clipPath id="96a7fd69a2"><path d="M 143.636719 212.949219 L 233.636719 212.949219 L 233.636719 302.949219 L 143.636719 302.949219 Z M 143.636719 212.949219 " clip-rule="nonzero"/></clipPath><clipPath id="a296802f0f"><path d="M 188.742188 212.949219 C 163.832031 212.949219 143.636719 233.144531 143.636719 258.054688 C 143.636719 282.964844 163.832031 303.160156 188.742188 303.160156 C 213.652344 303.160156 233.847656 282.964844 233.847656 258.054688 C 233.847656 233.144531 213.652344 212.949219 188.742188 212.949219 Z M 188.742188 212.949219 " clip-rule="nonzero"/></clipPath><clipPath id="1a7e9f64b4"><path d="M 233.851562 122.738281 L 324.0625 122.738281 L 324.0625 212.949219 L 233.851562 212.949219 Z M 233.851562 122.738281 " clip-rule="nonzero"/></clipPath><clipPath id="2bf9994856"><path d="M 278.957031 122.738281 C 254.046875 122.738281 233.851562 142.933594 233.851562 167.84375 C 233.851562 192.753906 254.046875 212.949219 278.957031 212.949219 C 303.867188 212.949219 324.0625 192.753906 324.0625 167.84375 C 324.0625 142.933594 303.867188 122.738281 278.957031 122.738281 Z M 278.957031 122.738281 " clip-rule="nonzero"/></clipPath><clipPath id="ebaf5050a6"><path d="M 0.851562 0.738281 L 91.0625 0.738281 L 91.0625 90.949219 L 0.851562 90.949219 Z M 0.851562 0.738281 " clip-rule="nonzero"/></clipPath><clipPath id="ef13372afa"><path d="M 45.957031 0.738281 C 21.046875 0.738281 0.851562 20.933594 0.851562 45.84375 C 0.851562 70.753906 21.046875 90.949219 45.957031 90.949219 C 70.867188 90.949219 91.0625 70.753906 91.0625 45.84375 C 91.0625 20.933594 70.867188 0.738281 45.957031 0.738281 Z M 45.957031 0.738281 " clip-rule="nonzero"/></clipPath><clipPath id="49b70176ae"><rect x="0" width="92" y="0" height="91"/></clipPath><clipPath id="c64d9b878b"><path d="M 233.851562 122.738281 L 323.851562 122.738281 L 323.851562 212.738281 L 233.851562 212.738281 Z M 233.851562 122.738281 " clip-rule="nonzero"/></clipPath><clipPath id="2369a5ae99"><path d="M 278.957031 122.738281 C 254.046875 122.738281 233.851562 142.929688 233.851562 167.84375 C 233.851562 192.753906 254.046875 212.949219 278.957031 212.949219 C 303.867188 212.949219 324.0625 192.753906 324.0625 167.84375 C 324.0625 142.929688 303.867188 122.738281 278.957031 122.738281 Z M 278.957031 122.738281 " clip-rule="nonzero"/></clipPath><clipPath id="fb1c8f5c27"><path d="M 314.785156 45 L 405 45 L 405 135.214844 L 314.785156 135.214844 Z M 314.785156 45 " clip-rule="nonzero"/></clipPath><clipPath id="a3511a25cf"><path d="M 359.894531 45 C 334.980469 45 314.785156 65.195312 314.785156 90.105469 C 314.785156 115.019531 334.980469 135.214844 359.894531 135.214844 C 384.804688 135.214844 405 115.019531 405 90.105469 C 405 65.195312 384.804688 45 359.894531 45 Z M 359.894531 45 " clip-rule="nonzero"/></clipPath><clipPath id="94b4e4ec4b"><path d="M 0.785156 0 L 91 0 L 91 90.214844 L 0.785156 90.214844 Z M 0.785156 0 " clip-rule="nonzero"/></clipPath><clipPath id="32f5468cba"><path d="M 45.894531 0 C 20.980469 0 0.785156 20.195312 0.785156 45.105469 C 0.785156 70.019531 20.980469 90.214844 45.894531 90.214844 C 70.804688 90.214844 91 70.019531 91 45.105469 C 91 20.195312 70.804688 0 45.894531 0 Z M 45.894531 0 " clip-rule="nonzero"/></clipPath><clipPath id="cb8412cdaf"><rect x="0" width="91" y="0" height="91"/></clipPath><clipPath id="cbf6e4c4c3"><path d="M 314.785156 45 L 404.785156 45 L 404.785156 135 L 314.785156 135 Z M 314.785156 45 " clip-rule="nonzero"/></clipPath><clipPath id="871524043d"><path d="M 359.890625 45 C 334.980469 45 314.785156 65.195312 314.785156 90.105469 C 314.785156 115.015625 334.980469 135.210938 359.890625 135.210938 C 384.804688 135.210938 404.996094 115.015625 404.996094 90.105469 C 404.996094 65.195312 384.804688 45 359.890625 45 Z M 359.890625 45 " clip-rule="nonzero"/></clipPath></defs><g clip-path="url(#1928f268dd)"><g clip-path="url(#e8728fc0eb)"><g transform="matrix(1, 0, 0, 1, 53, 303)"><g clip-path="url(#083c5c5684)"><g clip-path="url(#7a6b13af10)"><g clip-path="url(#3d9e6ac30c)"><path fill="#000000" d="M 0.425781 0.164062 L 90.636719 0.164062 L 90.636719 90.375 L 0.425781 90.375 Z M 0.425781 0.164062 " fill-opacity="1" fill-rule="nonzero"/></g></g></g></g></g></g><g clip-path="url(#ebf4379b2e)"><g clip-path="url(#b85bab22e0)"><path stroke-linecap="butt" transform="matrix(0.75, 0, 0, 0.75, 53.424177, 303.163481)" fill="none" stroke-linejoin="miter" d="M 60.142769 0.000775084 C 26.924016 0.000775084 0.00213928 26.927861 0.00213928 60.141405 C 0.00213928 93.354949 26.924016 120.282034 60.142769 120.282034 C 93.356313 120.282034 120.283399 93.354949 120.283399 60.141405 C 120.283399 26.927861 93.356313 0.000775084 60.142769 0.000775084 Z M 60.142769 0.000775084 " stroke="#000000" stroke-width="4" stroke-opacity="1" stroke-miterlimit="4"/></g></g><g clip-path="url(#d18baf5329)"><g clip-path="url(#8502b1ac5d)"><g transform="matrix(1, 0, 0, 1, 143, 212)"><g clip-path="url(#008bf673c7)"><g clip-path="url(#fcbdde01c7)"><g clip-path="url(#dae2921052)"><path fill="#000000" d="M 0.636719 0.949219 L 90.851562 0.949219 L 90.851562 91.164062 L 0.636719 91.164062 Z M 0.636719 0.949219 " fill-opacity="1" fill-rule="nonzero"/></g></g></g></g></g></g><g clip-path="url(#96a7fd69a2)"><g clip-path="url(#a296802f0f)"><path stroke-linecap="butt" transform="matrix(0.75, 0, 0, 0.75, 143.637434, 212.950222)" fill="none" stroke-linejoin="miter" d="M 60.139676 -0.00133742 C 26.926132 -0.00133742 -0.00095335 26.925748 -0.00095335 60.139292 C -0.00095335 93.352837 26.926132 120.279922 60.139676 120.279922 C 93.353221 120.279922 120.280306 93.352837 120.280306 60.139292 C 120.280306 26.925748 93.353221 -0.00133742 60.139676 -0.00133742 Z M 60.139676 -0.00133742 " stroke="#000000" stroke-width="4" stroke-opacity="1" stroke-miterlimit="4"/></g></g><g clip-path="url(#1a7e9f64b4)"><g clip-path="url(#2bf9994856)"><g transform="matrix(1, 0, 0, 1, 233, 122)"><g clip-path="url(#49b70176ae)"><g clip-path="url(#ebaf5050a6)"><g clip-path="url(#ef13372afa)"><path fill="#000000" d="M 0.851562 0.738281 L 91.0625 0.738281 L 91.0625 90.949219 L 0.851562 90.949219 Z M 0.851562 0.738281 " fill-opacity="1" fill-rule="nonzero"/></g></g></g></g></g></g><g clip-path="url(#c64d9b878b)"><g clip-path="url(#2369a5ae99)"><path stroke-linecap="butt" transform="matrix(0.75, 0, 0, 0.75, 233.850693, 122.736962)" fill="none" stroke-linejoin="miter" d="M 60.141789 0.00175841 C 26.928245 0.00175841 0.00115915 26.923636 0.00115915 60.142388 C 0.00115915 93.355932 26.928245 120.283018 60.141789 120.283018 C 93.355333 120.283018 120.282419 93.355932 120.282419 60.142388 C 120.282419 26.923636 93.355333 0.00175841 60.141789 0.00175841 Z M 60.141789 0.00175841 " stroke="#000000" stroke-width="4" stroke-opacity="1" stroke-miterlimit="4"/></g></g><g clip-path="url(#fb1c8f5c27)"><g clip-path="url(#a3511a25cf)"><g transform="matrix(1, 0, 0, 1, 314, 45)"><g clip-path="url(#cb8412cdaf)"><g clip-path="url(#94b4e4ec4b)"><g clip-path="url(#32f5468cba)"><path fill="#000000" d="M 0.785156 0 L 91 0 L 91 90.214844 L 0.785156 90.214844 Z M 0.785156 0 " fill-opacity="1" fill-rule="nonzero"/></g></g></g></g></g></g><g clip-path="url(#cbf6e4c4c3)"><g clip-path="url(#871524043d)"><path stroke-linecap="butt" transform="matrix(0.75, 0, 0, 0.75, 314.786703, 44.999996)" fill="none" stroke-linejoin="miter" d="M 60.138568 0.00000467333 C 26.925023 0.00000467333 -0.00206211 26.92709 -0.00206211 60.140634 C -0.00206211 93.354179 26.925023 120.281264 60.138568 120.281264 C 93.35732 120.281264 120.279197 93.354179 120.279197 60.140634 C 120.279197 26.92709 93.35732 0.00000467333 60.138568 0.00000467333 Z M 60.138568 0.00000467333 " stroke="#000000" stroke-width="4" stroke-opacity="1" stroke-miterlimit="4"/></g></g></svg>