<svg xmlns="http://www.w3.org/2000/svg" xmlns:xlink="http://www.w3.org/1999/xlink" width="600" zoomAndPan="magnify" viewBox="0 0 450 449.999984" height="600" preserveAspectRatio="xMidYMid meet" version="1.0"><defs><clipPath id="db474a7fac"><path d="M 179.894531 179.894531 L 270.105469 179.894531 L 270.105469 270.105469 L 179.894531 270.105469 Z M 179.894531 179.894531 " clip-rule="nonzero"/></clipPath><clipPath id="367ba6ab4e"><path d="M 225 179.894531 C 200.089844 179.894531 179.894531 200.089844 179.894531 225 C 179.894531 249.910156 200.089844 270.105469 225 270.105469 C 249.910156 270.105469 270.105469 249.910156 270.105469 225 C 270.105469 200.089844 249.910156 179.894531 225 179.894531 Z M 225 179.894531 " clip-rule="nonzero"/></clipPath><clipPath id="998b68906c"><path d="M 0.894531 0.894531 L 91.105469 0.894531 L 91.105469 91.105469 L 0.894531 91.105469 Z M 0.894531 0.894531 " clip-rule="nonzero"/></clipPath><clipPath id="0e2ec086a0"><path d="M 46 0.894531 C 21.089844 0.894531 0.894531 21.089844 0.894531 46 C 0.894531 70.910156 21.089844 91.105469 46 91.105469 C 70.910156 91.105469 91.105469 70.910156 91.105469 46 C 91.105469 21.089844 70.910156 0.894531 46 0.894531 Z M 46 0.894531 " clip-rule="nonzero"/></clipPath><clipPath id="b3a4dbffa1"><rect x="0" width="92" y="0" height="92"/></clipPath><clipPath id="50baa4c23d"><path d="M 179.894531 179.894531 L 269.894531 179.894531 L 269.894531 269.894531 L 179.894531 269.894531 Z M 179.894531 179.894531 " clip-rule="nonzero"/></clipPath><clipPath id="a49eca295a"><path d="M 225 179.894531 C 200.085938 179.894531 179.894531 200.085938 179.894531 225 C 179.894531 249.910156 200.085938 270.105469 225 270.105469 C 249.910156 270.105469 270.105469 249.910156 270.105469 225 C 270.105469 200.085938 249.910156 179.894531 225 179.894531 Z M 225 179.894531 " clip-rule="nonzero"/></clipPath></defs><g clip-path="url(#db474a7fac)"><g clip-path="url(#367ba6ab4e)"><g transform="matrix(1, 0, 0, 1, 179, 179)"><g clip-path="url(#b3a4dbffa1)"><g clip-path="url(#998b68906c)"><g clip-path="url(#0e2ec086a0)"><path fill="#000000" d="M 0.894531 0.894531 L 91.105469 0.894531 L 91.105469 91.105469 L 0.894531 91.105469 Z M 0.894531 0.894531 " fill-opacity="1" fill-rule="nonzero"/></g></g></g></g></g></g><g clip-path="url(#50baa4c23d)"><g clip-path="url(#a49eca295a)"><path stroke-linecap="butt" transform="matrix(0.75, 0, 0, 0.75, 179.893353, 179.893344)" fill="none" stroke-linejoin="miter" d="M 60.142201 0.00158248 C 26.923449 0.00158248 0.00157162 26.92346 0.00157162 60.142212 C 0.00157162 93.355756 26.923449 120.282842 60.142201 120.282842 C 93.355746 120.282842 120.282831 93.355756 120.282831 60.142212 C 120.282831 26.92346 93.355746 0.00158248 60.142201 0.00158248 Z M 60.142201 0.00158248 " stroke="#000000" stroke-width="4" stroke-opacity="1" stroke-miterlimit="4"/></g></g></svg>