<svg xmlns="http://www.w3.org/2000/svg" xmlns:xlink="http://www.w3.org/1999/xlink" width="600" zoomAndPan="magnify" viewBox="0 0 450 449.999984" height="600" preserveAspectRatio="xMidYMid meet" version="1.0"><defs><clipPath id="8b2500a22a"><path d="M 95.316406 89.667969 L 137.417969 89.667969 L 137.417969 131.773438 L 95.316406 131.773438 Z M 95.316406 89.667969 " clip-rule="nonzero"/></clipPath><clipPath id="dcc8900b00"><path d="M 116.367188 89.667969 L 123.066406 104.019531 L 137.417969 110.71875 L 123.066406 117.417969 L 116.367188 131.773438 L 109.667969 117.417969 L 95.316406 110.71875 L 109.667969 104.019531 Z M 116.367188 89.667969 " clip-rule="nonzero"/></clipPath><clipPath id="fd1cfc5a41"><path d="M 0.316406 0.667969 L 42.417969 0.667969 L 42.417969 42.773438 L 0.316406 42.773438 Z M 0.316406 0.667969 " clip-rule="nonzero"/></clipPath><clipPath id="d9fa08beb8"><path d="M 21.367188 0.667969 L 28.066406 15.019531 L 42.417969 21.71875 L 28.066406 28.417969 L 21.367188 42.773438 L 14.667969 28.417969 L 0.316406 21.71875 L 14.667969 15.019531 Z M 21.367188 0.667969 " clip-rule="nonzero"/></clipPath><clipPath id="105904bde3"><rect x="0" width="43" y="0" height="43"/></clipPath><clipPath id="e184334a88"><path d="M 121.871094 150 L 316 150 L 316 300 L 121.871094 300 Z M 121.871094 150 " clip-rule="nonzero"/></clipPath><clipPath id="c3494ee7cb"><path d="M 121.871094 225 L 196.871094 150 L 196.871094 187.5 L 315.996094 187.5 L 315.996094 262.5 L 196.871094 262.5 L 196.871094 300 Z M 121.871094 225 " clip-rule="nonzero"/></clipPath><clipPath id="145cbf2841"><path d="M 0.871094 0 L 195 0 L 195 150 L 0.871094 150 Z M 0.871094 0 " clip-rule="nonzero"/></clipPath><clipPath id="8d13f9a809"><path d="M 0.871094 75 L 75.871094 0 L 75.871094 37.5 L 194.996094 37.5 L 194.996094 112.5 L 75.871094 112.5 L 75.871094 150 Z M 0.871094 75 " clip-rule="nonzero"/></clipPath><clipPath id="f3566c6132"><rect x="0" width="195" y="0" height="150"/></clipPath><clipPath id="c0c0eff3c1"><path d="M 7.566406 6.984375 L 79.597656 6.984375 L 79.597656 79.015625 L 7.566406 79.015625 Z M 7.566406 6.984375 " clip-rule="nonzero"/></clipPath><clipPath id="8676f798e8"><path d="M 43.582031 6.984375 C 23.691406 6.984375 7.566406 23.109375 7.566406 43 C 7.566406 62.890625 23.691406 79.015625 43.582031 79.015625 C 63.472656 79.015625 79.597656 62.890625 79.597656 43 C 79.597656 23.109375 63.472656 6.984375 43.582031 6.984375 Z M 43.582031 6.984375 " clip-rule="nonzero"/></clipPath><clipPath id="8d865c6533"><path d="M 0.566406 0.984375 L 72.597656 0.984375 L 72.597656 73.015625 L 0.566406 73.015625 Z M 0.566406 0.984375 " clip-rule="nonzero"/></clipPath><clipPath id="df44fb7241"><path d="M 36.582031 0.984375 C 16.691406 0.984375 0.566406 17.109375 0.566406 37 C 0.566406 56.890625 16.691406 73.015625 36.582031 73.015625 C 56.472656 73.015625 72.597656 56.890625 72.597656 37 C 72.597656 17.109375 56.472656 0.984375 36.582031 0.984375 Z M 36.582031 0.984375 " clip-rule="nonzero"/></clipPath><clipPath id="926e2ce09f"><rect x="0" width="73" y="0" height="74"/></clipPath><clipPath id="a32e018cb8"><path d="M 19.570312 18.742188 L 67.59375 18.742188 L 67.59375 66.761719 L 19.570312 66.761719 Z M 19.570312 18.742188 " clip-rule="nonzero"/></clipPath><clipPath id="e2be7e242f"><path d="M 43.582031 18.742188 C 30.320312 18.742188 19.570312 29.492188 19.570312 42.753906 C 19.570312 56.011719 30.320312 66.761719 43.582031 66.761719 C 56.84375 66.761719 67.59375 56.011719 67.59375 42.753906 C 67.59375 29.492188 56.84375 18.742188 43.582031 18.742188 Z M 43.582031 18.742188 " clip-rule="nonzero"/></clipPath><clipPath id="6aebb5774e"><path d="M 0.570312 0.742188 L 48.59375 0.742188 L 48.59375 48.761719 L 0.570312 48.761719 Z M 0.570312 0.742188 " clip-rule="nonzero"/></clipPath><clipPath id="8d3dec1701"><path d="M 24.582031 0.742188 C 11.320312 0.742188 0.570312 11.492188 0.570312 24.753906 C 0.570312 38.011719 11.320312 48.761719 24.582031 48.761719 C 37.84375 48.761719 48.59375 38.011719 48.59375 24.753906 C 48.59375 11.492188 37.84375 0.742188 24.582031 0.742188 Z M 24.582031 0.742188 " clip-rule="nonzero"/></clipPath><clipPath id="90d7ca6e3d"><rect x="0" width="49" y="0" height="49"/></clipPath><clipPath id="4c74c7b2c4"><rect x="0" width="87" y="0" height="86"/></clipPath></defs><g clip-path="url(#8b2500a22a)"><g clip-path="url(#dcc8900b00)"><g transform="matrix(1, 0, 0, 1, 95, 89)"><g clip-path="url(#105904bde3)"><g clip-path="url(#fd1cfc5a41)"><g clip-path="url(#d9fa08beb8)"><path fill="#2d4d31" d="M 0.316406 0.667969 L 42.417969 0.667969 L 42.417969 42.773438 L 0.316406 42.773438 Z M 0.316406 0.667969 " fill-opacity="1" fill-rule="nonzero"/></g></g></g></g></g></g><g clip-path="url(#e184334a88)"><g clip-path="url(#c3494ee7cb)"><g transform="matrix(1, 0, 0, 1, 121, 150)"><g clip-path="url(#f3566c6132)"><g clip-path="url(#145cbf2841)"><g clip-path="url(#8d13f9a809)"><path fill="#2d4d31" d="M 0.871094 0 L 194.816406 0 L 194.816406 150 L 0.871094 150 Z M 0.871094 0 " fill-opacity="1" fill-rule="nonzero"/></g></g></g></g></g></g><g transform="matrix(1, 0, 0, 1, 156, 182)"><g clip-path="url(#4c74c7b2c4)"><g clip-path="url(#c0c0eff3c1)"><g clip-path="url(#8676f798e8)"><g transform="matrix(1, 0, 0, 1, 7, 6)"><g clip-path="url(#926e2ce09f)"><g clip-path="url(#8d865c6533)"><g clip-path="url(#df44fb7241)"><path fill="#ffffff" d="M 0.566406 0.984375 L 72.597656 0.984375 L 72.597656 73.015625 L 0.566406 73.015625 Z M 0.566406 0.984375 " fill-opacity="1" fill-rule="nonzero"/></g></g></g></g><path stroke-linecap="butt" transform="matrix(1.200511, 0, 0, 1.200511, 7.566704, 6.984648)" fill="none" stroke-linejoin="miter" d="M 29.999995 -0.00022767 C 13.431531 -0.00022767 -0.000248328 13.431551 -0.000248328 30.000015 C -0.000248328 46.568479 13.431531 60.000258 29.999995 60.000258 C 46.568459 60.000258 60.000238 46.568479 60.000238 30.000015 C 60.000238 13.431551 46.568459 -0.00022767 29.999995 -0.00022767 Z M 29.999995 -0.00022767 " stroke="#000000" stroke-width="2.498936" stroke-opacity="1" stroke-miterlimit="4"/></g></g><g clip-path="url(#a32e018cb8)"><g clip-path="url(#e2be7e242f)"><g transform="matrix(1, 0, 0, 1, 19, 18)"><g clip-path="url(#90d7ca6e3d)"><g clip-path="url(#6aebb5774e)"><g clip-path="url(#8d3dec1701)"><path fill="#2d4d31" d="M 0.570312 0.742188 L 48.59375 0.742188 L 48.59375 48.761719 L 0.570312 48.761719 Z M 0.570312 0.742188 " fill-opacity="1" fill-rule="nonzero"/></g></g></g></g></g></g></g></g></svg>