<svg xmlns="http://www.w3.org/2000/svg" xmlns:xlink="http://www.w3.org/1999/xlink" width="600" zoomAndPan="magnify" viewBox="0 0 450 449.999984" height="600" preserveAspectRatio="xMidYMid meet" version="1.0"><defs><clipPath id="c4200c1156"><path d="M 95.316406 89.667969 L 137.417969 89.667969 L 137.417969 131.773438 L 95.316406 131.773438 Z M 95.316406 89.667969 " clip-rule="nonzero"/></clipPath><clipPath id="43fecc1bc3"><path d="M 116.367188 89.667969 L 123.066406 104.019531 L 137.417969 110.71875 L 123.066406 117.417969 L 116.367188 131.773438 L 109.667969 117.417969 L 95.316406 110.71875 L 109.667969 104.019531 Z M 116.367188 89.667969 " clip-rule="nonzero"/></clipPath><clipPath id="7bbe2145ae"><path d="M 0.316406 0.667969 L 42.417969 0.667969 L 42.417969 42.773438 L 0.316406 42.773438 Z M 0.316406 0.667969 " clip-rule="nonzero"/></clipPath><clipPath id="7af5bb07ce"><path d="M 21.367188 0.667969 L 28.066406 15.019531 L 42.417969 21.71875 L 28.066406 28.417969 L 21.367188 42.773438 L 14.667969 28.417969 L 0.316406 21.71875 L 14.667969 15.019531 Z M 21.367188 0.667969 " clip-rule="nonzero"/></clipPath><clipPath id="2af6923323"><rect x="0" width="43" y="0" height="43"/></clipPath><clipPath id="5d0e396840"><path d="M 149.996094 121.875 L 299.996094 121.875 L 299.996094 285.9375 L 149.996094 285.9375 Z M 149.996094 121.875 " clip-rule="nonzero"/></clipPath><clipPath id="bc69ba8570"><path d="M 224.996094 121.875 L 299.996094 196.875 L 262.496094 196.875 L 262.496094 285.667969 L 187.496094 285.667969 L 187.496094 196.875 L 149.996094 196.875 Z M 224.996094 121.875 " clip-rule="nonzero"/></clipPath><clipPath id="40d2d0590d"><path d="M 0.996094 0.875 L 150.996094 0.875 L 150.996094 164.839844 L 0.996094 164.839844 Z M 0.996094 0.875 " clip-rule="nonzero"/></clipPath><clipPath id="c42cf34f0f"><path d="M 75.996094 0.875 L 150.996094 75.875 L 113.496094 75.875 L 113.496094 164.667969 L 38.496094 164.667969 L 38.496094 75.875 L 0.996094 75.875 Z M 75.996094 0.875 " clip-rule="nonzero"/></clipPath><clipPath id="a659ea0228"><rect x="0" width="151" y="0" height="165"/></clipPath><clipPath id="14fa8e21bb"><path d="M 211.207031 151.433594 L 238.792969 151.433594 L 238.792969 174.421875 L 211.207031 174.421875 Z M 188.214844 174.421875 L 261.785156 174.421875 L 261.785156 202.011719 L 188.214844 202.011719 Z M 211.207031 202.011719 L 238.792969 202.011719 L 238.792969 225 L 211.207031 225 Z M 211.207031 202.011719 " clip-rule="nonzero"/></clipPath><clipPath id="8026842009"><path d="M 23.207031 0.433594 L 50.792969 0.433594 L 50.792969 23.421875 L 23.207031 23.421875 Z M 0.214844 23.421875 L 73.785156 23.421875 L 73.785156 51.011719 L 0.214844 51.011719 Z M 23.207031 51.011719 L 50.792969 51.011719 L 50.792969 74 L 23.207031 74 Z M 23.207031 51.011719 " clip-rule="nonzero"/></clipPath><clipPath id="30a57fd321"><rect x="0" width="74" y="0" height="74"/></clipPath><clipPath id="a8eed31310"><path d="M 211.203125 151.433594 L 238.789062 151.433594 L 238.789062 174.421875 L 211.203125 174.421875 Z M 188.214844 174.421875 L 261.714844 174.421875 L 261.714844 202.003906 L 188.214844 202.003906 Z M 211.203125 202.003906 L 238.789062 202.003906 L 238.789062 224.933594 L 211.203125 224.933594 Z M 211.203125 202.003906 " clip-rule="nonzero"/></clipPath></defs><g clip-path="url(#c4200c1156)"><g clip-path="url(#43fecc1bc3)"><g transform="matrix(1, 0, 0, 1, 95, 89)"><g clip-path="url(#2af6923323)"><g clip-path="url(#7bbe2145ae)"><g clip-path="url(#7af5bb07ce)"><path fill="#2d4d31" d="M 0.316406 0.667969 L 42.417969 0.667969 L 42.417969 42.773438 L 0.316406 42.773438 Z M 0.316406 0.667969 " fill-opacity="1" fill-rule="nonzero"/></g></g></g></g></g></g><g clip-path="url(#5d0e396840)"><g clip-path="url(#bc69ba8570)"><g transform="matrix(1, 0, 0, 1, 149, 121)"><g clip-path="url(#a659ea0228)"><g clip-path="url(#40d2d0590d)"><g clip-path="url(#c42cf34f0f)"><path fill="#2d4d31" d="M 150.996094 0.875 L 150.996094 164.9375 L 0.996094 164.9375 L 0.996094 0.875 Z M 150.996094 0.875 " fill-opacity="1" fill-rule="nonzero"/></g></g></g></g></g></g><g clip-path="url(#14fa8e21bb)"><g transform="matrix(1, 0, 0, 1, 188, 151)"><g clip-path="url(#30a57fd321)"><g clip-path="url(#8026842009)"><path fill="#ffffff" d="M 0.214844 0.433594 L 73.785156 0.433594 L 73.785156 74 L 0.214844 74 Z M 0.214844 0.433594 " fill-opacity="1" fill-rule="nonzero"/></g></g></g></g><g clip-path="url(#a8eed31310)"><path stroke-linecap="butt" transform="matrix(0.75, 0, 0, 0.75, 188.216638, 151.433309)" fill="none" stroke-linejoin="miter" d="M 67.429904 0.00037966 L 30.648651 0.00037966 L 30.648651 30.651424 L -0.00239272 30.651424 L -0.00239272 67.427468 L 30.648651 67.427468 L 30.648651 98.078512 L 67.429904 98.078512 L 67.429904 67.427468 L 98.07574 67.427468 L 98.07574 30.651424 L 67.429904 30.651424 Z M 67.429904 0.00037966 " stroke="#000000" stroke-width="4" stroke-opacity="1" stroke-miterlimit="4"/></g></svg>