<svg xmlns="http://www.w3.org/2000/svg" xmlns:xlink="http://www.w3.org/1999/xlink" width="600" zoomAndPan="magnify" viewBox="0 0 450 449.999984" height="600" preserveAspectRatio="xMidYMid meet" version="1.0"><defs><clipPath id="c389dea4cd"><path d="M 121.460938 150 L 315.992188 150 L 315.992188 300 L 121.460938 300 Z M 121.460938 150 " clip-rule="nonzero"/></clipPath><clipPath id="6535821107"><path d="M 315.992188 225 L 240.992188 300 L 240.992188 262.5 L 121.863281 262.5 L 121.863281 187.5 L 240.992188 187.5 L 240.992188 150 Z M 315.992188 225 " clip-rule="nonzero"/></clipPath><clipPath id="1f2ca8686b"><path d="M 1 0 L 194.992188 0 L 194.992188 150 L 1 150 Z M 1 0 " clip-rule="nonzero"/></clipPath><clipPath id="532ddaed4b"><path d="M 194.992188 75 L 119.992188 150 L 119.992188 112.5 L 0.863281 112.5 L 0.863281 37.5 L 119.992188 37.5 L 119.992188 0 Z M 194.992188 75 " clip-rule="nonzero"/></clipPath><clipPath id="495c89f7bf"><rect x="0" width="195" y="0" height="150"/></clipPath><clipPath id="d352315310"><path d="M 6.976562 6.984375 L 79.003906 6.984375 L 79.003906 79.015625 L 6.976562 79.015625 Z M 6.976562 6.984375 " clip-rule="nonzero"/></clipPath><clipPath id="11aea263ea"><path d="M 42.992188 6.984375 C 23.101562 6.984375 6.976562 23.109375 6.976562 43 C 6.976562 62.890625 23.101562 79.015625 42.992188 79.015625 C 62.882812 79.015625 79.003906 62.890625 79.003906 43 C 79.003906 23.109375 62.882812 6.984375 42.992188 6.984375 Z M 42.992188 6.984375 " clip-rule="nonzero"/></clipPath><clipPath id="1114d95f44"><path d="M 0.976562 0.984375 L 73.003906 0.984375 L 73.003906 73.015625 L 0.976562 73.015625 Z M 0.976562 0.984375 " clip-rule="nonzero"/></clipPath><clipPath id="c46fbf8de3"><path d="M 36.992188 0.984375 C 17.101562 0.984375 0.976562 17.109375 0.976562 37 C 0.976562 56.890625 17.101562 73.015625 36.992188 73.015625 C 56.882812 73.015625 73.003906 56.890625 73.003906 37 C 73.003906 17.109375 56.882812 0.984375 36.992188 0.984375 Z M 36.992188 0.984375 " clip-rule="nonzero"/></clipPath><clipPath id="888acccdfb"><rect x="0" width="74" y="0" height="74"/></clipPath><clipPath id="00034dd902"><path d="M 18.980469 18.742188 L 67 18.742188 L 67 66.761719 L 18.980469 66.761719 Z M 18.980469 18.742188 " clip-rule="nonzero"/></clipPath><clipPath id="bc9a6c844c"><path d="M 42.992188 18.742188 C 29.730469 18.742188 18.980469 29.492188 18.980469 42.753906 C 18.980469 56.011719 29.730469 66.761719 42.992188 66.761719 C 56.25 66.761719 67 56.011719 67 42.753906 C 67 29.492188 56.25 18.742188 42.992188 18.742188 Z M 42.992188 18.742188 " clip-rule="nonzero"/></clipPath><clipPath id="e7d531eb3d"><path d="M 0.980469 0.742188 L 49 0.742188 L 49 48.761719 L 0.980469 48.761719 Z M 0.980469 0.742188 " clip-rule="nonzero"/></clipPath><clipPath id="2eb65992fc"><path d="M 24.992188 0.742188 C 11.730469 0.742188 0.980469 11.492188 0.980469 24.753906 C 0.980469 38.011719 11.730469 48.761719 24.992188 48.761719 C 38.25 48.761719 49 38.011719 49 24.753906 C 49 11.492188 38.25 0.742188 24.992188 0.742188 Z M 24.992188 0.742188 " clip-rule="nonzero"/></clipPath><clipPath id="5420d51365"><rect x="0" width="49" y="0" height="49"/></clipPath><clipPath id="5779404ff8"><rect x="0" width="86" y="0" height="86"/></clipPath></defs><g clip-path="url(#c389dea4cd)"><g clip-path="url(#6535821107)"><g transform="matrix(1, 0, 0, 1, 121, 150)"><g clip-path="url(#495c89f7bf)"><g clip-path="url(#1f2ca8686b)"><g clip-path="url(#532ddaed4b)"><path fill="#2d4d31" d="M 194.992188 150 L 1.046875 150 L 1.046875 0 L 194.992188 0 Z M 194.992188 150 " fill-opacity="1" fill-rule="nonzero"/></g></g></g></g></g></g><g transform="matrix(1, 0, 0, 1, 171, 182)"><g clip-path="url(#5779404ff8)"><g clip-path="url(#d352315310)"><g clip-path="url(#11aea263ea)"><g transform="matrix(1, 0, 0, 1, 6, 6)"><g clip-path="url(#888acccdfb)"><g clip-path="url(#1114d95f44)"><g clip-path="url(#c46fbf8de3)"><path fill="#ffffff" d="M 0.976562 0.984375 L 73.003906 0.984375 L 73.003906 73.015625 L 0.976562 73.015625 Z M 0.976562 0.984375 " fill-opacity="1" fill-rule="nonzero"/></g></g></g></g><path stroke-linecap="butt" transform="matrix(1.200511, 0, 0, 1.200511, 6.975126, 6.984634)" fill="none" stroke-linejoin="miter" d="M 30.00144 -0.000215475 C 13.432976 -0.000215475 0.00119653 13.431564 0.00119653 30.000028 C 0.00119653 46.568492 13.432976 60.000271 30.00144 60.000271 C 46.569904 60.000271 59.998429 46.568492 59.998429 30.000028 C 59.998429 13.431564 46.569904 -0.000215475 30.00144 -0.000215475 Z M 30.00144 -0.000215475 " stroke="#000000" stroke-width="2.498936" stroke-opacity="1" stroke-miterlimit="4"/></g></g><g clip-path="url(#00034dd902)"><g clip-path="url(#bc9a6c844c)"><g transform="matrix(1, 0, 0, 1, 18, 18)"><g clip-path="url(#5420d51365)"><g clip-path="url(#e7d531eb3d)"><g clip-path="url(#2eb65992fc)"><path fill="#2d4d31" d="M 0.980469 0.742188 L 49 0.742188 L 49 48.761719 L 0.980469 48.761719 Z M 0.980469 0.742188 " fill-opacity="1" fill-rule="nonzero"/></g></g></g></g></g></g></g></g></svg>