<svg xmlns="http://www.w3.org/2000/svg" xmlns:xlink="http://www.w3.org/1999/xlink" width="600" zoomAndPan="magnify" viewBox="0 0 450 449.999984" height="600" preserveAspectRatio="xMidYMid meet" version="1.0"><defs><clipPath id="9fdd679cf3"><path d="M 95.316406 89.667969 L 137.417969 89.667969 L 137.417969 131.773438 L 95.316406 131.773438 Z M 95.316406 89.667969 " clip-rule="nonzero"/></clipPath><clipPath id="668dfc01ae"><path d="M 116.367188 89.667969 L 123.066406 104.019531 L 137.417969 110.71875 L 123.066406 117.417969 L 116.367188 131.773438 L 109.667969 117.417969 L 95.316406 110.71875 L 109.667969 104.019531 Z M 116.367188 89.667969 " clip-rule="nonzero"/></clipPath><clipPath id="ccee63bf2a"><path d="M 0.316406 0.667969 L 42.417969 0.667969 L 42.417969 42.773438 L 0.316406 42.773438 Z M 0.316406 0.667969 " clip-rule="nonzero"/></clipPath><clipPath id="8d64dc9a0d"><path d="M 21.367188 0.667969 L 28.066406 15.019531 L 42.417969 21.71875 L 28.066406 28.417969 L 21.367188 42.773438 L 14.667969 28.417969 L 0.316406 21.71875 L 14.667969 15.019531 Z M 21.367188 0.667969 " clip-rule="nonzero"/></clipPath><clipPath id="106f255e1d"><rect x="0" width="43" y="0" height="43"/></clipPath><clipPath id="a141bfe80a"><path d="M 143 128.765625 L 306.886719 128.765625 L 306.886719 278.765625 L 143 278.765625 Z M 143 128.765625 " clip-rule="nonzero"/></clipPath><clipPath id="637ed2f2d2"><path d="M 306.886719 203.765625 L 231.886719 278.765625 L 231.886719 241.265625 L 143.09375 241.265625 L 143.09375 166.265625 L 231.886719 166.265625 L 231.886719 128.765625 Z M 306.886719 203.765625 " clip-rule="nonzero"/></clipPath><clipPath id="874fcd60a1"><path d="M 0.0390625 0.765625 L 163.886719 0.765625 L 163.886719 150.765625 L 0.0390625 150.765625 Z M 0.0390625 0.765625 " clip-rule="nonzero"/></clipPath><clipPath id="1a2d535c10"><path d="M 163.886719 75.765625 L 88.886719 150.765625 L 88.886719 113.265625 L 0.09375 113.265625 L 0.09375 38.265625 L 88.886719 38.265625 L 88.886719 0.765625 Z M 163.886719 75.765625 " clip-rule="nonzero"/></clipPath><clipPath id="0c2e3d6d16"><rect x="0" width="164" y="0" height="151"/></clipPath><clipPath id="c6c9821ac6"><path d="M 215.757812 166.984375 L 243.34375 166.984375 L 243.34375 189.972656 L 215.757812 189.972656 Z M 192.765625 189.972656 L 266.332031 189.972656 L 266.332031 217.558594 L 192.765625 217.558594 Z M 215.757812 217.558594 L 243.34375 217.558594 L 243.34375 240.550781 L 215.757812 240.550781 Z M 215.757812 217.558594 " clip-rule="nonzero"/></clipPath><clipPath id="2af74cf380"><path d="M 23.757812 0.984375 L 51.34375 0.984375 L 51.34375 23.972656 L 23.757812 23.972656 Z M 0.765625 23.972656 L 74.332031 23.972656 L 74.332031 51.558594 L 0.765625 51.558594 Z M 23.757812 51.558594 L 51.34375 51.558594 L 51.34375 74.550781 L 23.757812 74.550781 Z M 23.757812 51.558594 " clip-rule="nonzero"/></clipPath><clipPath id="228e39b0e2"><rect x="0" width="75" y="0" height="75"/></clipPath><clipPath id="393f777bb2"><path d="M 215.753906 166.984375 L 243.339844 166.984375 L 243.339844 189.96875 L 215.753906 189.96875 Z M 192.765625 189.96875 L 266.265625 189.96875 L 266.265625 217.554688 L 192.765625 217.554688 Z M 215.753906 217.554688 L 243.339844 217.554688 L 243.339844 240.484375 L 215.753906 240.484375 Z M 215.753906 217.554688 " clip-rule="nonzero"/></clipPath></defs><g clip-path="url(#9fdd679cf3)"><g clip-path="url(#668dfc01ae)"><g transform="matrix(1, 0, 0, 1, 95, 89)"><g clip-path="url(#106f255e1d)"><g clip-path="url(#ccee63bf2a)"><g clip-path="url(#8d64dc9a0d)"><path fill="#2d4d31" d="M 0.316406 0.667969 L 42.417969 0.667969 L 42.417969 42.773438 L 0.316406 42.773438 Z M 0.316406 0.667969 " fill-opacity="1" fill-rule="nonzero"/></g></g></g></g></g></g><g clip-path="url(#a141bfe80a)"><g clip-path="url(#637ed2f2d2)"><g transform="matrix(1, 0, 0, 1, 143, 128)"><g clip-path="url(#0c2e3d6d16)"><g clip-path="url(#874fcd60a1)"><g clip-path="url(#1a2d535c10)"><path fill="#2d4d31" d="M 163.886719 150.765625 L -0.175781 150.765625 L -0.175781 0.765625 L 163.886719 0.765625 Z M 163.886719 150.765625 " fill-opacity="1" fill-rule="nonzero"/></g></g></g></g></g></g><g clip-path="url(#c6c9821ac6)"><g transform="matrix(1, 0, 0, 1, 192, 166)"><g clip-path="url(#228e39b0e2)"><g clip-path="url(#2af74cf380)"><path fill="#ffffff" d="M 0.765625 0.984375 L 74.332031 0.984375 L 74.332031 74.550781 L 0.765625 74.550781 Z M 0.765625 0.984375 " fill-opacity="1" fill-rule="nonzero"/></g></g></g></g><g clip-path="url(#393f777bb2)"><path stroke-linecap="butt" transform="matrix(0.75, 0, 0, 0.75, 192.766678, 166.98315)" fill="none" stroke-linejoin="miter" d="M 67.430893 0.00163307 L 30.64964 0.00163307 L 30.64964 30.647469 L -0.00140391 30.647469 L -0.00140391 67.428722 L 30.64964 67.428722 L 30.64964 98.079766 L 67.430893 98.079766 L 67.430893 67.428722 L 98.076729 67.428722 L 98.076729 30.647469 L 67.430893 30.647469 Z M 67.430893 0.00163307 " stroke="#000000" stroke-width="4" stroke-opacity="1" stroke-miterlimit="4"/></g></svg>