<svg xmlns="http://www.w3.org/2000/svg" xmlns:xlink="http://www.w3.org/1999/xlink" width="600" zoomAndPan="magnify" viewBox="0 0 450 449.999984" height="600" preserveAspectRatio="xMidYMid meet" version="1.0"><defs><clipPath id="d7ebba8733"><path d="M 143.929688 127.527344 L 293.929688 127.527344 L 293.929688 322.058594 L 143.929688 322.058594 Z M 143.929688 127.527344 " clip-rule="nonzero"/></clipPath><clipPath id="c6f2f0f399"><path d="M 218.929688 322.058594 L 143.929688 247.058594 L 181.429688 247.058594 L 181.429688 127.933594 L 256.429688 127.933594 L 256.429688 247.058594 L 293.929688 247.058594 Z M 218.929688 322.058594 " clip-rule="nonzero"/></clipPath><clipPath id="80c1dcc136"><path d="M 0.929688 1 L 150.929688 1 L 150.929688 195.058594 L 0.929688 195.058594 Z M 0.929688 1 " clip-rule="nonzero"/></clipPath><clipPath id="94ec0736a4"><path d="M 75.929688 195.058594 L 0.929688 120.058594 L 38.429688 120.058594 L 38.429688 0.933594 L 113.429688 0.933594 L 113.429688 120.058594 L 150.929688 120.058594 Z M 75.929688 195.058594 " clip-rule="nonzero"/></clipPath><clipPath id="484fb94a7a"><rect x="0" width="151" y="0" height="196"/></clipPath><clipPath id="288faa7e3b"><path d="M 6.917969 6.984375 L 78.949219 6.984375 L 78.949219 79.015625 L 6.917969 79.015625 Z M 6.917969 6.984375 " clip-rule="nonzero"/></clipPath><clipPath id="e8c021e775"><path d="M 42.933594 6.984375 C 23.042969 6.984375 6.917969 23.109375 6.917969 43 C 6.917969 62.890625 23.042969 79.015625 42.933594 79.015625 C 62.824219 79.015625 78.949219 62.890625 78.949219 43 C 78.949219 23.109375 62.824219 6.984375 42.933594 6.984375 Z M 42.933594 6.984375 " clip-rule="nonzero"/></clipPath><clipPath id="99f6b19b8f"><path d="M 0.917969 0.984375 L 72.949219 0.984375 L 72.949219 73.015625 L 0.917969 73.015625 Z M 0.917969 0.984375 " clip-rule="nonzero"/></clipPath><clipPath id="fc94e1c45a"><path d="M 36.933594 0.984375 C 17.042969 0.984375 0.917969 17.109375 0.917969 37 C 0.917969 56.890625 17.042969 73.015625 36.933594 73.015625 C 56.824219 73.015625 72.949219 56.890625 72.949219 37 C 72.949219 17.109375 56.824219 0.984375 36.933594 0.984375 Z M 36.933594 0.984375 " clip-rule="nonzero"/></clipPath><clipPath id="f1fb9a7884"><rect x="0" width="73" y="0" height="74"/></clipPath><clipPath id="68f735061b"><path d="M 18.921875 18.742188 L 66.945312 18.742188 L 66.945312 66.761719 L 18.921875 66.761719 Z M 18.921875 18.742188 " clip-rule="nonzero"/></clipPath><clipPath id="bf4edf1b18"><path d="M 42.933594 18.742188 C 29.671875 18.742188 18.921875 29.492188 18.921875 42.753906 C 18.921875 56.011719 29.671875 66.761719 42.933594 66.761719 C 56.195312 66.761719 66.945312 56.011719 66.945312 42.753906 C 66.945312 29.492188 56.195312 18.742188 42.933594 18.742188 Z M 42.933594 18.742188 " clip-rule="nonzero"/></clipPath><clipPath id="265c8a7d04"><path d="M 0.921875 0.742188 L 48.945312 0.742188 L 48.945312 48.761719 L 0.921875 48.761719 Z M 0.921875 0.742188 " clip-rule="nonzero"/></clipPath><clipPath id="c55939530f"><path d="M 24.933594 0.742188 C 11.671875 0.742188 0.921875 11.492188 0.921875 24.753906 C 0.921875 38.011719 11.671875 48.761719 24.933594 48.761719 C 38.195312 48.761719 48.945312 38.011719 48.945312 24.753906 C 48.945312 11.492188 38.195312 0.742188 24.933594 0.742188 Z M 24.933594 0.742188 " clip-rule="nonzero"/></clipPath><clipPath id="4ebf11b8d5"><rect x="0" width="49" y="0" height="49"/></clipPath><clipPath id="7f301ff3a8"><rect x="0" width="86" y="0" height="86"/></clipPath><clipPath id="3e912c6fd0"><path d="M 107.316406 101.667969 L 149.417969 101.667969 L 149.417969 143.773438 L 107.316406 143.773438 Z M 107.316406 101.667969 " clip-rule="nonzero"/></clipPath><clipPath id="7d480d98ef"><path d="M 128.367188 101.667969 L 135.066406 116.019531 L 149.417969 122.71875 L 135.066406 129.417969 L 128.367188 143.773438 L 121.667969 129.417969 L 107.316406 122.71875 L 121.667969 116.019531 Z M 128.367188 101.667969 " clip-rule="nonzero"/></clipPath><clipPath id="45bff5608b"><path d="M 0.316406 0.667969 L 42.417969 0.667969 L 42.417969 42.773438 L 0.316406 42.773438 Z M 0.316406 0.667969 " clip-rule="nonzero"/></clipPath><clipPath id="a90c7320e0"><path d="M 21.367188 0.667969 L 28.066406 15.019531 L 42.417969 21.71875 L 28.066406 28.417969 L 21.367188 42.773438 L 14.667969 28.417969 L 0.316406 21.71875 L 14.667969 15.019531 Z M 21.367188 0.667969 " clip-rule="nonzero"/></clipPath><clipPath id="514633d230"><rect x="0" width="43" y="0" height="43"/></clipPath></defs><g clip-path="url(#d7ebba8733)"><g clip-path="url(#c6f2f0f399)"><g transform="matrix(1, 0, 0, 1, 143, 127)"><g clip-path="url(#484fb94a7a)"><g clip-path="url(#80c1dcc136)"><g clip-path="url(#94ec0736a4)"><path fill="#2d4d31" d="M 0.929688 195.058594 L 0.929688 1.113281 L 150.929688 1.113281 L 150.929688 195.058594 Z M 0.929688 195.058594 " fill-opacity="1" fill-rule="nonzero"/></g></g></g></g></g></g><g transform="matrix(1, 0, 0, 1, 176, 182)"><g clip-path="url(#7f301ff3a8)"><g clip-path="url(#288faa7e3b)"><g clip-path="url(#e8c021e775)"><g transform="matrix(1, 0, 0, 1, 6, 6)"><g clip-path="url(#f1fb9a7884)"><g clip-path="url(#99f6b19b8f)"><g clip-path="url(#fc94e1c45a)"><path fill="#ffffff" d="M 0.917969 0.984375 L 72.949219 0.984375 L 72.949219 73.015625 L 0.917969 73.015625 Z M 0.917969 0.984375 " fill-opacity="1" fill-rule="nonzero"/></g></g></g></g><path stroke-linecap="butt" transform="matrix(1.200511, 0, 0, 1.200511, 6.917933, 6.984634)" fill="none" stroke-linejoin="miter" d="M 30.000273 -0.000215475 C 13.431809 -0.000215475 0.0000294935 13.431564 0.0000294935 30.000028 C 0.0000294935 46.568492 13.431809 60.000271 30.000273 60.000271 C 46.568737 60.000271 60.000516 46.568492 60.000516 30.000028 C 60.000516 13.431564 46.568737 -0.000215475 30.000273 -0.000215475 Z M 30.000273 -0.000215475 " stroke="#000000" stroke-width="2.498936" stroke-opacity="1" stroke-miterlimit="4"/></g></g><g clip-path="url(#68f735061b)"><g clip-path="url(#bf4edf1b18)"><g transform="matrix(1, 0, 0, 1, 18, 18)"><g clip-path="url(#4ebf11b8d5)"><g clip-path="url(#265c8a7d04)"><g clip-path="url(#c55939530f)"><path fill="#2d4d31" d="M 0.921875 0.742188 L 48.945312 0.742188 L 48.945312 48.761719 L 0.921875 48.761719 Z M 0.921875 0.742188 " fill-opacity="1" fill-rule="nonzero"/></g></g></g></g></g></g></g></g><g clip-path="url(#3e912c6fd0)"><g clip-path="url(#7d480d98ef)"><g transform="matrix(1, 0, 0, 1, 107, 101)"><g clip-path="url(#514633d230)"><g clip-path="url(#45bff5608b)"><g clip-path="url(#a90c7320e0)"><path fill="#2d4d31" d="M 0.316406 0.667969 L 42.417969 0.667969 L 42.417969 42.773438 L 0.316406 42.773438 Z M 0.316406 0.667969 " fill-opacity="1" fill-rule="nonzero"/></g></g></g></g></g></g></svg>