<svg xmlns="http://www.w3.org/2000/svg" xmlns:xlink="http://www.w3.org/1999/xlink" width="600" zoomAndPan="magnify" viewBox="0 0 450 449.999984" height="600" preserveAspectRatio="xMidYMid meet" version="1.0"><defs><clipPath id="c8088a1c85"><path d="M 121.871094 150 L 316 150 L 316 300 L 121.871094 300 Z M 121.871094 150 " clip-rule="nonzero"/></clipPath><clipPath id="6e24d4920a"><path d="M 121.871094 225 L 196.871094 150 L 196.871094 187.5 L 315.996094 187.5 L 315.996094 262.5 L 196.871094 262.5 L 196.871094 300 Z M 121.871094 225 " clip-rule="nonzero"/></clipPath><clipPath id="89978cf660"><path d="M 0.871094 0 L 195 0 L 195 150 L 0.871094 150 Z M 0.871094 0 " clip-rule="nonzero"/></clipPath><clipPath id="cb911956ca"><path d="M 0.871094 75 L 75.871094 0 L 75.871094 37.5 L 194.996094 37.5 L 194.996094 112.5 L 75.871094 112.5 L 75.871094 150 Z M 0.871094 75 " clip-rule="nonzero"/></clipPath><clipPath id="27f5766f56"><rect x="0" width="195" y="0" height="150"/></clipPath><clipPath id="07dcd5f8c0"><path d="M 7.566406 6.984375 L 79.597656 6.984375 L 79.597656 79.015625 L 7.566406 79.015625 Z M 7.566406 6.984375 " clip-rule="nonzero"/></clipPath><clipPath id="9c1d58923b"><path d="M 43.582031 6.984375 C 23.691406 6.984375 7.566406 23.109375 7.566406 43 C 7.566406 62.890625 23.691406 79.015625 43.582031 79.015625 C 63.472656 79.015625 79.597656 62.890625 79.597656 43 C 79.597656 23.109375 63.472656 6.984375 43.582031 6.984375 Z M 43.582031 6.984375 " clip-rule="nonzero"/></clipPath><clipPath id="8ed0d8f48b"><path d="M 0.566406 0.984375 L 72.597656 0.984375 L 72.597656 73.015625 L 0.566406 73.015625 Z M 0.566406 0.984375 " clip-rule="nonzero"/></clipPath><clipPath id="85fc43fa44"><path d="M 36.582031 0.984375 C 16.691406 0.984375 0.566406 17.109375 0.566406 37 C 0.566406 56.890625 16.691406 73.015625 36.582031 73.015625 C 56.472656 73.015625 72.597656 56.890625 72.597656 37 C 72.597656 17.109375 56.472656 0.984375 36.582031 0.984375 Z M 36.582031 0.984375 " clip-rule="nonzero"/></clipPath><clipPath id="59e1af2fd3"><rect x="0" width="73" y="0" height="74"/></clipPath><clipPath id="684c5643e5"><path d="M 19.570312 18.742188 L 67.59375 18.742188 L 67.59375 66.761719 L 19.570312 66.761719 Z M 19.570312 18.742188 " clip-rule="nonzero"/></clipPath><clipPath id="375df39b78"><path d="M 43.582031 18.742188 C 30.320312 18.742188 19.570312 29.492188 19.570312 42.753906 C 19.570312 56.011719 30.320312 66.761719 43.582031 66.761719 C 56.84375 66.761719 67.59375 56.011719 67.59375 42.753906 C 67.59375 29.492188 56.84375 18.742188 43.582031 18.742188 Z M 43.582031 18.742188 " clip-rule="nonzero"/></clipPath><clipPath id="ad4c803a4c"><path d="M 0.570312 0.742188 L 48.59375 0.742188 L 48.59375 48.761719 L 0.570312 48.761719 Z M 0.570312 0.742188 " clip-rule="nonzero"/></clipPath><clipPath id="0053861a81"><path d="M 24.582031 0.742188 C 11.320312 0.742188 0.570312 11.492188 0.570312 24.753906 C 0.570312 38.011719 11.320312 48.761719 24.582031 48.761719 C 37.84375 48.761719 48.59375 38.011719 48.59375 24.753906 C 48.59375 11.492188 37.84375 0.742188 24.582031 0.742188 Z M 24.582031 0.742188 " clip-rule="nonzero"/></clipPath><clipPath id="25c50d91f6"><rect x="0" width="49" y="0" height="49"/></clipPath><clipPath id="0e1ddc36d9"><rect x="0" width="87" y="0" height="86"/></clipPath></defs><g clip-path="url(#c8088a1c85)"><g clip-path="url(#6e24d4920a)"><g transform="matrix(1, 0, 0, 1, 121, 150)"><g clip-path="url(#27f5766f56)"><g clip-path="url(#89978cf660)"><g clip-path="url(#cb911956ca)"><path fill="#2d4d31" d="M 0.871094 0 L 194.816406 0 L 194.816406 150 L 0.871094 150 Z M 0.871094 0 " fill-opacity="1" fill-rule="nonzero"/></g></g></g></g></g></g><g transform="matrix(1, 0, 0, 1, 156, 182)"><g clip-path="url(#0e1ddc36d9)"><g clip-path="url(#07dcd5f8c0)"><g clip-path="url(#9c1d58923b)"><g transform="matrix(1, 0, 0, 1, 7, 6)"><g clip-path="url(#59e1af2fd3)"><g clip-path="url(#8ed0d8f48b)"><g clip-path="url(#85fc43fa44)"><path fill="#ffffff" d="M 0.566406 0.984375 L 72.597656 0.984375 L 72.597656 73.015625 L 0.566406 73.015625 Z M 0.566406 0.984375 " fill-opacity="1" fill-rule="nonzero"/></g></g></g></g><path stroke-linecap="butt" transform="matrix(1.200511, 0, 0, 1.200511, 7.566704, 6.984634)" fill="none" stroke-linejoin="miter" d="M 29.999995 -0.000215475 C 13.431531 -0.000215475 -0.000248328 13.431564 -0.000248328 30.000028 C -0.000248328 46.568492 13.431531 60.000271 29.999995 60.000271 C 46.568459 60.000271 60.000238 46.568492 60.000238 30.000028 C 60.000238 13.431564 46.568459 -0.000215475 29.999995 -0.000215475 Z M 29.999995 -0.000215475 " stroke="#000000" stroke-width="2.498936" stroke-opacity="1" stroke-miterlimit="4"/></g></g><g clip-path="url(#684c5643e5)"><g clip-path="url(#375df39b78)"><g transform="matrix(1, 0, 0, 1, 19, 18)"><g clip-path="url(#25c50d91f6)"><g clip-path="url(#ad4c803a4c)"><g clip-path="url(#0053861a81)"><path fill="#2d4d31" d="M 0.570312 0.742188 L 48.59375 0.742188 L 48.59375 48.761719 L 0.570312 48.761719 Z M 0.570312 0.742188 " fill-opacity="1" fill-rule="nonzero"/></g></g></g></g></g></g></g></g></svg>