<svg xmlns="http://www.w3.org/2000/svg" xmlns:xlink="http://www.w3.org/1999/xlink" width="600" zoomAndPan="magnify" viewBox="0 0 450 449.999984" height="600" preserveAspectRatio="xMidYMid meet" version="1.0"><defs><clipPath id="275b43d218"><path d="M 149.996094 121.875 L 299.996094 121.875 L 299.996094 285.9375 L 149.996094 285.9375 Z M 149.996094 121.875 " clip-rule="nonzero"/></clipPath><clipPath id="b3c270062f"><path d="M 224.996094 121.875 L 299.996094 196.875 L 262.496094 196.875 L 262.496094 285.667969 L 187.496094 285.667969 L 187.496094 196.875 L 149.996094 196.875 Z M 224.996094 121.875 " clip-rule="nonzero"/></clipPath><clipPath id="b565854f4d"><path d="M 0.996094 0.875 L 150.996094 0.875 L 150.996094 164.839844 L 0.996094 164.839844 Z M 0.996094 0.875 " clip-rule="nonzero"/></clipPath><clipPath id="2e6de06351"><path d="M 75.996094 0.875 L 150.996094 75.875 L 113.496094 75.875 L 113.496094 164.667969 L 38.496094 164.667969 L 38.496094 75.875 L 0.996094 75.875 Z M 75.996094 0.875 " clip-rule="nonzero"/></clipPath><clipPath id="68f4c07585"><rect x="0" width="151" y="0" height="165"/></clipPath><clipPath id="5bed0a7da7"><path d="M 211.207031 151.433594 L 238.792969 151.433594 L 238.792969 174.421875 L 211.207031 174.421875 Z M 188.214844 174.421875 L 261.785156 174.421875 L 261.785156 202.011719 L 188.214844 202.011719 Z M 211.207031 202.011719 L 238.792969 202.011719 L 238.792969 225 L 211.207031 225 Z M 211.207031 202.011719 " clip-rule="nonzero"/></clipPath><clipPath id="5b22520b41"><path d="M 23.207031 0.433594 L 50.792969 0.433594 L 50.792969 23.421875 L 23.207031 23.421875 Z M 0.214844 23.421875 L 73.785156 23.421875 L 73.785156 51.011719 L 0.214844 51.011719 Z M 23.207031 51.011719 L 50.792969 51.011719 L 50.792969 74 L 23.207031 74 Z M 23.207031 51.011719 " clip-rule="nonzero"/></clipPath><clipPath id="7a859cb05c"><rect x="0" width="74" y="0" height="74"/></clipPath><clipPath id="4751a872d3"><path d="M 211.203125 151.433594 L 238.789062 151.433594 L 238.789062 174.421875 L 211.203125 174.421875 Z M 188.214844 174.421875 L 261.714844 174.421875 L 261.714844 202.003906 L 188.214844 202.003906 Z M 211.203125 202.003906 L 238.789062 202.003906 L 238.789062 224.933594 L 211.203125 224.933594 Z M 211.203125 202.003906 " clip-rule="nonzero"/></clipPath></defs><g clip-path="url(#275b43d218)"><g clip-path="url(#b3c270062f)"><g transform="matrix(1, 0, 0, 1, 149, 121)"><g clip-path="url(#68f4c07585)"><g clip-path="url(#b565854f4d)"><g clip-path="url(#2e6de06351)"><path fill="#2d4d31" d="M 150.996094 0.875 L 150.996094 164.9375 L 0.996094 164.9375 L 0.996094 0.875 Z M 150.996094 0.875 " fill-opacity="1" fill-rule="nonzero"/></g></g></g></g></g></g><g clip-path="url(#5bed0a7da7)"><g transform="matrix(1, 0, 0, 1, 188, 151)"><g clip-path="url(#7a859cb05c)"><g clip-path="url(#5b22520b41)"><path fill="#ffffff" d="M 0.214844 0.433594 L 73.785156 0.433594 L 73.785156 74 L 0.214844 74 Z M 0.214844 0.433594 " fill-opacity="1" fill-rule="nonzero"/></g></g></g></g><g clip-path="url(#4751a872d3)"><path stroke-linecap="butt" transform="matrix(0.75, 0, 0, 0.75, 188.216638, 151.433191)" fill="none" stroke-linejoin="miter" d="M 67.429904 0.00053646 L 30.648651 0.00053646 L 30.648651 30.651581 L -0.00239272 30.651581 L -0.00239272 67.427625 L 30.648651 67.427625 L 30.648651 98.078669 L 67.429904 98.078669 L 67.429904 67.427625 L 98.07574 67.427625 L 98.07574 30.651581 L 67.429904 30.651581 Z M 67.429904 0.00053646 " stroke="#000000" stroke-width="4" stroke-opacity="1" stroke-miterlimit="4"/></g></svg>