<svg xmlns="http://www.w3.org/2000/svg" xmlns:xlink="http://www.w3.org/1999/xlink" width="600" zoomAndPan="magnify" viewBox="0 0 450 449.999984" height="600" preserveAspectRatio="xMidYMid meet" version="1.0"><defs><clipPath id="63fd125125"><path d="M 95.316406 89.667969 L 137.417969 89.667969 L 137.417969 131.773438 L 95.316406 131.773438 Z M 95.316406 89.667969 " clip-rule="nonzero"/></clipPath><clipPath id="65d4c95054"><path d="M 116.367188 89.667969 L 123.066406 104.019531 L 137.417969 110.71875 L 123.066406 117.417969 L 116.367188 131.773438 L 109.667969 117.417969 L 95.316406 110.71875 L 109.667969 104.019531 Z M 116.367188 89.667969 " clip-rule="nonzero"/></clipPath><clipPath id="8f5bace75f"><path d="M 0.316406 0.667969 L 42.417969 0.667969 L 42.417969 42.773438 L 0.316406 42.773438 Z M 0.316406 0.667969 " clip-rule="nonzero"/></clipPath><clipPath id="8942d4e8e6"><path d="M 21.367188 0.667969 L 28.066406 15.019531 L 42.417969 21.71875 L 28.066406 28.417969 L 21.367188 42.773438 L 14.667969 28.417969 L 0.316406 21.71875 L 14.667969 15.019531 Z M 21.367188 0.667969 " clip-rule="nonzero"/></clipPath><clipPath id="ac77e991be"><rect x="0" width="43" y="0" height="43"/></clipPath><clipPath id="4b60545c90"><path d="M 143.929688 127.9375 L 293.929688 127.9375 L 293.929688 322.46875 L 143.929688 322.46875 Z M 143.929688 127.9375 " clip-rule="nonzero"/></clipPath><clipPath id="39cb009260"><path d="M 218.929688 127.9375 L 293.929688 202.9375 L 256.429688 202.9375 L 256.429688 322.066406 L 181.429688 322.066406 L 181.429688 202.9375 L 143.929688 202.9375 Z M 218.929688 127.9375 " clip-rule="nonzero"/></clipPath><clipPath id="677cd282e7"><path d="M 0.929688 0.9375 L 150.929688 0.9375 L 150.929688 195 L 0.929688 195 Z M 0.929688 0.9375 " clip-rule="nonzero"/></clipPath><clipPath id="5b789725c9"><path d="M 75.929688 0.9375 L 150.929688 75.9375 L 113.429688 75.9375 L 113.429688 195.066406 L 38.429688 195.066406 L 38.429688 75.9375 L 0.929688 75.9375 Z M 75.929688 0.9375 " clip-rule="nonzero"/></clipPath><clipPath id="4797490ccb"><rect x="0" width="151" y="0" height="196"/></clipPath><clipPath id="88cbc2eb57"><path d="M 6.917969 7.851562 L 78.949219 7.851562 L 78.949219 79.882812 L 6.917969 79.882812 Z M 6.917969 7.851562 " clip-rule="nonzero"/></clipPath><clipPath id="0d15621319"><path d="M 42.933594 7.851562 C 23.042969 7.851562 6.917969 23.976562 6.917969 43.867188 C 6.917969 63.757812 23.042969 79.882812 42.933594 79.882812 C 62.824219 79.882812 78.949219 63.757812 78.949219 43.867188 C 78.949219 23.976562 62.824219 7.851562 42.933594 7.851562 Z M 42.933594 7.851562 " clip-rule="nonzero"/></clipPath><clipPath id="426f2ba7db"><path d="M 0.917969 0.851562 L 72.949219 0.851562 L 72.949219 72.882812 L 0.917969 72.882812 Z M 0.917969 0.851562 " clip-rule="nonzero"/></clipPath><clipPath id="d21efbc886"><path d="M 36.933594 0.851562 C 17.042969 0.851562 0.917969 16.976562 0.917969 36.867188 C 0.917969 56.757812 17.042969 72.882812 36.933594 72.882812 C 56.824219 72.882812 72.949219 56.757812 72.949219 36.867188 C 72.949219 16.976562 56.824219 0.851562 36.933594 0.851562 Z M 36.933594 0.851562 " clip-rule="nonzero"/></clipPath><clipPath id="a5801c23f7"><rect x="0" width="73" y="0" height="73"/></clipPath><clipPath id="70052b9d6c"><path d="M 18.921875 19.609375 L 66.945312 19.609375 L 66.945312 67.628906 L 18.921875 67.628906 Z M 18.921875 19.609375 " clip-rule="nonzero"/></clipPath><clipPath id="ca08d62de0"><path d="M 42.933594 19.609375 C 29.671875 19.609375 18.921875 30.359375 18.921875 43.621094 C 18.921875 56.878906 29.671875 67.628906 42.933594 67.628906 C 56.195312 67.628906 66.945312 56.878906 66.945312 43.621094 C 66.945312 30.359375 56.195312 19.609375 42.933594 19.609375 Z M 42.933594 19.609375 " clip-rule="nonzero"/></clipPath><clipPath id="d5c8eecd57"><path d="M 0.921875 0.609375 L 48.945312 0.609375 L 48.945312 48.628906 L 0.921875 48.628906 Z M 0.921875 0.609375 " clip-rule="nonzero"/></clipPath><clipPath id="6f3aafbcf1"><path d="M 24.933594 0.609375 C 11.671875 0.609375 0.921875 11.359375 0.921875 24.621094 C 0.921875 37.878906 11.671875 48.628906 24.933594 48.628906 C 38.195312 48.628906 48.945312 37.878906 48.945312 24.621094 C 48.945312 11.359375 38.195312 0.609375 24.933594 0.609375 Z M 24.933594 0.609375 " clip-rule="nonzero"/></clipPath><clipPath id="ba2fb882a2"><rect x="0" width="49" y="0" height="49"/></clipPath><clipPath id="feb3b01132"><rect x="0" width="86" y="0" height="87"/></clipPath></defs><g clip-path="url(#63fd125125)"><g clip-path="url(#65d4c95054)"><g transform="matrix(1, 0, 0, 1, 95, 89)"><g clip-path="url(#ac77e991be)"><g clip-path="url(#8f5bace75f)"><g clip-path="url(#8942d4e8e6)"><path fill="#2d4d31" d="M 0.316406 0.667969 L 42.417969 0.667969 L 42.417969 42.773438 L 0.316406 42.773438 Z M 0.316406 0.667969 " fill-opacity="1" fill-rule="nonzero"/></g></g></g></g></g></g><g clip-path="url(#4b60545c90)"><g clip-path="url(#39cb009260)"><g transform="matrix(1, 0, 0, 1, 143, 127)"><g clip-path="url(#4797490ccb)"><g clip-path="url(#677cd282e7)"><g clip-path="url(#5b789725c9)"><path fill="#2d4d31" d="M 150.929688 0.9375 L 150.929688 194.882812 L 0.929688 194.882812 L 0.929688 0.9375 Z M 150.929688 0.9375 " fill-opacity="1" fill-rule="nonzero"/></g></g></g></g></g></g><g transform="matrix(1, 0, 0, 1, 176, 169)"><g clip-path="url(#feb3b01132)"><g clip-path="url(#88cbc2eb57)"><g clip-path="url(#0d15621319)"><g transform="matrix(1, 0, 0, 1, 6, 7)"><g clip-path="url(#a5801c23f7)"><g clip-path="url(#426f2ba7db)"><g clip-path="url(#d21efbc886)"><path fill="#ffffff" d="M 0.917969 0.851562 L 72.949219 0.851562 L 72.949219 72.882812 L 0.917969 72.882812 Z M 0.917969 0.851562 " fill-opacity="1" fill-rule="nonzero"/></g></g></g></g><path stroke-linecap="butt" transform="matrix(1.200511, 0, 0, 1.200511, 6.917933, 7.851407)" fill="none" stroke-linejoin="miter" d="M 30.000273 0.000129507 C 13.431809 0.000129507 0.0000294935 13.431909 0.0000294935 30.000373 C 0.0000294935 46.568837 13.431809 60.000616 30.000273 60.000616 C 46.568737 60.000616 60.000516 46.568837 60.000516 30.000373 C 60.000516 13.431909 46.568737 0.000129507 30.000273 0.000129507 Z M 30.000273 0.000129507 " stroke="#000000" stroke-width="2.498936" stroke-opacity="1" stroke-miterlimit="4"/></g></g><g clip-path="url(#70052b9d6c)"><g clip-path="url(#ca08d62de0)"><g transform="matrix(1, 0, 0, 1, 18, 19)"><g clip-path="url(#ba2fb882a2)"><g clip-path="url(#d5c8eecd57)"><g clip-path="url(#6f3aafbcf1)"><path fill="#2d4d31" d="M 0.921875 0.609375 L 48.945312 0.609375 L 48.945312 48.628906 L 0.921875 48.628906 Z M 0.921875 0.609375 " fill-opacity="1" fill-rule="nonzero"/></g></g></g></g></g></g></g></g></svg>