<svg xmlns="http://www.w3.org/2000/svg" xmlns:xlink="http://www.w3.org/1999/xlink" width="600" zoomAndPan="magnify" viewBox="0 0 450 449.999984" height="600" preserveAspectRatio="xMidYMid meet" version="1.0"><defs><clipPath id="2b77927458"><path d="M 95.316406 89.667969 L 137.417969 89.667969 L 137.417969 131.773438 L 95.316406 131.773438 Z M 95.316406 89.667969 " clip-rule="nonzero"/></clipPath><clipPath id="664e56aed8"><path d="M 116.367188 89.667969 L 123.066406 104.019531 L 137.417969 110.71875 L 123.066406 117.417969 L 116.367188 131.773438 L 109.667969 117.417969 L 95.316406 110.71875 L 109.667969 104.019531 Z M 116.367188 89.667969 " clip-rule="nonzero"/></clipPath><clipPath id="79e3c23737"><path d="M 0.316406 0.667969 L 42.417969 0.667969 L 42.417969 42.773438 L 0.316406 42.773438 Z M 0.316406 0.667969 " clip-rule="nonzero"/></clipPath><clipPath id="953784061c"><path d="M 21.367188 0.667969 L 28.066406 15.019531 L 42.417969 21.71875 L 28.066406 28.417969 L 21.367188 42.773438 L 14.667969 28.417969 L 0.316406 21.71875 L 14.667969 15.019531 Z M 21.367188 0.667969 " clip-rule="nonzero"/></clipPath><clipPath id="ab31136957"><rect x="0" width="43" y="0" height="43"/></clipPath><clipPath id="272b15068e"><path d="M 149.996094 121.59375 L 299.996094 121.59375 L 299.996094 285.65625 L 149.996094 285.65625 Z M 149.996094 121.59375 " clip-rule="nonzero"/></clipPath><clipPath id="4b2172693d"><path d="M 224.996094 285.65625 L 149.996094 210.65625 L 187.496094 210.65625 L 187.496094 121.863281 L 262.496094 121.863281 L 262.496094 210.65625 L 299.996094 210.65625 Z M 224.996094 285.65625 " clip-rule="nonzero"/></clipPath><clipPath id="34fa6aeac4"><path d="M 0.996094 0.679688 L 150.996094 0.679688 L 150.996094 164.65625 L 0.996094 164.65625 Z M 0.996094 0.679688 " clip-rule="nonzero"/></clipPath><clipPath id="b20db36c6b"><path d="M 75.996094 164.65625 L 0.996094 89.65625 L 38.496094 89.65625 L 38.496094 0.863281 L 113.496094 0.863281 L 113.496094 89.65625 L 150.996094 89.65625 Z M 75.996094 164.65625 " clip-rule="nonzero"/></clipPath><clipPath id="d45114f10e"><rect x="0" width="151" y="0" height="165"/></clipPath><clipPath id="50e4937f05"><path d="M 211.207031 162.050781 L 238.792969 162.050781 L 238.792969 185.039062 L 211.207031 185.039062 Z M 188.214844 185.039062 L 261.785156 185.039062 L 261.785156 212.628906 L 188.214844 212.628906 Z M 211.207031 212.628906 L 238.792969 212.628906 L 238.792969 235.617188 L 211.207031 235.617188 Z M 211.207031 212.628906 " clip-rule="nonzero"/></clipPath><clipPath id="6212f6df37"><path d="M 23.207031 0.0507812 L 50.792969 0.0507812 L 50.792969 23.039062 L 23.207031 23.039062 Z M 0.214844 23.039062 L 73.785156 23.039062 L 73.785156 50.628906 L 0.214844 50.628906 Z M 23.207031 50.628906 L 50.792969 50.628906 L 50.792969 73.617188 L 23.207031 73.617188 Z M 23.207031 50.628906 " clip-rule="nonzero"/></clipPath><clipPath id="7d8f1d647b"><rect x="0" width="74" y="0" height="74"/></clipPath><clipPath id="1af542fc62"><path d="M 211.203125 162.050781 L 238.789062 162.050781 L 238.789062 185.035156 L 211.203125 185.035156 Z M 188.214844 185.035156 L 261.714844 185.035156 L 261.714844 212.621094 L 188.214844 212.621094 Z M 211.203125 212.621094 L 238.789062 212.621094 L 238.789062 235.550781 L 211.203125 235.550781 Z M 211.203125 212.621094 " clip-rule="nonzero"/></clipPath></defs><g clip-path="url(#2b77927458)"><g clip-path="url(#664e56aed8)"><g transform="matrix(1, 0, 0, 1, 95, 89)"><g clip-path="url(#ab31136957)"><g clip-path="url(#79e3c23737)"><g clip-path="url(#953784061c)"><path fill="#2d4d31" d="M 0.316406 0.667969 L 42.417969 0.667969 L 42.417969 42.773438 L 0.316406 42.773438 Z M 0.316406 0.667969 " fill-opacity="1" fill-rule="nonzero"/></g></g></g></g></g></g><g clip-path="url(#272b15068e)"><g clip-path="url(#4b2172693d)"><g transform="matrix(1, 0, 0, 1, 149, 121)"><g clip-path="url(#d45114f10e)"><g clip-path="url(#34fa6aeac4)"><g clip-path="url(#b20db36c6b)"><path fill="#2d4d31" d="M 0.996094 164.65625 L 0.996094 0.59375 L 150.996094 0.59375 L 150.996094 164.65625 Z M 0.996094 164.65625 " fill-opacity="1" fill-rule="nonzero"/></g></g></g></g></g></g><g clip-path="url(#50e4937f05)"><g transform="matrix(1, 0, 0, 1, 188, 162)"><g clip-path="url(#7d8f1d647b)"><g clip-path="url(#6212f6df37)"><path fill="#ffffff" d="M 0.214844 0.0507812 L 73.785156 0.0507812 L 73.785156 73.617188 L 0.214844 73.617188 Z M 0.214844 0.0507812 " fill-opacity="1" fill-rule="nonzero"/></g></g></g></g><g clip-path="url(#1af542fc62)"><path stroke-linecap="butt" transform="matrix(0.75, 0, 0, 0.75, 188.216638, 162.050027)" fill="none" stroke-linejoin="miter" d="M 67.429904 0.00100516 L 30.648651 0.00100516 L 30.648651 30.646841 L -0.00239272 30.646841 L -0.00239272 67.428094 L 30.648651 67.428094 L 30.648651 98.079138 L 67.429904 98.079138 L 67.429904 67.428094 L 98.07574 67.428094 L 98.07574 30.646841 L 67.429904 30.646841 Z M 67.429904 0.00100516 " stroke="#000000" stroke-width="4" stroke-opacity="1" stroke-miterlimit="4"/></g></svg>