<svg xmlns="http://www.w3.org/2000/svg" xmlns:xlink="http://www.w3.org/1999/xlink" width="600" zoomAndPan="magnify" viewBox="0 0 450 449.999984" height="600" preserveAspectRatio="xMidYMid meet" version="1.0"><defs><clipPath id="4fa9c7635f"><path d="M 112.859375 112.859375 L 337.140625 112.859375 L 337.140625 337.140625 L 112.859375 337.140625 Z M 112.859375 112.859375 " clip-rule="nonzero"/></clipPath><clipPath id="464de7a7cd"><path d="M 225 112.859375 C 163.066406 112.859375 112.859375 163.066406 112.859375 225 C 112.859375 286.933594 163.066406 337.140625 225 337.140625 C 286.933594 337.140625 337.140625 286.933594 337.140625 225 C 337.140625 163.066406 286.933594 112.859375 225 112.859375 Z M 225 112.859375 " clip-rule="nonzero"/></clipPath><clipPath id="52ffe65b20"><path d="M 0.859375 0.859375 L 225.140625 0.859375 L 225.140625 225.140625 L 0.859375 225.140625 Z M 0.859375 0.859375 " clip-rule="nonzero"/></clipPath><clipPath id="39f8edb7b2"><path d="M 113 0.859375 C 51.066406 0.859375 0.859375 51.066406 0.859375 113 C 0.859375 174.933594 51.066406 225.140625 113 225.140625 C 174.933594 225.140625 225.140625 174.933594 225.140625 113 C 225.140625 51.066406 174.933594 0.859375 113 0.859375 Z M 113 0.859375 " clip-rule="nonzero"/></clipPath><clipPath id="3201ecc09a"><rect x="0" width="226" y="0" height="226"/></clipPath><clipPath id="ca3d69ccb0"><path d="M 112.859375 112.859375 L 337.109375 112.859375 L 337.109375 337.109375 L 112.859375 337.109375 Z M 112.859375 112.859375 " clip-rule="nonzero"/></clipPath><clipPath id="8a4bca0f55"><path d="M 224.996094 112.859375 C 163.066406 112.859375 112.859375 163.066406 112.859375 224.996094 C 112.859375 286.929688 163.066406 337.132812 224.996094 337.132812 C 286.929688 337.132812 337.132812 286.929688 337.132812 224.996094 C 337.132812 163.066406 286.929688 112.859375 224.996094 112.859375 Z M 224.996094 112.859375 " clip-rule="nonzero"/></clipPath><clipPath id="686540ebaf"><path d="M 217.5 285 L 232.5 285 L 232.5 300 L 217.5 300 Z M 217.5 285 " clip-rule="nonzero"/></clipPath><clipPath id="2c6b44f0d6"><path d="M 225 285 C 220.859375 285 217.5 288.359375 217.5 292.5 C 217.5 296.640625 220.859375 300 225 300 C 229.140625 300 232.5 296.640625 232.5 292.5 C 232.5 288.359375 229.140625 285 225 285 Z M 225 285 " clip-rule="nonzero"/></clipPath><clipPath id="5e5f200ba0"><path d="M 0.5 0 L 15.5 0 L 15.5 15 L 0.5 15 Z M 0.5 0 " clip-rule="nonzero"/></clipPath><clipPath id="3baa8d1516"><path d="M 8 0 C 3.859375 0 0.5 3.359375 0.5 7.5 C 0.5 11.640625 3.859375 15 8 15 C 12.140625 15 15.5 11.640625 15.5 7.5 C 15.5 3.359375 12.140625 0 8 0 Z M 8 0 " clip-rule="nonzero"/></clipPath><clipPath id="93779c69bf"><rect x="0" width="16" y="0" height="15"/></clipPath><clipPath id="2c01d78aba"><path d="M 156.429688 165 L 293.773438 165 L 293.773438 285 L 156.429688 285 Z M 156.429688 165 " clip-rule="nonzero"/></clipPath><clipPath id="c134c6585d"><path d="M 225 165 L 293.570312 285 L 156.429688 285 Z M 225 165 " clip-rule="nonzero"/></clipPath><clipPath id="3d43daaaf5"><path d="M 0.429688 0 L 137.761719 0 L 137.761719 120 L 0.429688 120 Z M 0.429688 0 " clip-rule="nonzero"/></clipPath><clipPath id="cee5061592"><path d="M 69 0 L 137.570312 120 L 0.429688 120 Z M 69 0 " clip-rule="nonzero"/></clipPath><clipPath id="02da3aa21f"><rect x="0" width="138" y="0" height="120"/></clipPath><clipPath id="6be56a13f9"><path d="M 156.429688 165.003906 L 293.5625 165.003906 L 293.5625 284.996094 L 156.429688 284.996094 Z M 156.429688 165.003906 " clip-rule="nonzero"/></clipPath><clipPath id="85c960e87e"><path d="M 224.996094 165.003906 L 293.5625 284.996094 L 156.429688 284.996094 Z M 224.996094 165.003906 " clip-rule="nonzero"/></clipPath><clipPath id="0f865c6c6b"><path d="M 217.5 217.5 L 232.5 217.5 L 232.5 232.5 L 217.5 232.5 Z M 217.5 217.5 " clip-rule="nonzero"/></clipPath><clipPath id="72d15add96"><path d="M 225 217.5 C 220.859375 217.5 217.5 220.859375 217.5 225 C 217.5 229.140625 220.859375 232.5 225 232.5 C 229.140625 232.5 232.5 229.140625 232.5 225 C 232.5 220.859375 229.140625 217.5 225 217.5 Z M 225 217.5 " clip-rule="nonzero"/></clipPath><clipPath id="87b6f1899d"><path d="M 0.5 0.5 L 15.5 0.5 L 15.5 15.5 L 0.5 15.5 Z M 0.5 0.5 " clip-rule="nonzero"/></clipPath><clipPath id="a5f72c854d"><path d="M 8 0.5 C 3.859375 0.5 0.5 3.859375 0.5 8 C 0.5 12.140625 3.859375 15.5 8 15.5 C 12.140625 15.5 15.5 12.140625 15.5 8 C 15.5 3.859375 12.140625 0.5 8 0.5 Z M 8 0.5 " clip-rule="nonzero"/></clipPath><clipPath id="40e979d326"><rect x="0" width="16" y="0" height="16"/></clipPath><clipPath id="ddd0dfc45b"><path d="M 217.5 150 L 232.5 150 L 232.5 165 L 217.5 165 Z M 217.5 150 " clip-rule="nonzero"/></clipPath><clipPath id="9800e0b653"><path d="M 225 150 C 220.859375 150 217.5 153.359375 217.5 157.5 C 217.5 161.640625 220.859375 165 225 165 C 229.140625 165 232.5 161.640625 232.5 157.5 C 232.5 153.359375 229.140625 150 225 150 Z M 225 150 " clip-rule="nonzero"/></clipPath><clipPath id="f54ad5b323"><path d="M 0.5 0 L 15.5 0 L 15.5 15 L 0.5 15 Z M 0.5 0 " clip-rule="nonzero"/></clipPath><clipPath id="0375191f54"><path d="M 8 0 C 3.859375 0 0.5 3.359375 0.5 7.5 C 0.5 11.640625 3.859375 15 8 15 C 12.140625 15 15.5 11.640625 15.5 7.5 C 15.5 3.359375 12.140625 0 8 0 Z M 8 0 " clip-rule="nonzero"/></clipPath><clipPath id="36831c8067"><rect x="0" width="16" y="0" height="15"/></clipPath></defs><g clip-path="url(#4fa9c7635f)"><g clip-path="url(#464de7a7cd)"><g transform="matrix(1, 0, 0, 1, 112, 112)"><g clip-path="url(#3201ecc09a)"><g clip-path="url(#52ffe65b20)"><g clip-path="url(#39f8edb7b2)"><path fill="#ffffff" d="M 0.859375 0.859375 L 225.140625 0.859375 L 225.140625 225.140625 L 0.859375 225.140625 Z M 0.859375 0.859375 " fill-opacity="1" fill-rule="nonzero"/></g></g></g></g></g></g><g clip-path="url(#ca3d69ccb0)"><g clip-path="url(#8a4bca0f55)"><path stroke-linecap="butt" transform="matrix(0.75, 0, 0, 0.75, 112.860717, 112.860709)" fill="none" stroke-linejoin="miter" d="M 149.513847 -0.00177841 C 66.940924 -0.00177841 -0.00178928 66.940935 -0.00178928 149.513858 C -0.00178928 232.09199 66.940924 299.029495 149.513847 299.029495 C 232.091979 299.029495 299.029484 232.09199 299.029484 149.513858 C 299.029484 66.940935 232.091979 -0.00177841 149.513847 -0.00177841 Z M 149.513847 -0.00177841 " stroke="#000000" stroke-width="4" stroke-opacity="1" stroke-miterlimit="4"/></g></g><g clip-path="url(#686540ebaf)"><g clip-path="url(#2c6b44f0d6)"><g transform="matrix(1, 0, 0, 1, 217, 285)"><g clip-path="url(#93779c69bf)"><g clip-path="url(#5e5f200ba0)"><g clip-path="url(#3baa8d1516)"><path fill="#2d4d31" d="M 0.5 0 L 15.5 0 L 15.5 15 L 0.5 15 Z M 0.5 0 " fill-opacity="1" fill-rule="nonzero"/></g></g></g></g><path stroke-linecap="butt" transform="matrix(0.75, 0, 0, 0.75, 217.499991, 284.999978)" fill="none" stroke-linejoin="miter" d="M 10.000013 0.0000295978 C 4.479179 0.0000295978 0.0000117211 4.479197 0.0000117211 10.00003 C 0.0000117211 15.520864 4.479179 20.000031 10.000013 20.000031 C 15.520846 20.000031 20.000013 15.520864 20.000013 10.00003 C 20.000013 4.479197 15.520846 0.0000295978 10.000013 0.0000295978 Z M 10.000013 0.0000295978 " stroke="#000000" stroke-width="4" stroke-opacity="1" stroke-miterlimit="4"/></g></g><g clip-path="url(#2c01d78aba)"><g clip-path="url(#c134c6585d)"><g transform="matrix(1, 0, 0, 1, 156, 165)"><g clip-path="url(#02da3aa21f)"><g clip-path="url(#3d43daaaf5)"><g clip-path="url(#cee5061592)"><path fill="#ffffff" d="M 0.429688 0 L 137.773438 0 L 137.773438 120 L 0.429688 120 Z M 0.429688 0 " fill-opacity="1" fill-rule="nonzero"/></g></g></g></g></g></g><g clip-path="url(#6be56a13f9)"><g clip-path="url(#85c960e87e)"><path stroke-linecap="butt" transform="matrix(0.75, 0, 0, 0.75, 156.428566, 165.004382)" fill="none" stroke-linejoin="miter" d="M 91.423377 -0.000633731 L 182.845259 159.988962 L 0.00149485 159.988962 Z M 91.423377 -0.000633731 " stroke="#000000" stroke-width="4" stroke-opacity="1" stroke-miterlimit="4"/></g></g><g clip-path="url(#0f865c6c6b)"><g clip-path="url(#72d15add96)"><g transform="matrix(1, 0, 0, 1, 217, 217)"><g clip-path="url(#40e979d326)"><g clip-path="url(#87b6f1899d)"><g clip-path="url(#a5f72c854d)"><path fill="#2d4d31" d="M 0.5 0.5 L 15.5 0.5 L 15.5 15.5 L 0.5 15.5 Z M 0.5 0.5 " fill-opacity="1" fill-rule="nonzero"/></g></g></g></g><path stroke-linecap="butt" transform="matrix(0.75, 0, 0, 0.75, 217.499991, 217.499983)" fill="none" stroke-linejoin="miter" d="M 10.000013 0.0000225878 C 4.479179 0.0000225878 0.0000117211 4.47919 0.0000117211 10.000023 C 0.0000117211 15.520857 4.479179 20.000024 10.000013 20.000024 C 15.520846 20.000024 20.000013 15.520857 20.000013 10.000023 C 20.000013 4.47919 15.520846 0.0000225878 10.000013 0.0000225878 Z M 10.000013 0.0000225878 " stroke="#000000" stroke-width="4" stroke-opacity="1" stroke-miterlimit="4"/></g></g><g clip-path="url(#ddd0dfc45b)"><g clip-path="url(#9800e0b653)"><g transform="matrix(1, 0, 0, 1, 217, 150)"><g clip-path="url(#36831c8067)"><g clip-path="url(#f54ad5b323)"><g clip-path="url(#0375191f54)"><path fill="#2d4d31" d="M 0.5 0 L 15.5 0 L 15.5 15 L 0.5 15 Z M 0.5 0 " fill-opacity="1" fill-rule="nonzero"/></g></g></g></g><path stroke-linecap="butt" transform="matrix(0.75, 0, 0, 0.75, 217.499991, 149.999988)" fill="none" stroke-linejoin="miter" d="M 10.000013 0.0000155778 C 4.479179 0.0000155778 0.0000117211 4.479183 0.0000117211 10.000016 C 0.0000117211 15.52085 4.479179 20.000017 10.000013 20.000017 C 15.520846 20.000017 20.000013 15.52085 20.000013 10.000016 C 20.000013 4.479183 15.520846 0.0000155778 10.000013 0.0000155778 Z M 10.000013 0.0000155778 " stroke="#000000" stroke-width="4" stroke-opacity="1" stroke-miterlimit="4"/></g></g></svg>