<svg xmlns="http://www.w3.org/2000/svg" xmlns:xlink="http://www.w3.org/1999/xlink" width="600" zoomAndPan="magnify" viewBox="0 0 450 449.999984" height="600" preserveAspectRatio="xMidYMid meet" version="1.0"><defs><clipPath id="e176fd4345"><path d="M 217.5 285 L 232.5 285 L 232.5 300 L 217.5 300 Z M 217.5 285 " clip-rule="nonzero"/></clipPath><clipPath id="79cffefb3d"><path d="M 225 285 C 220.859375 285 217.5 288.359375 217.5 292.5 C 217.5 296.640625 220.859375 300 225 300 C 229.140625 300 232.5 296.640625 232.5 292.5 C 232.5 288.359375 229.140625 285 225 285 Z M 225 285 " clip-rule="nonzero"/></clipPath><clipPath id="7bbebd126d"><path d="M 0.5 0 L 15.5 0 L 15.5 15 L 0.5 15 Z M 0.5 0 " clip-rule="nonzero"/></clipPath><clipPath id="73a48a09c4"><path d="M 8 0 C 3.859375 0 0.5 3.359375 0.5 7.5 C 0.5 11.640625 3.859375 15 8 15 C 12.140625 15 15.5 11.640625 15.5 7.5 C 15.5 3.359375 12.140625 0 8 0 Z M 8 0 " clip-rule="nonzero"/></clipPath><clipPath id="a2372c90b6"><rect x="0" width="16" y="0" height="15"/></clipPath><clipPath id="8a53c057e9"><path d="M 156.21875 165 L 293.5625 165 L 293.5625 285 L 156.21875 285 Z M 156.21875 165 " clip-rule="nonzero"/></clipPath><clipPath id="75a140eafa"><path d="M 224.988281 285 L 156.417969 165 L 293.5625 165 Z M 224.988281 285 " clip-rule="nonzero"/></clipPath><clipPath id="7b416740ec"><path d="M 0.238281 0 L 137.5625 0 L 137.5625 120 L 0.238281 120 Z M 0.238281 0 " clip-rule="nonzero"/></clipPath><clipPath id="e42be9250e"><path d="M 68.988281 120 L 0.417969 0 L 137.5625 0 Z M 68.988281 120 " clip-rule="nonzero"/></clipPath><clipPath id="f5ebb6fc3c"><rect x="0" width="138" y="0" height="120"/></clipPath><clipPath id="348eaf7825"><path d="M 156.429688 165.003906 L 293.5625 165.003906 L 293.5625 284.996094 L 156.429688 284.996094 Z M 156.429688 165.003906 " clip-rule="nonzero"/></clipPath><clipPath id="3e379e2faa"><path d="M 224.996094 284.996094 L 156.429688 165.003906 L 293.5625 165.003906 Z M 224.996094 284.996094 " clip-rule="nonzero"/></clipPath><clipPath id="114aba505f"><path d="M 217.5 217.5 L 232.5 217.5 L 232.5 232.5 L 217.5 232.5 Z M 217.5 217.5 " clip-rule="nonzero"/></clipPath><clipPath id="5c142bdb3e"><path d="M 225 217.5 C 220.859375 217.5 217.5 220.859375 217.5 225 C 217.5 229.140625 220.859375 232.5 225 232.5 C 229.140625 232.5 232.5 229.140625 232.5 225 C 232.5 220.859375 229.140625 217.5 225 217.5 Z M 225 217.5 " clip-rule="nonzero"/></clipPath><clipPath id="e5f36fbaf6"><path d="M 0.5 0.5 L 15.5 0.5 L 15.5 15.5 L 0.5 15.5 Z M 0.5 0.5 " clip-rule="nonzero"/></clipPath><clipPath id="843b6aa7a6"><path d="M 8 0.5 C 3.859375 0.5 0.5 3.859375 0.5 8 C 0.5 12.140625 3.859375 15.5 8 15.5 C 12.140625 15.5 15.5 12.140625 15.5 8 C 15.5 3.859375 12.140625 0.5 8 0.5 Z M 8 0.5 " clip-rule="nonzero"/></clipPath><clipPath id="880a6935aa"><rect x="0" width="16" y="0" height="16"/></clipPath><clipPath id="48ebf13e7d"><path d="M 217.5 150 L 232.5 150 L 232.5 165 L 217.5 165 Z M 217.5 150 " clip-rule="nonzero"/></clipPath><clipPath id="a41df2cd00"><path d="M 225 150 C 220.859375 150 217.5 153.359375 217.5 157.5 C 217.5 161.640625 220.859375 165 225 165 C 229.140625 165 232.5 161.640625 232.5 157.5 C 232.5 153.359375 229.140625 150 225 150 Z M 225 150 " clip-rule="nonzero"/></clipPath><clipPath id="ae298fc2f0"><path d="M 0.5 0 L 15.5 0 L 15.5 15 L 0.5 15 Z M 0.5 0 " clip-rule="nonzero"/></clipPath><clipPath id="3d86e6068f"><path d="M 8 0 C 3.859375 0 0.5 3.359375 0.5 7.5 C 0.5 11.640625 3.859375 15 8 15 C 12.140625 15 15.5 11.640625 15.5 7.5 C 15.5 3.359375 12.140625 0 8 0 Z M 8 0 " clip-rule="nonzero"/></clipPath><clipPath id="759895b0d3"><rect x="0" width="16" y="0" height="15"/></clipPath></defs><g clip-path="url(#e176fd4345)"><g clip-path="url(#79cffefb3d)"><g transform="matrix(1, 0, 0, 1, 217, 285)"><g clip-path="url(#a2372c90b6)"><g clip-path="url(#7bbebd126d)"><g clip-path="url(#73a48a09c4)"><path fill="#2d4d31" d="M 0.5 0 L 15.5 0 L 15.5 15 L 0.5 15 Z M 0.5 0 " fill-opacity="1" fill-rule="nonzero"/></g></g></g></g><path stroke-linecap="butt" transform="matrix(0.75, 0, 0, 0.75, 217.499991, 284.999978)" fill="none" stroke-linejoin="miter" d="M 10.000013 0.0000295978 C 4.479179 0.0000295978 0.0000117211 4.479197 0.0000117211 10.00003 C 0.0000117211 15.520864 4.479179 20.000031 10.000013 20.000031 C 15.520846 20.000031 20.000013 15.520864 20.000013 10.00003 C 20.000013 4.479197 15.520846 0.0000295978 10.000013 0.0000295978 Z M 10.000013 0.0000295978 " stroke="#000000" stroke-width="4" stroke-opacity="1" stroke-miterlimit="4"/></g></g><g clip-path="url(#8a53c057e9)"><g clip-path="url(#75a140eafa)"><g transform="matrix(1, 0, 0, 1, 156, 165)"><g clip-path="url(#f5ebb6fc3c)"><g clip-path="url(#7b416740ec)"><g clip-path="url(#e42be9250e)"><path fill="#ffffff" d="M 137.5625 120 L 0.21875 120 L 0.21875 0 L 137.5625 0 Z M 137.5625 120 " fill-opacity="1" fill-rule="nonzero"/></g></g></g></g></g></g><g clip-path="url(#348eaf7825)"><g clip-path="url(#3e379e2faa)"><path stroke-linecap="butt" transform="matrix(-0.75, 0, 0, -0.75, 293.561352, 284.995583)" fill="none" stroke-linejoin="miter" d="M 91.420351 -0.000680464 L 182.842233 159.988915 L -0.00153109 159.988915 Z M 91.420351 -0.000680464 " stroke="#000000" stroke-width="4" stroke-opacity="1" stroke-miterlimit="4"/></g></g><g clip-path="url(#114aba505f)"><g clip-path="url(#5c142bdb3e)"><g transform="matrix(1, 0, 0, 1, 217, 217)"><g clip-path="url(#880a6935aa)"><g clip-path="url(#e5f36fbaf6)"><g clip-path="url(#843b6aa7a6)"><path fill="#2d4d31" d="M 0.5 0.5 L 15.5 0.5 L 15.5 15.5 L 0.5 15.5 Z M 0.5 0.5 " fill-opacity="1" fill-rule="nonzero"/></g></g></g></g><path stroke-linecap="butt" transform="matrix(0.75, 0, 0, 0.75, 217.499991, 217.499983)" fill="none" stroke-linejoin="miter" d="M 10.000013 0.0000225878 C 4.479179 0.0000225878 0.0000117211 4.47919 0.0000117211 10.000023 C 0.0000117211 15.520857 4.479179 20.000024 10.000013 20.000024 C 15.520846 20.000024 20.000013 15.520857 20.000013 10.000023 C 20.000013 4.47919 15.520846 0.0000225878 10.000013 0.0000225878 Z M 10.000013 0.0000225878 " stroke="#000000" stroke-width="4" stroke-opacity="1" stroke-miterlimit="4"/></g></g><g clip-path="url(#48ebf13e7d)"><g clip-path="url(#a41df2cd00)"><g transform="matrix(1, 0, 0, 1, 217, 150)"><g clip-path="url(#759895b0d3)"><g clip-path="url(#ae298fc2f0)"><g clip-path="url(#3d86e6068f)"><path fill="#2d4d31" d="M 0.5 0 L 15.5 0 L 15.5 15 L 0.5 15 Z M 0.5 0 " fill-opacity="1" fill-rule="nonzero"/></g></g></g></g><path stroke-linecap="butt" transform="matrix(0.75, 0, 0, 0.75, 217.499991, 149.999988)" fill="none" stroke-linejoin="miter" d="M 10.000013 0.0000155778 C 4.479179 0.0000155778 0.0000117211 4.479183 0.0000117211 10.000016 C 0.0000117211 15.52085 4.479179 20.000017 10.000013 20.000017 C 15.520846 20.000017 20.000013 15.52085 20.000013 10.000016 C 20.000013 4.479183 15.520846 0.0000155778 10.000013 0.0000155778 Z M 10.000013 0.0000155778 " stroke="#000000" stroke-width="4" stroke-opacity="1" stroke-miterlimit="4"/></g></g></svg>