<svg xmlns="http://www.w3.org/2000/svg" xmlns:xlink="http://www.w3.org/1999/xlink" width="600" zoomAndPan="magnify" viewBox="0 0 450 449.999984" height="600" preserveAspectRatio="xMidYMid meet" version="1.0"><defs><clipPath id="d7a7a42d3c"><path d="M 137 155 L 207 155 L 207 216 L 137 216 Z M 137 155 " clip-rule="nonzero"/></clipPath><clipPath id="2c98642fdc"><path d="M 120.273438 185.679688 L 154.609375 126.210938 L 206.570312 156.210938 L 172.234375 215.679688 Z M 120.273438 185.679688 " clip-rule="nonzero"/></clipPath><clipPath id="f361851eac"><path d="M 137.417969 155.988281 L 206.523438 156.296875 L 172.234375 215.679688 Z M 137.417969 155.988281 " clip-rule="nonzero"/></clipPath><clipPath id="31610c3e8f"><path d="M 0.28125 0.761719 L 69.640625 0.761719 L 69.640625 60.761719 L 0.28125 60.761719 Z M 0.28125 0.761719 " clip-rule="nonzero"/></clipPath><clipPath id="62c422e697"><path d="M -16.726562 30.679688 L 17.609375 -28.789062 L 69.570312 1.210938 L 35.234375 60.679688 Z M -16.726562 30.679688 " clip-rule="nonzero"/></clipPath><clipPath id="93387ffeb1"><path d="M 0.417969 0.988281 L 69.523438 1.296875 L 35.234375 60.679688 Z M 0.417969 0.988281 " clip-rule="nonzero"/></clipPath><clipPath id="e4265b3ad9"><rect x="0" width="70" y="0" height="61"/></clipPath><clipPath id="0e44c98370"><path d="M 137 155 L 207 155 L 207 216 L 137 216 Z M 137 155 " clip-rule="nonzero"/></clipPath><clipPath id="53b4a310ac"><path d="M 120.273438 185.679688 L 154.398438 126.574219 L 206.359375 156.574219 L 172.234375 215.679688 Z M 120.273438 185.679688 " clip-rule="nonzero"/></clipPath><clipPath id="63771e57b0"><path d="M 120.277344 185.683594 L 154.558594 126.300781 L 206.515625 156.300781 L 172.234375 215.679688 Z M 120.277344 185.683594 " clip-rule="nonzero"/></clipPath><clipPath id="12faa63dbb"><path d="M 137.417969 155.992188 L 206.515625 156.300781 L 172.234375 215.679688 Z M 137.417969 155.992188 " clip-rule="nonzero"/></clipPath><clipPath id="1820da3d68"><path d="M 206.523438 96.296875 L 275.195312 96.296875 L 275.195312 156.296875 L 206.523438 156.296875 Z M 206.523438 96.296875 " clip-rule="nonzero"/></clipPath><clipPath id="6109c1e760"><path d="M 240.808594 96.296875 L 275.09375 156.296875 L 206.523438 156.296875 Z M 240.808594 96.296875 " clip-rule="nonzero"/></clipPath><clipPath id="a678a596b4"><path d="M 0.523438 0.296875 L 69.195312 0.296875 L 69.195312 60.296875 L 0.523438 60.296875 Z M 0.523438 0.296875 " clip-rule="nonzero"/></clipPath><clipPath id="b06d493d2d"><path d="M 34.808594 0.296875 L 69.09375 60.296875 L 0.523438 60.296875 Z M 34.808594 0.296875 " clip-rule="nonzero"/></clipPath><clipPath id="8a605c4289"><rect x="0" width="70" y="0" height="61"/></clipPath><clipPath id="9976dcbfb6"><path d="M 206.523438 96.300781 L 274.773438 96.300781 L 274.773438 156.296875 L 206.523438 156.296875 Z M 206.523438 96.300781 " clip-rule="nonzero"/></clipPath><clipPath id="72ded4e4e2"><path d="M 240.804688 96.300781 L 275.089844 156.296875 L 206.523438 156.296875 Z M 240.804688 96.300781 " clip-rule="nonzero"/></clipPath><clipPath id="2c16fe552a"><path d="M 275 155 L 345 155 L 345 216 L 275 216 Z M 275 155 " clip-rule="nonzero"/></clipPath><clipPath id="24c50c7264"><path d="M 327.054688 126.300781 L 361.390625 185.773438 L 309.429688 215.773438 L 275.09375 156.300781 Z M 327.054688 126.300781 " clip-rule="nonzero"/></clipPath><clipPath id="bbc4b27f8e"><path d="M 344.199219 155.992188 L 309.378906 215.683594 L 275.09375 156.300781 Z M 344.199219 155.992188 " clip-rule="nonzero"/></clipPath><clipPath id="23eca26643"><path d="M 0.0390625 0.761719 L 69.398438 0.761719 L 69.398438 60.761719 L 0.0390625 60.761719 Z M 0.0390625 0.761719 " clip-rule="nonzero"/></clipPath><clipPath id="8235f18f5e"><path d="M 52.054688 -28.699219 L 86.390625 30.773438 L 34.429688 60.773438 L 0.09375 1.300781 Z M 52.054688 -28.699219 " clip-rule="nonzero"/></clipPath><clipPath id="b735577d5c"><path d="M 69.199219 0.992188 L 34.378906 60.683594 L 0.09375 1.300781 Z M 69.199219 0.992188 " clip-rule="nonzero"/></clipPath><clipPath id="d5bd16517a"><rect x="0" width="70" y="0" height="61"/></clipPath><clipPath id="96148a9164"><path d="M 275 155 L 345 155 L 345 216 L 275 216 Z M 275 155 " clip-rule="nonzero"/></clipPath><clipPath id="8aba42c76c"><path d="M 327.054688 126.300781 L 361.179688 185.40625 L 309.21875 215.40625 L 275.09375 156.300781 Z M 327.054688 126.300781 " clip-rule="nonzero"/></clipPath><clipPath id="7301bc2c54"><path d="M 327.054688 126.300781 L 361.335938 185.683594 L 309.378906 215.679688 L 275.09375 156.300781 Z M 327.054688 126.300781 " clip-rule="nonzero"/></clipPath><clipPath id="ce288efea7"><path d="M 344.195312 155.992188 L 309.378906 215.679688 L 275.09375 156.300781 Z M 344.195312 155.992188 " clip-rule="nonzero"/></clipPath><clipPath id="267184d01d"><path d="M 275 215 L 345 215 L 345 276 L 275 276 Z M 275 215 " clip-rule="nonzero"/></clipPath><clipPath id="759e54c988"><path d="M 361.335938 245.683594 L 327 305.15625 L 275.039062 275.15625 L 309.375 215.683594 Z M 361.335938 245.683594 " clip-rule="nonzero"/></clipPath><clipPath id="0174e7b122"><path d="M 344.195312 275.378906 L 275.089844 275.070312 L 309.375 215.683594 Z M 344.195312 275.378906 " clip-rule="nonzero"/></clipPath><clipPath id="8e01ad2ca1"><path d="M 0.0390625 0.519531 L 69.398438 0.519531 L 69.398438 60.519531 L 0.0390625 60.519531 Z M 0.0390625 0.519531 " clip-rule="nonzero"/></clipPath><clipPath id="d7b1658942"><path d="M 86.335938 30.683594 L 52 90.15625 L 0.0390625 60.15625 L 34.375 0.683594 Z M 86.335938 30.683594 " clip-rule="nonzero"/></clipPath><clipPath id="5987997ed0"><path d="M 69.195312 60.378906 L 0.0898438 60.070312 L 34.375 0.683594 Z M 69.195312 60.378906 " clip-rule="nonzero"/></clipPath><clipPath id="dc252e7932"><rect x="0" width="70" y="0" height="61"/></clipPath><clipPath id="789ae1b647"><path d="M 275 215 L 345 215 L 345 276 L 275 276 Z M 275 215 " clip-rule="nonzero"/></clipPath><clipPath id="8f27d46d79"><path d="M 361.335938 245.683594 L 327.210938 304.792969 L 275.25 274.792969 L 309.375 215.683594 Z M 361.335938 245.683594 " clip-rule="nonzero"/></clipPath><clipPath id="45230eb371"><path d="M 361.335938 245.683594 L 327.054688 305.066406 L 275.09375 275.066406 L 309.378906 215.6875 Z M 361.335938 245.683594 " clip-rule="nonzero"/></clipPath><clipPath id="ec220fef28"><path d="M 344.195312 275.375 L 275.09375 275.066406 L 309.378906 215.6875 Z M 344.195312 275.375 " clip-rule="nonzero"/></clipPath><clipPath id="d6f3561964"><path d="M 206.417969 275.066406 L 275.089844 275.066406 L 275.089844 335.066406 L 206.417969 335.066406 Z M 206.417969 275.066406 " clip-rule="nonzero"/></clipPath><clipPath id="a4129d16aa"><path d="M 240.804688 335.066406 L 206.519531 275.066406 L 275.089844 275.066406 Z M 240.804688 335.066406 " clip-rule="nonzero"/></clipPath><clipPath id="94f596f687"><path d="M 0.417969 0.0664062 L 69.089844 0.0664062 L 69.089844 60.066406 L 0.417969 60.066406 Z M 0.417969 0.0664062 " clip-rule="nonzero"/></clipPath><clipPath id="4b3c5fe6d2"><path d="M 34.804688 60.066406 L 0.519531 0.0664062 L 69.089844 0.0664062 Z M 34.804688 60.066406 " clip-rule="nonzero"/></clipPath><clipPath id="7968461f24"><rect x="0" width="70" y="0" height="61"/></clipPath><clipPath id="06601b0481"><path d="M 206.839844 275.070312 L 275.089844 275.070312 L 275.089844 335.066406 L 206.839844 335.066406 Z M 206.839844 275.070312 " clip-rule="nonzero"/></clipPath><clipPath id="2047e11afa"><path d="M 240.804688 335.066406 L 206.523438 275.070312 L 275.089844 275.070312 Z M 240.804688 335.066406 " clip-rule="nonzero"/></clipPath><clipPath id="f9996f36ee"><path d="M 137 215 L 207 215 L 207 276 L 137 276 Z M 137 215 " clip-rule="nonzero"/></clipPath><clipPath id="cb5b0148d8"><path d="M 154.558594 305.066406 L 120.222656 245.59375 L 172.183594 215.59375 L 206.519531 275.066406 Z M 154.558594 305.066406 " clip-rule="nonzero"/></clipPath><clipPath id="1fa6b60aea"><path d="M 137.414062 275.375 L 172.234375 215.679688 L 206.519531 275.066406 Z M 137.414062 275.375 " clip-rule="nonzero"/></clipPath><clipPath id="759d026cc2"><path d="M 0.28125 0.519531 L 69.640625 0.519531 L 69.640625 60.519531 L 0.28125 60.519531 Z M 0.28125 0.519531 " clip-rule="nonzero"/></clipPath><clipPath id="b933600a49"><path d="M 17.558594 90.066406 L -16.777344 30.59375 L 35.183594 0.59375 L 69.519531 60.066406 Z M 17.558594 90.066406 " clip-rule="nonzero"/></clipPath><clipPath id="1052db0239"><path d="M 0.414062 60.375 L 35.234375 0.679688 L 69.519531 60.066406 Z M 0.414062 60.375 " clip-rule="nonzero"/></clipPath><clipPath id="e5fd449f03"><rect x="0" width="70" y="0" height="61"/></clipPath><clipPath id="7925c40c30"><path d="M 137 215 L 207 215 L 207 276 L 137 276 Z M 137 215 " clip-rule="nonzero"/></clipPath><clipPath id="459009b467"><path d="M 154.558594 305.066406 L 120.433594 245.960938 L 172.394531 215.960938 L 206.519531 275.066406 Z M 154.558594 305.066406 " clip-rule="nonzero"/></clipPath><clipPath id="759fe557d6"><path d="M 154.558594 305.066406 L 120.277344 245.683594 L 172.234375 215.6875 L 206.515625 275.066406 Z M 154.558594 305.066406 " clip-rule="nonzero"/></clipPath><clipPath id="dc1ba92cc3"><path d="M 137.417969 275.375 L 172.234375 215.6875 L 206.515625 275.066406 Z M 137.417969 275.375 " clip-rule="nonzero"/></clipPath></defs><g clip-path="url(#d7a7a42d3c)"><g clip-path="url(#2c98642fdc)"><g clip-path="url(#f361851eac)"><g transform="matrix(1, 0, 0, 1, 137, 155)"><g clip-path="url(#e4265b3ad9)"><g clip-path="url(#31610c3e8f)"><g clip-path="url(#62c422e697)"><g clip-path="url(#93387ffeb1)"><path fill="#ffffff" d="M -16.726562 30.679688 L 17.609375 -28.789062 L 69.570312 1.210938 L 35.234375 60.679688 Z M -16.726562 30.679688 " fill-opacity="1" fill-rule="nonzero"/></g></g></g></g></g></g></g></g><g clip-path="url(#0e44c98370)"><g clip-path="url(#53b4a310ac)"><g clip-path="url(#63771e57b0)"><g clip-path="url(#12faa63dbb)"><path stroke-linecap="butt" transform="matrix(0.375, -0.649519, 0.649519, 0.375, 120.276392, 185.682101)" fill="none" stroke-linejoin="miter" d="M 45.710681 0.000111334 L 91.419458 79.992949 L 0.000426605 79.99431 Z M 45.710681 0.000111334 " stroke="#000000" stroke-width="4" stroke-opacity="1" stroke-miterlimit="4"/></g></g></g></g><g clip-path="url(#1820da3d68)"><g clip-path="url(#6109c1e760)"><g transform="matrix(1, 0, 0, 1, 206, 96)"><g clip-path="url(#8a605c4289)"><g clip-path="url(#a678a596b4)"><g clip-path="url(#b06d493d2d)"><path fill="#ffffff" d="M 0.523438 0.296875 L 69.195312 0.296875 L 69.195312 60.296875 L 0.523438 60.296875 Z M 0.523438 0.296875 " fill-opacity="1" fill-rule="nonzero"/></g></g></g></g></g></g><g clip-path="url(#9976dcbfb6)"><g clip-path="url(#72ded4e4e2)"><path stroke-linecap="butt" transform="matrix(0.75, -0.000000000000000093, 0.000000000000000093, 0.75, 206.52298, 96.300784)" fill="none" stroke-linejoin="miter" d="M 45.708947 -0.00000433232 L 91.422492 79.994794 L 0.000609915 79.994794 Z M 45.708947 -0.00000433232 " stroke="#000000" stroke-width="4" stroke-opacity="1" stroke-miterlimit="4"/></g></g><g clip-path="url(#2c16fe552a)"><g clip-path="url(#24c50c7264)"><g clip-path="url(#bbc4b27f8e)"><g transform="matrix(1, 0, 0, 1, 275, 155)"><g clip-path="url(#d5bd16517a)"><g clip-path="url(#23eca26643)"><g clip-path="url(#8235f18f5e)"><g clip-path="url(#b735577d5c)"><path fill="#ffffff" d="M 52.054688 -28.699219 L 86.390625 30.773438 L 34.429688 60.773438 L 0.09375 1.300781 Z M 52.054688 -28.699219 " fill-opacity="1" fill-rule="nonzero"/></g></g></g></g></g></g></g></g><g clip-path="url(#96148a9164)"><g clip-path="url(#8aba42c76c)"><g clip-path="url(#7301bc2c54)"><g clip-path="url(#ce288efea7)"><path stroke-linecap="butt" transform="matrix(0.375, 0.649519, -0.649519, 0.375, 327.052747, 126.30191)" fill="none" stroke-linejoin="miter" d="M 45.711761 -0.00101113 L 91.422016 79.993187 L 0.000380367 79.996337 Z M 45.711761 -0.00101113 " stroke="#000000" stroke-width="4" stroke-opacity="1" stroke-miterlimit="4"/></g></g></g></g><g clip-path="url(#267184d01d)"><g clip-path="url(#759e54c988)"><g clip-path="url(#0174e7b122)"><g transform="matrix(1, 0, 0, 1, 275, 215)"><g clip-path="url(#dc252e7932)"><g clip-path="url(#8e01ad2ca1)"><g clip-path="url(#d7b1658942)"><g clip-path="url(#5987997ed0)"><path fill="#ffffff" d="M 86.335938 30.683594 L 52 90.15625 L 0.0390625 60.15625 L 34.375 0.683594 Z M 86.335938 30.683594 " fill-opacity="1" fill-rule="nonzero"/></g></g></g></g></g></g></g></g><g clip-path="url(#789ae1b647)"><g clip-path="url(#8f27d46d79)"><g clip-path="url(#45230eb371)"><g clip-path="url(#ec220fef28)"><path stroke-linecap="butt" transform="matrix(-0.375, 0.649519, -0.649519, -0.375, 361.335947, 245.684352)" fill="none" stroke-linejoin="miter" d="M 45.710902 -0.0014658 L 91.422282 79.995882 L 0.000647187 79.992733 Z M 45.710902 -0.0014658 " stroke="#000000" stroke-width="4" stroke-opacity="1" stroke-miterlimit="4"/></g></g></g></g><g clip-path="url(#d6f3561964)"><g clip-path="url(#a4129d16aa)"><g transform="matrix(1, 0, 0, 1, 206, 275)"><g clip-path="url(#7968461f24)"><g clip-path="url(#94f596f687)"><g clip-path="url(#4b3c5fe6d2)"><path fill="#ffffff" d="M 69.089844 60.066406 L 0.417969 60.066406 L 0.417969 0.0664062 L 69.089844 0.0664062 Z M 69.089844 60.066406 " fill-opacity="1" fill-rule="nonzero"/></g></g></g></g></g></g><g clip-path="url(#06601b0481)"><g clip-path="url(#2047e11afa)"><path stroke-linecap="butt" transform="matrix(-0.75, 0, 0, -0.75, 275.089381, 335.065551)" fill="none" stroke-linejoin="miter" d="M 45.712928 -0.00114073 L 91.421265 79.993657 L -0.000616835 79.993657 Z M 45.712928 -0.00114073 " stroke="#000000" stroke-width="4" stroke-opacity="1" stroke-miterlimit="4"/></g></g><g clip-path="url(#f9996f36ee)"><g clip-path="url(#cb5b0148d8)"><g clip-path="url(#1fa6b60aea)"><g transform="matrix(1, 0, 0, 1, 137, 215)"><g clip-path="url(#e5fd449f03)"><g clip-path="url(#759d026cc2)"><g clip-path="url(#b933600a49)"><g clip-path="url(#1052db0239)"><path fill="#ffffff" d="M 17.558594 90.066406 L -16.777344 30.59375 L 35.183594 0.59375 L 69.519531 60.066406 Z M 17.558594 90.066406 " fill-opacity="1" fill-rule="nonzero"/></g></g></g></g></g></g></g></g><g clip-path="url(#7925c40c30)"><g clip-path="url(#459009b467)"><g clip-path="url(#759fe557d6)"><g clip-path="url(#dc1ba92cc3)"><path stroke-linecap="butt" transform="matrix(-0.375, -0.649519, 0.649519, -0.375, 154.559586, 305.064526)" fill="none" stroke-linejoin="miter" d="M 45.710261 -0.000416473 L 91.420515 79.993782 L 0.0014842 79.992421 Z M 45.710261 -0.000416473 " stroke="#000000" stroke-width="4" stroke-opacity="1" stroke-miterlimit="4"/></g></g></g></g></svg>