<svg xmlns="http://www.w3.org/2000/svg" xmlns:xlink="http://www.w3.org/1999/xlink" width="600" zoomAndPan="magnify" viewBox="0 0 450 449.999984" height="600" preserveAspectRatio="xMidYMid meet" version="1.0"><defs><clipPath id="5475382d78"><path d="M 112.859375 112.859375 L 337.140625 112.859375 L 337.140625 337.140625 L 112.859375 337.140625 Z M 112.859375 112.859375 " clip-rule="nonzero"/></clipPath><clipPath id="33da016f61"><path d="M 225 112.859375 C 163.066406 112.859375 112.859375 163.066406 112.859375 225 C 112.859375 286.933594 163.066406 337.140625 225 337.140625 C 286.933594 337.140625 337.140625 286.933594 337.140625 225 C 337.140625 163.066406 286.933594 112.859375 225 112.859375 Z M 225 112.859375 " clip-rule="nonzero"/></clipPath><clipPath id="b5d0097978"><path d="M 0.859375 0.859375 L 225.140625 0.859375 L 225.140625 225.140625 L 0.859375 225.140625 Z M 0.859375 0.859375 " clip-rule="nonzero"/></clipPath><clipPath id="2f71348783"><path d="M 113 0.859375 C 51.066406 0.859375 0.859375 51.066406 0.859375 113 C 0.859375 174.933594 51.066406 225.140625 113 225.140625 C 174.933594 225.140625 225.140625 174.933594 225.140625 113 C 225.140625 51.066406 174.933594 0.859375 113 0.859375 Z M 113 0.859375 " clip-rule="nonzero"/></clipPath><clipPath id="d063ba1db8"><rect x="0" width="226" y="0" height="226"/></clipPath><clipPath id="ac140c291e"><path d="M 112.859375 112.859375 L 337.109375 112.859375 L 337.109375 337.109375 L 112.859375 337.109375 Z M 112.859375 112.859375 " clip-rule="nonzero"/></clipPath><clipPath id="70d3b4c24d"><path d="M 224.996094 112.859375 C 163.066406 112.859375 112.859375 163.066406 112.859375 224.996094 C 112.859375 286.929688 163.066406 337.132812 224.996094 337.132812 C 286.929688 337.132812 337.132812 286.929688 337.132812 224.996094 C 337.132812 163.066406 286.929688 112.859375 224.996094 112.859375 Z M 224.996094 112.859375 " clip-rule="nonzero"/></clipPath><clipPath id="cf155dd3a5"><path d="M 217.5 329.640625 L 232.5 329.640625 L 232.5 344.640625 L 217.5 344.640625 Z M 217.5 329.640625 " clip-rule="nonzero"/></clipPath><clipPath id="3c59abaca0"><path d="M 225 329.640625 C 220.859375 329.640625 217.5 332.996094 217.5 337.140625 C 217.5 341.28125 220.859375 344.640625 225 344.640625 C 229.140625 344.640625 232.5 341.28125 232.5 337.140625 C 232.5 332.996094 229.140625 329.640625 225 329.640625 Z M 225 329.640625 " clip-rule="nonzero"/></clipPath><clipPath id="7b9a250d03"><path d="M 0.5 0.640625 L 15.5 0.640625 L 15.5 15.640625 L 0.5 15.640625 Z M 0.5 0.640625 " clip-rule="nonzero"/></clipPath><clipPath id="7e80e380b4"><path d="M 8 0.640625 C 3.859375 0.640625 0.5 3.996094 0.5 8.140625 C 0.5 12.28125 3.859375 15.640625 8 15.640625 C 12.140625 15.640625 15.5 12.28125 15.5 8.140625 C 15.5 3.996094 12.140625 0.640625 8 0.640625 Z M 8 0.640625 " clip-rule="nonzero"/></clipPath><clipPath id="122ab0cd2a"><rect x="0" width="16" y="0" height="16"/></clipPath><clipPath id="19ec119a8a"><path d="M 217.5 217.5 L 232.5 217.5 L 232.5 232.5 L 217.5 232.5 Z M 217.5 217.5 " clip-rule="nonzero"/></clipPath><clipPath id="d5e0063029"><path d="M 225 217.5 C 220.859375 217.5 217.5 220.859375 217.5 225 C 217.5 229.140625 220.859375 232.5 225 232.5 C 229.140625 232.5 232.5 229.140625 232.5 225 C 232.5 220.859375 229.140625 217.5 225 217.5 Z M 225 217.5 " clip-rule="nonzero"/></clipPath><clipPath id="e3ba394d53"><path d="M 0.5 0.5 L 15.5 0.5 L 15.5 15.5 L 0.5 15.5 Z M 0.5 0.5 " clip-rule="nonzero"/></clipPath><clipPath id="4ad1b03d44"><path d="M 8 0.5 C 3.859375 0.5 0.5 3.859375 0.5 8 C 0.5 12.140625 3.859375 15.5 8 15.5 C 12.140625 15.5 15.5 12.140625 15.5 8 C 15.5 3.859375 12.140625 0.5 8 0.5 Z M 8 0.5 " clip-rule="nonzero"/></clipPath><clipPath id="8e8b18c4da"><rect x="0" width="16" y="0" height="16"/></clipPath><clipPath id="1ad07ad888"><path d="M 329.640625 217.5 L 344.640625 217.5 L 344.640625 232.5 L 329.640625 232.5 Z M 329.640625 217.5 " clip-rule="nonzero"/></clipPath><clipPath id="024c640c81"><path d="M 337.140625 217.5 C 332.996094 217.5 329.640625 220.859375 329.640625 225 C 329.640625 229.140625 332.996094 232.5 337.140625 232.5 C 341.28125 232.5 344.640625 229.140625 344.640625 225 C 344.640625 220.859375 341.28125 217.5 337.140625 217.5 Z M 337.140625 217.5 " clip-rule="nonzero"/></clipPath><clipPath id="7119750ba8"><path d="M 0.640625 0.5 L 15.640625 0.5 L 15.640625 15.5 L 0.640625 15.5 Z M 0.640625 0.5 " clip-rule="nonzero"/></clipPath><clipPath id="4a7c6a3960"><path d="M 8.140625 0.5 C 3.996094 0.5 0.640625 3.859375 0.640625 8 C 0.640625 12.140625 3.996094 15.5 8.140625 15.5 C 12.28125 15.5 15.640625 12.140625 15.640625 8 C 15.640625 3.859375 12.28125 0.5 8.140625 0.5 Z M 8.140625 0.5 " clip-rule="nonzero"/></clipPath><clipPath id="99bab5da62"><rect x="0" width="16" y="0" height="16"/></clipPath><clipPath id="20defcb9a6"><path d="M 217.5 105.359375 L 232.5 105.359375 L 232.5 120.359375 L 217.5 120.359375 Z M 217.5 105.359375 " clip-rule="nonzero"/></clipPath><clipPath id="21b188f251"><path d="M 225 105.359375 C 220.859375 105.359375 217.5 108.71875 217.5 112.859375 C 217.5 117.003906 220.859375 120.359375 225 120.359375 C 229.140625 120.359375 232.5 117.003906 232.5 112.859375 C 232.5 108.71875 229.140625 105.359375 225 105.359375 Z M 225 105.359375 " clip-rule="nonzero"/></clipPath><clipPath id="1e7130d692"><path d="M 0.5 0.359375 L 15.5 0.359375 L 15.5 15.359375 L 0.5 15.359375 Z M 0.5 0.359375 " clip-rule="nonzero"/></clipPath><clipPath id="3b7191b7fb"><path d="M 8 0.359375 C 3.859375 0.359375 0.5 3.71875 0.5 7.859375 C 0.5 12.003906 3.859375 15.359375 8 15.359375 C 12.140625 15.359375 15.5 12.003906 15.5 7.859375 C 15.5 3.71875 12.140625 0.359375 8 0.359375 Z M 8 0.359375 " clip-rule="nonzero"/></clipPath><clipPath id="8a09fb1a4d"><rect x="0" width="16" y="0" height="16"/></clipPath><clipPath id="04bf69148e"><path d="M 105 217.5 L 120 217.5 L 120 232.5 L 105 232.5 Z M 105 217.5 " clip-rule="nonzero"/></clipPath><clipPath id="7ff8b61f10"><path d="M 112.5 217.5 C 108.359375 217.5 105 220.859375 105 225 C 105 229.140625 108.359375 232.5 112.5 232.5 C 116.640625 232.5 120 229.140625 120 225 C 120 220.859375 116.640625 217.5 112.5 217.5 Z M 112.5 217.5 " clip-rule="nonzero"/></clipPath><clipPath id="d9fa9610b6"><path d="M 0 0.5 L 15 0.5 L 15 15.5 L 0 15.5 Z M 0 0.5 " clip-rule="nonzero"/></clipPath><clipPath id="dc58095581"><path d="M 7.5 0.5 C 3.359375 0.5 0 3.859375 0 8 C 0 12.140625 3.359375 15.5 7.5 15.5 C 11.640625 15.5 15 12.140625 15 8 C 15 3.859375 11.640625 0.5 7.5 0.5 Z M 7.5 0.5 " clip-rule="nonzero"/></clipPath><clipPath id="27857551ab"><rect x="0" width="15" y="0" height="16"/></clipPath></defs><g clip-path="url(#5475382d78)"><g clip-path="url(#33da016f61)"><g transform="matrix(1, 0, 0, 1, 112, 112)"><g clip-path="url(#d063ba1db8)"><g clip-path="url(#b5d0097978)"><g clip-path="url(#2f71348783)"><path fill="#ffffff" d="M 0.859375 0.859375 L 225.140625 0.859375 L 225.140625 225.140625 L 0.859375 225.140625 Z M 0.859375 0.859375 " fill-opacity="1" fill-rule="nonzero"/></g></g></g></g></g></g><g clip-path="url(#ac140c291e)"><g clip-path="url(#70d3b4c24d)"><path stroke-linecap="butt" transform="matrix(0.75, 0, 0, 0.75, 112.860717, 112.860694)" fill="none" stroke-linejoin="miter" d="M 149.513847 -0.00175921 C 66.940924 -0.00175921 -0.00178928 66.940954 -0.00178928 149.513877 C -0.00178928 232.092009 66.940924 299.029514 149.513847 299.029514 C 232.091979 299.029514 299.029484 232.092009 299.029484 149.513877 C 299.029484 66.940954 232.091979 -0.00175921 149.513847 -0.00175921 Z M 149.513847 -0.00175921 " stroke="#000000" stroke-width="4" stroke-opacity="1" stroke-miterlimit="4"/></g></g><g clip-path="url(#cf155dd3a5)"><g clip-path="url(#3c59abaca0)"><g transform="matrix(1, 0, 0, 1, 217, 329)"><g clip-path="url(#122ab0cd2a)"><g clip-path="url(#7b9a250d03)"><g clip-path="url(#7e80e380b4)"><path fill="#2d4d31" d="M 0.5 0.640625 L 15.5 0.640625 L 15.5 15.640625 L 0.5 15.640625 Z M 0.5 0.640625 " fill-opacity="1" fill-rule="nonzero"/></g></g></g></g><path stroke-linecap="butt" transform="matrix(0.75, 0, 0, 0.75, 217.499991, 329.639271)" fill="none" stroke-linejoin="miter" d="M 10.000013 0.00180517 C 4.479179 0.00180517 0.0000117211 4.475764 0.0000117211 10.001806 C 0.0000117211 15.52264 4.479179 20.001807 10.000013 20.001807 C 15.520846 20.001807 20.000013 15.52264 20.000013 10.001806 C 20.000013 4.475764 15.520846 0.00180517 10.000013 0.00180517 Z M 10.000013 0.00180517 " stroke="#000000" stroke-width="4" stroke-opacity="1" stroke-miterlimit="4"/></g></g><g clip-path="url(#19ec119a8a)"><g clip-path="url(#d5e0063029)"><g transform="matrix(1, 0, 0, 1, 217, 217)"><g clip-path="url(#8e8b18c4da)"><g clip-path="url(#e3ba394d53)"><g clip-path="url(#4ad1b03d44)"><path fill="#2d4d31" d="M 0.5 0.5 L 15.5 0.5 L 15.5 15.5 L 0.5 15.5 Z M 0.5 0.5 " fill-opacity="1" fill-rule="nonzero"/></g></g></g></g><path stroke-linecap="butt" transform="matrix(0.75, 0, 0, 0.75, 217.499991, 217.499983)" fill="none" stroke-linejoin="miter" d="M 10.000013 0.0000225878 C 4.479179 0.0000225878 0.0000117211 4.47919 0.0000117211 10.000023 C 0.0000117211 15.520857 4.479179 20.000024 10.000013 20.000024 C 15.520846 20.000024 20.000013 15.520857 20.000013 10.000023 C 20.000013 4.47919 15.520846 0.0000225878 10.000013 0.0000225878 Z M 10.000013 0.0000225878 " stroke="#000000" stroke-width="4" stroke-opacity="1" stroke-miterlimit="4"/></g></g><g clip-path="url(#1ad07ad888)"><g clip-path="url(#024c640c81)"><g transform="matrix(1, 0, 0, 1, 329, 217)"><g clip-path="url(#99bab5da62)"><g clip-path="url(#7119750ba8)"><g clip-path="url(#4a7c6a3960)"><path fill="#2d4d31" d="M 0.640625 0.5 L 15.640625 0.5 L 15.640625 15.5 L 0.640625 15.5 Z M 0.640625 0.5 " fill-opacity="1" fill-rule="nonzero"/></g></g></g></g><path stroke-linecap="butt" transform="matrix(0.75, 0, 0, 0.75, 329.639279, 217.499983)" fill="none" stroke-linejoin="miter" d="M 10.001795 0.0000225878 C 4.475753 0.0000225878 0.0017943 4.47919 0.0017943 10.000023 C 0.0017943 15.520857 4.475753 20.000024 10.001795 20.000024 C 15.522629 20.000024 20.001796 15.520857 20.001796 10.000023 C 20.001796 4.47919 15.522629 0.0000225878 10.001795 0.0000225878 Z M 10.001795 0.0000225878 " stroke="#000000" stroke-width="4" stroke-opacity="1" stroke-miterlimit="4"/></g></g><g clip-path="url(#20defcb9a6)"><g clip-path="url(#21b188f251)"><g transform="matrix(1, 0, 0, 1, 217, 105)"><g clip-path="url(#8a09fb1a4d)"><g clip-path="url(#1e7130d692)"><g clip-path="url(#3b7191b7fb)"><path fill="#2d4d31" d="M 0.5 0.359375 L 15.5 0.359375 L 15.5 15.359375 L 0.5 15.359375 Z M 0.5 0.359375 " fill-opacity="1" fill-rule="nonzero"/></g></g></g></g><path stroke-linecap="butt" transform="matrix(0.75, 0, 0, 0.75, 217.499991, 105.360695)" fill="none" stroke-linejoin="miter" d="M 10.000013 -0.00175999 C 4.479179 -0.00175999 0.0000117211 4.477407 0.0000117211 9.998241 C 0.0000117211 15.524283 4.479179 19.998242 10.000013 19.998242 C 15.520846 19.998242 20.000013 15.524283 20.000013 9.998241 C 20.000013 4.477407 15.520846 -0.00175999 10.000013 -0.00175999 Z M 10.000013 -0.00175999 " stroke="#000000" stroke-width="4" stroke-opacity="1" stroke-miterlimit="4"/></g></g><g clip-path="url(#04bf69148e)"><g clip-path="url(#7ff8b61f10)"><g transform="matrix(1, 0, 0, 1, 105, 217)"><g clip-path="url(#27857551ab)"><g clip-path="url(#d9fa9610b6)"><g clip-path="url(#dc58095581)"><path fill="#2d4d31" d="M 0 0.5 L 15 0.5 L 15 15.5 L 0 15.5 Z M 0 0.5 " fill-opacity="1" fill-rule="nonzero"/></g></g></g></g><path stroke-linecap="butt" transform="matrix(0.75, 0, 0, 0.75, 105, 217.499983)" fill="none" stroke-linejoin="miter" d="M 10.000001 0.0000225878 C 4.479167 0.0000225878 0.0000000377776 4.47919 0.0000000377776 10.000023 C 0.0000000377776 15.520857 4.479167 20.000024 10.000001 20.000024 C 15.520835 20.000024 20.000002 15.520857 20.000002 10.000023 C 20.000002 4.47919 15.520835 0.0000225878 10.000001 0.0000225878 Z M 10.000001 0.0000225878 " stroke="#000000" stroke-width="4" stroke-opacity="1" stroke-miterlimit="4"/></g></g></svg>