<svg xmlns="http://www.w3.org/2000/svg" xmlns:xlink="http://www.w3.org/1999/xlink" width="600" zoomAndPan="magnify" viewBox="0 0 450 449.999984" height="600" preserveAspectRatio="xMidYMid meet" version="1.0"><defs><clipPath id="0f8b0399c7"><path d="M 112.859375 112.859375 L 337.140625 112.859375 L 337.140625 337.140625 L 112.859375 337.140625 Z M 112.859375 112.859375 " clip-rule="nonzero"/></clipPath><clipPath id="61c6ba72c4"><path d="M 225 112.859375 C 163.066406 112.859375 112.859375 163.066406 112.859375 225 C 112.859375 286.933594 163.066406 337.140625 225 337.140625 C 286.933594 337.140625 337.140625 286.933594 337.140625 225 C 337.140625 163.066406 286.933594 112.859375 225 112.859375 Z M 225 112.859375 " clip-rule="nonzero"/></clipPath><clipPath id="a58b0255c2"><path d="M 0.859375 0.859375 L 225.140625 0.859375 L 225.140625 225.140625 L 0.859375 225.140625 Z M 0.859375 0.859375 " clip-rule="nonzero"/></clipPath><clipPath id="02f071a14f"><path d="M 113 0.859375 C 51.066406 0.859375 0.859375 51.066406 0.859375 113 C 0.859375 174.933594 51.066406 225.140625 113 225.140625 C 174.933594 225.140625 225.140625 174.933594 225.140625 113 C 225.140625 51.066406 174.933594 0.859375 113 0.859375 Z M 113 0.859375 " clip-rule="nonzero"/></clipPath><clipPath id="b0e3a197bd"><rect x="0" width="226" y="0" height="226"/></clipPath><clipPath id="32dd242106"><path d="M 112.859375 112.859375 L 337.109375 112.859375 L 337.109375 337.109375 L 112.859375 337.109375 Z M 112.859375 112.859375 " clip-rule="nonzero"/></clipPath><clipPath id="3571a959f0"><path d="M 224.996094 112.859375 C 163.066406 112.859375 112.859375 163.066406 112.859375 224.996094 C 112.859375 286.929688 163.066406 337.132812 224.996094 337.132812 C 286.929688 337.132812 337.132812 286.929688 337.132812 224.996094 C 337.132812 163.066406 286.929688 112.859375 224.996094 112.859375 Z M 224.996094 112.859375 " clip-rule="nonzero"/></clipPath><clipPath id="d8d925ad8d"><path d="M 150.589844 150.589844 L 299.410156 150.589844 L 299.410156 299.410156 L 150.589844 299.410156 Z M 150.589844 150.589844 " clip-rule="nonzero"/></clipPath><clipPath id="ee4f089574"><path d="M 225 150.589844 C 183.902344 150.589844 150.589844 183.902344 150.589844 225 C 150.589844 266.097656 183.902344 299.410156 225 299.410156 C 266.097656 299.410156 299.410156 266.097656 299.410156 225 C 299.410156 183.902344 266.097656 150.589844 225 150.589844 Z M 225 150.589844 " clip-rule="nonzero"/></clipPath><clipPath id="f26012adef"><path d="M 0.589844 0.589844 L 149.410156 0.589844 L 149.410156 149.410156 L 0.589844 149.410156 Z M 0.589844 0.589844 " clip-rule="nonzero"/></clipPath><clipPath id="2cd0a779a7"><path d="M 75 0.589844 C 33.902344 0.589844 0.589844 33.902344 0.589844 75 C 0.589844 116.097656 33.902344 149.410156 75 149.410156 C 116.097656 149.410156 149.410156 116.097656 149.410156 75 C 149.410156 33.902344 116.097656 0.589844 75 0.589844 Z M 75 0.589844 " clip-rule="nonzero"/></clipPath><clipPath id="e0e8fa2ab4"><rect x="0" width="150" y="0" height="150"/></clipPath><clipPath id="1ed606f021"><path d="M 150.589844 150.589844 L 299.089844 150.589844 L 299.089844 299.089844 L 150.589844 299.089844 Z M 150.589844 150.589844 " clip-rule="nonzero"/></clipPath><clipPath id="baf2f95aa8"><path d="M 224.996094 150.589844 C 183.902344 150.589844 150.589844 183.902344 150.589844 224.996094 C 150.589844 266.089844 183.902344 299.40625 224.996094 299.40625 C 266.089844 299.40625 299.40625 266.089844 299.40625 224.996094 C 299.40625 183.902344 266.089844 150.589844 224.996094 150.589844 Z M 224.996094 150.589844 " clip-rule="nonzero"/></clipPath><clipPath id="8a2f30388b"><path d="M 217.5 291.910156 L 232.5 291.910156 L 232.5 306.910156 L 217.5 306.910156 Z M 217.5 291.910156 " clip-rule="nonzero"/></clipPath><clipPath id="ba341d8524"><path d="M 225 291.910156 C 220.859375 291.910156 217.5 295.269531 217.5 299.410156 C 217.5 303.554688 220.859375 306.910156 225 306.910156 C 229.140625 306.910156 232.5 303.554688 232.5 299.410156 C 232.5 295.269531 229.140625 291.910156 225 291.910156 Z M 225 291.910156 " clip-rule="nonzero"/></clipPath><clipPath id="82aac94234"><path d="M 0.5 0.910156 L 15.5 0.910156 L 15.5 15.910156 L 0.5 15.910156 Z M 0.5 0.910156 " clip-rule="nonzero"/></clipPath><clipPath id="c606d12546"><path d="M 8 0.910156 C 3.859375 0.910156 0.5 4.269531 0.5 8.410156 C 0.5 12.554688 3.859375 15.910156 8 15.910156 C 12.140625 15.910156 15.5 12.554688 15.5 8.410156 C 15.5 4.269531 12.140625 0.910156 8 0.910156 Z M 8 0.910156 " clip-rule="nonzero"/></clipPath><clipPath id="959c0e9a02"><rect x="0" width="16" y="0" height="16"/></clipPath><clipPath id="5922d5fcfa"><path d="M 217.5 143.089844 L 232.5 143.089844 L 232.5 158.089844 L 217.5 158.089844 Z M 217.5 143.089844 " clip-rule="nonzero"/></clipPath><clipPath id="7355dde6e3"><path d="M 225 143.089844 C 220.859375 143.089844 217.5 146.445312 217.5 150.589844 C 217.5 154.730469 220.859375 158.089844 225 158.089844 C 229.140625 158.089844 232.5 154.730469 232.5 150.589844 C 232.5 146.445312 229.140625 143.089844 225 143.089844 Z M 225 143.089844 " clip-rule="nonzero"/></clipPath><clipPath id="f944d23546"><path d="M 0.5 0.0898438 L 15.5 0.0898438 L 15.5 15.089844 L 0.5 15.089844 Z M 0.5 0.0898438 " clip-rule="nonzero"/></clipPath><clipPath id="d6093e6cb7"><path d="M 8 0.0898438 C 3.859375 0.0898438 0.5 3.445312 0.5 7.589844 C 0.5 11.730469 3.859375 15.089844 8 15.089844 C 12.140625 15.089844 15.5 11.730469 15.5 7.589844 C 15.5 3.445312 12.140625 0.0898438 8 0.0898438 Z M 8 0.0898438 " clip-rule="nonzero"/></clipPath><clipPath id="2226943b79"><rect x="0" width="16" y="0" height="16"/></clipPath></defs><g clip-path="url(#0f8b0399c7)"><g clip-path="url(#61c6ba72c4)"><g transform="matrix(1, 0, 0, 1, 112, 112)"><g clip-path="url(#b0e3a197bd)"><g clip-path="url(#a58b0255c2)"><g clip-path="url(#02f071a14f)"><path fill="#ffffff" d="M 0.859375 0.859375 L 225.140625 0.859375 L 225.140625 225.140625 L 0.859375 225.140625 Z M 0.859375 0.859375 " fill-opacity="1" fill-rule="nonzero"/></g></g></g></g></g></g><g clip-path="url(#32dd242106)"><g clip-path="url(#3571a959f0)"><path stroke-linecap="butt" transform="matrix(0.75, 0, 0, 0.75, 112.860717, 112.860694)" fill="none" stroke-linejoin="miter" d="M 149.513847 -0.00175921 C 66.940924 -0.00175921 -0.00178928 66.940954 -0.00178928 149.513877 C -0.00178928 232.092009 66.940924 299.029514 149.513847 299.029514 C 232.091979 299.029514 299.029484 232.092009 299.029484 149.513877 C 299.029484 66.940954 232.091979 -0.00175921 149.513847 -0.00175921 Z M 149.513847 -0.00175921 " stroke="#000000" stroke-width="4" stroke-opacity="1" stroke-miterlimit="4"/></g></g><g clip-path="url(#d8d925ad8d)"><g clip-path="url(#ee4f089574)"><g transform="matrix(1, 0, 0, 1, 150, 150)"><g clip-path="url(#e0e8fa2ab4)"><g clip-path="url(#f26012adef)"><g clip-path="url(#2cd0a779a7)"><path fill="#ffffff" d="M 0.589844 0.589844 L 149.410156 0.589844 L 149.410156 149.410156 L 0.589844 149.410156 Z M 0.589844 0.589844 " fill-opacity="1" fill-rule="nonzero"/></g></g></g></g></g></g><g clip-path="url(#1ed606f021)"><g clip-path="url(#baf2f95aa8)"><path stroke-linecap="butt" transform="matrix(0.75, 0, 0, 0.75, 150.588044, 150.588036)" fill="none" stroke-linejoin="miter" d="M 99.21074 0.00240997 C 44.419069 0.00240997 0.00239911 44.41908 0.00239911 99.210751 C 0.00239911 154.002422 44.419069 198.4243 99.21074 198.4243 C 154.002411 198.4243 198.42429 154.002422 198.42429 99.210751 C 198.42429 44.41908 154.002411 0.00240997 99.21074 0.00240997 Z M 99.21074 0.00240997 " stroke="#000000" stroke-width="4" stroke-opacity="1" stroke-miterlimit="4"/></g></g><g clip-path="url(#8a2f30388b)"><g clip-path="url(#ba341d8524)"><g transform="matrix(1, 0, 0, 1, 217, 291)"><g clip-path="url(#959c0e9a02)"><g clip-path="url(#82aac94234)"><g clip-path="url(#c606d12546)"><path fill="#2d4d31" d="M 0.5 0.910156 L 15.5 0.910156 L 15.5 15.910156 L 0.5 15.910156 Z M 0.5 0.910156 " fill-opacity="1" fill-rule="nonzero"/></g></g></g></g><path stroke-linecap="butt" transform="matrix(0.75, 0, 0, 0.75, 217.499991, 291.911929)" fill="none" stroke-linejoin="miter" d="M 10.000013 -0.00236402 C 4.479179 -0.00236402 0.0000117211 4.476803 0.0000117211 9.997637 C 0.0000117211 15.523679 4.479179 19.997638 10.000013 19.997638 C 15.520846 19.997638 20.000013 15.523679 20.000013 9.997637 C 20.000013 4.476803 15.520846 -0.00236402 10.000013 -0.00236402 Z M 10.000013 -0.00236402 " stroke="#000000" stroke-width="4" stroke-opacity="1" stroke-miterlimit="4"/></g></g><g clip-path="url(#5922d5fcfa)"><g clip-path="url(#7355dde6e3)"><g transform="matrix(1, 0, 0, 1, 217, 143)"><g clip-path="url(#2226943b79)"><g clip-path="url(#f944d23546)"><g clip-path="url(#d6093e6cb7)"><path fill="#2d4d31" d="M 0.5 0.0898438 L 15.5 0.0898438 L 15.5 15.089844 L 0.5 15.089844 Z M 0.5 0.0898438 " fill-opacity="1" fill-rule="nonzero"/></g></g></g></g><path stroke-linecap="butt" transform="matrix(0.75, 0, 0, 0.75, 217.499991, 143.088037)" fill="none" stroke-linejoin="miter" d="M 10.000013 0.00240919 C 4.479179 0.00240919 0.0000117211 4.476368 0.0000117211 10.00241 C 0.0000117211 15.523244 4.479179 20.002411 10.000013 20.002411 C 15.520846 20.002411 20.000013 15.523244 20.000013 10.00241 C 20.000013 4.476368 15.520846 0.00240919 10.000013 0.00240919 Z M 10.000013 0.00240919 " stroke="#000000" stroke-width="4" stroke-opacity="1" stroke-miterlimit="4"/></g></g></svg>