<svg xmlns="http://www.w3.org/2000/svg" xmlns:xlink="http://www.w3.org/1999/xlink" width="600" zoomAndPan="magnify" viewBox="0 0 450 449.999984" height="600" preserveAspectRatio="xMidYMid meet" version="1.0"><defs><clipPath id="5e854ba851"><path d="M 112.859375 112.859375 L 337.140625 112.859375 L 337.140625 337.140625 L 112.859375 337.140625 Z M 112.859375 112.859375 " clip-rule="nonzero"/></clipPath><clipPath id="d1765ce6bf"><path d="M 225 112.859375 C 163.066406 112.859375 112.859375 163.066406 112.859375 225 C 112.859375 286.933594 163.066406 337.140625 225 337.140625 C 286.933594 337.140625 337.140625 286.933594 337.140625 225 C 337.140625 163.066406 286.933594 112.859375 225 112.859375 Z M 225 112.859375 " clip-rule="nonzero"/></clipPath><clipPath id="9f49064780"><path d="M 0.859375 0.859375 L 225.140625 0.859375 L 225.140625 225.140625 L 0.859375 225.140625 Z M 0.859375 0.859375 " clip-rule="nonzero"/></clipPath><clipPath id="19a68b9b1b"><path d="M 113 0.859375 C 51.066406 0.859375 0.859375 51.066406 0.859375 113 C 0.859375 174.933594 51.066406 225.140625 113 225.140625 C 174.933594 225.140625 225.140625 174.933594 225.140625 113 C 225.140625 51.066406 174.933594 0.859375 113 0.859375 Z M 113 0.859375 " clip-rule="nonzero"/></clipPath><clipPath id="4eb56487d3"><rect x="0" width="226" y="0" height="226"/></clipPath><clipPath id="c0bc342390"><path d="M 112.859375 112.859375 L 337.109375 112.859375 L 337.109375 337.109375 L 112.859375 337.109375 Z M 112.859375 112.859375 " clip-rule="nonzero"/></clipPath><clipPath id="99e4327398"><path d="M 224.996094 112.859375 C 163.066406 112.859375 112.859375 163.066406 112.859375 224.996094 C 112.859375 286.929688 163.066406 337.132812 224.996094 337.132812 C 286.929688 337.132812 337.132812 286.929688 337.132812 224.996094 C 337.132812 163.066406 286.929688 112.859375 224.996094 112.859375 Z M 224.996094 112.859375 " clip-rule="nonzero"/></clipPath><clipPath id="52560bea51"><path d="M 217.5 217.5 L 232.5 217.5 L 232.5 232.5 L 217.5 232.5 Z M 217.5 217.5 " clip-rule="nonzero"/></clipPath><clipPath id="b474623820"><path d="M 225 217.5 C 220.859375 217.5 217.5 220.859375 217.5 225 C 217.5 229.140625 220.859375 232.5 225 232.5 C 229.140625 232.5 232.5 229.140625 232.5 225 C 232.5 220.859375 229.140625 217.5 225 217.5 Z M 225 217.5 " clip-rule="nonzero"/></clipPath><clipPath id="bde9dd11c1"><path d="M 0.5 0.5 L 15.5 0.5 L 15.5 15.5 L 0.5 15.5 Z M 0.5 0.5 " clip-rule="nonzero"/></clipPath><clipPath id="d658f5b240"><path d="M 8 0.5 C 3.859375 0.5 0.5 3.859375 0.5 8 C 0.5 12.140625 3.859375 15.5 8 15.5 C 12.140625 15.5 15.5 12.140625 15.5 8 C 15.5 3.859375 12.140625 0.5 8 0.5 Z M 8 0.5 " clip-rule="nonzero"/></clipPath><clipPath id="a3e460e021"><rect x="0" width="16" y="0" height="16"/></clipPath><clipPath id="42dbab9135"><path d="M 291.910156 217.5 L 306.910156 217.5 L 306.910156 232.5 L 291.910156 232.5 Z M 291.910156 217.5 " clip-rule="nonzero"/></clipPath><clipPath id="c07014b0d5"><path d="M 299.410156 217.5 C 295.269531 217.5 291.910156 220.859375 291.910156 225 C 291.910156 229.140625 295.269531 232.5 299.410156 232.5 C 303.554688 232.5 306.910156 229.140625 306.910156 225 C 306.910156 220.859375 303.554688 217.5 299.410156 217.5 Z M 299.410156 217.5 " clip-rule="nonzero"/></clipPath><clipPath id="8089e4ad7e"><path d="M 0.910156 0.5 L 15.910156 0.5 L 15.910156 15.5 L 0.910156 15.5 Z M 0.910156 0.5 " clip-rule="nonzero"/></clipPath><clipPath id="166d232e74"><path d="M 8.410156 0.5 C 4.269531 0.5 0.910156 3.859375 0.910156 8 C 0.910156 12.140625 4.269531 15.5 8.410156 15.5 C 12.554688 15.5 15.910156 12.140625 15.910156 8 C 15.910156 3.859375 12.554688 0.5 8.410156 0.5 Z M 8.410156 0.5 " clip-rule="nonzero"/></clipPath><clipPath id="b4cfd204b2"><rect x="0" width="16" y="0" height="16"/></clipPath><clipPath id="c3b7194a47"><path d="M 143.089844 217.5 L 158.089844 217.5 L 158.089844 232.5 L 143.089844 232.5 Z M 143.089844 217.5 " clip-rule="nonzero"/></clipPath><clipPath id="65f90cc489"><path d="M 150.589844 217.5 C 146.445312 217.5 143.089844 220.859375 143.089844 225 C 143.089844 229.140625 146.445312 232.5 150.589844 232.5 C 154.730469 232.5 158.089844 229.140625 158.089844 225 C 158.089844 220.859375 154.730469 217.5 150.589844 217.5 Z M 150.589844 217.5 " clip-rule="nonzero"/></clipPath><clipPath id="e3c6a794bb"><path d="M 0.0898438 0.5 L 15.089844 0.5 L 15.089844 15.5 L 0.0898438 15.5 Z M 0.0898438 0.5 " clip-rule="nonzero"/></clipPath><clipPath id="9f0b816fd2"><path d="M 7.589844 0.5 C 3.445312 0.5 0.0898438 3.859375 0.0898438 8 C 0.0898438 12.140625 3.445312 15.5 7.589844 15.5 C 11.730469 15.5 15.089844 12.140625 15.089844 8 C 15.089844 3.859375 11.730469 0.5 7.589844 0.5 Z M 7.589844 0.5 " clip-rule="nonzero"/></clipPath><clipPath id="6253db9038"><rect x="0" width="16" y="0" height="16"/></clipPath></defs><g clip-path="url(#5e854ba851)"><g clip-path="url(#d1765ce6bf)"><g transform="matrix(1, 0, 0, 1, 112, 112)"><g clip-path="url(#4eb56487d3)"><g clip-path="url(#9f49064780)"><g clip-path="url(#19a68b9b1b)"><path fill="#ffffff" d="M 0.859375 0.859375 L 225.140625 0.859375 L 225.140625 225.140625 L 0.859375 225.140625 Z M 0.859375 0.859375 " fill-opacity="1" fill-rule="nonzero"/></g></g></g></g></g></g><g clip-path="url(#c0bc342390)"><g clip-path="url(#99e4327398)"><path stroke-linecap="butt" transform="matrix(0.75, 0, 0, 0.75, 112.860717, 112.860709)" fill="none" stroke-linejoin="miter" d="M 149.513847 -0.00177841 C 66.940924 -0.00177841 -0.00178928 66.940935 -0.00178928 149.513858 C -0.00178928 232.09199 66.940924 299.029495 149.513847 299.029495 C 232.091979 299.029495 299.029484 232.09199 299.029484 149.513858 C 299.029484 66.940935 232.091979 -0.00177841 149.513847 -0.00177841 Z M 149.513847 -0.00177841 " stroke="#000000" stroke-width="4" stroke-opacity="1" stroke-miterlimit="4"/></g></g><g clip-path="url(#52560bea51)"><g clip-path="url(#b474623820)"><g transform="matrix(1, 0, 0, 1, 217, 217)"><g clip-path="url(#a3e460e021)"><g clip-path="url(#bde9dd11c1)"><g clip-path="url(#d658f5b240)"><path fill="#2d4d31" d="M 0.5 0.5 L 15.5 0.5 L 15.5 15.5 L 0.5 15.5 Z M 0.5 0.5 " fill-opacity="1" fill-rule="nonzero"/></g></g></g></g><path stroke-linecap="butt" transform="matrix(0.75, 0, 0, 0.75, 217.499991, 217.499983)" fill="none" stroke-linejoin="miter" d="M 10.000013 0.0000225878 C 4.479179 0.0000225878 0.0000117211 4.47919 0.0000117211 10.000023 C 0.0000117211 15.520857 4.479179 20.000024 10.000013 20.000024 C 15.520846 20.000024 20.000013 15.520857 20.000013 10.000023 C 20.000013 4.47919 15.520846 0.0000225878 10.000013 0.0000225878 Z M 10.000013 0.0000225878 " stroke="#000000" stroke-width="4" stroke-opacity="1" stroke-miterlimit="4"/></g></g><g clip-path="url(#42dbab9135)"><g clip-path="url(#c07014b0d5)"><g transform="matrix(1, 0, 0, 1, 291, 217)"><g clip-path="url(#b4cfd204b2)"><g clip-path="url(#8089e4ad7e)"><g clip-path="url(#166d232e74)"><path fill="#2d4d31" d="M 0.910156 0.5 L 15.910156 0.5 L 15.910156 15.5 L 0.910156 15.5 Z M 0.910156 0.5 " fill-opacity="1" fill-rule="nonzero"/></g></g></g></g><path stroke-linecap="butt" transform="matrix(0.75, 0, 0, 0.75, 291.911937, 217.499983)" fill="none" stroke-linejoin="miter" d="M 9.997626 0.0000225878 C 4.476792 0.0000225878 -0.00237488 4.47919 -0.00237488 10.000023 C -0.00237488 15.520857 4.476792 20.000024 9.997626 20.000024 C 15.523668 20.000024 19.997627 15.520857 19.997627 10.000023 C 19.997627 4.47919 15.523668 0.0000225878 9.997626 0.0000225878 Z M 9.997626 0.0000225878 " stroke="#000000" stroke-width="4" stroke-opacity="1" stroke-miterlimit="4"/></g></g><g clip-path="url(#c3b7194a47)"><g clip-path="url(#65f90cc489)"><g transform="matrix(1, 0, 0, 1, 143, 217)"><g clip-path="url(#6253db9038)"><g clip-path="url(#e3c6a794bb)"><g clip-path="url(#9f0b816fd2)"><path fill="#2d4d31" d="M 0.0898438 0.5 L 15.089844 0.5 L 15.089844 15.5 L 0.0898438 15.5 Z M 0.0898438 0.5 " fill-opacity="1" fill-rule="nonzero"/></g></g></g></g><path stroke-linecap="butt" transform="matrix(0.75, 0, 0, 0.75, 143.088045, 217.499983)" fill="none" stroke-linejoin="miter" d="M 10.002399 0.0000225878 C 4.476357 0.0000225878 0.00239833 4.47919 0.00239833 10.000023 C 0.00239833 15.520857 4.476357 20.000024 10.002399 20.000024 C 15.523233 20.000024 20.0024 15.520857 20.0024 10.000023 C 20.0024 4.47919 15.523233 0.0000225878 10.002399 0.0000225878 Z M 10.002399 0.0000225878 " stroke="#000000" stroke-width="4" stroke-opacity="1" stroke-miterlimit="4"/></g></g></svg>