<svg xmlns="http://www.w3.org/2000/svg" xmlns:xlink="http://www.w3.org/1999/xlink" width="600" zoomAndPan="magnify" viewBox="0 0 450 449.999984" height="600" preserveAspectRatio="xMidYMid meet" version="1.0"><defs><clipPath id="aa5a0bbc96"><path d="M 112.859375 112.859375 L 337.140625 112.859375 L 337.140625 337.140625 L 112.859375 337.140625 Z M 112.859375 112.859375 " clip-rule="nonzero"/></clipPath><clipPath id="e27670e56c"><path d="M 225 112.859375 C 163.066406 112.859375 112.859375 163.066406 112.859375 225 C 112.859375 286.933594 163.066406 337.140625 225 337.140625 C 286.933594 337.140625 337.140625 286.933594 337.140625 225 C 337.140625 163.066406 286.933594 112.859375 225 112.859375 Z M 225 112.859375 " clip-rule="nonzero"/></clipPath><clipPath id="b9f251fba1"><path d="M 0.859375 0.859375 L 225.140625 0.859375 L 225.140625 225.140625 L 0.859375 225.140625 Z M 0.859375 0.859375 " clip-rule="nonzero"/></clipPath><clipPath id="817cf3a5ed"><path d="M 113 0.859375 C 51.066406 0.859375 0.859375 51.066406 0.859375 113 C 0.859375 174.933594 51.066406 225.140625 113 225.140625 C 174.933594 225.140625 225.140625 174.933594 225.140625 113 C 225.140625 51.066406 174.933594 0.859375 113 0.859375 Z M 113 0.859375 " clip-rule="nonzero"/></clipPath><clipPath id="a5fbeaeb7f"><rect x="0" width="226" y="0" height="226"/></clipPath><clipPath id="a1465c04ed"><path d="M 112.859375 112.859375 L 337.109375 112.859375 L 337.109375 337.109375 L 112.859375 337.109375 Z M 112.859375 112.859375 " clip-rule="nonzero"/></clipPath><clipPath id="e127470031"><path d="M 224.996094 112.859375 C 163.066406 112.859375 112.859375 163.066406 112.859375 224.996094 C 112.859375 286.929688 163.066406 337.132812 224.996094 337.132812 C 286.929688 337.132812 337.132812 286.929688 337.132812 224.996094 C 337.132812 163.066406 286.929688 112.859375 224.996094 112.859375 Z M 224.996094 112.859375 " clip-rule="nonzero"/></clipPath><clipPath id="073125d9ca"><path d="M 150.589844 150.589844 L 299.410156 150.589844 L 299.410156 299.410156 L 150.589844 299.410156 Z M 150.589844 150.589844 " clip-rule="nonzero"/></clipPath><clipPath id="c698a54e10"><path d="M 225 150.589844 C 183.902344 150.589844 150.589844 183.902344 150.589844 225 C 150.589844 266.097656 183.902344 299.410156 225 299.410156 C 266.097656 299.410156 299.410156 266.097656 299.410156 225 C 299.410156 183.902344 266.097656 150.589844 225 150.589844 Z M 225 150.589844 " clip-rule="nonzero"/></clipPath><clipPath id="ed61feb540"><path d="M 0.589844 0.589844 L 149.410156 0.589844 L 149.410156 149.410156 L 0.589844 149.410156 Z M 0.589844 0.589844 " clip-rule="nonzero"/></clipPath><clipPath id="82b6769ff7"><path d="M 75 0.589844 C 33.902344 0.589844 0.589844 33.902344 0.589844 75 C 0.589844 116.097656 33.902344 149.410156 75 149.410156 C 116.097656 149.410156 149.410156 116.097656 149.410156 75 C 149.410156 33.902344 116.097656 0.589844 75 0.589844 Z M 75 0.589844 " clip-rule="nonzero"/></clipPath><clipPath id="36c0996c06"><rect x="0" width="150" y="0" height="150"/></clipPath><clipPath id="55e6048321"><path d="M 150.589844 150.589844 L 299.089844 150.589844 L 299.089844 299.089844 L 150.589844 299.089844 Z M 150.589844 150.589844 " clip-rule="nonzero"/></clipPath><clipPath id="832c99bd65"><path d="M 224.996094 150.589844 C 183.902344 150.589844 150.589844 183.902344 150.589844 224.996094 C 150.589844 266.089844 183.902344 299.40625 224.996094 299.40625 C 266.089844 299.40625 299.40625 266.089844 299.40625 224.996094 C 299.40625 183.902344 266.089844 150.589844 224.996094 150.589844 Z M 224.996094 150.589844 " clip-rule="nonzero"/></clipPath><clipPath id="c4dc2e3298"><path d="M 143.089844 217.5 L 158.089844 217.5 L 158.089844 232.5 L 143.089844 232.5 Z M 143.089844 217.5 " clip-rule="nonzero"/></clipPath><clipPath id="b7f5a8e6f5"><path d="M 150.589844 217.5 C 146.445312 217.5 143.089844 220.859375 143.089844 225 C 143.089844 229.140625 146.445312 232.5 150.589844 232.5 C 154.730469 232.5 158.089844 229.140625 158.089844 225 C 158.089844 220.859375 154.730469 217.5 150.589844 217.5 Z M 150.589844 217.5 " clip-rule="nonzero"/></clipPath><clipPath id="9498f6f5a9"><path d="M 0.0898438 0.5 L 15.089844 0.5 L 15.089844 15.5 L 0.0898438 15.5 Z M 0.0898438 0.5 " clip-rule="nonzero"/></clipPath><clipPath id="d5781a9717"><path d="M 7.589844 0.5 C 3.445312 0.5 0.0898438 3.859375 0.0898438 8 C 0.0898438 12.140625 3.445312 15.5 7.589844 15.5 C 11.730469 15.5 15.089844 12.140625 15.089844 8 C 15.089844 3.859375 11.730469 0.5 7.589844 0.5 Z M 7.589844 0.5 " clip-rule="nonzero"/></clipPath><clipPath id="9534a28e20"><rect x="0" width="16" y="0" height="16"/></clipPath><clipPath id="45f98e760f"><path d="M 291.910156 217.5 L 306.910156 217.5 L 306.910156 232.5 L 291.910156 232.5 Z M 291.910156 217.5 " clip-rule="nonzero"/></clipPath><clipPath id="b7a3ef40c8"><path d="M 299.410156 217.5 C 295.269531 217.5 291.910156 220.859375 291.910156 225 C 291.910156 229.140625 295.269531 232.5 299.410156 232.5 C 303.554688 232.5 306.910156 229.140625 306.910156 225 C 306.910156 220.859375 303.554688 217.5 299.410156 217.5 Z M 299.410156 217.5 " clip-rule="nonzero"/></clipPath><clipPath id="eca4662221"><path d="M 0.910156 0.5 L 15.910156 0.5 L 15.910156 15.5 L 0.910156 15.5 Z M 0.910156 0.5 " clip-rule="nonzero"/></clipPath><clipPath id="1eae4443d4"><path d="M 8.410156 0.5 C 4.269531 0.5 0.910156 3.859375 0.910156 8 C 0.910156 12.140625 4.269531 15.5 8.410156 15.5 C 12.554688 15.5 15.910156 12.140625 15.910156 8 C 15.910156 3.859375 12.554688 0.5 8.410156 0.5 Z M 8.410156 0.5 " clip-rule="nonzero"/></clipPath><clipPath id="ab4dde186b"><rect x="0" width="16" y="0" height="16"/></clipPath><clipPath id="0748b13e1b"><path d="M 164.882812 150.589844 L 285.332031 150.589844 L 285.332031 270.101562 L 164.882812 270.101562 Z M 164.882812 150.589844 " clip-rule="nonzero"/></clipPath><clipPath id="2e008af47f"><path d="M 225 150.589844 L 285.117188 270.101562 L 164.882812 270.101562 Z M 225 150.589844 " clip-rule="nonzero"/></clipPath><clipPath id="c8b2df8970"><path d="M 0.882812 0.589844 L 121.121094 0.589844 L 121.121094 120.101562 L 0.882812 120.101562 Z M 0.882812 0.589844 " clip-rule="nonzero"/></clipPath><clipPath id="6ab8c58f5a"><path d="M 61 0.589844 L 121.117188 120.101562 L 0.882812 120.101562 Z M 61 0.589844 " clip-rule="nonzero"/></clipPath><clipPath id="c95b277731"><rect x="0" width="122" y="0" height="121"/></clipPath><clipPath id="1144e06c10"><path d="M 164.882812 150.589844 L 284.882812 150.589844 L 284.882812 269.839844 L 164.882812 269.839844 Z M 164.882812 150.589844 " clip-rule="nonzero"/></clipPath><clipPath id="40ed97a210"><path d="M 224.996094 150.589844 L 285.105469 270.09375 L 164.882812 270.09375 Z M 224.996094 150.589844 " clip-rule="nonzero"/></clipPath></defs><g clip-path="url(#aa5a0bbc96)"><g clip-path="url(#e27670e56c)"><g transform="matrix(1, 0, 0, 1, 112, 112)"><g clip-path="url(#a5fbeaeb7f)"><g clip-path="url(#b9f251fba1)"><g clip-path="url(#817cf3a5ed)"><path fill="#ffffff" d="M 0.859375 0.859375 L 225.140625 0.859375 L 225.140625 225.140625 L 0.859375 225.140625 Z M 0.859375 0.859375 " fill-opacity="1" fill-rule="nonzero"/></g></g></g></g></g></g><g clip-path="url(#a1465c04ed)"><g clip-path="url(#e127470031)"><path stroke-linecap="butt" transform="matrix(0.75, 0, 0, 0.75, 112.860717, 112.860694)" fill="none" stroke-linejoin="miter" d="M 149.513847 -0.00175921 C 66.940924 -0.00175921 -0.00178928 66.940954 -0.00178928 149.513877 C -0.00178928 232.092009 66.940924 299.029514 149.513847 299.029514 C 232.091979 299.029514 299.029484 232.092009 299.029484 149.513877 C 299.029484 66.940954 232.091979 -0.00175921 149.513847 -0.00175921 Z M 149.513847 -0.00175921 " stroke="#000000" stroke-width="4" stroke-opacity="1" stroke-miterlimit="4"/></g></g><g clip-path="url(#073125d9ca)"><g clip-path="url(#c698a54e10)"><g transform="matrix(1, 0, 0, 1, 150, 150)"><g clip-path="url(#36c0996c06)"><g clip-path="url(#ed61feb540)"><g clip-path="url(#82b6769ff7)"><path fill="#ffffff" d="M 0.589844 0.589844 L 149.410156 0.589844 L 149.410156 149.410156 L 0.589844 149.410156 Z M 0.589844 0.589844 " fill-opacity="1" fill-rule="nonzero"/></g></g></g></g></g></g><g clip-path="url(#55e6048321)"><g clip-path="url(#832c99bd65)"><path stroke-linecap="butt" transform="matrix(0.75, 0, 0, 0.75, 150.588044, 150.588036)" fill="none" stroke-linejoin="miter" d="M 99.21074 0.00240997 C 44.419069 0.00240997 0.00239911 44.41908 0.00239911 99.210751 C 0.00239911 154.002422 44.419069 198.4243 99.21074 198.4243 C 154.002411 198.4243 198.42429 154.002422 198.42429 99.210751 C 198.42429 44.41908 154.002411 0.00240997 99.21074 0.00240997 Z M 99.21074 0.00240997 " stroke="#000000" stroke-width="4" stroke-opacity="1" stroke-miterlimit="4"/></g></g><g clip-path="url(#c4dc2e3298)"><g clip-path="url(#b7f5a8e6f5)"><g transform="matrix(1, 0, 0, 1, 143, 217)"><g clip-path="url(#9534a28e20)"><g clip-path="url(#9498f6f5a9)"><g clip-path="url(#d5781a9717)"><path fill="#2d4d31" d="M 0.0898438 0.5 L 15.089844 0.5 L 15.089844 15.5 L 0.0898438 15.5 Z M 0.0898438 0.5 " fill-opacity="1" fill-rule="nonzero"/></g></g></g></g><path stroke-linecap="butt" transform="matrix(0.75, 0, 0, 0.75, 143.088045, 217.499983)" fill="none" stroke-linejoin="miter" d="M 10.002399 0.0000225878 C 4.476357 0.0000225878 0.00239833 4.47919 0.00239833 10.000023 C 0.00239833 15.520857 4.476357 20.000024 10.002399 20.000024 C 15.523233 20.000024 20.0024 15.520857 20.0024 10.000023 C 20.0024 4.47919 15.523233 0.0000225878 10.002399 0.0000225878 Z M 10.002399 0.0000225878 " stroke="#000000" stroke-width="4" stroke-opacity="1" stroke-miterlimit="4"/></g></g><g clip-path="url(#45f98e760f)"><g clip-path="url(#b7a3ef40c8)"><g transform="matrix(1, 0, 0, 1, 291, 217)"><g clip-path="url(#ab4dde186b)"><g clip-path="url(#eca4662221)"><g clip-path="url(#1eae4443d4)"><path fill="#2d4d31" d="M 0.910156 0.5 L 15.910156 0.5 L 15.910156 15.5 L 0.910156 15.5 Z M 0.910156 0.5 " fill-opacity="1" fill-rule="nonzero"/></g></g></g></g><path stroke-linecap="butt" transform="matrix(0.75, 0, 0, 0.75, 291.911937, 217.499983)" fill="none" stroke-linejoin="miter" d="M 9.997626 0.0000225878 C 4.476792 0.0000225878 -0.00237488 4.47919 -0.00237488 10.000023 C -0.00237488 15.520857 4.476792 20.000024 9.997626 20.000024 C 15.523668 20.000024 19.997627 15.520857 19.997627 10.000023 C 19.997627 4.47919 15.523668 0.0000225878 9.997626 0.0000225878 Z M 9.997626 0.0000225878 " stroke="#000000" stroke-width="4" stroke-opacity="1" stroke-miterlimit="4"/></g></g><g clip-path="url(#0748b13e1b)"><g clip-path="url(#2e008af47f)"><g transform="matrix(1, 0, 0, 1, 164, 150)"><g clip-path="url(#c95b277731)"><g clip-path="url(#c8b2df8970)"><g clip-path="url(#6ab8c58f5a)"><path fill="#ffffff" d="M 0.882812 0.589844 L 121.332031 0.589844 L 121.332031 120.101562 L 0.882812 120.101562 Z M 0.882812 0.589844 " fill-opacity="1" fill-rule="nonzero"/></g></g></g></g></g></g><g clip-path="url(#1144e06c10)"><g clip-path="url(#40ed97a210)"><path stroke-linecap="butt" transform="matrix(0.75, 0, 0, 0.75, 164.884375, 150.589647)" fill="none" stroke-linejoin="miter" d="M 80.148964 0.000262772 L 160.294804 159.338817 L -0.00208374 159.338817 Z M 80.148964 0.000262772 " stroke="#000000" stroke-width="4" stroke-opacity="1" stroke-miterlimit="4"/></g></g></svg>