<svg xmlns="http://www.w3.org/2000/svg" xmlns:xlink="http://www.w3.org/1999/xlink" width="600" zoomAndPan="magnify" viewBox="0 0 450 449.999984" height="600" preserveAspectRatio="xMidYMid meet" version="1.0"><defs><clipPath id="12c08ad9c1"><path d="M 112.859375 112.859375 L 337.140625 112.859375 L 337.140625 337.140625 L 112.859375 337.140625 Z M 112.859375 112.859375 " clip-rule="nonzero"/></clipPath><clipPath id="499ac9d6d1"><path d="M 225 112.859375 C 163.066406 112.859375 112.859375 163.066406 112.859375 225 C 112.859375 286.933594 163.066406 337.140625 225 337.140625 C 286.933594 337.140625 337.140625 286.933594 337.140625 225 C 337.140625 163.066406 286.933594 112.859375 225 112.859375 Z M 225 112.859375 " clip-rule="nonzero"/></clipPath><clipPath id="898c0eca0e"><path d="M 0.859375 0.859375 L 225.140625 0.859375 L 225.140625 225.140625 L 0.859375 225.140625 Z M 0.859375 0.859375 " clip-rule="nonzero"/></clipPath><clipPath id="674d0c3eb1"><path d="M 113 0.859375 C 51.066406 0.859375 0.859375 51.066406 0.859375 113 C 0.859375 174.933594 51.066406 225.140625 113 225.140625 C 174.933594 225.140625 225.140625 174.933594 225.140625 113 C 225.140625 51.066406 174.933594 0.859375 113 0.859375 Z M 113 0.859375 " clip-rule="nonzero"/></clipPath><clipPath id="35313ee5e0"><rect x="0" width="226" y="0" height="226"/></clipPath><clipPath id="3ad6b1e05e"><path d="M 112.859375 112.859375 L 337.109375 112.859375 L 337.109375 337.109375 L 112.859375 337.109375 Z M 112.859375 112.859375 " clip-rule="nonzero"/></clipPath><clipPath id="2c6a4e3bbd"><path d="M 224.996094 112.859375 C 163.066406 112.859375 112.859375 163.066406 112.859375 224.996094 C 112.859375 286.929688 163.066406 337.132812 224.996094 337.132812 C 286.929688 337.132812 337.132812 286.929688 337.132812 224.996094 C 337.132812 163.066406 286.929688 112.859375 224.996094 112.859375 Z M 224.996094 112.859375 " clip-rule="nonzero"/></clipPath><clipPath id="5581658f91"><path d="M 150.589844 150.589844 L 299.410156 150.589844 L 299.410156 299.410156 L 150.589844 299.410156 Z M 150.589844 150.589844 " clip-rule="nonzero"/></clipPath><clipPath id="7ad96d294b"><path d="M 225 150.589844 C 183.902344 150.589844 150.589844 183.902344 150.589844 225 C 150.589844 266.097656 183.902344 299.410156 225 299.410156 C 266.097656 299.410156 299.410156 266.097656 299.410156 225 C 299.410156 183.902344 266.097656 150.589844 225 150.589844 Z M 225 150.589844 " clip-rule="nonzero"/></clipPath><clipPath id="4eea4cd2a8"><path d="M 0.589844 0.589844 L 149.410156 0.589844 L 149.410156 149.410156 L 0.589844 149.410156 Z M 0.589844 0.589844 " clip-rule="nonzero"/></clipPath><clipPath id="4c94ec4da2"><path d="M 75 0.589844 C 33.902344 0.589844 0.589844 33.902344 0.589844 75 C 0.589844 116.097656 33.902344 149.410156 75 149.410156 C 116.097656 149.410156 149.410156 116.097656 149.410156 75 C 149.410156 33.902344 116.097656 0.589844 75 0.589844 Z M 75 0.589844 " clip-rule="nonzero"/></clipPath><clipPath id="c804805d49"><rect x="0" width="150" y="0" height="150"/></clipPath><clipPath id="9302039598"><path d="M 150.589844 150.589844 L 299.089844 150.589844 L 299.089844 299.089844 L 150.589844 299.089844 Z M 150.589844 150.589844 " clip-rule="nonzero"/></clipPath><clipPath id="ef49bd953d"><path d="M 224.996094 150.589844 C 183.902344 150.589844 150.589844 183.902344 150.589844 224.996094 C 150.589844 266.089844 183.902344 299.40625 224.996094 299.40625 C 266.089844 299.40625 299.40625 266.089844 299.40625 224.996094 C 299.40625 183.902344 266.089844 150.589844 224.996094 150.589844 Z M 224.996094 150.589844 " clip-rule="nonzero"/></clipPath><clipPath id="0d88ecc46f"><path d="M 164.660156 179.894531 L 285.105469 179.894531 L 285.105469 299.40625 L 164.660156 299.40625 Z M 164.660156 179.894531 " clip-rule="nonzero"/></clipPath><clipPath id="8bd22107b6"><path d="M 224.992188 299.40625 L 164.875 179.894531 L 285.105469 179.894531 Z M 224.992188 299.40625 " clip-rule="nonzero"/></clipPath><clipPath id="6b6ef05107"><path d="M 0.660156 0.894531 L 121.105469 0.894531 L 121.105469 120.40625 L 0.660156 120.40625 Z M 0.660156 0.894531 " clip-rule="nonzero"/></clipPath><clipPath id="9fdc37145c"><path d="M 60.992188 120.40625 L 0.875 0.894531 L 121.105469 0.894531 Z M 60.992188 120.40625 " clip-rule="nonzero"/></clipPath><clipPath id="59fbd20eb9"><rect x="0" width="122" y="0" height="121"/></clipPath><clipPath id="2d63850d9c"><path d="M 165.105469 180.15625 L 285.105469 180.15625 L 285.105469 299.40625 L 165.105469 299.40625 Z M 165.105469 180.15625 " clip-rule="nonzero"/></clipPath><clipPath id="24863f8154"><path d="M 224.996094 299.40625 L 164.882812 179.902344 L 285.105469 179.902344 Z M 224.996094 299.40625 " clip-rule="nonzero"/></clipPath><clipPath id="8f69783b4a"><path d="M 217.5 210 L 232.5 210 L 232.5 225 L 217.5 225 Z M 217.5 210 " clip-rule="nonzero"/></clipPath><clipPath id="5891576f10"><path d="M 225 210 C 220.859375 210 217.5 213.359375 217.5 217.5 C 217.5 221.640625 220.859375 225 225 225 C 229.140625 225 232.5 221.640625 232.5 217.5 C 232.5 213.359375 229.140625 210 225 210 Z M 225 210 " clip-rule="nonzero"/></clipPath><clipPath id="05fa19d333"><path d="M 0.5 0 L 15.5 0 L 15.5 15 L 0.5 15 Z M 0.5 0 " clip-rule="nonzero"/></clipPath><clipPath id="4e23301514"><path d="M 8 0 C 3.859375 0 0.5 3.359375 0.5 7.5 C 0.5 11.640625 3.859375 15 8 15 C 12.140625 15 15.5 11.640625 15.5 7.5 C 15.5 3.359375 12.140625 0 8 0 Z M 8 0 " clip-rule="nonzero"/></clipPath><clipPath id="ec38b780b5"><rect x="0" width="16" y="0" height="15"/></clipPath></defs><g clip-path="url(#12c08ad9c1)"><g clip-path="url(#499ac9d6d1)"><g transform="matrix(1, 0, 0, 1, 112, 112)"><g clip-path="url(#35313ee5e0)"><g clip-path="url(#898c0eca0e)"><g clip-path="url(#674d0c3eb1)"><path fill="#ffffff" d="M 0.859375 0.859375 L 225.140625 0.859375 L 225.140625 225.140625 L 0.859375 225.140625 Z M 0.859375 0.859375 " fill-opacity="1" fill-rule="nonzero"/></g></g></g></g></g></g><g clip-path="url(#3ad6b1e05e)"><g clip-path="url(#2c6a4e3bbd)"><path stroke-linecap="butt" transform="matrix(0.75, 0, 0, 0.75, 112.860717, 112.860694)" fill="none" stroke-linejoin="miter" d="M 149.513847 -0.00175921 C 66.940924 -0.00175921 -0.00178928 66.940954 -0.00178928 149.513877 C -0.00178928 232.092009 66.940924 299.029514 149.513847 299.029514 C 232.091979 299.029514 299.029484 232.092009 299.029484 149.513877 C 299.029484 66.940954 232.091979 -0.00175921 149.513847 -0.00175921 Z M 149.513847 -0.00175921 " stroke="#000000" stroke-width="4" stroke-opacity="1" stroke-miterlimit="4"/></g></g><g clip-path="url(#5581658f91)"><g clip-path="url(#7ad96d294b)"><g transform="matrix(1, 0, 0, 1, 150, 150)"><g clip-path="url(#c804805d49)"><g clip-path="url(#4eea4cd2a8)"><g clip-path="url(#4c94ec4da2)"><path fill="#ffffff" d="M 0.589844 0.589844 L 149.410156 0.589844 L 149.410156 149.410156 L 0.589844 149.410156 Z M 0.589844 0.589844 " fill-opacity="1" fill-rule="nonzero"/></g></g></g></g></g></g><g clip-path="url(#9302039598)"><g clip-path="url(#ef49bd953d)"><path stroke-linecap="butt" transform="matrix(0.75, 0, 0, 0.75, 150.588044, 150.588036)" fill="none" stroke-linejoin="miter" d="M 99.21074 0.00240997 C 44.419069 0.00240997 0.00239911 44.41908 0.00239911 99.210751 C 0.00239911 154.002422 44.419069 198.4243 99.21074 198.4243 C 154.002411 198.4243 198.42429 154.002422 198.42429 99.210751 C 198.42429 44.41908 154.002411 0.00240997 99.21074 0.00240997 Z M 99.21074 0.00240997 " stroke="#000000" stroke-width="4" stroke-opacity="1" stroke-miterlimit="4"/></g></g><g clip-path="url(#0d88ecc46f)"><g clip-path="url(#8bd22107b6)"><g transform="matrix(1, 0, 0, 1, 164, 179)"><g clip-path="url(#59fbd20eb9)"><g clip-path="url(#6b6ef05107)"><g clip-path="url(#9fdc37145c)"><path fill="#ffffff" d="M 121.105469 120.40625 L 0.660156 120.40625 L 0.660156 0.894531 L 121.105469 0.894531 Z M 121.105469 120.40625 " fill-opacity="1" fill-rule="nonzero"/></g></g></g></g></g></g><g clip-path="url(#2d63850d9c)"><g clip-path="url(#24863f8154)"><path stroke-linecap="butt" transform="matrix(-0.75, 0, 0, -0.75, 285.107007, 299.405045)" fill="none" stroke-linejoin="miter" d="M 80.14789 -0.00160603 L 160.298938 159.336948 L 0.00205066 159.336948 Z M 80.14789 -0.00160603 " stroke="#000000" stroke-width="4" stroke-opacity="1" stroke-miterlimit="4"/></g></g><g clip-path="url(#8f69783b4a)"><g clip-path="url(#5891576f10)"><g transform="matrix(1, 0, 0, 1, 217, 210)"><g clip-path="url(#ec38b780b5)"><g clip-path="url(#05fa19d333)"><g clip-path="url(#4e23301514)"><path fill="#2d4d31" d="M 0.5 0 L 15.5 0 L 15.5 15 L 0.5 15 Z M 0.5 0 " fill-opacity="1" fill-rule="nonzero"/></g></g></g></g><path stroke-linecap="butt" transform="matrix(0.75, 0, 0, 0.75, 217.499991, 209.999984)" fill="none" stroke-linejoin="miter" d="M 10.000013 0.0000218089 C 4.479179 0.0000218089 0.0000117211 4.479189 0.0000117211 10.000023 C 0.0000117211 15.520856 4.479179 20.000023 10.000013 20.000023 C 15.520846 20.000023 20.000013 15.520856 20.000013 10.000023 C 20.000013 4.479189 15.520846 0.0000218089 10.000013 0.0000218089 Z M 10.000013 0.0000218089 " stroke="#000000" stroke-width="4" stroke-opacity="1" stroke-miterlimit="4"/></g></g></svg>