<svg xmlns="http://www.w3.org/2000/svg" xmlns:xlink="http://www.w3.org/1999/xlink" width="600" zoomAndPan="magnify" viewBox="0 0 450 449.999984" height="600" preserveAspectRatio="xMidYMid meet" version="1.0"><defs><clipPath id="fdf4080250"><path d="M 120.5 95.261719 L 361.339844 95.261719 L 361.339844 336.101562 L 120.5 336.101562 Z M 120.5 95.261719 " clip-rule="nonzero"/></clipPath><clipPath id="4b109764b5"><path d="M 240.921875 95.261719 C 174.414062 95.261719 120.5 149.175781 120.5 215.683594 C 120.5 282.191406 174.414062 336.101562 240.921875 336.101562 C 307.425781 336.101562 361.339844 282.191406 361.339844 215.683594 C 361.339844 149.175781 307.425781 95.261719 240.921875 95.261719 Z M 240.921875 95.261719 " clip-rule="nonzero"/></clipPath><clipPath id="72efd1d0a6"><path d="M 0.5 0.261719 L 241.339844 0.261719 L 241.339844 241.101562 L 0.5 241.101562 Z M 0.5 0.261719 " clip-rule="nonzero"/></clipPath><clipPath id="b2c3efa15e"><path d="M 120.921875 0.261719 C 54.414062 0.261719 0.5 54.175781 0.5 120.683594 C 0.5 187.191406 54.414062 241.101562 120.921875 241.101562 C 187.425781 241.101562 241.339844 187.191406 241.339844 120.683594 C 241.339844 54.175781 187.425781 0.261719 120.921875 0.261719 Z M 120.921875 0.261719 " clip-rule="nonzero"/></clipPath><clipPath id="96f31a090b"><rect x="0" width="242" y="0" height="242"/></clipPath><clipPath id="97d0b9b409"><path d="M 120.5 95.261719 L 361.25 95.261719 L 361.25 336.011719 L 120.5 336.011719 Z M 120.5 95.261719 " clip-rule="nonzero"/></clipPath><clipPath id="3d566d0c29"><path d="M 240.917969 95.261719 C 174.414062 95.261719 120.5 149.175781 120.5 215.679688 C 120.5 282.183594 174.414062 336.09375 240.917969 336.09375 C 307.421875 336.09375 361.332031 282.183594 361.332031 215.679688 C 361.332031 149.175781 307.421875 95.261719 240.917969 95.261719 Z M 240.917969 95.261719 " clip-rule="nonzero"/></clipPath><clipPath id="bdbc2c5960"><path d="M 137 155 L 207 155 L 207 216 L 137 216 Z M 137 155 " clip-rule="nonzero"/></clipPath><clipPath id="635db708af"><path d="M 120.273438 185.679688 L 154.609375 126.210938 L 206.570312 156.210938 L 172.234375 215.679688 Z M 120.273438 185.679688 " clip-rule="nonzero"/></clipPath><clipPath id="644c41ecdd"><path d="M 137.417969 155.988281 L 206.523438 156.296875 L 172.234375 215.679688 Z M 137.417969 155.988281 " clip-rule="nonzero"/></clipPath><clipPath id="effb67a597"><path d="M 0.28125 0.761719 L 69.640625 0.761719 L 69.640625 60.761719 L 0.28125 60.761719 Z M 0.28125 0.761719 " clip-rule="nonzero"/></clipPath><clipPath id="ae5d40a48e"><path d="M -16.726562 30.679688 L 17.609375 -28.789062 L 69.570312 1.210938 L 35.234375 60.679688 Z M -16.726562 30.679688 " clip-rule="nonzero"/></clipPath><clipPath id="79f70931a9"><path d="M 0.417969 0.988281 L 69.523438 1.296875 L 35.234375 60.679688 Z M 0.417969 0.988281 " clip-rule="nonzero"/></clipPath><clipPath id="1edef14786"><rect x="0" width="70" y="0" height="61"/></clipPath><clipPath id="ed7b8ea212"><path d="M 137 155 L 207 155 L 207 216 L 137 216 Z M 137 155 " clip-rule="nonzero"/></clipPath><clipPath id="9cdf693e24"><path d="M 120.273438 185.679688 L 154.398438 126.574219 L 206.359375 156.574219 L 172.234375 215.679688 Z M 120.273438 185.679688 " clip-rule="nonzero"/></clipPath><clipPath id="16c7ac5710"><path d="M 120.277344 185.683594 L 154.558594 126.300781 L 206.515625 156.300781 L 172.234375 215.679688 Z M 120.277344 185.683594 " clip-rule="nonzero"/></clipPath><clipPath id="e2cc43e06c"><path d="M 137.417969 155.992188 L 206.515625 156.300781 L 172.234375 215.679688 Z M 137.417969 155.992188 " clip-rule="nonzero"/></clipPath><clipPath id="85dceaf241"><path d="M 206.523438 96.296875 L 275.195312 96.296875 L 275.195312 156.296875 L 206.523438 156.296875 Z M 206.523438 96.296875 " clip-rule="nonzero"/></clipPath><clipPath id="317fe31c27"><path d="M 240.808594 96.296875 L 275.09375 156.296875 L 206.523438 156.296875 Z M 240.808594 96.296875 " clip-rule="nonzero"/></clipPath><clipPath id="7aef3b573f"><path d="M 0.523438 0.296875 L 69.195312 0.296875 L 69.195312 60.296875 L 0.523438 60.296875 Z M 0.523438 0.296875 " clip-rule="nonzero"/></clipPath><clipPath id="2a8c1f4369"><path d="M 34.808594 0.296875 L 69.09375 60.296875 L 0.523438 60.296875 Z M 34.808594 0.296875 " clip-rule="nonzero"/></clipPath><clipPath id="56df7d43fb"><rect x="0" width="70" y="0" height="61"/></clipPath><clipPath id="18ba899cc8"><path d="M 206.523438 96.300781 L 274.773438 96.300781 L 274.773438 156.296875 L 206.523438 156.296875 Z M 206.523438 96.300781 " clip-rule="nonzero"/></clipPath><clipPath id="00d577cbd9"><path d="M 240.804688 96.300781 L 275.089844 156.296875 L 206.523438 156.296875 Z M 240.804688 96.300781 " clip-rule="nonzero"/></clipPath><clipPath id="fa81221f34"><path d="M 275 155 L 345 155 L 345 216 L 275 216 Z M 275 155 " clip-rule="nonzero"/></clipPath><clipPath id="01ded3c59a"><path d="M 327.054688 126.300781 L 361.390625 185.773438 L 309.429688 215.773438 L 275.09375 156.300781 Z M 327.054688 126.300781 " clip-rule="nonzero"/></clipPath><clipPath id="84e9e8ce0c"><path d="M 344.199219 155.992188 L 309.378906 215.683594 L 275.09375 156.300781 Z M 344.199219 155.992188 " clip-rule="nonzero"/></clipPath><clipPath id="1297ef660e"><path d="M 0.0390625 0.761719 L 69.398438 0.761719 L 69.398438 60.761719 L 0.0390625 60.761719 Z M 0.0390625 0.761719 " clip-rule="nonzero"/></clipPath><clipPath id="058d2314b9"><path d="M 52.054688 -28.699219 L 86.390625 30.773438 L 34.429688 60.773438 L 0.09375 1.300781 Z M 52.054688 -28.699219 " clip-rule="nonzero"/></clipPath><clipPath id="cc3d96680b"><path d="M 69.199219 0.992188 L 34.378906 60.683594 L 0.09375 1.300781 Z M 69.199219 0.992188 " clip-rule="nonzero"/></clipPath><clipPath id="952bef681e"><rect x="0" width="70" y="0" height="61"/></clipPath><clipPath id="6b6acff738"><path d="M 275 155 L 345 155 L 345 216 L 275 216 Z M 275 155 " clip-rule="nonzero"/></clipPath><clipPath id="5faa65ed95"><path d="M 327.054688 126.300781 L 361.179688 185.40625 L 309.21875 215.40625 L 275.09375 156.300781 Z M 327.054688 126.300781 " clip-rule="nonzero"/></clipPath><clipPath id="a9b5c79d4f"><path d="M 327.054688 126.300781 L 361.335938 185.683594 L 309.378906 215.679688 L 275.09375 156.300781 Z M 327.054688 126.300781 " clip-rule="nonzero"/></clipPath><clipPath id="31d3f29eaf"><path d="M 344.195312 155.992188 L 309.378906 215.679688 L 275.09375 156.300781 Z M 344.195312 155.992188 " clip-rule="nonzero"/></clipPath><clipPath id="2668fc997b"><path d="M 275 215 L 345 215 L 345 276 L 275 276 Z M 275 215 " clip-rule="nonzero"/></clipPath><clipPath id="84f3006da0"><path d="M 361.335938 245.683594 L 327 305.15625 L 275.039062 275.15625 L 309.375 215.683594 Z M 361.335938 245.683594 " clip-rule="nonzero"/></clipPath><clipPath id="7da731430a"><path d="M 344.195312 275.378906 L 275.089844 275.070312 L 309.375 215.683594 Z M 344.195312 275.378906 " clip-rule="nonzero"/></clipPath><clipPath id="a707f03de0"><path d="M 0.0390625 0.519531 L 69.398438 0.519531 L 69.398438 60.519531 L 0.0390625 60.519531 Z M 0.0390625 0.519531 " clip-rule="nonzero"/></clipPath><clipPath id="ac5eec16ff"><path d="M 86.335938 30.683594 L 52 90.15625 L 0.0390625 60.15625 L 34.375 0.683594 Z M 86.335938 30.683594 " clip-rule="nonzero"/></clipPath><clipPath id="62947a4f34"><path d="M 69.195312 60.378906 L 0.0898438 60.070312 L 34.375 0.683594 Z M 69.195312 60.378906 " clip-rule="nonzero"/></clipPath><clipPath id="b1774ce105"><rect x="0" width="70" y="0" height="61"/></clipPath><clipPath id="bdf4ea8278"><path d="M 275 215 L 345 215 L 345 276 L 275 276 Z M 275 215 " clip-rule="nonzero"/></clipPath><clipPath id="3416cfdcd5"><path d="M 361.335938 245.683594 L 327.210938 304.792969 L 275.25 274.792969 L 309.375 215.683594 Z M 361.335938 245.683594 " clip-rule="nonzero"/></clipPath><clipPath id="29e61fafbc"><path d="M 361.335938 245.683594 L 327.054688 305.066406 L 275.09375 275.066406 L 309.378906 215.6875 Z M 361.335938 245.683594 " clip-rule="nonzero"/></clipPath><clipPath id="c0b5fba1d6"><path d="M 344.195312 275.375 L 275.09375 275.066406 L 309.378906 215.6875 Z M 344.195312 275.375 " clip-rule="nonzero"/></clipPath><clipPath id="92aea3e3f9"><path d="M 206.417969 275.066406 L 275.089844 275.066406 L 275.089844 335.066406 L 206.417969 335.066406 Z M 206.417969 275.066406 " clip-rule="nonzero"/></clipPath><clipPath id="3907ed6d42"><path d="M 240.804688 335.066406 L 206.519531 275.066406 L 275.089844 275.066406 Z M 240.804688 335.066406 " clip-rule="nonzero"/></clipPath><clipPath id="8be70cc685"><path d="M 0.417969 0.0664062 L 69.089844 0.0664062 L 69.089844 60.066406 L 0.417969 60.066406 Z M 0.417969 0.0664062 " clip-rule="nonzero"/></clipPath><clipPath id="7f40d32506"><path d="M 34.804688 60.066406 L 0.519531 0.0664062 L 69.089844 0.0664062 Z M 34.804688 60.066406 " clip-rule="nonzero"/></clipPath><clipPath id="db126b69bd"><rect x="0" width="70" y="0" height="61"/></clipPath><clipPath id="ea134ac06a"><path d="M 206.839844 275.070312 L 275.089844 275.070312 L 275.089844 335.066406 L 206.839844 335.066406 Z M 206.839844 275.070312 " clip-rule="nonzero"/></clipPath><clipPath id="e4b9af95fd"><path d="M 240.804688 335.066406 L 206.523438 275.070312 L 275.089844 275.070312 Z M 240.804688 335.066406 " clip-rule="nonzero"/></clipPath><clipPath id="1b1d1c9876"><path d="M 137 215 L 207 215 L 207 276 L 137 276 Z M 137 215 " clip-rule="nonzero"/></clipPath><clipPath id="ade598b530"><path d="M 154.558594 305.066406 L 120.222656 245.59375 L 172.183594 215.59375 L 206.519531 275.066406 Z M 154.558594 305.066406 " clip-rule="nonzero"/></clipPath><clipPath id="204b9fd2e7"><path d="M 137.414062 275.375 L 172.234375 215.679688 L 206.519531 275.066406 Z M 137.414062 275.375 " clip-rule="nonzero"/></clipPath><clipPath id="cd6ea4bdfe"><path d="M 0.28125 0.519531 L 69.640625 0.519531 L 69.640625 60.519531 L 0.28125 60.519531 Z M 0.28125 0.519531 " clip-rule="nonzero"/></clipPath><clipPath id="1411d7325f"><path d="M 17.558594 90.066406 L -16.777344 30.59375 L 35.183594 0.59375 L 69.519531 60.066406 Z M 17.558594 90.066406 " clip-rule="nonzero"/></clipPath><clipPath id="cdf8539903"><path d="M 0.414062 60.375 L 35.234375 0.679688 L 69.519531 60.066406 Z M 0.414062 60.375 " clip-rule="nonzero"/></clipPath><clipPath id="02710b87e0"><rect x="0" width="70" y="0" height="61"/></clipPath><clipPath id="5f0856ec41"><path d="M 137 215 L 207 215 L 207 276 L 137 276 Z M 137 215 " clip-rule="nonzero"/></clipPath><clipPath id="3996c3c00c"><path d="M 154.558594 305.066406 L 120.433594 245.960938 L 172.394531 215.960938 L 206.519531 275.066406 Z M 154.558594 305.066406 " clip-rule="nonzero"/></clipPath><clipPath id="c6db041517"><path d="M 154.558594 305.066406 L 120.277344 245.683594 L 172.234375 215.6875 L 206.515625 275.066406 Z M 154.558594 305.066406 " clip-rule="nonzero"/></clipPath><clipPath id="076e6edf6a"><path d="M 137.417969 275.375 L 172.234375 215.6875 L 206.515625 275.066406 Z M 137.417969 275.375 " clip-rule="nonzero"/></clipPath><clipPath id="c89441d8da"><path d="M 353.839844 215.683594 L 368.839844 215.683594 L 368.839844 230.683594 L 353.839844 230.683594 Z M 353.839844 215.683594 " clip-rule="nonzero"/></clipPath><clipPath id="e4c664020e"><path d="M 361.339844 215.683594 C 357.199219 215.683594 353.839844 219.042969 353.839844 223.183594 C 353.839844 227.324219 357.199219 230.683594 361.339844 230.683594 C 365.484375 230.683594 368.839844 227.324219 368.839844 223.183594 C 368.839844 219.042969 365.484375 215.683594 361.339844 215.683594 Z M 361.339844 215.683594 " clip-rule="nonzero"/></clipPath><clipPath id="bac6f2103e"><path d="M 0.839844 0.683594 L 15.839844 0.683594 L 15.839844 15.683594 L 0.839844 15.683594 Z M 0.839844 0.683594 " clip-rule="nonzero"/></clipPath><clipPath id="8af00b9e56"><path d="M 8.339844 0.683594 C 4.199219 0.683594 0.839844 4.042969 0.839844 8.183594 C 0.839844 12.324219 4.199219 15.683594 8.339844 15.683594 C 12.484375 15.683594 15.839844 12.324219 15.839844 8.183594 C 15.839844 4.042969 12.484375 0.683594 8.339844 0.683594 Z M 8.339844 0.683594 " clip-rule="nonzero"/></clipPath><clipPath id="0cd1592dd1"><rect x="0" width="16" y="0" height="16"/></clipPath><clipPath id="a309e5569a"><path d="M 113 208.183594 L 128 208.183594 L 128 223.183594 L 113 223.183594 Z M 113 208.183594 " clip-rule="nonzero"/></clipPath><clipPath id="9e07571650"><path d="M 120.5 208.183594 C 116.359375 208.183594 113 211.542969 113 215.683594 C 113 219.824219 116.359375 223.183594 120.5 223.183594 C 124.644531 223.183594 128 219.824219 128 215.683594 C 128 211.542969 124.644531 208.183594 120.5 208.183594 Z M 120.5 208.183594 " clip-rule="nonzero"/></clipPath><clipPath id="faf1744cd2"><path d="M 0 0.183594 L 15 0.183594 L 15 15.183594 L 0 15.183594 Z M 0 0.183594 " clip-rule="nonzero"/></clipPath><clipPath id="9feb26ffa0"><path d="M 7.5 0.183594 C 3.359375 0.183594 0 3.542969 0 7.683594 C 0 11.824219 3.359375 15.183594 7.5 15.183594 C 11.644531 15.183594 15 11.824219 15 7.683594 C 15 3.542969 11.644531 0.183594 7.5 0.183594 Z M 7.5 0.183594 " clip-rule="nonzero"/></clipPath><clipPath id="649a0aac4b"><rect x="0" width="15" y="0" height="16"/></clipPath><clipPath id="0039652830"><path d="M 233.308594 208.183594 L 248.308594 208.183594 L 248.308594 223.183594 L 233.308594 223.183594 Z M 233.308594 208.183594 " clip-rule="nonzero"/></clipPath><clipPath id="861245650b"><path d="M 240.808594 208.183594 C 236.667969 208.183594 233.308594 211.542969 233.308594 215.683594 C 233.308594 219.824219 236.667969 223.183594 240.808594 223.183594 C 244.949219 223.183594 248.308594 219.824219 248.308594 215.683594 C 248.308594 211.542969 244.949219 208.183594 240.808594 208.183594 Z M 240.808594 208.183594 " clip-rule="nonzero"/></clipPath><clipPath id="8a9647a347"><path d="M 0.308594 0.183594 L 15.308594 0.183594 L 15.308594 15.183594 L 0.308594 15.183594 Z M 0.308594 0.183594 " clip-rule="nonzero"/></clipPath><clipPath id="5216eedfef"><path d="M 7.808594 0.183594 C 3.667969 0.183594 0.308594 3.542969 0.308594 7.683594 C 0.308594 11.824219 3.667969 15.183594 7.808594 15.183594 C 11.949219 15.183594 15.308594 11.824219 15.308594 7.683594 C 15.308594 3.542969 11.949219 0.183594 7.808594 0.183594 Z M 7.808594 0.183594 " clip-rule="nonzero"/></clipPath><clipPath id="6e2a056369"><rect x="0" width="16" y="0" height="16"/></clipPath></defs><g clip-path="url(#fdf4080250)"><g clip-path="url(#4b109764b5)"><g transform="matrix(1, 0, 0, 1, 120, 95)"><g clip-path="url(#96f31a090b)"><g clip-path="url(#72efd1d0a6)"><g clip-path="url(#b2c3efa15e)"><path fill="#ffffff" d="M 0.5 0.261719 L 241.339844 0.261719 L 241.339844 241.101562 L 0.5 241.101562 Z M 0.5 0.261719 " fill-opacity="1" fill-rule="nonzero"/></g></g></g></g></g></g><g clip-path="url(#97d0b9b409)"><g clip-path="url(#3d566d0c29)"><path stroke-linecap="butt" transform="matrix(0.75, 0, 0, 0.75, 120.501011, 95.262883)" fill="none" stroke-linejoin="miter" d="M 160.555956 -0.00155231 C 71.884075 -0.00155231 -0.00134769 71.88387 -0.00134769 160.555752 C -0.00134769 249.227634 71.884075 321.107848 160.555956 321.107848 C 249.227838 321.107848 321.108052 249.227634 321.108052 160.555752 C 321.108052 71.88387 249.227838 -0.00155231 160.555956 -0.00155231 Z M 160.555956 -0.00155231 " stroke="#000000" stroke-width="4" stroke-opacity="1" stroke-miterlimit="4"/></g></g><g clip-path="url(#bdbc2c5960)"><g clip-path="url(#635db708af)"><g clip-path="url(#644c41ecdd)"><g transform="matrix(1, 0, 0, 1, 137, 155)"><g clip-path="url(#1edef14786)"><g clip-path="url(#effb67a597)"><g clip-path="url(#ae5d40a48e)"><g clip-path="url(#79f70931a9)"><path fill="#ffffff" d="M -16.726562 30.679688 L 17.609375 -28.789062 L 69.570312 1.210938 L 35.234375 60.679688 Z M -16.726562 30.679688 " fill-opacity="1" fill-rule="nonzero"/></g></g></g></g></g></g></g></g><g clip-path="url(#ed7b8ea212)"><g clip-path="url(#9cdf693e24)"><g clip-path="url(#16c7ac5710)"><g clip-path="url(#e2cc43e06c)"><path stroke-linecap="butt" transform="matrix(0.375, -0.649519, 0.649519, 0.375, 120.276392, 185.682101)" fill="none" stroke-linejoin="miter" d="M 45.710681 0.000111334 L 91.419458 79.992949 L 0.000426605 79.99431 Z M 45.710681 0.000111334 " stroke="#000000" stroke-width="4" stroke-opacity="1" stroke-miterlimit="4"/></g></g></g></g><g clip-path="url(#85dceaf241)"><g clip-path="url(#317fe31c27)"><g transform="matrix(1, 0, 0, 1, 206, 96)"><g clip-path="url(#56df7d43fb)"><g clip-path="url(#7aef3b573f)"><g clip-path="url(#2a8c1f4369)"><path fill="#ffffff" d="M 0.523438 0.296875 L 69.195312 0.296875 L 69.195312 60.296875 L 0.523438 60.296875 Z M 0.523438 0.296875 " fill-opacity="1" fill-rule="nonzero"/></g></g></g></g></g></g><g clip-path="url(#18ba899cc8)"><g clip-path="url(#00d577cbd9)"><path stroke-linecap="butt" transform="matrix(0.75, -0.000000000000000093, 0.000000000000000093, 0.75, 206.52298, 96.300784)" fill="none" stroke-linejoin="miter" d="M 45.708947 -0.00000433232 L 91.422492 79.994794 L 0.000609915 79.994794 Z M 45.708947 -0.00000433232 " stroke="#000000" stroke-width="4" stroke-opacity="1" stroke-miterlimit="4"/></g></g><g clip-path="url(#fa81221f34)"><g clip-path="url(#01ded3c59a)"><g clip-path="url(#84e9e8ce0c)"><g transform="matrix(1, 0, 0, 1, 275, 155)"><g clip-path="url(#952bef681e)"><g clip-path="url(#1297ef660e)"><g clip-path="url(#058d2314b9)"><g clip-path="url(#cc3d96680b)"><path fill="#ffffff" d="M 52.054688 -28.699219 L 86.390625 30.773438 L 34.429688 60.773438 L 0.09375 1.300781 Z M 52.054688 -28.699219 " fill-opacity="1" fill-rule="nonzero"/></g></g></g></g></g></g></g></g><g clip-path="url(#6b6acff738)"><g clip-path="url(#5faa65ed95)"><g clip-path="url(#a9b5c79d4f)"><g clip-path="url(#31d3f29eaf)"><path stroke-linecap="butt" transform="matrix(0.375, 0.649519, -0.649519, 0.375, 327.052747, 126.30191)" fill="none" stroke-linejoin="miter" d="M 45.711761 -0.00101113 L 91.422016 79.993187 L 0.000380367 79.996337 Z M 45.711761 -0.00101113 " stroke="#000000" stroke-width="4" stroke-opacity="1" stroke-miterlimit="4"/></g></g></g></g><g clip-path="url(#2668fc997b)"><g clip-path="url(#84f3006da0)"><g clip-path="url(#7da731430a)"><g transform="matrix(1, 0, 0, 1, 275, 215)"><g clip-path="url(#b1774ce105)"><g clip-path="url(#a707f03de0)"><g clip-path="url(#ac5eec16ff)"><g clip-path="url(#62947a4f34)"><path fill="#ffffff" d="M 86.335938 30.683594 L 52 90.15625 L 0.0390625 60.15625 L 34.375 0.683594 Z M 86.335938 30.683594 " fill-opacity="1" fill-rule="nonzero"/></g></g></g></g></g></g></g></g><g clip-path="url(#bdf4ea8278)"><g clip-path="url(#3416cfdcd5)"><g clip-path="url(#29e61fafbc)"><g clip-path="url(#c0b5fba1d6)"><path stroke-linecap="butt" transform="matrix(-0.375, 0.649519, -0.649519, -0.375, 361.335947, 245.684352)" fill="none" stroke-linejoin="miter" d="M 45.710902 -0.0014658 L 91.422282 79.995882 L 0.000647187 79.992733 Z M 45.710902 -0.0014658 " stroke="#000000" stroke-width="4" stroke-opacity="1" stroke-miterlimit="4"/></g></g></g></g><g clip-path="url(#92aea3e3f9)"><g clip-path="url(#3907ed6d42)"><g transform="matrix(1, 0, 0, 1, 206, 275)"><g clip-path="url(#db126b69bd)"><g clip-path="url(#8be70cc685)"><g clip-path="url(#7f40d32506)"><path fill="#ffffff" d="M 69.089844 60.066406 L 0.417969 60.066406 L 0.417969 0.0664062 L 69.089844 0.0664062 Z M 69.089844 60.066406 " fill-opacity="1" fill-rule="nonzero"/></g></g></g></g></g></g><g clip-path="url(#ea134ac06a)"><g clip-path="url(#e4b9af95fd)"><path stroke-linecap="butt" transform="matrix(-0.75, 0, 0, -0.75, 275.089381, 335.065551)" fill="none" stroke-linejoin="miter" d="M 45.712928 -0.00114073 L 91.421265 79.993657 L -0.000616835 79.993657 Z M 45.712928 -0.00114073 " stroke="#000000" stroke-width="4" stroke-opacity="1" stroke-miterlimit="4"/></g></g><g clip-path="url(#1b1d1c9876)"><g clip-path="url(#ade598b530)"><g clip-path="url(#204b9fd2e7)"><g transform="matrix(1, 0, 0, 1, 137, 215)"><g clip-path="url(#02710b87e0)"><g clip-path="url(#cd6ea4bdfe)"><g clip-path="url(#1411d7325f)"><g clip-path="url(#cdf8539903)"><path fill="#ffffff" d="M 17.558594 90.066406 L -16.777344 30.59375 L 35.183594 0.59375 L 69.519531 60.066406 Z M 17.558594 90.066406 " fill-opacity="1" fill-rule="nonzero"/></g></g></g></g></g></g></g></g><g clip-path="url(#5f0856ec41)"><g clip-path="url(#3996c3c00c)"><g clip-path="url(#c6db041517)"><g clip-path="url(#076e6edf6a)"><path stroke-linecap="butt" transform="matrix(-0.375, -0.649519, 0.649519, -0.375, 154.559586, 305.064526)" fill="none" stroke-linejoin="miter" d="M 45.710261 -0.000416473 L 91.420515 79.993782 L 0.0014842 79.992421 Z M 45.710261 -0.000416473 " stroke="#000000" stroke-width="4" stroke-opacity="1" stroke-miterlimit="4"/></g></g></g></g><g clip-path="url(#c89441d8da)"><g clip-path="url(#e4c664020e)"><g transform="matrix(1, 0, 0, 1, 353, 215)"><g clip-path="url(#0cd1592dd1)"><g clip-path="url(#bac6f2103e)"><g clip-path="url(#8af00b9e56)"><path fill="#2d4d31" d="M 0.839844 0.683594 L 15.839844 0.683594 L 15.839844 15.683594 L 0.839844 15.683594 Z M 0.839844 0.683594 " fill-opacity="1" fill-rule="nonzero"/></g></g></g></g><path stroke-linecap="butt" transform="matrix(0.75, 0, 0, 0.75, 353.841631, 215.683226)" fill="none" stroke-linejoin="miter" d="M 9.997618 0.000489799 C 4.476784 0.000489799 -0.00238299 4.479657 -0.00238299 10.000491 C -0.00238299 15.521324 4.476784 20.000491 9.997618 20.000491 C 15.52366 20.000491 19.997619 15.521324 19.997619 10.000491 C 19.997619 4.479657 15.52366 0.000489799 9.997618 0.000489799 Z M 9.997618 0.000489799 " stroke="#000000" stroke-width="4" stroke-opacity="1" stroke-miterlimit="4"/></g></g><g clip-path="url(#a309e5569a)"><g clip-path="url(#9e07571650)"><g transform="matrix(1, 0, 0, 1, 113, 208)"><g clip-path="url(#649a0aac4b)"><g clip-path="url(#faf1744cd2)"><g clip-path="url(#9feb26ffa0)"><path fill="#2d4d31" d="M 0 0.183594 L 15 0.183594 L 15 15.183594 L 0 15.183594 Z M 0 0.183594 " fill-opacity="1" fill-rule="nonzero"/></g></g></g></g><path stroke-linecap="butt" transform="matrix(0.75, 0, 0, 0.75, 113.001011, 208.183227)" fill="none" stroke-linejoin="miter" d="M 9.998652 0.00048902 C 4.477819 0.00048902 -0.00134846 4.479656 -0.00134846 10.00049 C -0.00134846 15.521324 4.477819 20.000491 9.998652 20.000491 C 15.524694 20.000491 19.998653 15.521324 19.998653 10.00049 C 19.998653 4.479656 15.524694 0.00048902 9.998652 0.00048902 Z M 9.998652 0.00048902 " stroke="#000000" stroke-width="4" stroke-opacity="1" stroke-miterlimit="4"/></g></g><g clip-path="url(#0039652830)"><g clip-path="url(#861245650b)"><g transform="matrix(1, 0, 0, 1, 233, 208)"><g clip-path="url(#6e2a056369)"><g clip-path="url(#8a9647a347)"><g clip-path="url(#5216eedfef)"><path fill="#2d4d31" d="M 0.308594 0.183594 L 15.308594 0.183594 L 15.308594 15.183594 L 0.308594 15.183594 Z M 0.308594 0.183594 " fill-opacity="1" fill-rule="nonzero"/></g></g></g></g><path stroke-linecap="butt" transform="matrix(0.75, 0, 0, 0.75, 233.308672, 208.183227)" fill="none" stroke-linejoin="miter" d="M 9.999896 0.00048902 C 4.479062 0.00048902 -0.000104837 4.479656 -0.000104837 10.00049 C -0.000104837 15.521324 4.479062 20.000491 9.999896 20.000491 C 15.52073 20.000491 19.999897 15.521324 19.999897 10.00049 C 19.999897 4.479656 15.52073 0.00048902 9.999896 0.00048902 Z M 9.999896 0.00048902 " stroke="#000000" stroke-width="4" stroke-opacity="1" stroke-miterlimit="4"/></g></g></svg>