<svg xmlns="http://www.w3.org/2000/svg" xmlns:xlink="http://www.w3.org/1999/xlink" width="600" zoomAndPan="magnify" viewBox="0 0 450 449.999984" height="600" preserveAspectRatio="xMidYMid meet" version="1.0"><defs><clipPath id="d8292992b2"><path d="M 120.5 95.261719 L 361.339844 95.261719 L 361.339844 336.105469 L 120.5 336.105469 Z M 120.5 95.261719 " clip-rule="nonzero"/></clipPath><clipPath id="2690db5011"><path d="M 240.921875 95.261719 C 174.414062 95.261719 120.5 149.175781 120.5 215.683594 C 120.5 282.191406 174.414062 336.105469 240.921875 336.105469 C 307.425781 336.105469 361.339844 282.191406 361.339844 215.683594 C 361.339844 149.175781 307.425781 95.261719 240.921875 95.261719 Z M 240.921875 95.261719 " clip-rule="nonzero"/></clipPath><clipPath id="76a22a1e90"><path d="M 0.5 0.261719 L 241.339844 0.261719 L 241.339844 241.105469 L 0.5 241.105469 Z M 0.5 0.261719 " clip-rule="nonzero"/></clipPath><clipPath id="66c10830e7"><path d="M 120.921875 0.261719 C 54.414062 0.261719 0.5 54.175781 0.5 120.683594 C 0.5 187.191406 54.414062 241.105469 120.921875 241.105469 C 187.425781 241.105469 241.339844 187.191406 241.339844 120.683594 C 241.339844 54.175781 187.425781 0.261719 120.921875 0.261719 Z M 120.921875 0.261719 " clip-rule="nonzero"/></clipPath><clipPath id="a719989a60"><rect x="0" width="242" y="0" height="242"/></clipPath><clipPath id="ce9458fbdc"><path d="M 120.5 95.261719 L 361.25 95.261719 L 361.25 336.011719 L 120.5 336.011719 Z M 120.5 95.261719 " clip-rule="nonzero"/></clipPath><clipPath id="0cc294bbcb"><path d="M 240.917969 95.261719 C 174.414062 95.261719 120.5 149.175781 120.5 215.679688 C 120.5 282.183594 174.414062 336.09375 240.917969 336.09375 C 307.421875 336.09375 361.332031 282.183594 361.332031 215.679688 C 361.332031 149.175781 307.421875 95.261719 240.917969 95.261719 Z M 240.917969 95.261719 " clip-rule="nonzero"/></clipPath><clipPath id="a583a63959"><path d="M 137 155 L 207 155 L 207 216 L 137 216 Z M 137 155 " clip-rule="nonzero"/></clipPath><clipPath id="8cb2feb330"><path d="M 120.273438 185.679688 L 154.609375 126.210938 L 206.570312 156.210938 L 172.234375 215.679688 Z M 120.273438 185.679688 " clip-rule="nonzero"/></clipPath><clipPath id="bbf4d6a6ed"><path d="M 137.417969 155.988281 L 206.523438 156.296875 L 172.234375 215.679688 Z M 137.417969 155.988281 " clip-rule="nonzero"/></clipPath><clipPath id="a85ecb47d4"><path d="M 0.28125 0.761719 L 69.640625 0.761719 L 69.640625 60.761719 L 0.28125 60.761719 Z M 0.28125 0.761719 " clip-rule="nonzero"/></clipPath><clipPath id="2eeb395d70"><path d="M -16.726562 30.679688 L 17.609375 -28.789062 L 69.570312 1.210938 L 35.234375 60.679688 Z M -16.726562 30.679688 " clip-rule="nonzero"/></clipPath><clipPath id="866a6aea59"><path d="M 0.417969 0.988281 L 69.523438 1.296875 L 35.234375 60.679688 Z M 0.417969 0.988281 " clip-rule="nonzero"/></clipPath><clipPath id="9b9877f2cb"><rect x="0" width="70" y="0" height="61"/></clipPath><clipPath id="a4bf685536"><path d="M 137 155 L 207 155 L 207 216 L 137 216 Z M 137 155 " clip-rule="nonzero"/></clipPath><clipPath id="9ec448f904"><path d="M 120.273438 185.679688 L 154.398438 126.574219 L 206.359375 156.574219 L 172.234375 215.679688 Z M 120.273438 185.679688 " clip-rule="nonzero"/></clipPath><clipPath id="7d59d97239"><path d="M 120.277344 185.683594 L 154.558594 126.300781 L 206.515625 156.300781 L 172.234375 215.679688 Z M 120.277344 185.683594 " clip-rule="nonzero"/></clipPath><clipPath id="4a9eb3e0c6"><path d="M 137.417969 155.992188 L 206.515625 156.300781 L 172.234375 215.679688 Z M 137.417969 155.992188 " clip-rule="nonzero"/></clipPath><clipPath id="90dffc3306"><path d="M 206.523438 96.296875 L 275.195312 96.296875 L 275.195312 156.296875 L 206.523438 156.296875 Z M 206.523438 96.296875 " clip-rule="nonzero"/></clipPath><clipPath id="c9d3506374"><path d="M 240.808594 96.296875 L 275.09375 156.296875 L 206.523438 156.296875 Z M 240.808594 96.296875 " clip-rule="nonzero"/></clipPath><clipPath id="dec7753abf"><path d="M 0.523438 0.296875 L 69.195312 0.296875 L 69.195312 60.296875 L 0.523438 60.296875 Z M 0.523438 0.296875 " clip-rule="nonzero"/></clipPath><clipPath id="98c54c6bb6"><path d="M 34.808594 0.296875 L 69.09375 60.296875 L 0.523438 60.296875 Z M 34.808594 0.296875 " clip-rule="nonzero"/></clipPath><clipPath id="087b24f882"><rect x="0" width="70" y="0" height="61"/></clipPath><clipPath id="943bcf1a16"><path d="M 206.523438 96.300781 L 274.773438 96.300781 L 274.773438 156.296875 L 206.523438 156.296875 Z M 206.523438 96.300781 " clip-rule="nonzero"/></clipPath><clipPath id="9eca15bd96"><path d="M 240.804688 96.300781 L 275.089844 156.296875 L 206.523438 156.296875 Z M 240.804688 96.300781 " clip-rule="nonzero"/></clipPath><clipPath id="b62b1d75bc"><path d="M 275 155 L 345 155 L 345 216 L 275 216 Z M 275 155 " clip-rule="nonzero"/></clipPath><clipPath id="2a961956a0"><path d="M 327.054688 126.300781 L 361.390625 185.773438 L 309.429688 215.773438 L 275.09375 156.300781 Z M 327.054688 126.300781 " clip-rule="nonzero"/></clipPath><clipPath id="c0a070dd42"><path d="M 344.199219 155.992188 L 309.378906 215.683594 L 275.09375 156.300781 Z M 344.199219 155.992188 " clip-rule="nonzero"/></clipPath><clipPath id="e13cf51d2b"><path d="M 0.0390625 0.761719 L 69.398438 0.761719 L 69.398438 60.761719 L 0.0390625 60.761719 Z M 0.0390625 0.761719 " clip-rule="nonzero"/></clipPath><clipPath id="0c6bc42de7"><path d="M 52.054688 -28.699219 L 86.390625 30.773438 L 34.429688 60.773438 L 0.09375 1.300781 Z M 52.054688 -28.699219 " clip-rule="nonzero"/></clipPath><clipPath id="63d8b1e72a"><path d="M 69.199219 0.992188 L 34.378906 60.683594 L 0.09375 1.300781 Z M 69.199219 0.992188 " clip-rule="nonzero"/></clipPath><clipPath id="830ecc3e39"><rect x="0" width="70" y="0" height="61"/></clipPath><clipPath id="0994a9ca6e"><path d="M 275 155 L 345 155 L 345 216 L 275 216 Z M 275 155 " clip-rule="nonzero"/></clipPath><clipPath id="9f0467f617"><path d="M 327.054688 126.300781 L 361.179688 185.40625 L 309.21875 215.40625 L 275.09375 156.300781 Z M 327.054688 126.300781 " clip-rule="nonzero"/></clipPath><clipPath id="cb4980367f"><path d="M 327.054688 126.300781 L 361.335938 185.683594 L 309.378906 215.679688 L 275.09375 156.300781 Z M 327.054688 126.300781 " clip-rule="nonzero"/></clipPath><clipPath id="24e5988dbe"><path d="M 344.195312 155.992188 L 309.378906 215.679688 L 275.09375 156.300781 Z M 344.195312 155.992188 " clip-rule="nonzero"/></clipPath><clipPath id="ae03b69627"><path d="M 275 215 L 345 215 L 345 276 L 275 276 Z M 275 215 " clip-rule="nonzero"/></clipPath><clipPath id="d53e5c6377"><path d="M 361.335938 245.683594 L 327 305.15625 L 275.039062 275.15625 L 309.375 215.683594 Z M 361.335938 245.683594 " clip-rule="nonzero"/></clipPath><clipPath id="274ffff0c4"><path d="M 344.195312 275.378906 L 275.089844 275.070312 L 309.375 215.683594 Z M 344.195312 275.378906 " clip-rule="nonzero"/></clipPath><clipPath id="9f4f1308fd"><path d="M 0.0390625 0.519531 L 69.398438 0.519531 L 69.398438 60.519531 L 0.0390625 60.519531 Z M 0.0390625 0.519531 " clip-rule="nonzero"/></clipPath><clipPath id="c822981c3a"><path d="M 86.335938 30.683594 L 52 90.15625 L 0.0390625 60.15625 L 34.375 0.683594 Z M 86.335938 30.683594 " clip-rule="nonzero"/></clipPath><clipPath id="35787cf6c9"><path d="M 69.195312 60.378906 L 0.0898438 60.070312 L 34.375 0.683594 Z M 69.195312 60.378906 " clip-rule="nonzero"/></clipPath><clipPath id="d6e28c5acd"><rect x="0" width="70" y="0" height="61"/></clipPath><clipPath id="fb6a70d4a3"><path d="M 275 215 L 345 215 L 345 276 L 275 276 Z M 275 215 " clip-rule="nonzero"/></clipPath><clipPath id="dd6829444d"><path d="M 361.335938 245.683594 L 327.210938 304.792969 L 275.25 274.792969 L 309.375 215.683594 Z M 361.335938 245.683594 " clip-rule="nonzero"/></clipPath><clipPath id="1e735bb391"><path d="M 361.335938 245.683594 L 327.054688 305.066406 L 275.09375 275.066406 L 309.378906 215.6875 Z M 361.335938 245.683594 " clip-rule="nonzero"/></clipPath><clipPath id="a670a35aa5"><path d="M 344.195312 275.375 L 275.09375 275.066406 L 309.378906 215.6875 Z M 344.195312 275.375 " clip-rule="nonzero"/></clipPath><clipPath id="b2135de0ed"><path d="M 206.417969 275.066406 L 275.089844 275.066406 L 275.089844 335.066406 L 206.417969 335.066406 Z M 206.417969 275.066406 " clip-rule="nonzero"/></clipPath><clipPath id="7209506869"><path d="M 240.804688 335.066406 L 206.519531 275.066406 L 275.089844 275.066406 Z M 240.804688 335.066406 " clip-rule="nonzero"/></clipPath><clipPath id="576f1e9064"><path d="M 0.417969 0.0664062 L 69.089844 0.0664062 L 69.089844 60.066406 L 0.417969 60.066406 Z M 0.417969 0.0664062 " clip-rule="nonzero"/></clipPath><clipPath id="f9a69a4190"><path d="M 34.804688 60.066406 L 0.519531 0.0664062 L 69.089844 0.0664062 Z M 34.804688 60.066406 " clip-rule="nonzero"/></clipPath><clipPath id="468b9f0695"><rect x="0" width="70" y="0" height="61"/></clipPath><clipPath id="af36d25406"><path d="M 206.839844 275.070312 L 275.089844 275.070312 L 275.089844 335.066406 L 206.839844 335.066406 Z M 206.839844 275.070312 " clip-rule="nonzero"/></clipPath><clipPath id="02f867873b"><path d="M 240.804688 335.066406 L 206.523438 275.070312 L 275.089844 275.070312 Z M 240.804688 335.066406 " clip-rule="nonzero"/></clipPath><clipPath id="14528bba4b"><path d="M 137 215 L 207 215 L 207 276 L 137 276 Z M 137 215 " clip-rule="nonzero"/></clipPath><clipPath id="d5434b0f73"><path d="M 154.558594 305.066406 L 120.222656 245.59375 L 172.183594 215.59375 L 206.519531 275.066406 Z M 154.558594 305.066406 " clip-rule="nonzero"/></clipPath><clipPath id="ffe8d6f666"><path d="M 137.414062 275.375 L 172.234375 215.679688 L 206.519531 275.066406 Z M 137.414062 275.375 " clip-rule="nonzero"/></clipPath><clipPath id="753f735fcd"><path d="M 0.28125 0.519531 L 69.640625 0.519531 L 69.640625 60.519531 L 0.28125 60.519531 Z M 0.28125 0.519531 " clip-rule="nonzero"/></clipPath><clipPath id="f0d43b43b7"><path d="M 17.558594 90.066406 L -16.777344 30.59375 L 35.183594 0.59375 L 69.519531 60.066406 Z M 17.558594 90.066406 " clip-rule="nonzero"/></clipPath><clipPath id="3129c3817f"><path d="M 0.414062 60.375 L 35.234375 0.679688 L 69.519531 60.066406 Z M 0.414062 60.375 " clip-rule="nonzero"/></clipPath><clipPath id="ef37df901c"><rect x="0" width="70" y="0" height="61"/></clipPath><clipPath id="546bd3dc34"><path d="M 137 215 L 207 215 L 207 276 L 137 276 Z M 137 215 " clip-rule="nonzero"/></clipPath><clipPath id="6feaceda56"><path d="M 154.558594 305.066406 L 120.433594 245.960938 L 172.394531 215.960938 L 206.519531 275.066406 Z M 154.558594 305.066406 " clip-rule="nonzero"/></clipPath><clipPath id="51fcee78ca"><path d="M 154.558594 305.0625 L 120.277344 245.683594 L 172.234375 215.6875 L 206.515625 275.066406 Z M 154.558594 305.0625 " clip-rule="nonzero"/></clipPath><clipPath id="a0726c30c6"><path d="M 137.417969 275.375 L 172.234375 215.6875 L 206.515625 275.066406 Z M 137.417969 275.375 " clip-rule="nonzero"/></clipPath><clipPath id="981af6c1a2"><path d="M 353.839844 215.683594 L 368.839844 215.683594 L 368.839844 230.683594 L 353.839844 230.683594 Z M 353.839844 215.683594 " clip-rule="nonzero"/></clipPath><clipPath id="b3da620b6f"><path d="M 361.339844 215.683594 C 357.199219 215.683594 353.839844 219.039062 353.839844 223.183594 C 353.839844 227.324219 357.199219 230.683594 361.339844 230.683594 C 365.484375 230.683594 368.839844 227.324219 368.839844 223.183594 C 368.839844 219.039062 365.484375 215.683594 361.339844 215.683594 Z M 361.339844 215.683594 " clip-rule="nonzero"/></clipPath><clipPath id="9407bca9f9"><path d="M 0.839844 0.683594 L 15.839844 0.683594 L 15.839844 15.683594 L 0.839844 15.683594 Z M 0.839844 0.683594 " clip-rule="nonzero"/></clipPath><clipPath id="16a57edd0f"><path d="M 8.339844 0.683594 C 4.199219 0.683594 0.839844 4.039062 0.839844 8.183594 C 0.839844 12.324219 4.199219 15.683594 8.339844 15.683594 C 12.484375 15.683594 15.839844 12.324219 15.839844 8.183594 C 15.839844 4.039062 12.484375 0.683594 8.339844 0.683594 Z M 8.339844 0.683594 " clip-rule="nonzero"/></clipPath><clipPath id="1bdf624407"><rect x="0" width="16" y="0" height="16"/></clipPath><clipPath id="9b5097c170"><path d="M 113 208.183594 L 128 208.183594 L 128 223.183594 L 113 223.183594 Z M 113 208.183594 " clip-rule="nonzero"/></clipPath><clipPath id="d3ff7c5547"><path d="M 120.5 208.183594 C 116.359375 208.183594 113 211.539062 113 215.683594 C 113 219.824219 116.359375 223.183594 120.5 223.183594 C 124.644531 223.183594 128 219.824219 128 215.683594 C 128 211.539062 124.644531 208.183594 120.5 208.183594 Z M 120.5 208.183594 " clip-rule="nonzero"/></clipPath><clipPath id="f0c7401d17"><path d="M 0 0.183594 L 15 0.183594 L 15 15.183594 L 0 15.183594 Z M 0 0.183594 " clip-rule="nonzero"/></clipPath><clipPath id="c325151496"><path d="M 7.5 0.183594 C 3.359375 0.183594 0 3.539062 0 7.683594 C 0 11.824219 3.359375 15.183594 7.5 15.183594 C 11.644531 15.183594 15 11.824219 15 7.683594 C 15 3.539062 11.644531 0.183594 7.5 0.183594 Z M 7.5 0.183594 " clip-rule="nonzero"/></clipPath><clipPath id="2114c55da0"><rect x="0" width="15" y="0" height="16"/></clipPath><clipPath id="0c0854c838"><path d="M 233.308594 208.183594 L 248.308594 208.183594 L 248.308594 223.183594 L 233.308594 223.183594 Z M 233.308594 208.183594 " clip-rule="nonzero"/></clipPath><clipPath id="44ecd48785"><path d="M 240.808594 208.183594 C 236.667969 208.183594 233.308594 211.539062 233.308594 215.683594 C 233.308594 219.824219 236.667969 223.183594 240.808594 223.183594 C 244.949219 223.183594 248.308594 219.824219 248.308594 215.683594 C 248.308594 211.539062 244.949219 208.183594 240.808594 208.183594 Z M 240.808594 208.183594 " clip-rule="nonzero"/></clipPath><clipPath id="6bdeef6292"><path d="M 0.308594 0.183594 L 15.308594 0.183594 L 15.308594 15.183594 L 0.308594 15.183594 Z M 0.308594 0.183594 " clip-rule="nonzero"/></clipPath><clipPath id="0985e475e3"><path d="M 7.808594 0.183594 C 3.667969 0.183594 0.308594 3.539062 0.308594 7.683594 C 0.308594 11.824219 3.667969 15.183594 7.808594 15.183594 C 11.949219 15.183594 15.308594 11.824219 15.308594 7.683594 C 15.308594 3.539062 11.949219 0.183594 7.808594 0.183594 Z M 7.808594 0.183594 " clip-rule="nonzero"/></clipPath><clipPath id="a769d6f530"><rect x="0" width="16" y="0" height="16"/></clipPath></defs><g clip-path="url(#d8292992b2)"><g clip-path="url(#2690db5011)"><g transform="matrix(1, 0, 0, 1, 120, 95)"><g clip-path="url(#a719989a60)"><g clip-path="url(#76a22a1e90)"><g clip-path="url(#66c10830e7)"><path fill="#ffffff" d="M 0.5 0.261719 L 241.339844 0.261719 L 241.339844 241.105469 L 0.5 241.105469 Z M 0.5 0.261719 " fill-opacity="1" fill-rule="nonzero"/></g></g></g></g></g></g><g clip-path="url(#ce9458fbdc)"><g clip-path="url(#0cc294bbcb)"><path stroke-linecap="butt" transform="matrix(0.75, 0, 0, 0.75, 120.501011, 95.263001)" fill="none" stroke-linejoin="miter" d="M 160.555956 -0.00170911 C 71.884075 -0.00170911 -0.00134769 71.883713 -0.00134769 160.555595 C -0.00134769 249.227477 71.884075 321.107691 160.555956 321.107691 C 249.227838 321.107691 321.108052 249.227477 321.108052 160.555595 C 321.108052 71.883713 249.227838 -0.00170911 160.555956 -0.00170911 Z M 160.555956 -0.00170911 " stroke="#000000" stroke-width="4" stroke-opacity="1" stroke-miterlimit="4"/></g></g><g clip-path="url(#a583a63959)"><g clip-path="url(#8cb2feb330)"><g clip-path="url(#bbf4d6a6ed)"><g transform="matrix(1, 0, 0, 1, 137, 155)"><g clip-path="url(#9b9877f2cb)"><g clip-path="url(#a85ecb47d4)"><g clip-path="url(#2eeb395d70)"><g clip-path="url(#866a6aea59)"><path fill="#ffffff" d="M -16.726562 30.679688 L 17.609375 -28.789062 L 69.570312 1.210938 L 35.234375 60.679688 Z M -16.726562 30.679688 " fill-opacity="1" fill-rule="nonzero"/></g></g></g></g></g></g></g></g><g clip-path="url(#a4bf685536)"><g clip-path="url(#9ec448f904)"><g clip-path="url(#7d59d97239)"><g clip-path="url(#4a9eb3e0c6)"><path stroke-linecap="butt" transform="matrix(0.375, -0.649519, 0.649519, 0.375, 120.276392, 185.682101)" fill="none" stroke-linejoin="miter" d="M 45.710681 0.000111334 L 91.419458 79.992949 L 0.000426605 79.99431 Z M 45.710681 0.000111334 " stroke="#000000" stroke-width="4" stroke-opacity="1" stroke-miterlimit="4"/></g></g></g></g><g clip-path="url(#90dffc3306)"><g clip-path="url(#c9d3506374)"><g transform="matrix(1, 0, 0, 1, 206, 96)"><g clip-path="url(#087b24f882)"><g clip-path="url(#dec7753abf)"><g clip-path="url(#98c54c6bb6)"><path fill="#ffffff" d="M 0.523438 0.296875 L 69.195312 0.296875 L 69.195312 60.296875 L 0.523438 60.296875 Z M 0.523438 0.296875 " fill-opacity="1" fill-rule="nonzero"/></g></g></g></g></g></g><g clip-path="url(#943bcf1a16)"><g clip-path="url(#9eca15bd96)"><path stroke-linecap="butt" transform="matrix(0.75, -0.000000000000000093, 0.000000000000000093, 0.75, 206.52298, 96.300784)" fill="none" stroke-linejoin="miter" d="M 45.708947 -0.00000433232 L 91.422492 79.994794 L 0.000609915 79.994794 Z M 45.708947 -0.00000433232 " stroke="#000000" stroke-width="4" stroke-opacity="1" stroke-miterlimit="4"/></g></g><g clip-path="url(#b62b1d75bc)"><g clip-path="url(#2a961956a0)"><g clip-path="url(#c0a070dd42)"><g transform="matrix(1, 0, 0, 1, 275, 155)"><g clip-path="url(#830ecc3e39)"><g clip-path="url(#e13cf51d2b)"><g clip-path="url(#0c6bc42de7)"><g clip-path="url(#63d8b1e72a)"><path fill="#ffffff" d="M 52.054688 -28.699219 L 86.390625 30.773438 L 34.429688 60.773438 L 0.09375 1.300781 Z M 52.054688 -28.699219 " fill-opacity="1" fill-rule="nonzero"/></g></g></g></g></g></g></g></g><g clip-path="url(#0994a9ca6e)"><g clip-path="url(#9f0467f617)"><g clip-path="url(#cb4980367f)"><g clip-path="url(#24e5988dbe)"><path stroke-linecap="butt" transform="matrix(0.375, 0.649519, -0.649519, 0.375, 327.052747, 126.30191)" fill="none" stroke-linejoin="miter" d="M 45.711761 -0.00101113 L 91.422016 79.993187 L 0.000380367 79.996337 Z M 45.711761 -0.00101113 " stroke="#000000" stroke-width="4" stroke-opacity="1" stroke-miterlimit="4"/></g></g></g></g><g clip-path="url(#ae03b69627)"><g clip-path="url(#d53e5c6377)"><g clip-path="url(#274ffff0c4)"><g transform="matrix(1, 0, 0, 1, 275, 215)"><g clip-path="url(#d6e28c5acd)"><g clip-path="url(#9f4f1308fd)"><g clip-path="url(#c822981c3a)"><g clip-path="url(#35787cf6c9)"><path fill="#ffffff" d="M 86.335938 30.683594 L 52 90.15625 L 0.0390625 60.15625 L 34.375 0.683594 Z M 86.335938 30.683594 " fill-opacity="1" fill-rule="nonzero"/></g></g></g></g></g></g></g></g><g clip-path="url(#fb6a70d4a3)"><g clip-path="url(#dd6829444d)"><g clip-path="url(#1e735bb391)"><g clip-path="url(#a670a35aa5)"><path stroke-linecap="butt" transform="matrix(-0.375, 0.649519, -0.649519, -0.375, 361.335947, 245.684352)" fill="none" stroke-linejoin="miter" d="M 45.710902 -0.0014658 L 91.422282 79.995882 L 0.000647187 79.992733 Z M 45.710902 -0.0014658 " stroke="#000000" stroke-width="4" stroke-opacity="1" stroke-miterlimit="4"/></g></g></g></g><g clip-path="url(#b2135de0ed)"><g clip-path="url(#7209506869)"><g transform="matrix(1, 0, 0, 1, 206, 275)"><g clip-path="url(#468b9f0695)"><g clip-path="url(#576f1e9064)"><g clip-path="url(#f9a69a4190)"><path fill="#ffffff" d="M 69.089844 60.066406 L 0.417969 60.066406 L 0.417969 0.0664062 L 69.089844 0.0664062 Z M 69.089844 60.066406 " fill-opacity="1" fill-rule="nonzero"/></g></g></g></g></g></g><g clip-path="url(#af36d25406)"><g clip-path="url(#02f867873b)"><path stroke-linecap="butt" transform="matrix(-0.75, 0, 0, -0.75, 275.089381, 335.065668)" fill="none" stroke-linejoin="miter" d="M 45.712928 -0.000983931 L 91.421265 79.993814 L -0.000616835 79.993814 Z M 45.712928 -0.000983931 " stroke="#000000" stroke-width="4" stroke-opacity="1" stroke-miterlimit="4"/></g></g><g clip-path="url(#14528bba4b)"><g clip-path="url(#d5434b0f73)"><g clip-path="url(#ffe8d6f666)"><g transform="matrix(1, 0, 0, 1, 137, 215)"><g clip-path="url(#ef37df901c)"><g clip-path="url(#753f735fcd)"><g clip-path="url(#f0d43b43b7)"><g clip-path="url(#3129c3817f)"><path fill="#ffffff" d="M 17.558594 90.066406 L -16.777344 30.59375 L 35.183594 0.59375 L 69.519531 60.066406 Z M 17.558594 90.066406 " fill-opacity="1" fill-rule="nonzero"/></g></g></g></g></g></g></g></g><g clip-path="url(#546bd3dc34)"><g clip-path="url(#6feaceda56)"><g clip-path="url(#51fcee78ca)"><g clip-path="url(#a0726c30c6)"><path stroke-linecap="butt" transform="matrix(-0.375, -0.649519, 0.649519, -0.375, 154.559586, 305.064411)" fill="none" stroke-linejoin="miter" d="M 45.710128 -0.000493273 L 91.420382 79.993705 L 0.00135118 79.992344 Z M 45.710128 -0.000493273 " stroke="#000000" stroke-width="4" stroke-opacity="1" stroke-miterlimit="4"/></g></g></g></g><g clip-path="url(#981af6c1a2)"><g clip-path="url(#b3da620b6f)"><g transform="matrix(1, 0, 0, 1, 353, 215)"><g clip-path="url(#1bdf624407)"><g clip-path="url(#9407bca9f9)"><g clip-path="url(#16a57edd0f)"><path fill="#2d4d31" d="M 0.839844 0.683594 L 15.839844 0.683594 L 15.839844 15.683594 L 0.839844 15.683594 Z M 0.839844 0.683594 " fill-opacity="1" fill-rule="nonzero"/></g></g></g></g><path stroke-linecap="butt" transform="matrix(0.75, 0, 0, 0.75, 353.841631, 215.683109)" fill="none" stroke-linejoin="miter" d="M 9.997618 0.000646599 C 4.476784 0.000646599 -0.00238299 4.474605 -0.00238299 10.000647 C -0.00238299 15.521481 4.476784 20.000648 9.997618 20.000648 C 15.52366 20.000648 19.997619 15.521481 19.997619 10.000647 C 19.997619 4.474605 15.52366 0.000646599 9.997618 0.000646599 Z M 9.997618 0.000646599 " stroke="#000000" stroke-width="4" stroke-opacity="1" stroke-miterlimit="4"/></g></g><g clip-path="url(#9b5097c170)"><g clip-path="url(#d3ff7c5547)"><g transform="matrix(1, 0, 0, 1, 113, 208)"><g clip-path="url(#2114c55da0)"><g clip-path="url(#f0c7401d17)"><g clip-path="url(#c325151496)"><path fill="#2d4d31" d="M 0 0.183594 L 15 0.183594 L 15 15.183594 L 0 15.183594 Z M 0 0.183594 " fill-opacity="1" fill-rule="nonzero"/></g></g></g></g><path stroke-linecap="butt" transform="matrix(0.75, 0, 0, 0.75, 113.001011, 208.183109)" fill="none" stroke-linejoin="miter" d="M 9.998652 0.00064582 C 4.477819 0.00064582 -0.00134846 4.474605 -0.00134846 10.000647 C -0.00134846 15.52148 4.477819 20.000647 9.998652 20.000647 C 15.524694 20.000647 19.998653 15.52148 19.998653 10.000647 C 19.998653 4.474605 15.524694 0.00064582 9.998652 0.00064582 Z M 9.998652 0.00064582 " stroke="#000000" stroke-width="4" stroke-opacity="1" stroke-miterlimit="4"/></g></g><g clip-path="url(#0c0854c838)"><g clip-path="url(#44ecd48785)"><g transform="matrix(1, 0, 0, 1, 233, 208)"><g clip-path="url(#a769d6f530)"><g clip-path="url(#6bdeef6292)"><g clip-path="url(#0985e475e3)"><path fill="#2d4d31" d="M 0.308594 0.183594 L 15.308594 0.183594 L 15.308594 15.183594 L 0.308594 15.183594 Z M 0.308594 0.183594 " fill-opacity="1" fill-rule="nonzero"/></g></g></g></g><path stroke-linecap="butt" transform="matrix(0.75, 0, 0, 0.75, 233.308672, 208.183109)" fill="none" stroke-linejoin="miter" d="M 9.999896 0.00064582 C 4.479062 0.00064582 -0.000104837 4.474605 -0.000104837 10.000647 C -0.000104837 15.52148 4.479062 20.000647 9.999896 20.000647 C 15.52073 20.000647 19.999897 15.52148 19.999897 10.000647 C 19.999897 4.474605 15.52073 0.00064582 9.999896 0.00064582 Z M 9.999896 0.00064582 " stroke="#000000" stroke-width="4" stroke-opacity="1" stroke-miterlimit="4"/></g></g></svg>