<svg xmlns="http://www.w3.org/2000/svg" xmlns:xlink="http://www.w3.org/1999/xlink" width="600" zoomAndPan="magnify" viewBox="0 0 450 449.999984" height="600" preserveAspectRatio="xMidYMid meet" version="1.0"><defs><clipPath id="d7df82d60a"><path d="M 137 155 L 207 155 L 207 216 L 137 216 Z M 137 155 " clip-rule="nonzero"/></clipPath><clipPath id="125680ddf9"><path d="M 120.273438 185.679688 L 154.609375 126.210938 L 206.570312 156.210938 L 172.234375 215.679688 Z M 120.273438 185.679688 " clip-rule="nonzero"/></clipPath><clipPath id="6b335d3ad7"><path d="M 137.417969 155.988281 L 206.523438 156.296875 L 172.234375 215.679688 Z M 137.417969 155.988281 " clip-rule="nonzero"/></clipPath><clipPath id="dcfcf6ecd0"><path d="M 0.28125 0.761719 L 69.640625 0.761719 L 69.640625 60.761719 L 0.28125 60.761719 Z M 0.28125 0.761719 " clip-rule="nonzero"/></clipPath><clipPath id="c839dbe35a"><path d="M -16.726562 30.679688 L 17.609375 -28.789062 L 69.570312 1.210938 L 35.234375 60.679688 Z M -16.726562 30.679688 " clip-rule="nonzero"/></clipPath><clipPath id="3111eec023"><path d="M 0.417969 0.988281 L 69.523438 1.296875 L 35.234375 60.679688 Z M 0.417969 0.988281 " clip-rule="nonzero"/></clipPath><clipPath id="8fa2df960c"><rect x="0" width="70" y="0" height="61"/></clipPath><clipPath id="73ae448c05"><path d="M 137 155 L 207 155 L 207 216 L 137 216 Z M 137 155 " clip-rule="nonzero"/></clipPath><clipPath id="fc57f11a7f"><path d="M 120.273438 185.679688 L 154.398438 126.574219 L 206.359375 156.574219 L 172.234375 215.679688 Z M 120.273438 185.679688 " clip-rule="nonzero"/></clipPath><clipPath id="b20e8bee4e"><path d="M 120.277344 185.683594 L 154.558594 126.300781 L 206.515625 156.300781 L 172.234375 215.679688 Z M 120.277344 185.683594 " clip-rule="nonzero"/></clipPath><clipPath id="8f8cc54953"><path d="M 137.417969 155.992188 L 206.515625 156.300781 L 172.234375 215.679688 Z M 137.417969 155.992188 " clip-rule="nonzero"/></clipPath><clipPath id="a07257cb1a"><path d="M 206.523438 96.296875 L 275.195312 96.296875 L 275.195312 156.296875 L 206.523438 156.296875 Z M 206.523438 96.296875 " clip-rule="nonzero"/></clipPath><clipPath id="4b70705d6c"><path d="M 240.808594 96.296875 L 275.09375 156.296875 L 206.523438 156.296875 Z M 240.808594 96.296875 " clip-rule="nonzero"/></clipPath><clipPath id="b5c0062822"><path d="M 0.523438 0.296875 L 69.195312 0.296875 L 69.195312 60.296875 L 0.523438 60.296875 Z M 0.523438 0.296875 " clip-rule="nonzero"/></clipPath><clipPath id="e0e27c987d"><path d="M 34.808594 0.296875 L 69.09375 60.296875 L 0.523438 60.296875 Z M 34.808594 0.296875 " clip-rule="nonzero"/></clipPath><clipPath id="d79dbcf3d5"><rect x="0" width="70" y="0" height="61"/></clipPath><clipPath id="82c41a7688"><path d="M 206.523438 96.300781 L 274.773438 96.300781 L 274.773438 156.296875 L 206.523438 156.296875 Z M 206.523438 96.300781 " clip-rule="nonzero"/></clipPath><clipPath id="8e0a4a5502"><path d="M 240.804688 96.300781 L 275.089844 156.296875 L 206.523438 156.296875 Z M 240.804688 96.300781 " clip-rule="nonzero"/></clipPath><clipPath id="05bb4520f8"><path d="M 275 155 L 345 155 L 345 216 L 275 216 Z M 275 155 " clip-rule="nonzero"/></clipPath><clipPath id="0236f5332c"><path d="M 327.054688 126.300781 L 361.390625 185.773438 L 309.429688 215.773438 L 275.09375 156.300781 Z M 327.054688 126.300781 " clip-rule="nonzero"/></clipPath><clipPath id="98e787e78c"><path d="M 344.199219 155.992188 L 309.378906 215.683594 L 275.09375 156.300781 Z M 344.199219 155.992188 " clip-rule="nonzero"/></clipPath><clipPath id="4f4c121141"><path d="M 0.0390625 0.761719 L 69.398438 0.761719 L 69.398438 60.761719 L 0.0390625 60.761719 Z M 0.0390625 0.761719 " clip-rule="nonzero"/></clipPath><clipPath id="5ad9442256"><path d="M 52.054688 -28.699219 L 86.390625 30.773438 L 34.429688 60.773438 L 0.09375 1.300781 Z M 52.054688 -28.699219 " clip-rule="nonzero"/></clipPath><clipPath id="949cbe8aae"><path d="M 69.199219 0.992188 L 34.378906 60.683594 L 0.09375 1.300781 Z M 69.199219 0.992188 " clip-rule="nonzero"/></clipPath><clipPath id="15b81c2a5a"><rect x="0" width="70" y="0" height="61"/></clipPath><clipPath id="f9c7214417"><path d="M 275 155 L 345 155 L 345 216 L 275 216 Z M 275 155 " clip-rule="nonzero"/></clipPath><clipPath id="4b47489006"><path d="M 327.054688 126.300781 L 361.179688 185.40625 L 309.21875 215.40625 L 275.09375 156.300781 Z M 327.054688 126.300781 " clip-rule="nonzero"/></clipPath><clipPath id="658da41e7c"><path d="M 327.054688 126.300781 L 361.335938 185.683594 L 309.378906 215.679688 L 275.09375 156.300781 Z M 327.054688 126.300781 " clip-rule="nonzero"/></clipPath><clipPath id="7eaf280890"><path d="M 344.195312 155.992188 L 309.378906 215.679688 L 275.09375 156.300781 Z M 344.195312 155.992188 " clip-rule="nonzero"/></clipPath><clipPath id="b780fc5975"><path d="M 275 215 L 345 215 L 345 276 L 275 276 Z M 275 215 " clip-rule="nonzero"/></clipPath><clipPath id="ed71f474ab"><path d="M 361.335938 245.683594 L 327 305.15625 L 275.039062 275.15625 L 309.375 215.683594 Z M 361.335938 245.683594 " clip-rule="nonzero"/></clipPath><clipPath id="8aa56547d5"><path d="M 344.195312 275.378906 L 275.089844 275.070312 L 309.375 215.683594 Z M 344.195312 275.378906 " clip-rule="nonzero"/></clipPath><clipPath id="fe6df3c3ae"><path d="M 0.0390625 0.519531 L 69.398438 0.519531 L 69.398438 60.519531 L 0.0390625 60.519531 Z M 0.0390625 0.519531 " clip-rule="nonzero"/></clipPath><clipPath id="adf74367de"><path d="M 86.335938 30.683594 L 52 90.15625 L 0.0390625 60.15625 L 34.375 0.683594 Z M 86.335938 30.683594 " clip-rule="nonzero"/></clipPath><clipPath id="13b3d45ff2"><path d="M 69.195312 60.378906 L 0.0898438 60.070312 L 34.375 0.683594 Z M 69.195312 60.378906 " clip-rule="nonzero"/></clipPath><clipPath id="0ae5f0d682"><rect x="0" width="70" y="0" height="61"/></clipPath><clipPath id="7e122cabaf"><path d="M 275 215 L 345 215 L 345 276 L 275 276 Z M 275 215 " clip-rule="nonzero"/></clipPath><clipPath id="6d8722fffb"><path d="M 361.335938 245.683594 L 327.210938 304.792969 L 275.25 274.792969 L 309.375 215.683594 Z M 361.335938 245.683594 " clip-rule="nonzero"/></clipPath><clipPath id="ab37467001"><path d="M 361.335938 245.683594 L 327.054688 305.066406 L 275.09375 275.066406 L 309.378906 215.6875 Z M 361.335938 245.683594 " clip-rule="nonzero"/></clipPath><clipPath id="d370ebdda5"><path d="M 344.195312 275.375 L 275.09375 275.066406 L 309.378906 215.6875 Z M 344.195312 275.375 " clip-rule="nonzero"/></clipPath><clipPath id="55040828c5"><path d="M 206.417969 275.066406 L 275.089844 275.066406 L 275.089844 335.066406 L 206.417969 335.066406 Z M 206.417969 275.066406 " clip-rule="nonzero"/></clipPath><clipPath id="5d29f7ebf9"><path d="M 240.804688 335.066406 L 206.519531 275.066406 L 275.089844 275.066406 Z M 240.804688 335.066406 " clip-rule="nonzero"/></clipPath><clipPath id="528a80e4d2"><path d="M 0.417969 0.0664062 L 69.089844 0.0664062 L 69.089844 60.066406 L 0.417969 60.066406 Z M 0.417969 0.0664062 " clip-rule="nonzero"/></clipPath><clipPath id="509ff9d4dc"><path d="M 34.804688 60.066406 L 0.519531 0.0664062 L 69.089844 0.0664062 Z M 34.804688 60.066406 " clip-rule="nonzero"/></clipPath><clipPath id="91a8537a37"><rect x="0" width="70" y="0" height="61"/></clipPath><clipPath id="b469555ae8"><path d="M 206.839844 275.070312 L 275.089844 275.070312 L 275.089844 335.066406 L 206.839844 335.066406 Z M 206.839844 275.070312 " clip-rule="nonzero"/></clipPath><clipPath id="895ad288ef"><path d="M 240.804688 335.066406 L 206.523438 275.070312 L 275.089844 275.070312 Z M 240.804688 335.066406 " clip-rule="nonzero"/></clipPath><clipPath id="467068dd93"><path d="M 137 215 L 207 215 L 207 276 L 137 276 Z M 137 215 " clip-rule="nonzero"/></clipPath><clipPath id="80431a2540"><path d="M 154.558594 305.066406 L 120.222656 245.59375 L 172.183594 215.59375 L 206.519531 275.066406 Z M 154.558594 305.066406 " clip-rule="nonzero"/></clipPath><clipPath id="d2e841d1f7"><path d="M 137.414062 275.375 L 172.234375 215.679688 L 206.519531 275.066406 Z M 137.414062 275.375 " clip-rule="nonzero"/></clipPath><clipPath id="448a6b59a5"><path d="M 0.28125 0.519531 L 69.640625 0.519531 L 69.640625 60.519531 L 0.28125 60.519531 Z M 0.28125 0.519531 " clip-rule="nonzero"/></clipPath><clipPath id="2dbf49084d"><path d="M 17.558594 90.066406 L -16.777344 30.59375 L 35.183594 0.59375 L 69.519531 60.066406 Z M 17.558594 90.066406 " clip-rule="nonzero"/></clipPath><clipPath id="820f2e1647"><path d="M 0.414062 60.375 L 35.234375 0.679688 L 69.519531 60.066406 Z M 0.414062 60.375 " clip-rule="nonzero"/></clipPath><clipPath id="0059f8d99c"><rect x="0" width="70" y="0" height="61"/></clipPath><clipPath id="dd96868fe4"><path d="M 137 215 L 207 215 L 207 276 L 137 276 Z M 137 215 " clip-rule="nonzero"/></clipPath><clipPath id="fbbe86af8a"><path d="M 154.558594 305.066406 L 120.433594 245.960938 L 172.394531 215.960938 L 206.519531 275.066406 Z M 154.558594 305.066406 " clip-rule="nonzero"/></clipPath><clipPath id="17478b8131"><path d="M 154.558594 305.066406 L 120.277344 245.683594 L 172.234375 215.6875 L 206.515625 275.066406 Z M 154.558594 305.066406 " clip-rule="nonzero"/></clipPath><clipPath id="2d354b481e"><path d="M 137.417969 275.375 L 172.234375 215.6875 L 206.515625 275.066406 Z M 137.417969 275.375 " clip-rule="nonzero"/></clipPath><clipPath id="65f459a592"><path d="M 346.339844 210 L 361.339844 210 L 361.339844 225 L 346.339844 225 Z M 346.339844 210 " clip-rule="nonzero"/></clipPath><clipPath id="4e3d330261"><path d="M 353.839844 210 C 349.699219 210 346.339844 213.359375 346.339844 217.5 C 346.339844 221.640625 349.699219 225 353.839844 225 C 357.984375 225 361.339844 221.640625 361.339844 217.5 C 361.339844 213.359375 357.984375 210 353.839844 210 Z M 353.839844 210 " clip-rule="nonzero"/></clipPath><clipPath id="039527bbc7"><path d="M 0.339844 0 L 15.339844 0 L 15.339844 15 L 0.339844 15 Z M 0.339844 0 " clip-rule="nonzero"/></clipPath><clipPath id="9d7d8532b5"><path d="M 7.839844 0 C 3.699219 0 0.339844 3.359375 0.339844 7.5 C 0.339844 11.640625 3.699219 15 7.839844 15 C 11.984375 15 15.339844 11.640625 15.339844 7.5 C 15.339844 3.359375 11.984375 0 7.839844 0 Z M 7.839844 0 " clip-rule="nonzero"/></clipPath><clipPath id="43c3db620b"><rect x="0" width="16" y="0" height="15"/></clipPath><clipPath id="48bd1ff291"><path d="M 127 210 L 142 210 L 142 225 L 127 225 Z M 127 210 " clip-rule="nonzero"/></clipPath><clipPath id="d64993bdef"><path d="M 134.5 210 C 130.355469 210 127 213.359375 127 217.5 C 127 221.640625 130.355469 225 134.5 225 C 138.640625 225 142 221.640625 142 217.5 C 142 213.359375 138.640625 210 134.5 210 Z M 134.5 210 " clip-rule="nonzero"/></clipPath><clipPath id="09d0bbc06c"><path d="M 0 0 L 15 0 L 15 15 L 0 15 Z M 0 0 " clip-rule="nonzero"/></clipPath><clipPath id="1b0bfa08ba"><path d="M 7.5 0 C 3.355469 0 0 3.359375 0 7.5 C 0 11.640625 3.355469 15 7.5 15 C 11.640625 15 15 11.640625 15 7.5 C 15 3.359375 11.640625 0 7.5 0 Z M 7.5 0 " clip-rule="nonzero"/></clipPath><clipPath id="438e492c96"><rect x="0" width="15" y="0" height="15"/></clipPath><clipPath id="3a92b1cd97"><path d="M 233.308594 208.183594 L 248.308594 208.183594 L 248.308594 223.183594 L 233.308594 223.183594 Z M 233.308594 208.183594 " clip-rule="nonzero"/></clipPath><clipPath id="af6d6d7dec"><path d="M 240.808594 208.183594 C 236.667969 208.183594 233.308594 211.542969 233.308594 215.683594 C 233.308594 219.824219 236.667969 223.183594 240.808594 223.183594 C 244.949219 223.183594 248.308594 219.824219 248.308594 215.683594 C 248.308594 211.542969 244.949219 208.183594 240.808594 208.183594 Z M 240.808594 208.183594 " clip-rule="nonzero"/></clipPath><clipPath id="17097c9cec"><path d="M 0.308594 0.183594 L 15.308594 0.183594 L 15.308594 15.183594 L 0.308594 15.183594 Z M 0.308594 0.183594 " clip-rule="nonzero"/></clipPath><clipPath id="83e4a7ada0"><path d="M 7.808594 0.183594 C 3.667969 0.183594 0.308594 3.542969 0.308594 7.683594 C 0.308594 11.824219 3.667969 15.183594 7.808594 15.183594 C 11.949219 15.183594 15.308594 11.824219 15.308594 7.683594 C 15.308594 3.542969 11.949219 0.183594 7.808594 0.183594 Z M 7.808594 0.183594 " clip-rule="nonzero"/></clipPath><clipPath id="af12667c45"><rect x="0" width="16" y="0" height="16"/></clipPath></defs><g clip-path="url(#d7df82d60a)"><g clip-path="url(#125680ddf9)"><g clip-path="url(#6b335d3ad7)"><g transform="matrix(1, 0, 0, 1, 137, 155)"><g clip-path="url(#8fa2df960c)"><g clip-path="url(#dcfcf6ecd0)"><g clip-path="url(#c839dbe35a)"><g clip-path="url(#3111eec023)"><path fill="#ffffff" d="M -16.726562 30.679688 L 17.609375 -28.789062 L 69.570312 1.210938 L 35.234375 60.679688 Z M -16.726562 30.679688 " fill-opacity="1" fill-rule="nonzero"/></g></g></g></g></g></g></g></g><g clip-path="url(#73ae448c05)"><g clip-path="url(#fc57f11a7f)"><g clip-path="url(#b20e8bee4e)"><g clip-path="url(#8f8cc54953)"><path stroke-linecap="butt" transform="matrix(0.375, -0.649519, 0.649519, 0.375, 120.276392, 185.682144)" fill="none" stroke-linejoin="miter" d="M 45.710731 0.0000825344 L 91.419507 79.99292 L 0.000476488 79.994281 Z M 45.710731 0.0000825344 " stroke="#000000" stroke-width="4" stroke-opacity="1" stroke-miterlimit="4"/></g></g></g></g><g clip-path="url(#a07257cb1a)"><g clip-path="url(#4b70705d6c)"><g transform="matrix(1, 0, 0, 1, 206, 96)"><g clip-path="url(#d79dbcf3d5)"><g clip-path="url(#b5c0062822)"><g clip-path="url(#e0e27c987d)"><path fill="#ffffff" d="M 0.523438 0.296875 L 69.195312 0.296875 L 69.195312 60.296875 L 0.523438 60.296875 Z M 0.523438 0.296875 " fill-opacity="1" fill-rule="nonzero"/></g></g></g></g></g></g><g clip-path="url(#82c41a7688)"><g clip-path="url(#8e0a4a5502)"><path stroke-linecap="butt" transform="matrix(0.75, -0.000000000000000093, 0.000000000000000093, 0.75, 206.52298, 96.30082)" fill="none" stroke-linejoin="miter" d="M 45.708947 -0.0000523323 L 91.422492 79.994746 L 0.000609915 79.994746 Z M 45.708947 -0.0000523323 " stroke="#000000" stroke-width="4" stroke-opacity="1" stroke-miterlimit="4"/></g></g><g clip-path="url(#05bb4520f8)"><g clip-path="url(#0236f5332c)"><g clip-path="url(#98e787e78c)"><g transform="matrix(1, 0, 0, 1, 275, 155)"><g clip-path="url(#15b81c2a5a)"><g clip-path="url(#4f4c121141)"><g clip-path="url(#5ad9442256)"><g clip-path="url(#949cbe8aae)"><path fill="#ffffff" d="M 52.054688 -28.699219 L 86.390625 30.773438 L 34.429688 60.773438 L 0.09375 1.300781 Z M 52.054688 -28.699219 " fill-opacity="1" fill-rule="nonzero"/></g></g></g></g></g></g></g></g><g clip-path="url(#f9c7214417)"><g clip-path="url(#4b47489006)"><g clip-path="url(#658da41e7c)"><g clip-path="url(#7eaf280890)"><path stroke-linecap="butt" transform="matrix(0.375, 0.649519, -0.649519, 0.375, 327.052747, 126.301893)" fill="none" stroke-linejoin="miter" d="M 45.711781 -0.000999926 L 91.422035 79.993199 L 0.000399766 79.996348 Z M 45.711781 -0.000999926 " stroke="#000000" stroke-width="4" stroke-opacity="1" stroke-miterlimit="4"/></g></g></g></g><g clip-path="url(#b780fc5975)"><g clip-path="url(#ed71f474ab)"><g clip-path="url(#8aa56547d5)"><g transform="matrix(1, 0, 0, 1, 275, 215)"><g clip-path="url(#0ae5f0d682)"><g clip-path="url(#fe6df3c3ae)"><g clip-path="url(#adf74367de)"><g clip-path="url(#13b3d45ff2)"><path fill="#ffffff" d="M 86.335938 30.683594 L 52 90.15625 L 0.0390625 60.15625 L 34.375 0.683594 Z M 86.335938 30.683594 " fill-opacity="1" fill-rule="nonzero"/></g></g></g></g></g></g></g></g><g clip-path="url(#7e122cabaf)"><g clip-path="url(#6d8722fffb)"><g clip-path="url(#ab37467001)"><g clip-path="url(#d370ebdda5)"><path stroke-linecap="butt" transform="matrix(-0.375, 0.649519, -0.649519, -0.375, 361.335947, 245.684306)" fill="none" stroke-linejoin="miter" d="M 45.710954 -0.0014962 L 91.422335 79.995852 L 0.000699842 79.992702 Z M 45.710954 -0.0014962 " stroke="#000000" stroke-width="4" stroke-opacity="1" stroke-miterlimit="4"/></g></g></g></g><g clip-path="url(#55040828c5)"><g clip-path="url(#5d29f7ebf9)"><g transform="matrix(1, 0, 0, 1, 206, 275)"><g clip-path="url(#91a8537a37)"><g clip-path="url(#528a80e4d2)"><g clip-path="url(#509ff9d4dc)"><path fill="#ffffff" d="M 69.089844 60.066406 L 0.417969 60.066406 L 0.417969 0.0664062 L 69.089844 0.0664062 Z M 69.089844 60.066406 " fill-opacity="1" fill-rule="nonzero"/></g></g></g></g></g></g><g clip-path="url(#b469555ae8)"><g clip-path="url(#895ad288ef)"><path stroke-linecap="butt" transform="matrix(-0.75, 0, 0, -0.75, 275.089381, 335.065608)" fill="none" stroke-linejoin="miter" d="M 45.712928 -0.00106393 L 91.421265 79.993734 L -0.000616835 79.993734 Z M 45.712928 -0.00106393 " stroke="#000000" stroke-width="4" stroke-opacity="1" stroke-miterlimit="4"/></g></g><g clip-path="url(#467068dd93)"><g clip-path="url(#80431a2540)"><g clip-path="url(#d2e841d1f7)"><g transform="matrix(1, 0, 0, 1, 137, 215)"><g clip-path="url(#0059f8d99c)"><g clip-path="url(#448a6b59a5)"><g clip-path="url(#2dbf49084d)"><g clip-path="url(#820f2e1647)"><path fill="#ffffff" d="M 17.558594 90.066406 L -16.777344 30.59375 L 35.183594 0.59375 L 69.519531 60.066406 Z M 17.558594 90.066406 " fill-opacity="1" fill-rule="nonzero"/></g></g></g></g></g></g></g></g><g clip-path="url(#dd96868fe4)"><g clip-path="url(#fbbe86af8a)"><g clip-path="url(#17478b8131)"><g clip-path="url(#2d354b481e)"><path stroke-linecap="butt" transform="matrix(-0.375, -0.649519, 0.649519, -0.375, 154.559586, 305.064526)" fill="none" stroke-linejoin="miter" d="M 45.710261 -0.000416473 L 91.420515 79.993782 L 0.0014842 79.992421 Z M 45.710261 -0.000416473 " stroke="#000000" stroke-width="4" stroke-opacity="1" stroke-miterlimit="4"/></g></g></g></g><g clip-path="url(#65f459a592)"><g clip-path="url(#4e3d330261)"><g transform="matrix(1, 0, 0, 1, 346, 210)"><g clip-path="url(#43c3db620b)"><g clip-path="url(#039527bbc7)"><g clip-path="url(#9d7d8532b5)"><path fill="#2d4d31" d="M 0.339844 0 L 15.339844 0 L 15.339844 15 L 0.339844 15 Z M 0.339844 0 " fill-opacity="1" fill-rule="nonzero"/></g></g></g></g><path stroke-linecap="butt" transform="matrix(0.75, 0, 0, 0.75, 346.341632, 209.999984)" fill="none" stroke-linejoin="miter" d="M 9.997617 0.0000218089 C 4.476783 0.0000218089 -0.00238377 4.479189 -0.00238377 10.000023 C -0.00238377 15.520856 4.476783 20.000023 9.997617 20.000023 C 15.523659 20.000023 19.997618 15.520856 19.997618 10.000023 C 19.997618 4.479189 15.523659 0.0000218089 9.997617 0.0000218089 Z M 9.997617 0.0000218089 " stroke="#000000" stroke-width="4" stroke-opacity="1" stroke-miterlimit="4"/></g></g><g clip-path="url(#48bd1ff291)"><g clip-path="url(#d64993bdef)"><g transform="matrix(1, 0, 0, 1, 127, 210)"><g clip-path="url(#438e492c96)"><g clip-path="url(#09d0bbc06c)"><g clip-path="url(#1b0bfa08ba)"><rect x="-226" width="648" fill="#2d4d31" height="647.999977" y="-308.999996" fill-opacity="1"/></g></g></g></g><path stroke-linecap="butt" transform="matrix(0.75, 0, 0, 0.75, 126.999123, 209.999984)" fill="none" stroke-linejoin="miter" d="M 10.00117 0.0000218089 C 4.475128 0.0000218089 0.00116926 4.479189 0.00116926 10.000023 C 0.00116926 15.520856 4.475128 20.000023 10.00117 20.000023 C 15.522004 20.000023 20.001171 15.520856 20.001171 10.000023 C 20.001171 4.479189 15.522004 0.0000218089 10.00117 0.0000218089 Z M 10.00117 0.0000218089 " stroke="#000000" stroke-width="4" stroke-opacity="1" stroke-miterlimit="4"/></g></g><g clip-path="url(#3a92b1cd97)"><g clip-path="url(#af6d6d7dec)"><g transform="matrix(1, 0, 0, 1, 233, 208)"><g clip-path="url(#af12667c45)"><g clip-path="url(#17097c9cec)"><g clip-path="url(#83e4a7ada0)"><path fill="#2d4d31" d="M 0.308594 0.183594 L 15.308594 0.183594 L 15.308594 15.183594 L 0.308594 15.183594 Z M 0.308594 0.183594 " fill-opacity="1" fill-rule="nonzero"/></g></g></g></g><path stroke-linecap="butt" transform="matrix(0.75, 0, 0, 0.75, 233.308672, 208.18321)" fill="none" stroke-linejoin="miter" d="M 9.999896 0.00051142 C 4.479062 0.00051142 -0.000104837 4.479678 -0.000104837 10.000512 C -0.000104837 15.521346 4.479062 20.000513 9.999896 20.000513 C 15.52073 20.000513 19.999897 15.521346 19.999897 10.000512 C 19.999897 4.479678 15.52073 0.00051142 9.999896 0.00051142 Z M 9.999896 0.00051142 " stroke="#000000" stroke-width="4" stroke-opacity="1" stroke-miterlimit="4"/></g></g></svg>