<svg xmlns="http://www.w3.org/2000/svg" xmlns:xlink="http://www.w3.org/1999/xlink" width="600" zoomAndPan="magnify" viewBox="0 0 450 449.999984" height="600" preserveAspectRatio="xMidYMid meet" version="1.0"><defs><clipPath id="c7eec593e0"><path d="M 91.761719 68.453125 L 389.855469 68.453125 L 389.855469 366.546875 L 91.761719 366.546875 Z M 91.761719 68.453125 " clip-rule="nonzero"/></clipPath><clipPath id="4f21035768"><path d="M 240.808594 68.453125 C 158.492188 68.453125 91.761719 135.183594 91.761719 217.5 C 91.761719 299.816406 158.492188 366.546875 240.808594 366.546875 C 323.125 366.546875 389.855469 299.816406 389.855469 217.5 C 389.855469 135.183594 323.125 68.453125 240.808594 68.453125 Z M 240.808594 68.453125 " clip-rule="nonzero"/></clipPath><clipPath id="bf8a561456"><path d="M 0.761719 0.453125 L 298.855469 0.453125 L 298.855469 298.546875 L 0.761719 298.546875 Z M 0.761719 0.453125 " clip-rule="nonzero"/></clipPath><clipPath id="688a5a4cde"><path d="M 149.808594 0.453125 C 67.492188 0.453125 0.761719 67.183594 0.761719 149.5 C 0.761719 231.816406 67.492188 298.546875 149.808594 298.546875 C 232.125 298.546875 298.855469 231.816406 298.855469 149.5 C 298.855469 67.183594 232.125 0.453125 149.808594 0.453125 Z M 149.808594 0.453125 " clip-rule="nonzero"/></clipPath><clipPath id="f99e3ce3b3"><rect x="0" width="299" y="0" height="299"/></clipPath><clipPath id="d5f4f0cd90"><path d="M 91.761719 68.453125 L 389.511719 68.453125 L 389.511719 366.203125 L 91.761719 366.203125 Z M 91.761719 68.453125 " clip-rule="nonzero"/></clipPath><clipPath id="8164982624"><path d="M 240.804688 68.453125 C 158.492188 68.453125 91.761719 135.183594 91.761719 217.496094 C 91.761719 299.8125 158.492188 366.542969 240.804688 366.542969 C 323.121094 366.542969 389.851562 299.8125 389.851562 217.496094 C 389.851562 135.183594 323.121094 68.453125 240.804688 68.453125 Z M 240.804688 68.453125 " clip-rule="nonzero"/></clipPath><clipPath id="a574a698c9"><path d="M 382.355469 210 L 397.355469 210 L 397.355469 225 L 382.355469 225 Z M 382.355469 210 " clip-rule="nonzero"/></clipPath><clipPath id="a32a4ba245"><path d="M 389.855469 210 C 385.714844 210 382.355469 213.359375 382.355469 217.5 C 382.355469 221.640625 385.714844 225 389.855469 225 C 394 225 397.355469 221.640625 397.355469 217.5 C 397.355469 213.359375 394 210 389.855469 210 Z M 389.855469 210 " clip-rule="nonzero"/></clipPath><clipPath id="2e6c4b9367"><path d="M 0.355469 0 L 15.355469 0 L 15.355469 15 L 0.355469 15 Z M 0.355469 0 " clip-rule="nonzero"/></clipPath><clipPath id="f9ff7cfbb4"><path d="M 7.855469 0 C 3.714844 0 0.355469 3.359375 0.355469 7.5 C 0.355469 11.640625 3.714844 15 7.855469 15 C 12 15 15.355469 11.640625 15.355469 7.5 C 15.355469 3.359375 12 0 7.855469 0 Z M 7.855469 0 " clip-rule="nonzero"/></clipPath><clipPath id="a5f331ce3a"><rect x="0" width="16" y="0" height="15"/></clipPath><clipPath id="618d3431db"><path d="M 84.277344 210 L 99.277344 210 L 99.277344 225 L 84.277344 225 Z M 84.277344 210 " clip-rule="nonzero"/></clipPath><clipPath id="e934d97a7c"><path d="M 91.777344 210 C 87.632812 210 84.277344 213.359375 84.277344 217.5 C 84.277344 221.640625 87.632812 225 91.777344 225 C 95.917969 225 99.277344 221.640625 99.277344 217.5 C 99.277344 213.359375 95.917969 210 91.777344 210 Z M 91.777344 210 " clip-rule="nonzero"/></clipPath><clipPath id="42d46b9403"><path d="M 0.277344 0 L 15.277344 0 L 15.277344 15 L 0.277344 15 Z M 0.277344 0 " clip-rule="nonzero"/></clipPath><clipPath id="229bd555b8"><path d="M 7.777344 0 C 3.632812 0 0.277344 3.359375 0.277344 7.5 C 0.277344 11.640625 3.632812 15 7.777344 15 C 11.917969 15 15.277344 11.640625 15.277344 7.5 C 15.277344 3.359375 11.917969 0 7.777344 0 Z M 7.777344 0 " clip-rule="nonzero"/></clipPath><clipPath id="0ed0d068f0"><rect x="0" width="16" y="0" height="15"/></clipPath><clipPath id="332718a887"><path d="M 233.308594 208.183594 L 248.308594 208.183594 L 248.308594 223.183594 L 233.308594 223.183594 Z M 233.308594 208.183594 " clip-rule="nonzero"/></clipPath><clipPath id="20e3900a42"><path d="M 240.808594 208.183594 C 236.667969 208.183594 233.308594 211.542969 233.308594 215.683594 C 233.308594 219.824219 236.667969 223.183594 240.808594 223.183594 C 244.949219 223.183594 248.308594 219.824219 248.308594 215.683594 C 248.308594 211.542969 244.949219 208.183594 240.808594 208.183594 Z M 240.808594 208.183594 " clip-rule="nonzero"/></clipPath><clipPath id="8cb24d4f4e"><path d="M 0.308594 0.183594 L 15.308594 0.183594 L 15.308594 15.183594 L 0.308594 15.183594 Z M 0.308594 0.183594 " clip-rule="nonzero"/></clipPath><clipPath id="a692dcdb72"><path d="M 7.808594 0.183594 C 3.667969 0.183594 0.308594 3.542969 0.308594 7.683594 C 0.308594 11.824219 3.667969 15.183594 7.808594 15.183594 C 11.949219 15.183594 15.308594 11.824219 15.308594 7.683594 C 15.308594 3.542969 11.949219 0.183594 7.808594 0.183594 Z M 7.808594 0.183594 " clip-rule="nonzero"/></clipPath><clipPath id="df93959fe4"><rect x="0" width="16" y="0" height="16"/></clipPath><clipPath id="885980b012"><path d="M 233.308594 359.046875 L 248.308594 359.046875 L 248.308594 374.046875 L 233.308594 374.046875 Z M 233.308594 359.046875 " clip-rule="nonzero"/></clipPath><clipPath id="5516cad5dd"><path d="M 240.808594 359.046875 C 236.667969 359.046875 233.308594 362.40625 233.308594 366.546875 C 233.308594 370.691406 236.667969 374.046875 240.808594 374.046875 C 244.949219 374.046875 248.308594 370.691406 248.308594 366.546875 C 248.308594 362.40625 244.949219 359.046875 240.808594 359.046875 Z M 240.808594 359.046875 " clip-rule="nonzero"/></clipPath><clipPath id="c1580756d1"><path d="M 0.308594 0.046875 L 15.308594 0.046875 L 15.308594 15.046875 L 0.308594 15.046875 Z M 0.308594 0.046875 " clip-rule="nonzero"/></clipPath><clipPath id="fb17e731be"><path d="M 7.808594 0.046875 C 3.667969 0.046875 0.308594 3.40625 0.308594 7.546875 C 0.308594 11.691406 3.667969 15.046875 7.808594 15.046875 C 11.949219 15.046875 15.308594 11.691406 15.308594 7.546875 C 15.308594 3.40625 11.949219 0.046875 7.808594 0.046875 Z M 7.808594 0.046875 " clip-rule="nonzero"/></clipPath><clipPath id="08709c0342"><rect x="0" width="16" y="0" height="16"/></clipPath></defs><g clip-path="url(#c7eec593e0)"><g clip-path="url(#4f21035768)"><g transform="matrix(1, 0, 0, 1, 91, 68)"><g clip-path="url(#f99e3ce3b3)"><g clip-path="url(#bf8a561456)"><g clip-path="url(#688a5a4cde)"><path fill="#ffffff" d="M 0.761719 0.453125 L 298.855469 0.453125 L 298.855469 298.546875 L 0.761719 298.546875 Z M 0.761719 0.453125 " fill-opacity="1" fill-rule="nonzero"/></g></g></g></g></g></g><g clip-path="url(#d5f4f0cd90)"><g clip-path="url(#8164982624)"><path stroke-linecap="butt" transform="matrix(0.75, 0, 0, 0.75, 91.761109, 68.452437)" fill="none" stroke-linejoin="miter" d="M 198.7248 0.000917242 C 88.974784 0.000917242 0.000812996 88.974888 0.000812996 198.724904 C 0.000812996 308.480128 88.974784 397.454099 198.7248 397.454099 C 308.480023 397.454099 397.453994 308.480128 397.453994 198.724904 C 397.453994 88.974888 308.480023 0.000917242 198.7248 0.000917242 Z M 198.7248 0.000917242 " stroke="#000000" stroke-width="4" stroke-opacity="1" stroke-miterlimit="4"/></g></g><g clip-path="url(#a574a698c9)"><g clip-path="url(#a32a4ba245)"><g transform="matrix(1, 0, 0, 1, 382, 210)"><g clip-path="url(#a5f331ce3a)"><g clip-path="url(#2e6c4b9367)"><g clip-path="url(#f9ff7cfbb4)"><path fill="#2d4d31" d="M 0.355469 0 L 15.355469 0 L 15.355469 15 L 0.355469 15 Z M 0.355469 0 " fill-opacity="1" fill-rule="nonzero"/></g></g></g></g><path stroke-linecap="butt" transform="matrix(0.75, 0, 0, 0.75, 382.356278, 209.999984)" fill="none" stroke-linejoin="miter" d="M 9.998921 0.0000218089 C 4.478088 0.0000218089 -0.00107949 4.479189 -0.00107949 10.000023 C -0.00107949 15.520856 4.478088 20.000023 9.998921 20.000023 C 15.524963 20.000023 19.998922 15.520856 19.998922 10.000023 C 19.998922 4.479189 15.524963 0.0000218089 9.998921 0.0000218089 Z M 9.998921 0.0000218089 " stroke="#000000" stroke-width="4" stroke-opacity="1" stroke-miterlimit="4"/></g></g><g clip-path="url(#618d3431db)"><g clip-path="url(#e934d97a7c)"><g transform="matrix(1, 0, 0, 1, 84, 210)"><g clip-path="url(#0ed0d068f0)"><g clip-path="url(#42d46b9403)"><g clip-path="url(#229bd555b8)"><path fill="#2d4d31" d="M 0.277344 0 L 15.277344 0 L 15.277344 15 L 0.277344 15 Z M 0.277344 0 " fill-opacity="1" fill-rule="nonzero"/></g></g></g></g><path stroke-linecap="butt" transform="matrix(0.75, 0, 0, 0.75, 84.275745, 209.999984)" fill="none" stroke-linejoin="miter" d="M 10.002133 0.0000218089 C 4.476091 0.0000218089 0.00213195 4.479189 0.00213195 10.000023 C 0.00213195 15.520856 4.476091 20.000023 10.002133 20.000023 C 15.522966 20.000023 20.002134 15.520856 20.002134 10.000023 C 20.002134 4.479189 15.522966 0.0000218089 10.002133 0.0000218089 Z M 10.002133 0.0000218089 " stroke="#000000" stroke-width="4" stroke-opacity="1" stroke-miterlimit="4"/></g></g><g clip-path="url(#332718a887)"><g clip-path="url(#20e3900a42)"><g transform="matrix(1, 0, 0, 1, 233, 208)"><g clip-path="url(#df93959fe4)"><g clip-path="url(#8cb24d4f4e)"><g clip-path="url(#a692dcdb72)"><path fill="#2d4d31" d="M 0.308594 0.183594 L 15.308594 0.183594 L 15.308594 15.183594 L 0.308594 15.183594 Z M 0.308594 0.183594 " fill-opacity="1" fill-rule="nonzero"/></g></g></g></g><path stroke-linecap="butt" transform="matrix(0.75, 0, 0, 0.75, 233.308672, 208.183227)" fill="none" stroke-linejoin="miter" d="M 9.999896 0.00048902 C 4.479062 0.00048902 -0.000104837 4.479656 -0.000104837 10.00049 C -0.000104837 15.521324 4.479062 20.000491 9.999896 20.000491 C 15.52073 20.000491 19.999897 15.521324 19.999897 10.00049 C 19.999897 4.479656 15.52073 0.00048902 9.999896 0.00048902 Z M 9.999896 0.00048902 " stroke="#000000" stroke-width="4" stroke-opacity="1" stroke-miterlimit="4"/></g></g><g clip-path="url(#885980b012)"><g clip-path="url(#5516cad5dd)"><g transform="matrix(1, 0, 0, 1, 233, 359)"><g clip-path="url(#08709c0342)"><g clip-path="url(#c1580756d1)"><g clip-path="url(#fb17e731be)"><path fill="#2d4d31" d="M 0.308594 0.046875 L 15.308594 0.046875 L 15.308594 15.046875 L 0.308594 15.046875 Z M 0.308594 0.046875 " fill-opacity="1" fill-rule="nonzero"/></g></g></g></g><path stroke-linecap="butt" transform="matrix(0.75, 0, 0, 0.75, 233.308672, 359.04753)" fill="none" stroke-linejoin="miter" d="M 9.999896 -0.000872846 C 4.479062 -0.000872846 -0.000104837 4.478294 -0.000104837 9.999128 C -0.000104837 15.52517 4.479062 19.999129 9.999896 19.999129 C 15.52073 19.999129 19.999897 15.52517 19.999897 9.999128 C 19.999897 4.478294 15.52073 -0.000872846 9.999896 -0.000872846 Z M 9.999896 -0.000872846 " stroke="#000000" stroke-width="4" stroke-opacity="1" stroke-miterlimit="4"/></g></g></svg>