<svg xmlns="http://www.w3.org/2000/svg" xmlns:xlink="http://www.w3.org/1999/xlink" width="600" zoomAndPan="magnify" viewBox="0 0 450 449.999984" height="600" preserveAspectRatio="xMidYMid meet" version="1.0"><defs><clipPath id="74135d830e"><path d="M 112.859375 112.859375 L 337.140625 112.859375 L 337.140625 337.140625 L 112.859375 337.140625 Z M 112.859375 112.859375 " clip-rule="nonzero"/></clipPath><clipPath id="afb6b8fbce"><path d="M 225 112.859375 C 163.066406 112.859375 112.859375 163.066406 112.859375 225 C 112.859375 286.933594 163.066406 337.140625 225 337.140625 C 286.933594 337.140625 337.140625 286.933594 337.140625 225 C 337.140625 163.066406 286.933594 112.859375 225 112.859375 Z M 225 112.859375 " clip-rule="nonzero"/></clipPath><clipPath id="1d287e1f59"><path d="M 0.859375 0.859375 L 225.140625 0.859375 L 225.140625 225.140625 L 0.859375 225.140625 Z M 0.859375 0.859375 " clip-rule="nonzero"/></clipPath><clipPath id="b5198e9768"><path d="M 113 0.859375 C 51.066406 0.859375 0.859375 51.066406 0.859375 113 C 0.859375 174.933594 51.066406 225.140625 113 225.140625 C 174.933594 225.140625 225.140625 174.933594 225.140625 113 C 225.140625 51.066406 174.933594 0.859375 113 0.859375 Z M 113 0.859375 " clip-rule="nonzero"/></clipPath><clipPath id="129ecdc519"><rect x="0" width="226" y="0" height="226"/></clipPath><clipPath id="7a64fb28fa"><path d="M 112.859375 112.859375 L 337.109375 112.859375 L 337.109375 337.109375 L 112.859375 337.109375 Z M 112.859375 112.859375 " clip-rule="nonzero"/></clipPath><clipPath id="1c26710a39"><path d="M 224.996094 112.859375 C 163.066406 112.859375 112.859375 163.066406 112.859375 224.996094 C 112.859375 286.929688 163.066406 337.132812 224.996094 337.132812 C 286.929688 337.132812 337.132812 286.929688 337.132812 224.996094 C 337.132812 163.066406 286.929688 112.859375 224.996094 112.859375 Z M 224.996094 112.859375 " clip-rule="nonzero"/></clipPath><clipPath id="1c921957de"><path d="M 202.363281 202.363281 L 247.636719 202.363281 L 247.636719 247.636719 L 202.363281 247.636719 Z M 202.363281 202.363281 " clip-rule="nonzero"/></clipPath><clipPath id="a4326c0f99"><path d="M 225 202.363281 C 212.5 202.363281 202.363281 212.5 202.363281 225 C 202.363281 237.5 212.5 247.636719 225 247.636719 C 237.5 247.636719 247.636719 237.5 247.636719 225 C 247.636719 212.5 237.5 202.363281 225 202.363281 Z M 225 202.363281 " clip-rule="nonzero"/></clipPath><clipPath id="307a0ce6fc"><path d="M 0.363281 0.363281 L 45.636719 0.363281 L 45.636719 45.636719 L 0.363281 45.636719 Z M 0.363281 0.363281 " clip-rule="nonzero"/></clipPath><clipPath id="51d6f79e85"><path d="M 23 0.363281 C 10.5 0.363281 0.363281 10.5 0.363281 23 C 0.363281 35.5 10.5 45.636719 23 45.636719 C 35.5 45.636719 45.636719 35.5 45.636719 23 C 45.636719 10.5 35.5 0.363281 23 0.363281 Z M 23 0.363281 " clip-rule="nonzero"/></clipPath><clipPath id="d43bcd9384"><rect x="0" width="46" y="0" height="46"/></clipPath><clipPath id="2b5d3cd3e3"><path d="M 202.363281 202.363281 L 247.363281 202.363281 L 247.363281 247.363281 L 202.363281 247.363281 Z M 202.363281 202.363281 " clip-rule="nonzero"/></clipPath><clipPath id="85459fadfb"><path d="M 225 202.363281 C 212.5 202.363281 202.363281 212.5 202.363281 225 C 202.363281 237.5 212.5 247.632812 225 247.632812 C 237.5 247.632812 247.632812 237.5 247.632812 225 C 247.632812 212.5 237.5 202.363281 225 202.363281 Z M 225 202.363281 " clip-rule="nonzero"/></clipPath><clipPath id="3379e6046b"><path d="M 73.453125 195.375 L 112.859375 195.375 L 112.859375 254.625 L 73.453125 254.625 Z M 73.453125 195.375 " clip-rule="nonzero"/></clipPath><clipPath id="0fff4e584c"><path d="M 0.453125 0.375 L 39.859375 0.375 L 39.859375 59.625 L 0.453125 59.625 Z M 0.453125 0.375 " clip-rule="nonzero"/></clipPath><clipPath id="7c24de2ad4"><rect x="0" width="40" y="0" height="60"/></clipPath><clipPath id="d17bd7924a"><path d="M 337.140625 195.375 L 376.546875 195.375 L 376.546875 254.625 L 337.140625 254.625 Z M 337.140625 195.375 " clip-rule="nonzero"/></clipPath><clipPath id="56de16e3cd"><path d="M 0.140625 0.375 L 39.546875 0.375 L 39.546875 59.625 L 0.140625 59.625 Z M 0.140625 0.375 " clip-rule="nonzero"/></clipPath><clipPath id="0df771fc77"><rect x="0" width="40" y="0" height="60"/></clipPath></defs><g clip-path="url(#74135d830e)"><g clip-path="url(#afb6b8fbce)"><g transform="matrix(1, 0, 0, 1, 112, 112)"><g clip-path="url(#129ecdc519)"><g clip-path="url(#1d287e1f59)"><g clip-path="url(#b5198e9768)"><path fill="#ffffff" d="M 0.859375 0.859375 L 225.140625 0.859375 L 225.140625 225.140625 L 0.859375 225.140625 Z M 0.859375 0.859375 " fill-opacity="1" fill-rule="nonzero"/></g></g></g></g></g></g><g clip-path="url(#7a64fb28fa)"><g clip-path="url(#1c26710a39)"><path stroke-linecap="butt" transform="matrix(0.75, 0, 0, 0.75, 112.860717, 112.860709)" fill="none" stroke-linejoin="miter" d="M 149.513847 -0.00177841 C 66.940924 -0.00177841 -0.00178928 66.940935 -0.00178928 149.513858 C -0.00178928 232.09199 66.940924 299.029495 149.513847 299.029495 C 232.091979 299.029495 299.029484 232.09199 299.029484 149.513858 C 299.029484 66.940935 232.091979 -0.00177841 149.513847 -0.00177841 Z M 149.513847 -0.00177841 " stroke="#000000" stroke-width="4" stroke-opacity="1" stroke-miterlimit="4"/></g></g><g clip-path="url(#1c921957de)"><g clip-path="url(#a4326c0f99)"><g transform="matrix(1, 0, 0, 1, 202, 202)"><g clip-path="url(#d43bcd9384)"><g clip-path="url(#307a0ce6fc)"><g clip-path="url(#51d6f79e85)"><path fill="#ffffff" d="M 0.363281 0.363281 L 45.636719 0.363281 L 45.636719 45.636719 L 0.363281 45.636719 Z M 0.363281 0.363281 " fill-opacity="1" fill-rule="nonzero"/></g></g></g></g></g></g><g clip-path="url(#2b5d3cd3e3)"><g clip-path="url(#85459fadfb)"><path stroke-linecap="butt" transform="matrix(0.75, 0, 0, 0.75, 202.364728, 202.36472)" fill="none" stroke-linejoin="miter" d="M 30.180365 -0.00191865 C 13.513697 -0.00191865 -0.00192952 13.513707 -0.00192952 30.180375 C -0.00192952 46.847043 13.513697 60.357461 30.180365 60.357461 C 46.847032 60.357461 60.35745 46.847043 60.35745 30.180375 C 60.35745 13.513707 46.847032 -0.00191865 30.180365 -0.00191865 Z M 30.180365 -0.00191865 " stroke="#000000" stroke-width="4" stroke-opacity="1" stroke-miterlimit="4"/></g></g><path stroke-linecap="butt" transform="matrix(0, 0.75, -0.75, 0, 226.494307, 245.891436)" fill="none" stroke-linejoin="miter" d="M -0.0010814 1.997618 L 121.670803 1.997618 " stroke="#000000" stroke-width="4" stroke-opacity="1" stroke-miterlimit="4"/><g clip-path="url(#3379e6046b)"><g transform="matrix(1, 0, 0, 1, 73, 195)"><g clip-path="url(#7c24de2ad4)"><g clip-path="url(#0fff4e584c)"><path fill="#2d4d31" d="M 0.453125 0.375 L 39.859375 0.375 L 39.859375 59.644531 L 0.453125 59.644531 Z M 0.453125 0.375 " fill-opacity="1" fill-rule="nonzero"/></g></g></g></g><g clip-path="url(#d17bd7924a)"><g transform="matrix(1, 0, 0, 1, 337, 195)"><g clip-path="url(#0df771fc77)"><g clip-path="url(#56de16e3cd)"><path fill="#2d4d31" d="M 0.140625 0.375 L 39.546875 0.375 L 39.546875 59.644531 L 0.140625 59.644531 Z M 0.140625 0.375 " fill-opacity="1" fill-rule="nonzero"/></g></g></g></g></svg>