<svg xmlns="http://www.w3.org/2000/svg" xmlns:xlink="http://www.w3.org/1999/xlink" width="600" zoomAndPan="magnify" viewBox="0 0 450 449.999984" height="600" preserveAspectRatio="xMidYMid meet" version="1.0"><defs><clipPath id="49f71f74dd"><path d="M 112.859375 112.855469 L 337.140625 112.855469 L 337.140625 337.132812 L 112.859375 337.132812 Z M 112.859375 112.855469 " clip-rule="nonzero"/></clipPath><clipPath id="41220f5ab6"><path d="M 112.859375 224.996094 C 112.859375 286.925781 163.066406 337.132812 225 337.132812 C 286.933594 337.132812 337.140625 286.925781 337.140625 224.996094 C 337.140625 163.0625 286.933594 112.855469 225 112.855469 C 163.066406 112.855469 112.859375 163.0625 112.859375 224.996094 Z M 112.859375 224.996094 " clip-rule="nonzero"/></clipPath><clipPath id="c24a459af7"><path d="M 0.859375 0.855469 L 225.140625 0.855469 L 225.140625 225.132812 L 0.859375 225.132812 Z M 0.859375 0.855469 " clip-rule="nonzero"/></clipPath><clipPath id="e142ed3b1f"><path d="M 0.859375 112.996094 C 0.859375 174.925781 51.066406 225.132812 113 225.132812 C 174.933594 225.132812 225.140625 174.925781 225.140625 112.996094 C 225.140625 51.0625 174.933594 0.855469 113 0.855469 C 51.066406 0.855469 0.859375 51.0625 0.859375 112.996094 Z M 0.859375 112.996094 " clip-rule="nonzero"/></clipPath><clipPath id="c5552b4261"><rect x="0" width="226" y="0" height="226"/></clipPath><clipPath id="86fa0b5cec"><path d="M 112.859375 112.882812 L 337.109375 112.882812 L 337.109375 337.132812 L 112.859375 337.132812 Z M 112.859375 112.882812 " clip-rule="nonzero"/></clipPath><clipPath id="a8226143ea"><path d="M 112.859375 224.996094 C 112.859375 286.929688 163.066406 337.132812 224.996094 337.132812 C 286.929688 337.132812 337.132812 286.929688 337.132812 224.996094 C 337.132812 163.066406 286.929688 112.859375 224.996094 112.859375 C 163.066406 112.859375 112.859375 163.066406 112.859375 224.996094 Z M 112.859375 224.996094 " clip-rule="nonzero"/></clipPath><clipPath id="1733b30b6e"><path d="M 202.363281 202.359375 L 247.636719 202.359375 L 247.636719 247.628906 L 202.363281 247.628906 Z M 202.363281 202.359375 " clip-rule="nonzero"/></clipPath><clipPath id="37358f008a"><path d="M 202.363281 224.996094 C 202.363281 237.496094 212.5 247.628906 225 247.628906 C 237.5 247.628906 247.636719 237.496094 247.636719 224.996094 C 247.636719 212.492188 237.5 202.359375 225 202.359375 C 212.5 202.359375 202.363281 212.492188 202.363281 224.996094 Z M 202.363281 224.996094 " clip-rule="nonzero"/></clipPath><clipPath id="8863cbd1a2"><path d="M 0.363281 0.359375 L 45.636719 0.359375 L 45.636719 45.628906 L 0.363281 45.628906 Z M 0.363281 0.359375 " clip-rule="nonzero"/></clipPath><clipPath id="0364d16166"><path d="M 0.363281 22.996094 C 0.363281 35.496094 10.5 45.628906 23 45.628906 C 35.5 45.628906 45.636719 35.496094 45.636719 22.996094 C 45.636719 10.492188 35.5 0.359375 23 0.359375 C 10.5 0.359375 0.363281 10.492188 0.363281 22.996094 Z M 0.363281 22.996094 " clip-rule="nonzero"/></clipPath><clipPath id="9d59a5ff74"><rect x="0" width="46" y="0" height="46"/></clipPath><clipPath id="fb34f9e3d9"><path d="M 202.363281 202.628906 L 247.363281 202.628906 L 247.363281 247.628906 L 202.363281 247.628906 Z M 202.363281 202.628906 " clip-rule="nonzero"/></clipPath><clipPath id="f21ce49656"><path d="M 202.363281 224.996094 C 202.363281 237.496094 212.5 247.628906 225 247.628906 C 237.5 247.628906 247.632812 237.496094 247.632812 224.996094 C 247.632812 212.496094 237.5 202.359375 225 202.359375 C 212.5 202.359375 202.363281 212.496094 202.363281 224.996094 Z M 202.363281 224.996094 " clip-rule="nonzero"/></clipPath><clipPath id="ee4e5d9f14"><path d="M 334.496094 202.546875 L 373.792969 202.546875 L 373.792969 247.519531 L 334.496094 247.519531 Z M 334.496094 202.546875 " clip-rule="nonzero"/></clipPath><clipPath id="d5bec86823"><path d="M 373.792969 225 L 334.496094 247.457031 L 334.496094 202.546875 Z M 373.792969 225 " clip-rule="nonzero"/></clipPath><clipPath id="a4c458f862"><path d="M 0.496094 0.546875 L 39.792969 0.546875 L 39.792969 45.519531 L 0.496094 45.519531 Z M 0.496094 0.546875 " clip-rule="nonzero"/></clipPath><clipPath id="e1c200abfe"><path d="M 39.792969 23 L 0.496094 45.457031 L 0.496094 0.546875 Z M 39.792969 23 " clip-rule="nonzero"/></clipPath><clipPath id="60f2342903"><rect x="0" width="40" y="0" height="46"/></clipPath><clipPath id="35611c7ba3"><path d="M 73.5625 202.476562 L 112.859375 202.476562 L 112.859375 247.453125 L 73.5625 247.453125 Z M 73.5625 202.476562 " clip-rule="nonzero"/></clipPath><clipPath id="db4618d97f"><path d="M 73.5625 224.996094 L 112.859375 202.539062 L 112.859375 247.453125 Z M 73.5625 224.996094 " clip-rule="nonzero"/></clipPath><clipPath id="a46d585fe4"><path d="M 0.5625 0.476562 L 39.859375 0.476562 L 39.859375 45.453125 L 0.5625 45.453125 Z M 0.5625 0.476562 " clip-rule="nonzero"/></clipPath><clipPath id="b838e84a67"><path d="M 0.5625 22.996094 L 39.859375 0.539062 L 39.859375 45.453125 Z M 0.5625 22.996094 " clip-rule="nonzero"/></clipPath><clipPath id="270b0322c0"><rect x="0" width="40" y="0" height="46"/></clipPath></defs><g clip-path="url(#49f71f74dd)"><g clip-path="url(#41220f5ab6)"><g transform="matrix(1, 0, 0, 1, 112, 112)"><g clip-path="url(#c5552b4261)"><g clip-path="url(#c24a459af7)"><g clip-path="url(#e142ed3b1f)"><path fill="#ffffff" d="M 0.859375 225.132812 L 0.859375 0.855469 L 225.140625 0.855469 L 225.140625 225.132812 Z M 0.859375 225.132812 " fill-opacity="1" fill-rule="nonzero"/></g></g></g></g></g></g><g clip-path="url(#86fa0b5cec)"><g clip-path="url(#a8226143ea)"><path stroke-linecap="butt" transform="matrix(0, -0.75, 0.75, 0, 112.860717, 337.134115)" fill="none" stroke-linejoin="miter" d="M 149.517374 -0.00178928 C 66.939242 -0.00178928 0.00173712 66.940924 0.00173712 149.513847 C 0.00173712 232.091979 66.939242 299.029484 149.517374 299.029484 C 232.090297 299.029484 299.03301 232.091979 299.03301 149.513847 C 299.03301 66.940924 232.090297 -0.00178928 149.517374 -0.00178928 Z M 149.517374 -0.00178928 " stroke="#000000" stroke-width="4" stroke-opacity="1" stroke-miterlimit="4"/></g></g><g clip-path="url(#1733b30b6e)"><g clip-path="url(#37358f008a)"><g transform="matrix(1, 0, 0, 1, 202, 202)"><g clip-path="url(#9d59a5ff74)"><g clip-path="url(#8863cbd1a2)"><g clip-path="url(#0364d16166)"><path fill="#ffffff" d="M 0.363281 45.628906 L 0.363281 0.359375 L 45.636719 0.359375 L 45.636719 45.628906 Z M 0.363281 45.628906 " fill-opacity="1" fill-rule="nonzero"/></g></g></g></g></g></g><g clip-path="url(#fb34f9e3d9)"><g clip-path="url(#f21ce49656)"><path stroke-linecap="butt" transform="matrix(0, -0.75, 0.75, 0, 202.364728, 247.630176)" fill="none" stroke-linejoin="miter" d="M 30.178779 -0.00192952 C 13.512111 -0.00192952 0.00169288 13.513697 0.00169288 30.180365 C 0.00169288 46.847032 13.512111 60.35745 30.178779 60.35745 C 46.845447 60.35745 60.361073 46.847032 60.361073 30.180365 C 60.361073 13.513697 46.845447 -0.00192952 30.178779 -0.00192952 Z M 30.178779 -0.00192952 " stroke="#000000" stroke-width="4" stroke-opacity="1" stroke-miterlimit="4"/></g></g><path stroke-linecap="butt" transform="matrix(0.75, 0, 0, 0.75, 112.860717, 223.499983)" fill="none" stroke-linejoin="miter" d="M -0.00178928 2.000023 L 123.164887 2.000023 " stroke="#000000" stroke-width="4" stroke-opacity="1" stroke-miterlimit="4"/><g clip-path="url(#ee4e5d9f14)"><g clip-path="url(#d5bec86823)"><g transform="matrix(1, 0, 0, 1, 334, 202)"><g clip-path="url(#60f2342903)"><g clip-path="url(#a4c458f862)"><g clip-path="url(#e1c200abfe)"><path fill="#2d4d31" d="M 39.792969 0.546875 L 39.792969 45.519531 L 0.496094 45.519531 L 0.496094 0.546875 Z M 39.792969 0.546875 " fill-opacity="1" fill-rule="nonzero"/></g></g></g></g></g></g><g clip-path="url(#35611c7ba3)"><g clip-path="url(#db4618d97f)"><g transform="matrix(1, 0, 0, 1, 73, 202)"><g clip-path="url(#270b0322c0)"><g clip-path="url(#a46d585fe4)"><g clip-path="url(#b838e84a67)"><path fill="#2d4d31" d="M 0.5625 45.453125 L 0.5625 0.476562 L 39.859375 0.476562 L 39.859375 45.453125 Z M 0.5625 45.453125 " fill-opacity="1" fill-rule="nonzero"/></g></g></g></g></g></g></svg>