<svg xmlns="http://www.w3.org/2000/svg" xmlns:xlink="http://www.w3.org/1999/xlink" width="600" zoomAndPan="magnify" viewBox="0 0 450 449.999984" height="600" preserveAspectRatio="xMidYMid meet" version="1.0"><defs><clipPath id="50e8f34529"><path d="M 111.359375 121.597656 L 335.640625 121.597656 L 335.640625 345.878906 L 111.359375 345.878906 Z M 111.359375 121.597656 " clip-rule="nonzero"/></clipPath><clipPath id="ff0b3144a2"><path d="M 223.5 121.597656 C 161.566406 121.597656 111.359375 171.804688 111.359375 233.738281 C 111.359375 295.671875 161.566406 345.878906 223.5 345.878906 C 285.433594 345.878906 335.640625 295.671875 335.640625 233.738281 C 335.640625 171.804688 285.433594 121.597656 223.5 121.597656 Z M 223.5 121.597656 " clip-rule="nonzero"/></clipPath><clipPath id="34cf8e890a"><path d="M 0.359375 0.597656 L 224.640625 0.597656 L 224.640625 224.878906 L 0.359375 224.878906 Z M 0.359375 0.597656 " clip-rule="nonzero"/></clipPath><clipPath id="d37884e964"><path d="M 112.5 0.597656 C 50.566406 0.597656 0.359375 50.804688 0.359375 112.738281 C 0.359375 174.671875 50.566406 224.878906 112.5 224.878906 C 174.433594 224.878906 224.640625 174.671875 224.640625 112.738281 C 224.640625 50.804688 174.433594 0.597656 112.5 0.597656 Z M 112.5 0.597656 " clip-rule="nonzero"/></clipPath><clipPath id="414eb09249"><rect x="0" width="225" y="0" height="225"/></clipPath><clipPath id="80c44bf205"><path d="M 111.359375 121.597656 L 335.609375 121.597656 L 335.609375 345.847656 L 111.359375 345.847656 Z M 111.359375 121.597656 " clip-rule="nonzero"/></clipPath><clipPath id="5a3a341a18"><path d="M 223.496094 121.597656 C 161.566406 121.597656 111.359375 171.804688 111.359375 233.734375 C 111.359375 295.667969 161.566406 345.871094 223.496094 345.871094 C 285.429688 345.871094 335.632812 295.667969 335.632812 233.734375 C 335.632812 171.804688 285.429688 121.597656 223.496094 121.597656 Z M 223.496094 121.597656 " clip-rule="nonzero"/></clipPath><clipPath id="531fe5bd9e"><path d="M 200.863281 211.101562 L 246.136719 211.101562 L 246.136719 256.375 L 200.863281 256.375 Z M 200.863281 211.101562 " clip-rule="nonzero"/></clipPath><clipPath id="ffd3d2ab14"><path d="M 223.5 211.101562 C 211 211.101562 200.863281 221.238281 200.863281 233.738281 C 200.863281 246.238281 211 256.375 223.5 256.375 C 236 256.375 246.136719 246.238281 246.136719 233.738281 C 246.136719 221.238281 236 211.101562 223.5 211.101562 Z M 223.5 211.101562 " clip-rule="nonzero"/></clipPath><clipPath id="9b34b9ba38"><path d="M 0.863281 0.101562 L 46.136719 0.101562 L 46.136719 45.375 L 0.863281 45.375 Z M 0.863281 0.101562 " clip-rule="nonzero"/></clipPath><clipPath id="59e1329716"><path d="M 23.5 0.101562 C 11 0.101562 0.863281 10.238281 0.863281 22.738281 C 0.863281 35.238281 11 45.375 23.5 45.375 C 36 45.375 46.136719 35.238281 46.136719 22.738281 C 46.136719 10.238281 36 0.101562 23.5 0.101562 Z M 23.5 0.101562 " clip-rule="nonzero"/></clipPath><clipPath id="2d0f77897e"><rect x="0" width="47" y="0" height="46"/></clipPath><clipPath id="80f3923eb9"><path d="M 200.863281 211.101562 L 245.863281 211.101562 L 245.863281 256.101562 L 200.863281 256.101562 Z M 200.863281 211.101562 " clip-rule="nonzero"/></clipPath><clipPath id="67964a815f"><path d="M 223.5 211.101562 C 211 211.101562 200.863281 221.238281 200.863281 233.738281 C 200.863281 246.238281 211 256.371094 223.5 256.371094 C 236 256.371094 246.132812 246.238281 246.132812 233.738281 C 246.132812 221.238281 236 211.101562 223.5 211.101562 Z M 223.5 211.101562 " clip-rule="nonzero"/></clipPath><clipPath id="06f0bd1bab"><path d="M 73.453125 204.113281 L 112.859375 204.113281 L 112.859375 263.363281 L 73.453125 263.363281 Z M 73.453125 204.113281 " clip-rule="nonzero"/></clipPath><clipPath id="59aa8aaebd"><path d="M 0.453125 0.113281 L 39.859375 0.113281 L 39.859375 59.363281 L 0.453125 59.363281 Z M 0.453125 0.113281 " clip-rule="nonzero"/></clipPath><clipPath id="18e030d2b9"><rect x="0" width="40" y="0" height="60"/></clipPath><clipPath id="f04a58eba1"><path d="M 337.140625 204.113281 L 376.546875 204.113281 L 376.546875 263.363281 L 337.140625 263.363281 Z M 337.140625 204.113281 " clip-rule="nonzero"/></clipPath><clipPath id="081b76b0cb"><path d="M 0.140625 0.113281 L 39.546875 0.113281 L 39.546875 59.363281 L 0.140625 59.363281 Z M 0.140625 0.113281 " clip-rule="nonzero"/></clipPath><clipPath id="0fc6f215b2"><rect x="0" width="40" y="0" height="60"/></clipPath></defs><g clip-path="url(#50e8f34529)"><g clip-path="url(#ff0b3144a2)"><g transform="matrix(1, 0, 0, 1, 111, 121)"><g clip-path="url(#414eb09249)"><g clip-path="url(#34cf8e890a)"><g clip-path="url(#d37884e964)"><path fill="#ffffff" d="M 0.359375 0.597656 L 224.640625 0.597656 L 224.640625 224.878906 L 0.359375 224.878906 Z M 0.359375 0.597656 " fill-opacity="1" fill-rule="nonzero"/></g></g></g></g></g></g><g clip-path="url(#80c44bf205)"><g clip-path="url(#5a3a341a18)"><path stroke-linecap="butt" transform="matrix(0.75, 0, 0, 0.75, 111.360717, 121.599247)" fill="none" stroke-linejoin="miter" d="M 149.513847 -0.00212144 C 66.940924 -0.00212144 -0.00178944 66.940592 -0.00178944 149.513515 C -0.00178944 232.091647 66.940924 299.029152 149.513847 299.029152 C 232.091979 299.029152 299.029484 232.091647 299.029484 149.513515 C 299.029484 66.940592 232.091979 -0.00212144 149.513847 -0.00212144 Z M 149.513847 -0.00212144 " stroke="#000000" stroke-width="4" stroke-opacity="1" stroke-miterlimit="4"/></g></g><g clip-path="url(#531fe5bd9e)"><g clip-path="url(#ffd3d2ab14)"><g transform="matrix(1, 0, 0, 1, 200, 211)"><g clip-path="url(#2d0f77897e)"><g clip-path="url(#9b34b9ba38)"><g clip-path="url(#59e1329716)"><path fill="#ffffff" d="M 0.863281 0.101562 L 46.136719 0.101562 L 46.136719 45.375 L 0.863281 45.375 Z M 0.863281 0.101562 " fill-opacity="1" fill-rule="nonzero"/></g></g></g></g></g></g><g clip-path="url(#80f3923eb9)"><g clip-path="url(#67964a815f)"><path stroke-linecap="butt" transform="matrix(0.75, 0, 0, 0.75, 200.864729, 211.103187)" fill="none" stroke-linejoin="miter" d="M 30.180364 -0.00216568 C 13.513696 -0.00216568 -0.00192967 13.51346 -0.00192967 30.180128 C -0.00192967 46.846796 13.513696 60.357214 30.180364 60.357214 C 46.847032 60.357214 60.35745 46.846796 60.35745 30.180128 C 60.35745 13.51346 46.847032 -0.00216568 30.180364 -0.00216568 Z M 30.180364 -0.00216568 " stroke="#000000" stroke-width="4" stroke-opacity="1" stroke-miterlimit="4"/></g></g><path stroke-linecap="butt" transform="matrix(0.0121727, 0.749901, -0.749901, 0.0121727, 224.996856, 121.577803)" fill="none" stroke-linejoin="miter" d="M -0.000802285 2.001267 L 123.228983 2.001318 " stroke="#000000" stroke-width="4" stroke-opacity="1" stroke-miterlimit="4"/><g clip-path="url(#06f0bd1bab)"><g transform="matrix(1, 0, 0, 1, 73, 204)"><g clip-path="url(#18e030d2b9)"><g clip-path="url(#59aa8aaebd)"><path fill="#2d4d31" d="M 0.453125 0.113281 L 39.859375 0.113281 L 39.859375 59.382812 L 0.453125 59.382812 Z M 0.453125 0.113281 " fill-opacity="1" fill-rule="nonzero"/></g></g></g></g><g clip-path="url(#f04a58eba1)"><g transform="matrix(1, 0, 0, 1, 337, 204)"><g clip-path="url(#0fc6f215b2)"><g clip-path="url(#081b76b0cb)"><path fill="#2d4d31" d="M 0.140625 0.113281 L 39.546875 0.113281 L 39.546875 59.382812 L 0.140625 59.382812 Z M 0.140625 0.113281 " fill-opacity="1" fill-rule="nonzero"/></g></g></g></g></svg>