<svg xmlns="http://www.w3.org/2000/svg" xmlns:xlink="http://www.w3.org/1999/xlink" width="600" zoomAndPan="magnify" viewBox="0 0 450 449.999984" height="600" preserveAspectRatio="xMidYMid meet" version="1.0"><defs><clipPath id="6235f395e9"><path d="M 112.859375 112.859375 L 337.140625 112.859375 L 337.140625 337.140625 L 112.859375 337.140625 Z M 112.859375 112.859375 " clip-rule="nonzero"/></clipPath><clipPath id="ab078c3910"><path d="M 225 112.859375 C 163.066406 112.859375 112.859375 163.066406 112.859375 225 C 112.859375 286.933594 163.066406 337.140625 225 337.140625 C 286.933594 337.140625 337.140625 286.933594 337.140625 225 C 337.140625 163.066406 286.933594 112.859375 225 112.859375 Z M 225 112.859375 " clip-rule="nonzero"/></clipPath><clipPath id="d8187ba7f5"><path d="M 0.859375 0.859375 L 225.140625 0.859375 L 225.140625 225.140625 L 0.859375 225.140625 Z M 0.859375 0.859375 " clip-rule="nonzero"/></clipPath><clipPath id="7cd87cef20"><path d="M 113 0.859375 C 51.066406 0.859375 0.859375 51.066406 0.859375 113 C 0.859375 174.933594 51.066406 225.140625 113 225.140625 C 174.933594 225.140625 225.140625 174.933594 225.140625 113 C 225.140625 51.066406 174.933594 0.859375 113 0.859375 Z M 113 0.859375 " clip-rule="nonzero"/></clipPath><clipPath id="f716040c6a"><rect x="0" width="226" y="0" height="226"/></clipPath><clipPath id="3fc1347682"><path d="M 112.859375 112.859375 L 337.109375 112.859375 L 337.109375 337.109375 L 112.859375 337.109375 Z M 112.859375 112.859375 " clip-rule="nonzero"/></clipPath><clipPath id="581fe22a96"><path d="M 224.996094 112.859375 C 163.066406 112.859375 112.859375 163.066406 112.859375 224.996094 C 112.859375 286.929688 163.066406 337.132812 224.996094 337.132812 C 286.929688 337.132812 337.132812 286.929688 337.132812 224.996094 C 337.132812 163.066406 286.929688 112.859375 224.996094 112.859375 Z M 224.996094 112.859375 " clip-rule="nonzero"/></clipPath><clipPath id="404c991008"><path d="M 202.363281 202.363281 L 247.636719 202.363281 L 247.636719 247.636719 L 202.363281 247.636719 Z M 202.363281 202.363281 " clip-rule="nonzero"/></clipPath><clipPath id="f5680867ef"><path d="M 225 202.363281 C 212.5 202.363281 202.363281 212.5 202.363281 225 C 202.363281 237.5 212.5 247.636719 225 247.636719 C 237.5 247.636719 247.636719 237.5 247.636719 225 C 247.636719 212.5 237.5 202.363281 225 202.363281 Z M 225 202.363281 " clip-rule="nonzero"/></clipPath><clipPath id="50be035fce"><path d="M 0.363281 0.363281 L 45.636719 0.363281 L 45.636719 45.636719 L 0.363281 45.636719 Z M 0.363281 0.363281 " clip-rule="nonzero"/></clipPath><clipPath id="ee164a3877"><path d="M 23 0.363281 C 10.5 0.363281 0.363281 10.5 0.363281 23 C 0.363281 35.5 10.5 45.636719 23 45.636719 C 35.5 45.636719 45.636719 35.5 45.636719 23 C 45.636719 10.5 35.5 0.363281 23 0.363281 Z M 23 0.363281 " clip-rule="nonzero"/></clipPath><clipPath id="d3af5c32a5"><rect x="0" width="46" y="0" height="46"/></clipPath><clipPath id="4c37791c29"><path d="M 202.363281 202.363281 L 247.363281 202.363281 L 247.363281 247.363281 L 202.363281 247.363281 Z M 202.363281 202.363281 " clip-rule="nonzero"/></clipPath><clipPath id="438314c75b"><path d="M 225 202.363281 C 212.5 202.363281 202.363281 212.5 202.363281 225 C 202.363281 237.5 212.5 247.632812 225 247.632812 C 237.5 247.632812 247.632812 237.5 247.632812 225 C 247.632812 212.5 237.5 202.363281 225 202.363281 Z M 225 202.363281 " clip-rule="nonzero"/></clipPath><clipPath id="710b64695f"><path d="M 63.984375 200.5625 L 112.859375 200.5625 L 112.859375 249.4375 L 63.984375 249.4375 Z M 63.984375 200.5625 " clip-rule="nonzero"/></clipPath><clipPath id="da2d1d62e6"><path d="M 88.421875 200.5625 C 74.925781 200.5625 63.984375 211.503906 63.984375 225 C 63.984375 238.496094 74.925781 249.4375 88.421875 249.4375 C 101.917969 249.4375 112.859375 238.496094 112.859375 225 C 112.859375 211.503906 101.917969 200.5625 88.421875 200.5625 Z M 88.421875 200.5625 " clip-rule="nonzero"/></clipPath><clipPath id="ff5da6cfa1"><path d="M 0.984375 0.5625 L 49.859375 0.5625 L 49.859375 49.4375 L 0.984375 49.4375 Z M 0.984375 0.5625 " clip-rule="nonzero"/></clipPath><clipPath id="bccabb42ec"><path d="M 25.421875 0.5625 C 11.925781 0.5625 0.984375 11.503906 0.984375 25 C 0.984375 38.496094 11.925781 49.4375 25.421875 49.4375 C 38.917969 49.4375 49.859375 38.496094 49.859375 25 C 49.859375 11.503906 38.917969 0.5625 25.421875 0.5625 Z M 25.421875 0.5625 " clip-rule="nonzero"/></clipPath><clipPath id="6656384258"><rect x="0" width="50" y="0" height="50"/></clipPath><clipPath id="ae37f82b57"><path d="M 337.140625 200.5625 L 386.015625 200.5625 L 386.015625 249.4375 L 337.140625 249.4375 Z M 337.140625 200.5625 " clip-rule="nonzero"/></clipPath><clipPath id="91bc7906c5"><path d="M 361.578125 200.5625 C 348.082031 200.5625 337.140625 211.503906 337.140625 225 C 337.140625 238.496094 348.082031 249.4375 361.578125 249.4375 C 375.074219 249.4375 386.015625 238.496094 386.015625 225 C 386.015625 211.503906 375.074219 200.5625 361.578125 200.5625 Z M 361.578125 200.5625 " clip-rule="nonzero"/></clipPath><clipPath id="7e72353b8f"><path d="M 0.140625 0.5625 L 49.015625 0.5625 L 49.015625 49.4375 L 0.140625 49.4375 Z M 0.140625 0.5625 " clip-rule="nonzero"/></clipPath><clipPath id="ca0c8ce203"><path d="M 24.578125 0.5625 C 11.082031 0.5625 0.140625 11.503906 0.140625 25 C 0.140625 38.496094 11.082031 49.4375 24.578125 49.4375 C 38.074219 49.4375 49.015625 38.496094 49.015625 25 C 49.015625 11.503906 38.074219 0.5625 24.578125 0.5625 Z M 24.578125 0.5625 " clip-rule="nonzero"/></clipPath><clipPath id="373b0b1dad"><rect x="0" width="50" y="0" height="50"/></clipPath></defs><g clip-path="url(#6235f395e9)"><g clip-path="url(#ab078c3910)"><g transform="matrix(1, 0, 0, 1, 112, 112)"><g clip-path="url(#f716040c6a)"><g clip-path="url(#d8187ba7f5)"><g clip-path="url(#7cd87cef20)"><path fill="#ffffff" d="M 0.859375 0.859375 L 225.140625 0.859375 L 225.140625 225.140625 L 0.859375 225.140625 Z M 0.859375 0.859375 " fill-opacity="1" fill-rule="nonzero"/></g></g></g></g></g></g><g clip-path="url(#3fc1347682)"><g clip-path="url(#581fe22a96)"><path stroke-linecap="butt" transform="matrix(0.75, 0, 0, 0.75, 112.860717, 112.860694)" fill="none" stroke-linejoin="miter" d="M 149.513847 -0.00175921 C 66.940924 -0.00175921 -0.00178928 66.940954 -0.00178928 149.513877 C -0.00178928 232.092009 66.940924 299.029514 149.513847 299.029514 C 232.091979 299.029514 299.029484 232.092009 299.029484 149.513877 C 299.029484 66.940954 232.091979 -0.00175921 149.513847 -0.00175921 Z M 149.513847 -0.00175921 " stroke="#000000" stroke-width="4" stroke-opacity="1" stroke-miterlimit="4"/></g></g><g clip-path="url(#404c991008)"><g clip-path="url(#f5680867ef)"><g transform="matrix(1, 0, 0, 1, 202, 202)"><g clip-path="url(#d3af5c32a5)"><g clip-path="url(#50be035fce)"><g clip-path="url(#ee164a3877)"><path fill="#ffffff" d="M 0.363281 0.363281 L 45.636719 0.363281 L 45.636719 45.636719 L 0.363281 45.636719 Z M 0.363281 0.363281 " fill-opacity="1" fill-rule="nonzero"/></g></g></g></g></g></g><g clip-path="url(#4c37791c29)"><g clip-path="url(#438314c75b)"><path stroke-linecap="butt" transform="matrix(0.75, 0, 0, 0.75, 202.364728, 202.364691)" fill="none" stroke-linejoin="miter" d="M 30.180365 -0.00188025 C 13.513697 -0.00188025 -0.00192952 13.513746 -0.00192952 30.180414 C -0.00192952 46.847082 13.513697 60.357499 30.180365 60.357499 C 46.847032 60.357499 60.35745 46.847082 60.35745 30.180414 C 60.35745 13.513746 46.847032 -0.00188025 30.180365 -0.00188025 Z M 30.180365 -0.00188025 " stroke="#000000" stroke-width="4" stroke-opacity="1" stroke-miterlimit="4"/></g></g><path stroke-linecap="butt" transform="matrix(0, 0.75, -0.75, 0, 226.494307, 245.891407)" fill="none" stroke-linejoin="miter" d="M -0.001043 1.997618 L 121.670841 1.997618 " stroke="#000000" stroke-width="4" stroke-opacity="1" stroke-miterlimit="4"/><g clip-path="url(#710b64695f)"><g clip-path="url(#da2d1d62e6)"><g transform="matrix(1, 0, 0, 1, 63, 200)"><g clip-path="url(#6656384258)"><g clip-path="url(#ff5da6cfa1)"><g clip-path="url(#bccabb42ec)"><path fill="#2d4d31" d="M 0.984375 0.5625 L 49.859375 0.5625 L 49.859375 49.4375 L 0.984375 49.4375 Z M 0.984375 0.5625 " fill-opacity="1" fill-rule="nonzero"/></g></g></g></g></g></g><g clip-path="url(#ae37f82b57)"><g clip-path="url(#91bc7906c5)"><g transform="matrix(1, 0, 0, 1, 337, 200)"><g clip-path="url(#373b0b1dad)"><g clip-path="url(#7e72353b8f)"><g clip-path="url(#ca0c8ce203)"><path fill="#2d4d31" d="M 0.140625 0.5625 L 49.015625 0.5625 L 49.015625 49.4375 L 0.140625 49.4375 Z M 0.140625 0.5625 " fill-opacity="1" fill-rule="nonzero"/></g></g></g></g></g></g></svg>