<svg xmlns="http://www.w3.org/2000/svg" xmlns:xlink="http://www.w3.org/1999/xlink" width="600" zoomAndPan="magnify" viewBox="0 0 450 449.999984" height="600" preserveAspectRatio="xMidYMid meet" version="1.0"><defs><clipPath id="235ec29c96"><path d="M 112.859375 112.855469 L 337.140625 112.855469 L 337.140625 337.132812 L 112.859375 337.132812 Z M 112.859375 112.855469 " clip-rule="nonzero"/></clipPath><clipPath id="e3565f4a27"><path d="M 112.859375 224.996094 C 112.859375 286.925781 163.066406 337.132812 225 337.132812 C 286.933594 337.132812 337.140625 286.925781 337.140625 224.996094 C 337.140625 163.0625 286.933594 112.855469 225 112.855469 C 163.066406 112.855469 112.859375 163.0625 112.859375 224.996094 Z M 112.859375 224.996094 " clip-rule="nonzero"/></clipPath><clipPath id="430073e49d"><path d="M 0.859375 0.855469 L 225.140625 0.855469 L 225.140625 225.132812 L 0.859375 225.132812 Z M 0.859375 0.855469 " clip-rule="nonzero"/></clipPath><clipPath id="e718f0c6e8"><path d="M 0.859375 112.996094 C 0.859375 174.925781 51.066406 225.132812 113 225.132812 C 174.933594 225.132812 225.140625 174.925781 225.140625 112.996094 C 225.140625 51.0625 174.933594 0.855469 113 0.855469 C 51.066406 0.855469 0.859375 51.0625 0.859375 112.996094 Z M 0.859375 112.996094 " clip-rule="nonzero"/></clipPath><clipPath id="891760bdce"><rect x="0" width="226" y="0" height="226"/></clipPath><clipPath id="70832ea886"><path d="M 112.859375 112.882812 L 337.109375 112.882812 L 337.109375 337.132812 L 112.859375 337.132812 Z M 112.859375 112.882812 " clip-rule="nonzero"/></clipPath><clipPath id="c5678dfe22"><path d="M 112.859375 224.996094 C 112.859375 286.929688 163.066406 337.132812 224.996094 337.132812 C 286.929688 337.132812 337.132812 286.929688 337.132812 224.996094 C 337.132812 163.066406 286.929688 112.859375 224.996094 112.859375 C 163.066406 112.859375 112.859375 163.066406 112.859375 224.996094 Z M 112.859375 224.996094 " clip-rule="nonzero"/></clipPath><clipPath id="d8fa8b79f4"><path d="M 202.363281 202.359375 L 247.636719 202.359375 L 247.636719 247.628906 L 202.363281 247.628906 Z M 202.363281 202.359375 " clip-rule="nonzero"/></clipPath><clipPath id="313c2b1bbe"><path d="M 202.363281 224.996094 C 202.363281 237.496094 212.5 247.628906 225 247.628906 C 237.5 247.628906 247.636719 237.496094 247.636719 224.996094 C 247.636719 212.492188 237.5 202.359375 225 202.359375 C 212.5 202.359375 202.363281 212.492188 202.363281 224.996094 Z M 202.363281 224.996094 " clip-rule="nonzero"/></clipPath><clipPath id="c42906a410"><path d="M 0.363281 0.359375 L 45.636719 0.359375 L 45.636719 45.628906 L 0.363281 45.628906 Z M 0.363281 0.359375 " clip-rule="nonzero"/></clipPath><clipPath id="7b42e9df63"><path d="M 0.363281 22.996094 C 0.363281 35.496094 10.5 45.628906 23 45.628906 C 35.5 45.628906 45.636719 35.496094 45.636719 22.996094 C 45.636719 10.492188 35.5 0.359375 23 0.359375 C 10.5 0.359375 0.363281 10.492188 0.363281 22.996094 Z M 0.363281 22.996094 " clip-rule="nonzero"/></clipPath><clipPath id="6fe5a75b7b"><rect x="0" width="46" y="0" height="46"/></clipPath><clipPath id="3930b4a762"><path d="M 202.363281 202.628906 L 247.363281 202.628906 L 247.363281 247.628906 L 202.363281 247.628906 Z M 202.363281 202.628906 " clip-rule="nonzero"/></clipPath><clipPath id="a3f5bda952"><path d="M 202.363281 224.996094 C 202.363281 237.496094 212.5 247.628906 225 247.628906 C 237.5 247.628906 247.632812 237.496094 247.632812 224.996094 C 247.632812 212.496094 237.5 202.359375 225 202.359375 C 212.5 202.359375 202.363281 212.496094 202.363281 224.996094 Z M 202.363281 224.996094 " clip-rule="nonzero"/></clipPath><clipPath id="56b1335955"><path d="M 337.140625 195.375 L 376.546875 195.375 L 376.546875 254.625 L 337.140625 254.625 Z M 337.140625 195.375 " clip-rule="nonzero"/></clipPath><clipPath id="75fde1dc29"><path d="M 0.140625 0.375 L 39.546875 0.375 L 39.546875 59.625 L 0.140625 59.625 Z M 0.140625 0.375 " clip-rule="nonzero"/></clipPath><clipPath id="2f9fe43113"><rect x="0" width="40" y="0" height="60"/></clipPath><clipPath id="f42bbf1548"><path d="M 73.453125 195.375 L 112.859375 195.375 L 112.859375 254.625 L 73.453125 254.625 Z M 73.453125 195.375 " clip-rule="nonzero"/></clipPath><clipPath id="0504939b16"><path d="M 0.453125 0.375 L 39.859375 0.375 L 39.859375 59.625 L 0.453125 59.625 Z M 0.453125 0.375 " clip-rule="nonzero"/></clipPath><clipPath id="e949e235d3"><rect x="0" width="40" y="0" height="60"/></clipPath></defs><g clip-path="url(#235ec29c96)"><g clip-path="url(#e3565f4a27)"><g transform="matrix(1, 0, 0, 1, 112, 112)"><g clip-path="url(#891760bdce)"><g clip-path="url(#430073e49d)"><g clip-path="url(#e718f0c6e8)"><path fill="#ffffff" d="M 0.859375 225.132812 L 0.859375 0.855469 L 225.140625 0.855469 L 225.140625 225.132812 Z M 0.859375 225.132812 " fill-opacity="1" fill-rule="nonzero"/></g></g></g></g></g></g><g clip-path="url(#70832ea886)"><g clip-path="url(#c5678dfe22)"><path stroke-linecap="butt" transform="matrix(0, -0.75, 0.75, 0, 112.860717, 337.134115)" fill="none" stroke-linejoin="miter" d="M 149.517374 -0.00178928 C 66.939242 -0.00178928 0.00173712 66.940924 0.00173712 149.513847 C 0.00173712 232.091979 66.939242 299.029484 149.517374 299.029484 C 232.090297 299.029484 299.03301 232.091979 299.03301 149.513847 C 299.03301 66.940924 232.090297 -0.00178928 149.517374 -0.00178928 Z M 149.517374 -0.00178928 " stroke="#000000" stroke-width="4" stroke-opacity="1" stroke-miterlimit="4"/></g></g><g clip-path="url(#d8fa8b79f4)"><g clip-path="url(#313c2b1bbe)"><g transform="matrix(1, 0, 0, 1, 202, 202)"><g clip-path="url(#6fe5a75b7b)"><g clip-path="url(#c42906a410)"><g clip-path="url(#7b42e9df63)"><path fill="#ffffff" d="M 0.363281 45.628906 L 0.363281 0.359375 L 45.636719 0.359375 L 45.636719 45.628906 Z M 0.363281 45.628906 " fill-opacity="1" fill-rule="nonzero"/></g></g></g></g></g></g><g clip-path="url(#3930b4a762)"><g clip-path="url(#a3f5bda952)"><path stroke-linecap="butt" transform="matrix(0, -0.75, 0.75, 0, 202.364728, 247.630176)" fill="none" stroke-linejoin="miter" d="M 30.178779 -0.00192952 C 13.512111 -0.00192952 0.00169288 13.513697 0.00169288 30.180365 C 0.00169288 46.847032 13.512111 60.35745 30.178779 60.35745 C 46.845447 60.35745 60.361073 46.847032 60.361073 30.180365 C 60.361073 13.513697 46.845447 -0.00192952 30.178779 -0.00192952 Z M 30.178779 -0.00192952 " stroke="#000000" stroke-width="4" stroke-opacity="1" stroke-miterlimit="4"/></g></g><path stroke-linecap="butt" transform="matrix(0, 0.75, -0.75, 0, 224.996827, 112.863858)" fill="none" stroke-linejoin="miter" d="M -0.000768479 2.000978 L 123.165908 2.000978 " stroke="#000000" stroke-width="4" stroke-opacity="1" stroke-miterlimit="4"/><g clip-path="url(#56b1335955)"><g transform="matrix(1, 0, 0, 1, 337, 195)"><g clip-path="url(#2f9fe43113)"><g clip-path="url(#75fde1dc29)"><path fill="#2d4d31" d="M 0.140625 0.375 L 39.546875 0.375 L 39.546875 59.644531 L 0.140625 59.644531 Z M 0.140625 0.375 " fill-opacity="1" fill-rule="nonzero"/></g></g></g></g><g clip-path="url(#f42bbf1548)"><g transform="matrix(1, 0, 0, 1, 73, 195)"><g clip-path="url(#e949e235d3)"><g clip-path="url(#0504939b16)"><path fill="#2d4d31" d="M 0.453125 0.375 L 39.859375 0.375 L 39.859375 59.644531 L 0.453125 59.644531 Z M 0.453125 0.375 " fill-opacity="1" fill-rule="nonzero"/></g></g></g></g></svg>