<svg xmlns="http://www.w3.org/2000/svg" xmlns:xlink="http://www.w3.org/1999/xlink" width="600" zoomAndPan="magnify" viewBox="0 0 450 449.999984" height="600" preserveAspectRatio="xMidYMid meet" version="1.0"><defs><clipPath id="aad342c47f"><path d="M 112.859375 112.855469 L 337.140625 112.855469 L 337.140625 337.132812 L 112.859375 337.132812 Z M 112.859375 112.855469 " clip-rule="nonzero"/></clipPath><clipPath id="fdc90d9036"><path d="M 112.859375 224.996094 C 112.859375 286.925781 163.066406 337.132812 225 337.132812 C 286.933594 337.132812 337.140625 286.925781 337.140625 224.996094 C 337.140625 163.0625 286.933594 112.855469 225 112.855469 C 163.066406 112.855469 112.859375 163.0625 112.859375 224.996094 Z M 112.859375 224.996094 " clip-rule="nonzero"/></clipPath><clipPath id="6e6ead898c"><path d="M 0.859375 0.855469 L 225.140625 0.855469 L 225.140625 225.132812 L 0.859375 225.132812 Z M 0.859375 0.855469 " clip-rule="nonzero"/></clipPath><clipPath id="357ebcf8f2"><path d="M 0.859375 112.996094 C 0.859375 174.925781 51.066406 225.132812 113 225.132812 C 174.933594 225.132812 225.140625 174.925781 225.140625 112.996094 C 225.140625 51.0625 174.933594 0.855469 113 0.855469 C 51.066406 0.855469 0.859375 51.0625 0.859375 112.996094 Z M 0.859375 112.996094 " clip-rule="nonzero"/></clipPath><clipPath id="6ffbc7325b"><rect x="0" width="226" y="0" height="226"/></clipPath><clipPath id="0df90c6a16"><path d="M 112.859375 112.882812 L 337.109375 112.882812 L 337.109375 337.132812 L 112.859375 337.132812 Z M 112.859375 112.882812 " clip-rule="nonzero"/></clipPath><clipPath id="1471e78c62"><path d="M 112.859375 224.996094 C 112.859375 286.929688 163.066406 337.132812 224.996094 337.132812 C 286.929688 337.132812 337.132812 286.929688 337.132812 224.996094 C 337.132812 163.066406 286.929688 112.859375 224.996094 112.859375 C 163.066406 112.859375 112.859375 163.066406 112.859375 224.996094 Z M 112.859375 224.996094 " clip-rule="nonzero"/></clipPath><clipPath id="301f80ecea"><path d="M 202.363281 202.359375 L 247.636719 202.359375 L 247.636719 247.628906 L 202.363281 247.628906 Z M 202.363281 202.359375 " clip-rule="nonzero"/></clipPath><clipPath id="c47d360740"><path d="M 202.363281 224.996094 C 202.363281 237.496094 212.5 247.628906 225 247.628906 C 237.5 247.628906 247.636719 237.496094 247.636719 224.996094 C 247.636719 212.492188 237.5 202.359375 225 202.359375 C 212.5 202.359375 202.363281 212.492188 202.363281 224.996094 Z M 202.363281 224.996094 " clip-rule="nonzero"/></clipPath><clipPath id="ccdc315e0e"><path d="M 0.363281 0.359375 L 45.636719 0.359375 L 45.636719 45.628906 L 0.363281 45.628906 Z M 0.363281 0.359375 " clip-rule="nonzero"/></clipPath><clipPath id="0f2194ca4e"><path d="M 0.363281 22.996094 C 0.363281 35.496094 10.5 45.628906 23 45.628906 C 35.5 45.628906 45.636719 35.496094 45.636719 22.996094 C 45.636719 10.492188 35.5 0.359375 23 0.359375 C 10.5 0.359375 0.363281 10.492188 0.363281 22.996094 Z M 0.363281 22.996094 " clip-rule="nonzero"/></clipPath><clipPath id="316ab42ad7"><rect x="0" width="46" y="0" height="46"/></clipPath><clipPath id="ea3d171571"><path d="M 202.363281 202.628906 L 247.363281 202.628906 L 247.363281 247.628906 L 202.363281 247.628906 Z M 202.363281 202.628906 " clip-rule="nonzero"/></clipPath><clipPath id="e31388c708"><path d="M 202.363281 224.996094 C 202.363281 237.496094 212.5 247.628906 225 247.628906 C 237.5 247.628906 247.632812 237.496094 247.632812 224.996094 C 247.632812 212.496094 237.5 202.359375 225 202.359375 C 212.5 202.359375 202.363281 212.496094 202.363281 224.996094 Z M 202.363281 224.996094 " clip-rule="nonzero"/></clipPath><clipPath id="11570868dc"><path d="M 337.140625 200.5625 L 386.015625 200.5625 L 386.015625 249.4375 L 337.140625 249.4375 Z M 337.140625 200.5625 " clip-rule="nonzero"/></clipPath><clipPath id="bb8e455354"><path d="M 361.578125 200.5625 C 348.082031 200.5625 337.140625 211.503906 337.140625 225 C 337.140625 238.496094 348.082031 249.4375 361.578125 249.4375 C 375.074219 249.4375 386.015625 238.496094 386.015625 225 C 386.015625 211.503906 375.074219 200.5625 361.578125 200.5625 Z M 361.578125 200.5625 " clip-rule="nonzero"/></clipPath><clipPath id="aa56c91abd"><path d="M 0.140625 0.5625 L 49.015625 0.5625 L 49.015625 49.4375 L 0.140625 49.4375 Z M 0.140625 0.5625 " clip-rule="nonzero"/></clipPath><clipPath id="505b3847fe"><path d="M 24.578125 0.5625 C 11.082031 0.5625 0.140625 11.503906 0.140625 25 C 0.140625 38.496094 11.082031 49.4375 24.578125 49.4375 C 38.074219 49.4375 49.015625 38.496094 49.015625 25 C 49.015625 11.503906 38.074219 0.5625 24.578125 0.5625 Z M 24.578125 0.5625 " clip-rule="nonzero"/></clipPath><clipPath id="1ca4af7519"><rect x="0" width="50" y="0" height="50"/></clipPath><clipPath id="4352230367"><path d="M 63.984375 200.5625 L 112.859375 200.5625 L 112.859375 249.4375 L 63.984375 249.4375 Z M 63.984375 200.5625 " clip-rule="nonzero"/></clipPath><clipPath id="8a3c695669"><path d="M 88.421875 200.5625 C 74.925781 200.5625 63.984375 211.503906 63.984375 225 C 63.984375 238.496094 74.925781 249.4375 88.421875 249.4375 C 101.917969 249.4375 112.859375 238.496094 112.859375 225 C 112.859375 211.503906 101.917969 200.5625 88.421875 200.5625 Z M 88.421875 200.5625 " clip-rule="nonzero"/></clipPath><clipPath id="e0662cbbe2"><path d="M 0.984375 0.5625 L 49.859375 0.5625 L 49.859375 49.4375 L 0.984375 49.4375 Z M 0.984375 0.5625 " clip-rule="nonzero"/></clipPath><clipPath id="fb1906378c"><path d="M 25.421875 0.5625 C 11.925781 0.5625 0.984375 11.503906 0.984375 25 C 0.984375 38.496094 11.925781 49.4375 25.421875 49.4375 C 38.917969 49.4375 49.859375 38.496094 49.859375 25 C 49.859375 11.503906 38.917969 0.5625 25.421875 0.5625 Z M 25.421875 0.5625 " clip-rule="nonzero"/></clipPath><clipPath id="f85b492388"><rect x="0" width="50" y="0" height="50"/></clipPath></defs><g clip-path="url(#aad342c47f)"><g clip-path="url(#fdc90d9036)"><g transform="matrix(1, 0, 0, 1, 112, 112)"><g clip-path="url(#6ffbc7325b)"><g clip-path="url(#6e6ead898c)"><g clip-path="url(#357ebcf8f2)"><path fill="#ffffff" d="M 0.859375 225.132812 L 0.859375 0.855469 L 225.140625 0.855469 L 225.140625 225.132812 Z M 0.859375 225.132812 " fill-opacity="1" fill-rule="nonzero"/></g></g></g></g></g></g><g clip-path="url(#0df90c6a16)"><g clip-path="url(#1471e78c62)"><path stroke-linecap="butt" transform="matrix(0, -0.75, 0.75, 0, 112.860717, 337.134115)" fill="none" stroke-linejoin="miter" d="M 149.517374 -0.00178928 C 66.939242 -0.00178928 0.00173712 66.940924 0.00173712 149.513847 C 0.00173712 232.091979 66.939242 299.029484 149.517374 299.029484 C 232.090297 299.029484 299.03301 232.091979 299.03301 149.513847 C 299.03301 66.940924 232.090297 -0.00178928 149.517374 -0.00178928 Z M 149.517374 -0.00178928 " stroke="#000000" stroke-width="4" stroke-opacity="1" stroke-miterlimit="4"/></g></g><g clip-path="url(#301f80ecea)"><g clip-path="url(#c47d360740)"><g transform="matrix(1, 0, 0, 1, 202, 202)"><g clip-path="url(#316ab42ad7)"><g clip-path="url(#ccdc315e0e)"><g clip-path="url(#0f2194ca4e)"><path fill="#ffffff" d="M 0.363281 45.628906 L 0.363281 0.359375 L 45.636719 0.359375 L 45.636719 45.628906 Z M 0.363281 45.628906 " fill-opacity="1" fill-rule="nonzero"/></g></g></g></g></g></g><g clip-path="url(#ea3d171571)"><g clip-path="url(#e31388c708)"><path stroke-linecap="butt" transform="matrix(0, -0.75, 0.75, 0, 202.364728, 247.630058)" fill="none" stroke-linejoin="miter" d="M 30.178622 -0.00192952 C 13.511954 -0.00192952 0.00153608 13.513697 0.00153608 30.180365 C 0.00153608 46.847032 13.511954 60.35745 30.178622 60.35745 C 46.84529 60.35745 60.360916 46.847032 60.360916 30.180365 C 60.360916 13.513697 46.84529 -0.00192952 30.178622 -0.00192952 Z M 30.178622 -0.00192952 " stroke="#000000" stroke-width="4" stroke-opacity="1" stroke-miterlimit="4"/></g></g><path stroke-linecap="butt" transform="matrix(0, 0.75, -0.75, 0, 224.996827, 112.863858)" fill="none" stroke-linejoin="miter" d="M -0.000768479 2.000978 L 123.165908 2.000978 " stroke="#000000" stroke-width="4" stroke-opacity="1" stroke-miterlimit="4"/><g clip-path="url(#11570868dc)"><g clip-path="url(#bb8e455354)"><g transform="matrix(1, 0, 0, 1, 337, 200)"><g clip-path="url(#1ca4af7519)"><g clip-path="url(#aa56c91abd)"><g clip-path="url(#505b3847fe)"><path fill="#2d4d31" d="M 0.140625 0.5625 L 49.015625 0.5625 L 49.015625 49.4375 L 0.140625 49.4375 Z M 0.140625 0.5625 " fill-opacity="1" fill-rule="nonzero"/></g></g></g></g></g></g><g clip-path="url(#4352230367)"><g clip-path="url(#8a3c695669)"><g transform="matrix(1, 0, 0, 1, 63, 200)"><g clip-path="url(#f85b492388)"><g clip-path="url(#e0662cbbe2)"><g clip-path="url(#fb1906378c)"><path fill="#2d4d31" d="M 0.984375 0.5625 L 49.859375 0.5625 L 49.859375 49.4375 L 0.984375 49.4375 Z M 0.984375 0.5625 " fill-opacity="1" fill-rule="nonzero"/></g></g></g></g></g></g></svg>