<svg xmlns="http://www.w3.org/2000/svg" xmlns:xlink="http://www.w3.org/1999/xlink" width="600" zoomAndPan="magnify" viewBox="0 0 450 449.999984" height="600" preserveAspectRatio="xMidYMid meet" version="1.0"><defs><clipPath id="7393d829cc"><path d="M 112.859375 112.855469 L 337.140625 112.855469 L 337.140625 337.132812 L 112.859375 337.132812 Z M 112.859375 112.855469 " clip-rule="nonzero"/></clipPath><clipPath id="81239a8c62"><path d="M 112.859375 224.996094 C 112.859375 286.925781 163.066406 337.132812 225 337.132812 C 286.933594 337.132812 337.140625 286.925781 337.140625 224.996094 C 337.140625 163.0625 286.933594 112.855469 225 112.855469 C 163.066406 112.855469 112.859375 163.0625 112.859375 224.996094 Z M 112.859375 224.996094 " clip-rule="nonzero"/></clipPath><clipPath id="31737666f3"><path d="M 0.859375 0.855469 L 225.140625 0.855469 L 225.140625 225.132812 L 0.859375 225.132812 Z M 0.859375 0.855469 " clip-rule="nonzero"/></clipPath><clipPath id="4f8968facd"><path d="M 0.859375 112.996094 C 0.859375 174.925781 51.066406 225.132812 113 225.132812 C 174.933594 225.132812 225.140625 174.925781 225.140625 112.996094 C 225.140625 51.0625 174.933594 0.855469 113 0.855469 C 51.066406 0.855469 0.859375 51.0625 0.859375 112.996094 Z M 0.859375 112.996094 " clip-rule="nonzero"/></clipPath><clipPath id="cdf51297b4"><rect x="0" width="226" y="0" height="226"/></clipPath><clipPath id="fdc76034bf"><path d="M 112.859375 112.882812 L 337.109375 112.882812 L 337.109375 337.132812 L 112.859375 337.132812 Z M 112.859375 112.882812 " clip-rule="nonzero"/></clipPath><clipPath id="b87461f2ba"><path d="M 112.859375 224.996094 C 112.859375 286.929688 163.066406 337.132812 224.996094 337.132812 C 286.929688 337.132812 337.132812 286.929688 337.132812 224.996094 C 337.132812 163.066406 286.929688 112.859375 224.996094 112.859375 C 163.066406 112.859375 112.859375 163.066406 112.859375 224.996094 Z M 112.859375 224.996094 " clip-rule="nonzero"/></clipPath><clipPath id="225d05d945"><path d="M 202.363281 202.359375 L 247.636719 202.359375 L 247.636719 247.628906 L 202.363281 247.628906 Z M 202.363281 202.359375 " clip-rule="nonzero"/></clipPath><clipPath id="1eb0b24dbf"><path d="M 202.363281 224.996094 C 202.363281 237.496094 212.5 247.628906 225 247.628906 C 237.5 247.628906 247.636719 237.496094 247.636719 224.996094 C 247.636719 212.492188 237.5 202.359375 225 202.359375 C 212.5 202.359375 202.363281 212.492188 202.363281 224.996094 Z M 202.363281 224.996094 " clip-rule="nonzero"/></clipPath><clipPath id="925ce67787"><path d="M 0.363281 0.359375 L 45.636719 0.359375 L 45.636719 45.628906 L 0.363281 45.628906 Z M 0.363281 0.359375 " clip-rule="nonzero"/></clipPath><clipPath id="fc56c7f876"><path d="M 0.363281 22.996094 C 0.363281 35.496094 10.5 45.628906 23 45.628906 C 35.5 45.628906 45.636719 35.496094 45.636719 22.996094 C 45.636719 10.492188 35.5 0.359375 23 0.359375 C 10.5 0.359375 0.363281 10.492188 0.363281 22.996094 Z M 0.363281 22.996094 " clip-rule="nonzero"/></clipPath><clipPath id="000289f761"><rect x="0" width="46" y="0" height="46"/></clipPath><clipPath id="fdd8af444b"><path d="M 202.363281 202.628906 L 247.363281 202.628906 L 247.363281 247.628906 L 202.363281 247.628906 Z M 202.363281 202.628906 " clip-rule="nonzero"/></clipPath><clipPath id="a1c02855d0"><path d="M 202.363281 224.996094 C 202.363281 237.496094 212.5 247.628906 225 247.628906 C 237.5 247.628906 247.632812 237.496094 247.632812 224.996094 C 247.632812 212.496094 237.5 202.359375 225 202.359375 C 212.5 202.359375 202.363281 212.496094 202.363281 224.996094 Z M 202.363281 224.996094 " clip-rule="nonzero"/></clipPath><clipPath id="0f2f74b063"><path d="M 334.496094 202.546875 L 373.792969 202.546875 L 373.792969 247.519531 L 334.496094 247.519531 Z M 334.496094 202.546875 " clip-rule="nonzero"/></clipPath><clipPath id="139f2a2f64"><path d="M 373.792969 225 L 334.496094 247.457031 L 334.496094 202.546875 Z M 373.792969 225 " clip-rule="nonzero"/></clipPath><clipPath id="31af16a6ed"><path d="M 0.496094 0.546875 L 39.792969 0.546875 L 39.792969 45.519531 L 0.496094 45.519531 Z M 0.496094 0.546875 " clip-rule="nonzero"/></clipPath><clipPath id="275ad366ae"><path d="M 39.792969 23 L 0.496094 45.457031 L 0.496094 0.546875 Z M 39.792969 23 " clip-rule="nonzero"/></clipPath><clipPath id="42f8a7239c"><rect x="0" width="40" y="0" height="46"/></clipPath><clipPath id="60cfb4c212"><path d="M 73.5625 202.476562 L 112.859375 202.476562 L 112.859375 247.453125 L 73.5625 247.453125 Z M 73.5625 202.476562 " clip-rule="nonzero"/></clipPath><clipPath id="69f1aba46e"><path d="M 73.5625 224.996094 L 112.859375 202.539062 L 112.859375 247.453125 Z M 73.5625 224.996094 " clip-rule="nonzero"/></clipPath><clipPath id="181e7a29ce"><path d="M 0.5625 0.476562 L 39.859375 0.476562 L 39.859375 45.453125 L 0.5625 45.453125 Z M 0.5625 0.476562 " clip-rule="nonzero"/></clipPath><clipPath id="236594ca0d"><path d="M 0.5625 22.996094 L 39.859375 0.539062 L 39.859375 45.453125 Z M 0.5625 22.996094 " clip-rule="nonzero"/></clipPath><clipPath id="d6a8e98640"><rect x="0" width="40" y="0" height="46"/></clipPath></defs><g clip-path="url(#7393d829cc)"><g clip-path="url(#81239a8c62)"><g transform="matrix(1, 0, 0, 1, 112, 112)"><g clip-path="url(#cdf51297b4)"><g clip-path="url(#31737666f3)"><g clip-path="url(#4f8968facd)"><path fill="#ffffff" d="M 0.859375 225.132812 L 0.859375 0.855469 L 225.140625 0.855469 L 225.140625 225.132812 Z M 0.859375 225.132812 " fill-opacity="1" fill-rule="nonzero"/></g></g></g></g></g></g><g clip-path="url(#fdc76034bf)"><g clip-path="url(#b87461f2ba)"><path stroke-linecap="butt" transform="matrix(0, -0.75, 0.75, 0, 112.860717, 337.134115)" fill="none" stroke-linejoin="miter" d="M 149.517374 -0.00178928 C 66.939242 -0.00178928 0.00173712 66.940924 0.00173712 149.513847 C 0.00173712 232.091979 66.939242 299.029484 149.517374 299.029484 C 232.090297 299.029484 299.03301 232.091979 299.03301 149.513847 C 299.03301 66.940924 232.090297 -0.00178928 149.517374 -0.00178928 Z M 149.517374 -0.00178928 " stroke="#000000" stroke-width="4" stroke-opacity="1" stroke-miterlimit="4"/></g></g><g clip-path="url(#225d05d945)"><g clip-path="url(#1eb0b24dbf)"><g transform="matrix(1, 0, 0, 1, 202, 202)"><g clip-path="url(#000289f761)"><g clip-path="url(#925ce67787)"><g clip-path="url(#fc56c7f876)"><path fill="#ffffff" d="M 0.363281 45.628906 L 0.363281 0.359375 L 45.636719 0.359375 L 45.636719 45.628906 Z M 0.363281 45.628906 " fill-opacity="1" fill-rule="nonzero"/></g></g></g></g></g></g><g clip-path="url(#fdd8af444b)"><g clip-path="url(#a1c02855d0)"><path stroke-linecap="butt" transform="matrix(0, -0.75, 0.75, 0, 202.364728, 247.630118)" fill="none" stroke-linejoin="miter" d="M 30.178702 -0.00192952 C 13.512034 -0.00192952 0.00161608 13.513697 0.00161608 30.180365 C 0.00161608 46.847032 13.512034 60.35745 30.178702 60.35745 C 46.84537 60.35745 60.360996 46.847032 60.360996 30.180365 C 60.360996 13.513697 46.84537 -0.00192952 30.178702 -0.00192952 Z M 30.178702 -0.00192952 " stroke="#000000" stroke-width="4" stroke-opacity="1" stroke-miterlimit="4"/></g></g><path stroke-linecap="butt" transform="matrix(0, 0.75, -0.75, 0, 224.996827, 112.863865)" fill="none" stroke-linejoin="miter" d="M -0.000778079 2.000978 L 123.165898 2.000978 " stroke="#000000" stroke-width="4" stroke-opacity="1" stroke-miterlimit="4"/><g clip-path="url(#0f2f74b063)"><g clip-path="url(#139f2a2f64)"><g transform="matrix(1, 0, 0, 1, 334, 202)"><g clip-path="url(#42f8a7239c)"><g clip-path="url(#31af16a6ed)"><g clip-path="url(#275ad366ae)"><path fill="#2d4d31" d="M 39.792969 0.546875 L 39.792969 45.519531 L 0.496094 45.519531 L 0.496094 0.546875 Z M 39.792969 0.546875 " fill-opacity="1" fill-rule="nonzero"/></g></g></g></g></g></g><g clip-path="url(#60cfb4c212)"><g clip-path="url(#69f1aba46e)"><g transform="matrix(1, 0, 0, 1, 73, 202)"><g clip-path="url(#d6a8e98640)"><g clip-path="url(#181e7a29ce)"><g clip-path="url(#236594ca0d)"><path fill="#2d4d31" d="M 0.5625 45.453125 L 0.5625 0.476562 L 39.859375 0.476562 L 39.859375 45.453125 Z M 0.5625 45.453125 " fill-opacity="1" fill-rule="nonzero"/></g></g></g></g></g></g></svg>