<svg xmlns="http://www.w3.org/2000/svg" xmlns:xlink="http://www.w3.org/1999/xlink" width="600" zoomAndPan="magnify" viewBox="0 0 450 449.999984" height="600" preserveAspectRatio="xMidYMid meet" version="1.0"><defs><clipPath id="25a75a2cc1"><path d="M 0 0 L 360 0 L 360 360 L 0 360 Z M 0 0 " clip-rule="nonzero"/></clipPath><clipPath id="5a6e44fa70"><rect x="0" width="360" y="0" height="360"/></clipPath><clipPath id="bdbaa044bc"><path d="M 45 45 L 405 45 L 405 405 L 45 405 Z M 45 45 " clip-rule="nonzero"/></clipPath><clipPath id="000b113f2a"><path d="M 0 0 L 180 0 L 180 180 L 0 180 Z M 0 0 " clip-rule="nonzero"/></clipPath><clipPath id="0f8d839fa3"><rect x="0" width="180" y="0" height="180"/></clipPath><clipPath id="9e73a55db3"><path d="M 0 0 L 180 0 L 180 180 L 0 180 Z M 0 0 " clip-rule="nonzero"/></clipPath><clipPath id="646bd9d0d5"><rect x="0" width="180" y="0" height="180"/></clipPath></defs><g transform="matrix(1, 0, 0, 1, 45, 45)"><g clip-path="url(#5a6e44fa70)"><g clip-path="url(#25a75a2cc1)"><rect x="-144" width="648" fill="#ffffff" height="647.999977" y="-143.999996" fill-opacity="1"/></g></g></g><g clip-path="url(#bdbaa044bc)"><path stroke-linecap="butt" transform="matrix(0.75, 0, 0, 0.75, 45.000005, 44.999996)" fill="none" stroke-linejoin="miter" d="M -0.00000619333 0.00000467333 L 480.000031 0.00000467333 L 480.000031 480.000042 L -0.00000619333 480.000042 Z M -0.00000619333 0.00000467333 " stroke="#000000" stroke-width="4" stroke-opacity="1" stroke-miterlimit="4"/></g><g transform="matrix(1, 0, 0, 1, 225, 225)"><g clip-path="url(#0f8d839fa3)"><g clip-path="url(#000b113f2a)"><rect x="-324" width="648" fill="#2d4d31" height="647.999977" y="-323.999996" fill-opacity="1"/></g></g></g><g transform="matrix(1, 0, 0, 1, 225, 45)"><g clip-path="url(#646bd9d0d5)"><g clip-path="url(#9e73a55db3)"><rect x="-324" width="648" fill="#2d4d31" height="647.999977" y="-143.999996" fill-opacity="1"/></g></g></g></svg>