<svg xmlns="http://www.w3.org/2000/svg" xmlns:xlink="http://www.w3.org/1999/xlink" width="600" zoomAndPan="magnify" viewBox="0 0 450 449.999984" height="600" preserveAspectRatio="xMidYMid meet" version="1.0"><defs><clipPath id="cd0b1bfab6"><path d="M 0 0 L 360 0 L 360 360 L 0 360 Z M 0 0 " clip-rule="nonzero"/></clipPath><clipPath id="b2cb7336f7"><rect x="0" width="360" y="0" height="360"/></clipPath><clipPath id="dba97ac302"><path d="M 45 45 L 405 45 L 405 405 L 45 405 Z M 45 45 " clip-rule="nonzero"/></clipPath><clipPath id="eb608c87d3"><path d="M 0 0 L 180 0 L 180 180 L 0 180 Z M 0 0 " clip-rule="nonzero"/></clipPath><clipPath id="0b50f32d82"><rect x="0" width="180" y="0" height="180"/></clipPath><clipPath id="b6ce1e3774"><path d="M 0 0 L 180 0 L 180 180 L 0 180 Z M 0 0 " clip-rule="nonzero"/></clipPath><clipPath id="8ebaa42e65"><rect x="0" width="180" y="0" height="180"/></clipPath><clipPath id="385022191b"><path d="M 0 0 L 180 0 L 180 180 L 0 180 Z M 0 0 " clip-rule="nonzero"/></clipPath><clipPath id="99aa09fd82"><rect x="0" width="180" y="0" height="180"/></clipPath></defs><g transform="matrix(1, 0, 0, 1, 45, 45)"><g clip-path="url(#b2cb7336f7)"><g clip-path="url(#cd0b1bfab6)"><rect x="-144" width="648" fill="#ffffff" height="647.999977" y="-143.999996" fill-opacity="1"/></g></g></g><g clip-path="url(#dba97ac302)"><path stroke-linecap="butt" transform="matrix(0.75, 0, 0, 0.75, 45.000005, 44.999996)" fill="none" stroke-linejoin="miter" d="M -0.00000619333 0.00000467333 L 480.000031 0.00000467333 L 480.000031 480.000042 L -0.00000619333 480.000042 Z M -0.00000619333 0.00000467333 " stroke="#000000" stroke-width="4" stroke-opacity="1" stroke-miterlimit="4"/></g><g transform="matrix(1, 0, 0, 1, 225, 225)"><g clip-path="url(#0b50f32d82)"><g clip-path="url(#eb608c87d3)"><rect x="-324" width="648" fill="#2d4d31" height="647.999977" y="-323.999996" fill-opacity="1"/></g></g></g><g transform="matrix(1, 0, 0, 1, 225, 45)"><g clip-path="url(#8ebaa42e65)"><g clip-path="url(#b6ce1e3774)"><rect x="-324" width="648" fill="#2d4d31" height="647.999977" y="-143.999996" fill-opacity="1"/></g></g></g><g transform="matrix(1, 0, 0, 1, 45, 225)"><g clip-path="url(#99aa09fd82)"><g clip-path="url(#385022191b)"><rect x="-144" width="648" fill="#2d4d31" height="647.999977" y="-323.999996" fill-opacity="1"/></g></g></g></svg>