<svg xmlns="http://www.w3.org/2000/svg" xmlns:xlink="http://www.w3.org/1999/xlink" width="600" zoomAndPan="magnify" viewBox="0 0 450 449.999984" height="600" preserveAspectRatio="xMidYMid meet" version="1.0"><defs><clipPath id="cf5bc4fb8a"><path d="M 0 0 L 360 0 L 360 360 L 0 360 Z M 0 0 " clip-rule="nonzero"/></clipPath><clipPath id="11c6cbc210"><rect x="0" width="360" y="0" height="360"/></clipPath><clipPath id="691159ba92"><path d="M 45 45 L 405 45 L 405 405 L 45 405 Z M 45 45 " clip-rule="nonzero"/></clipPath><clipPath id="7bf81c1873"><path d="M 0 0 L 180 0 L 180 180 L 0 180 Z M 0 0 " clip-rule="nonzero"/></clipPath><clipPath id="5f70ca26fd"><rect x="0" width="180" y="0" height="180"/></clipPath><clipPath id="116d27d77b"><path d="M 0 0 L 180 0 L 180 180 L 0 180 Z M 0 0 " clip-rule="nonzero"/></clipPath><clipPath id="0b96a50957"><rect x="0" width="180" y="0" height="180"/></clipPath><clipPath id="3da9395cb7"><path d="M 0 0 L 180 0 L 180 180 L 0 180 Z M 0 0 " clip-rule="nonzero"/></clipPath><clipPath id="8baa9a3b2b"><rect x="0" width="180" y="0" height="180"/></clipPath></defs><g transform="matrix(1, 0, 0, 1, 45, 45)"><g clip-path="url(#11c6cbc210)"><g clip-path="url(#cf5bc4fb8a)"><rect x="-144" width="648" fill="#ffffff" height="647.999977" y="-143.999996" fill-opacity="1"/></g></g></g><g clip-path="url(#691159ba92)"><path stroke-linecap="butt" transform="matrix(0.75, 0, 0, 0.75, 45.000005, 44.999996)" fill="none" stroke-linejoin="miter" d="M -0.00000619333 0.00000467333 L 480.000031 0.00000467333 L 480.000031 480.000042 L -0.00000619333 480.000042 Z M -0.00000619333 0.00000467333 " stroke="#000000" stroke-width="4" stroke-opacity="1" stroke-miterlimit="4"/></g><g transform="matrix(1, 0, 0, 1, 225, 45)"><g clip-path="url(#5f70ca26fd)"><g clip-path="url(#7bf81c1873)"><rect x="-324" width="648" fill="#2d4d31" height="647.999977" y="-143.999996" fill-opacity="1"/></g></g></g><g transform="matrix(1, 0, 0, 1, 45, 45)"><g clip-path="url(#0b96a50957)"><g clip-path="url(#116d27d77b)"><rect x="-144" width="648" fill="#2d4d31" height="647.999977" y="-143.999996" fill-opacity="1"/></g></g></g><g transform="matrix(1, 0, 0, 1, 225, 225)"><g clip-path="url(#8baa9a3b2b)"><g clip-path="url(#3da9395cb7)"><rect x="-324" width="648" fill="#2d4d31" height="647.999977" y="-323.999996" fill-opacity="1"/></g></g></g></svg>