<svg xmlns="http://www.w3.org/2000/svg" xmlns:xlink="http://www.w3.org/1999/xlink" width="40" zoomAndPan="magnify" viewBox="0 0 30 30.000001" height="40" preserveAspectRatio="xMidYMid meet" version="1.0"><defs><clipPath id="f27d781d29"><path d="M 19 13 L 26.613281 13 L 26.613281 24 L 19 24 Z M 19 13 " clip-rule="nonzero"/></clipPath><clipPath id="2a0de22608"><path d="M 3.386719 13 L 11 13 L 11 24 L 3.386719 24 Z M 3.386719 13 " clip-rule="nonzero"/></clipPath><clipPath id="d13cd84492"><path d="M 3.386719 23 L 26.613281 23 L 26.613281 24.484375 L 3.386719 24.484375 Z M 3.386719 23 " clip-rule="nonzero"/></clipPath><clipPath id="9ab6324caa"><path d="M 14 4.886719 L 19 4.886719 L 19 9 L 14 9 Z M 14 4.886719 " clip-rule="nonzero"/></clipPath></defs><path fill="#000000" d="M 9.605469 11.535156 L 14.980469 8.269531 C 15.058594 8.222656 15.152344 8.222656 15.226562 8.269531 L 20.484375 11.535156 C 20.550781 11.578125 20.59375 11.652344 20.59375 11.734375 L 20.59375 12.917969 C 20.59375 13 20.546875 13.078125 20.476562 13.117188 C 20.402344 13.160156 20.3125 13.160156 20.242188 13.117188 L 15.058594 10.117188 L 9.84375 13.117188 C 9.773438 13.160156 9.683594 13.160156 9.613281 13.117188 C 9.539062 13.078125 9.496094 13 9.496094 12.917969 L 9.496094 11.734375 C 9.496094 11.652344 9.535156 11.578125 9.605469 11.535156 Z M 9.960938 11.863281 L 9.960938 12.515625 L 14.941406 9.648438 C 15.011719 9.605469 15.101562 9.605469 15.175781 9.648438 L 20.125 12.511719 L 20.125 11.863281 L 15.101562 8.738281 Z M 9.960938 11.863281 " fill-opacity="1" fill-rule="evenodd"/><path fill="#000000" d="M 10.535156 12.375 C 10.535156 12.246094 10.636719 12.140625 10.765625 12.140625 C 10.894531 12.140625 11 12.246094 11 12.375 L 11 23.222656 L 19.113281 23.222656 L 19.113281 12.695312 C 19.113281 12.566406 19.21875 12.464844 19.347656 12.464844 C 19.476562 12.464844 19.582031 12.566406 19.582031 12.695312 L 19.582031 23.453125 C 19.582031 23.582031 19.476562 23.6875 19.347656 23.6875 L 10.765625 23.6875 C 10.636719 23.6875 10.535156 23.582031 10.535156 23.453125 Z M 10.535156 12.375 " fill-opacity="1" fill-rule="evenodd"/><g clip-path="url(#f27d781d29)"><path fill="#000000" d="M 25.296875 15.238281 L 25.296875 23.453125 C 25.296875 23.582031 25.191406 23.6875 25.0625 23.6875 L 19.40625 23.6875 C 19.277344 23.6875 19.171875 23.582031 19.171875 23.453125 C 19.171875 23.324219 19.277344 23.222656 19.40625 23.222656 L 24.828125 23.222656 L 24.828125 15.238281 L 19.40625 15.238281 L 19.40625 14.773438 L 25.855469 14.773438 L 24.714844 13.492188 L 19.40625 13.492188 C 19.277344 13.492188 19.171875 13.390625 19.171875 13.261719 C 19.171875 13.132812 19.277344 13.027344 19.40625 13.027344 L 24.820312 13.027344 C 24.886719 13.027344 24.949219 13.058594 24.992188 13.105469 L 26.550781 14.851562 C 26.609375 14.917969 26.625 15.015625 26.585938 15.101562 C 26.550781 15.183594 26.464844 15.238281 26.375 15.238281 Z M 25.296875 15.238281 " fill-opacity="1" fill-rule="evenodd"/></g><g clip-path="url(#2a0de22608)"><path fill="#000000" d="M 10.679688 14.773438 C 10.808594 14.773438 10.914062 14.875 10.914062 15.003906 C 10.914062 15.132812 10.808594 15.238281 10.679688 15.238281 L 5.257812 15.238281 L 5.257812 23.222656 L 10.679688 23.222656 C 10.808594 23.222656 10.914062 23.324219 10.914062 23.453125 C 10.914062 23.582031 10.808594 23.6875 10.679688 23.6875 L 5.023438 23.6875 C 4.894531 23.6875 4.789062 23.582031 4.789062 23.453125 L 4.789062 15.238281 L 3.710938 15.238281 C 3.621094 15.238281 3.535156 15.183594 3.5 15.101562 C 3.460938 15.015625 3.476562 14.917969 3.535156 14.851562 L 5.09375 13.105469 C 5.136719 13.058594 5.199219 13.027344 5.265625 13.027344 L 10.679688 13.027344 C 10.808594 13.027344 10.914062 13.132812 10.914062 13.261719 C 10.914062 13.390625 10.808594 13.492188 10.679688 13.492188 L 5.371094 13.492188 L 4.230469 14.773438 Z M 10.679688 14.773438 " fill-opacity="1" fill-rule="evenodd"/></g><path fill="#000000" d="M 21.75 16.191406 L 21.75 17.671875 C 21.75 17.796875 21.644531 17.902344 21.515625 17.902344 L 20.359375 17.902344 C 20.230469 17.902344 20.125 17.796875 20.125 17.671875 L 20.125 16.191406 C 20.125 16.0625 20.230469 15.960938 20.359375 15.960938 L 21.515625 15.960938 C 21.644531 15.960938 21.75 16.0625 21.75 16.191406 Z M 21.28125 16.425781 L 20.589844 16.425781 L 20.589844 17.4375 L 21.28125 17.4375 Z M 21.28125 16.425781 " fill-opacity="1" fill-rule="evenodd"/><path fill="#000000" d="M 13.445312 15.761719 L 13.445312 17.238281 C 13.445312 17.367188 13.339844 17.46875 13.210938 17.46875 L 12.054688 17.46875 C 11.925781 17.46875 11.820312 17.367188 11.820312 17.238281 L 11.820312 15.761719 C 11.820312 15.632812 11.925781 15.527344 12.054688 15.527344 L 13.210938 15.527344 C 13.339844 15.527344 13.445312 15.632812 13.445312 15.761719 Z M 12.980469 15.992188 L 12.289062 15.992188 L 12.289062 17.007812 L 12.980469 17.007812 Z M 12.980469 15.992188 " fill-opacity="1" fill-rule="evenodd"/><path fill="#000000" d="M 15.925781 15.761719 L 15.925781 17.238281 C 15.925781 17.367188 15.820312 17.46875 15.691406 17.46875 L 14.535156 17.46875 C 14.40625 17.46875 14.300781 17.367188 14.300781 17.238281 L 14.300781 15.761719 C 14.300781 15.632812 14.40625 15.527344 14.535156 15.527344 L 15.691406 15.527344 C 15.820312 15.527344 15.925781 15.632812 15.925781 15.761719 Z M 15.457031 15.992188 L 14.765625 15.992188 L 14.765625 17.007812 L 15.457031 17.007812 Z M 15.457031 15.992188 " fill-opacity="1" fill-rule="evenodd"/><path fill="#000000" d="M 18.402344 15.761719 L 18.402344 17.238281 C 18.402344 17.367188 18.296875 17.46875 18.167969 17.46875 L 17.011719 17.46875 C 16.882812 17.46875 16.777344 17.367188 16.777344 17.238281 L 16.777344 15.761719 C 16.777344 15.632812 16.882812 15.527344 17.011719 15.527344 L 18.167969 15.527344 C 18.296875 15.527344 18.402344 15.632812 18.402344 15.761719 Z M 17.9375 15.992188 L 17.246094 15.992188 L 17.246094 17.007812 L 17.9375 17.007812 Z M 17.9375 15.992188 " fill-opacity="1" fill-rule="evenodd"/><path fill="#000000" d="M 18.402344 18.878906 L 18.402344 19.585938 C 18.402344 19.714844 18.296875 19.816406 18.167969 19.816406 L 12.054688 19.816406 C 11.925781 19.816406 11.820312 19.714844 11.820312 19.585938 L 11.820312 18.878906 C 11.820312 18.75 11.925781 18.644531 12.054688 18.644531 L 18.167969 18.644531 C 18.296875 18.644531 18.402344 18.75 18.402344 18.878906 Z M 17.9375 19.109375 L 12.289062 19.109375 L 12.289062 19.351562 L 17.9375 19.351562 Z M 17.9375 19.109375 " fill-opacity="1" fill-rule="evenodd"/><path fill="#000000" d="M 17.667969 19.585938 L 17.667969 23.453125 C 17.667969 23.582031 17.5625 23.6875 17.433594 23.6875 L 12.476562 23.6875 C 12.347656 23.6875 12.242188 23.582031 12.242188 23.453125 L 12.242188 19.585938 C 12.242188 19.457031 12.347656 19.351562 12.476562 19.351562 L 17.433594 19.351562 C 17.5625 19.351562 17.667969 19.457031 17.667969 19.585938 Z M 17.199219 19.816406 L 12.710938 19.816406 L 12.710938 23.222656 L 17.199219 23.222656 Z M 17.199219 19.816406 " fill-opacity="1" fill-rule="evenodd"/><path fill="#000000" d="M 16.867188 19.585938 L 16.867188 23.453125 C 16.867188 23.582031 16.761719 23.6875 16.632812 23.6875 L 13.273438 23.6875 C 13.144531 23.6875 13.042969 23.582031 13.042969 23.453125 L 13.042969 19.585938 C 13.042969 19.457031 13.144531 19.351562 13.273438 19.351562 L 16.632812 19.351562 C 16.761719 19.351562 16.867188 19.457031 16.867188 19.585938 Z M 16.402344 19.816406 L 13.507812 19.816406 L 13.507812 23.222656 L 16.402344 23.222656 Z M 16.402344 19.816406 " fill-opacity="1" fill-rule="evenodd"/><path fill="#000000" d="M 14.722656 19.585938 C 14.722656 19.457031 14.828125 19.351562 14.957031 19.351562 C 15.085938 19.351562 15.191406 19.457031 15.191406 19.585938 L 15.191406 23.453125 C 15.191406 23.582031 15.085938 23.6875 14.957031 23.6875 C 14.828125 23.6875 14.722656 23.582031 14.722656 23.453125 Z M 14.722656 19.585938 " fill-opacity="1" fill-rule="evenodd"/><path fill="#000000" d="M 8.570312 15.960938 L 9.726562 15.960938 C 9.855469 15.960938 9.960938 16.0625 9.960938 16.191406 L 9.960938 17.671875 C 9.960938 17.796875 9.855469 17.902344 9.726562 17.902344 L 8.570312 17.902344 C 8.441406 17.902344 8.335938 17.796875 8.335938 17.671875 L 8.335938 16.191406 C 8.335938 16.0625 8.441406 15.960938 8.570312 15.960938 Z M 8.804688 16.425781 L 8.804688 17.4375 L 9.492188 17.4375 L 9.492188 16.425781 Z M 8.804688 16.425781 " fill-opacity="1" fill-rule="evenodd"/><path fill="#000000" d="M 21.75 18.667969 L 21.75 20.144531 C 21.75 20.273438 21.644531 20.378906 21.515625 20.378906 L 20.359375 20.378906 C 20.230469 20.378906 20.125 20.273438 20.125 20.144531 L 20.125 18.667969 C 20.125 18.539062 20.230469 18.433594 20.359375 18.433594 L 21.515625 18.433594 C 21.644531 18.433594 21.75 18.539062 21.75 18.667969 Z M 21.28125 18.898438 L 20.589844 18.898438 L 20.589844 19.914062 L 21.28125 19.914062 Z M 21.28125 18.898438 " fill-opacity="1" fill-rule="evenodd"/><path fill="#000000" d="M 8.570312 18.433594 L 9.726562 18.433594 C 9.855469 18.433594 9.960938 18.539062 9.960938 18.667969 L 9.960938 20.144531 C 9.960938 20.273438 9.855469 20.378906 9.726562 20.378906 L 8.570312 20.378906 C 8.441406 20.378906 8.335938 20.273438 8.335938 20.144531 L 8.335938 18.667969 C 8.335938 18.539062 8.441406 18.433594 8.570312 18.433594 Z M 8.804688 18.898438 L 8.804688 19.914062 L 9.492188 19.914062 L 9.492188 18.898438 Z M 8.804688 18.898438 " fill-opacity="1" fill-rule="evenodd"/><path fill="#000000" d="M 21.75 21.140625 L 21.75 22.621094 C 21.75 22.75 21.644531 22.851562 21.515625 22.851562 L 20.359375 22.851562 C 20.230469 22.851562 20.125 22.75 20.125 22.621094 L 20.125 21.140625 C 20.125 21.015625 20.230469 20.910156 20.359375 20.910156 L 21.515625 20.910156 C 21.644531 20.910156 21.75 21.015625 21.75 21.140625 Z M 21.28125 21.375 L 20.589844 21.375 L 20.589844 22.386719 L 21.28125 22.386719 Z M 21.28125 21.375 " fill-opacity="1" fill-rule="evenodd"/><path fill="#000000" d="M 8.570312 20.910156 L 9.726562 20.910156 C 9.855469 20.910156 9.960938 21.015625 9.960938 21.140625 L 9.960938 22.621094 C 9.960938 22.75 9.855469 22.851562 9.726562 22.851562 L 8.570312 22.851562 C 8.441406 22.851562 8.335938 22.75 8.335938 22.621094 L 8.335938 21.140625 C 8.335938 21.015625 8.441406 20.910156 8.570312 20.910156 Z M 8.804688 21.375 L 8.804688 22.386719 L 9.492188 22.386719 L 9.492188 21.375 Z M 8.804688 21.375 " fill-opacity="1" fill-rule="evenodd"/><path fill="#000000" d="M 24.277344 16.191406 L 24.277344 17.671875 C 24.277344 17.796875 24.175781 17.902344 24.046875 17.902344 L 22.886719 17.902344 C 22.757812 17.902344 22.65625 17.796875 22.65625 17.671875 L 22.65625 16.191406 C 22.65625 16.0625 22.757812 15.960938 22.886719 15.960938 L 24.046875 15.960938 C 24.175781 15.960938 24.277344 16.0625 24.277344 16.191406 Z M 23.8125 16.425781 L 23.121094 16.425781 L 23.121094 17.4375 L 23.8125 17.4375 Z M 23.8125 16.425781 " fill-opacity="1" fill-rule="evenodd"/><path fill="#000000" d="M 6.039062 15.960938 L 7.195312 15.960938 C 7.328125 15.960938 7.429688 16.0625 7.429688 16.191406 L 7.429688 17.671875 C 7.429688 17.796875 7.328125 17.902344 7.195312 17.902344 L 6.039062 17.902344 C 5.910156 17.902344 5.804688 17.796875 5.804688 17.671875 L 5.804688 16.191406 C 5.804688 16.0625 5.910156 15.960938 6.039062 15.960938 Z M 6.273438 16.425781 L 6.273438 17.4375 L 6.964844 17.4375 L 6.964844 16.425781 Z M 6.273438 16.425781 " fill-opacity="1" fill-rule="evenodd"/><path fill="#000000" d="M 24.277344 18.667969 L 24.277344 20.144531 C 24.277344 20.273438 24.175781 20.378906 24.046875 20.378906 L 22.886719 20.378906 C 22.757812 20.378906 22.65625 20.273438 22.65625 20.144531 L 22.65625 18.667969 C 22.65625 18.539062 22.757812 18.433594 22.886719 18.433594 L 24.046875 18.433594 C 24.175781 18.433594 24.277344 18.539062 24.277344 18.667969 Z M 23.8125 18.898438 L 23.121094 18.898438 L 23.121094 19.914062 L 23.8125 19.914062 Z M 23.8125 18.898438 " fill-opacity="1" fill-rule="evenodd"/><path fill="#000000" d="M 6.039062 18.433594 L 7.195312 18.433594 C 7.328125 18.433594 7.429688 18.539062 7.429688 18.667969 L 7.429688 20.144531 C 7.429688 20.273438 7.328125 20.378906 7.195312 20.378906 L 6.039062 20.378906 C 5.910156 20.378906 5.804688 20.273438 5.804688 20.144531 L 5.804688 18.667969 C 5.804688 18.539062 5.910156 18.433594 6.039062 18.433594 Z M 6.273438 18.898438 L 6.273438 19.914062 L 6.964844 19.914062 L 6.964844 18.898438 Z M 6.273438 18.898438 " fill-opacity="1" fill-rule="evenodd"/><path fill="#000000" d="M 24.277344 21.140625 L 24.277344 22.621094 C 24.277344 22.75 24.175781 22.851562 24.046875 22.851562 L 22.886719 22.851562 C 22.757812 22.851562 22.65625 22.75 22.65625 22.621094 L 22.65625 21.140625 C 22.65625 21.015625 22.757812 20.910156 22.886719 20.910156 L 24.046875 20.910156 C 24.175781 20.910156 24.277344 21.015625 24.277344 21.140625 Z M 23.8125 21.375 L 23.121094 21.375 L 23.121094 22.386719 L 23.8125 22.386719 Z M 23.8125 21.375 " fill-opacity="1" fill-rule="evenodd"/><path fill="#000000" d="M 6.039062 20.910156 L 7.195312 20.910156 C 7.328125 20.910156 7.429688 21.015625 7.429688 21.140625 L 7.429688 22.621094 C 7.429688 22.75 7.328125 22.851562 7.195312 22.851562 L 6.039062 22.851562 C 5.910156 22.851562 5.804688 22.75 5.804688 22.621094 L 5.804688 21.140625 C 5.804688 21.015625 5.910156 20.910156 6.039062 20.910156 Z M 6.273438 21.375 L 6.273438 22.386719 L 6.964844 22.386719 L 6.964844 21.375 Z M 6.273438 21.375 " fill-opacity="1" fill-rule="evenodd"/><g clip-path="url(#d13cd84492)"><path fill="#000000" d="M 26.519531 23.453125 L 26.519531 24.253906 C 26.519531 24.382812 26.414062 24.484375 26.285156 24.484375 L 3.625 24.484375 C 3.496094 24.484375 3.390625 24.382812 3.390625 24.253906 L 3.390625 23.453125 C 3.390625 23.324219 3.496094 23.222656 3.625 23.222656 L 26.285156 23.222656 C 26.414062 23.222656 26.519531 23.324219 26.519531 23.453125 Z M 26.054688 23.6875 L 3.859375 23.6875 L 3.859375 24.019531 L 26.054688 24.019531 Z M 26.054688 23.6875 " fill-opacity="1" fill-rule="evenodd"/></g><g clip-path="url(#9ab6324caa)"><path fill="#000000" d="M 15.347656 7.433594 L 15.347656 8.324219 C 15.347656 8.453125 15.242188 8.558594 15.113281 8.558594 C 14.984375 8.558594 14.878906 8.453125 14.878906 8.324219 L 14.878906 5.121094 C 14.878906 5.03125 14.929688 4.949219 15.011719 4.910156 C 15.097656 4.871094 15.191406 4.882812 15.261719 4.941406 C 15.730469 5.332031 16.628906 6.195312 18.453125 6.195312 C 18.554688 6.195312 18.644531 6.257812 18.675781 6.351562 C 18.707031 6.445312 18.675781 6.550781 18.59375 6.609375 L 17.78125 7.222656 L 18.328125 7.796875 C 18.390625 7.863281 18.410156 7.953125 18.378906 8.039062 C 18.347656 8.121094 18.273438 8.179688 18.1875 8.1875 C 17.167969 8.308594 16.191406 8.128906 15.347656 7.433594 Z M 15.347656 6.796875 C 16.023438 7.496094 16.8125 7.761719 17.644531 7.757812 L 17.261719 7.355469 C 17.214844 7.308594 17.195312 7.242188 17.199219 7.175781 C 17.203125 7.109375 17.238281 7.050781 17.289062 7.011719 L 17.804688 6.625 C 16.605469 6.492188 15.839844 6.003906 15.347656 5.617188 Z M 15.347656 6.796875 " fill-opacity="1" fill-rule="evenodd"/></g><path fill="#000000" d="M 15.113281 11.5625 C 16.050781 11.5625 16.804688 12.273438 16.804688 13.140625 C 16.804688 14.007812 16.050781 14.71875 15.113281 14.71875 C 14.171875 14.71875 13.417969 14.007812 13.417969 13.140625 C 13.417969 12.273438 14.171875 11.5625 15.113281 11.5625 Z M 15.113281 12.027344 C 14.441406 12.027344 13.886719 12.519531 13.886719 13.140625 C 13.886719 13.761719 14.441406 14.257812 15.113281 14.257812 C 15.785156 14.257812 16.339844 13.761719 16.339844 13.140625 C 16.339844 12.519531 15.785156 12.027344 15.113281 12.027344 Z M 15.113281 12.027344 " fill-opacity="1" fill-rule="evenodd"/><path fill="#000000" d="M 13.652344 13.371094 C 13.523438 13.371094 13.417969 13.269531 13.417969 13.140625 C 13.417969 13.011719 13.523438 12.910156 13.652344 12.910156 L 14.148438 12.910156 C 14.277344 12.910156 14.382812 13.011719 14.382812 13.140625 C 14.382812 13.269531 14.277344 13.371094 14.148438 13.371094 Z M 13.652344 13.371094 " fill-opacity="1" fill-rule="evenodd"/><path fill="#000000" d="M 16.078125 13.371094 C 15.949219 13.371094 15.84375 13.269531 15.84375 13.140625 C 15.84375 13.011719 15.949219 12.910156 16.078125 12.910156 L 16.574219 12.910156 C 16.703125 12.910156 16.804688 13.011719 16.804688 13.140625 C 16.804688 13.269531 16.703125 13.371094 16.574219 13.371094 Z M 16.078125 13.371094 " fill-opacity="1" fill-rule="evenodd"/><path fill="#000000" d="M 14.878906 11.792969 C 14.878906 11.664062 14.984375 11.5625 15.113281 11.5625 C 15.242188 11.5625 15.347656 11.664062 15.347656 11.792969 L 15.347656 13.824219 C 15.347656 13.953125 15.242188 14.058594 15.113281 14.058594 C 14.984375 14.058594 14.878906 13.953125 14.878906 13.824219 Z M 14.878906 11.792969 " fill-opacity="1" fill-rule="evenodd"/></svg>