<svg xmlns="http://www.w3.org/2000/svg" xmlns:xlink="http://www.w3.org/1999/xlink" width="600" zoomAndPan="magnify" viewBox="0 0 450 449.999984" height="600" preserveAspectRatio="xMidYMid meet" version="1.0"><defs><clipPath id="0890cdab8d"><path d="M 0 0 L 360 0 L 360 360 L 0 360 Z M 0 0 " clip-rule="nonzero"/></clipPath><clipPath id="8f1bb89bf5"><rect x="0" width="360" y="0" height="360"/></clipPath><clipPath id="f92f53277e"><path d="M 45 45 L 405 45 L 405 405 L 45 405 Z M 45 45 " clip-rule="nonzero"/></clipPath><clipPath id="958a1109b5"><path d="M 117.6875 114.316406 L 193.675781 114.316406 L 193.675781 283.507812 L 117.6875 283.507812 Z M 117.6875 114.316406 " clip-rule="nonzero"/></clipPath><clipPath id="c16d9bca47"><path d="M 159.214844 164.210938 L 159.214844 283.441406 L 152.148438 283.441406 L 152.148438 164.210938 L 117.6875 177.316406 L 155.679688 114.316406 L 193.675781 177.316406 Z M 159.214844 164.210938 " clip-rule="nonzero"/></clipPath><clipPath id="b556e8342f"><path d="M 0.6875 0.316406 L 76.675781 0.316406 L 76.675781 169.441406 L 0.6875 169.441406 Z M 0.6875 0.316406 " clip-rule="nonzero"/></clipPath><clipPath id="fa1bcdadae"><path d="M 42.214844 50.210938 L 42.214844 169.441406 L 35.148438 169.441406 L 35.148438 50.210938 L 0.6875 63.316406 L 38.679688 0.316406 L 76.675781 63.316406 Z M 42.214844 50.210938 " clip-rule="nonzero"/></clipPath><clipPath id="977c4c7ea0"><rect x="0" width="77" y="0" height="170"/></clipPath><clipPath id="24e1b473f7"><path d="M 271.511719 114.316406 L 347.5 114.316406 L 347.5 283.507812 L 271.511719 283.507812 Z M 271.511719 114.316406 " clip-rule="nonzero"/></clipPath><clipPath id="5ceb272344"><path d="M 313.039062 164.210938 L 313.039062 283.441406 L 305.972656 283.441406 L 305.972656 164.210938 L 271.511719 177.316406 L 309.503906 114.316406 L 347.5 177.316406 Z M 313.039062 164.210938 " clip-rule="nonzero"/></clipPath><clipPath id="42214ff4fe"><path d="M 0.511719 0.316406 L 76.5 0.316406 L 76.5 169.441406 L 0.511719 169.441406 Z M 0.511719 0.316406 " clip-rule="nonzero"/></clipPath><clipPath id="6e8aaf8633"><path d="M 42.039062 50.210938 L 42.039062 169.441406 L 34.972656 169.441406 L 34.972656 50.210938 L 0.511719 63.316406 L 38.503906 0.316406 L 76.5 63.316406 Z M 42.039062 50.210938 " clip-rule="nonzero"/></clipPath><clipPath id="07fb618c79"><rect x="0" width="77" y="0" height="170"/></clipPath></defs><g transform="matrix(1, 0, 0, 1, 45, 45)"><g clip-path="url(#8f1bb89bf5)"><g clip-path="url(#0890cdab8d)"><rect x="-144" width="648" fill="#ffffff" height="647.999977" y="-143.999996" fill-opacity="1"/></g></g></g><g clip-path="url(#f92f53277e)"><path stroke-linecap="butt" transform="matrix(0.75, 0, 0, 0.75, 45.000005, 44.999996)" fill="none" stroke-linejoin="miter" d="M -0.00000619333 0.00000467333 L 480.000031 0.00000467333 L 480.000031 480.000042 L -0.00000619333 480.000042 Z M -0.00000619333 0.00000467333 " stroke="#000000" stroke-width="8" stroke-opacity="1" stroke-miterlimit="4"/></g><g clip-path="url(#958a1109b5)"><g clip-path="url(#c16d9bca47)"><g transform="matrix(1, 0, 0, 1, 117, 114)"><g clip-path="url(#977c4c7ea0)"><g clip-path="url(#b556e8342f)"><g clip-path="url(#fa1bcdadae)"><path fill="#111827" d="M 76.675781 0.316406 L 76.675781 169.507812 L 0.6875 169.507812 L 0.6875 0.316406 Z M 76.675781 0.316406 " fill-opacity="1" fill-rule="nonzero"/></g></g></g></g></g></g><g clip-path="url(#24e1b473f7)"><g clip-path="url(#5ceb272344)"><g transform="matrix(1, 0, 0, 1, 271, 114)"><g clip-path="url(#07fb618c79)"><g clip-path="url(#42214ff4fe)"><g clip-path="url(#6e8aaf8633)"><path fill="#111827" d="M 76.5 0.316406 L 76.5 169.507812 L 0.511719 169.507812 L 0.511719 0.316406 Z M 76.5 0.316406 " fill-opacity="1" fill-rule="nonzero"/></g></g></g></g></g></g></svg>