<svg xmlns="http://www.w3.org/2000/svg" xmlns:xlink="http://www.w3.org/1999/xlink" width="600" zoomAndPan="magnify" viewBox="0 0 450 449.999984" height="600" preserveAspectRatio="xMidYMid meet" version="1.0"><defs><clipPath id="e2c57cd5d7"><path d="M 45 371.25 L 405 371.25 L 405 438.75 L 45 438.75 Z M 45 371.25 " clip-rule="nonzero"/></clipPath><clipPath id="80c3a4de95"><path d="M 225 371.25 C 125.589844 371.25 45 386.359375 45 405 C 45 423.640625 125.589844 438.75 225 438.75 C 324.410156 438.75 405 423.640625 405 405 C 405 386.359375 324.410156 371.25 225 371.25 Z M 225 371.25 " clip-rule="nonzero"/></clipPath><clipPath id="4923cc6fa5"><path d="M 0 0.25 L 360 0.25 L 360 67.75 L 0 67.75 Z M 0 0.25 " clip-rule="nonzero"/></clipPath><clipPath id="638ccf721d"><path d="M 180 0.25 C 80.589844 0.25 0 15.359375 0 34 C 0 52.640625 80.589844 67.75 180 67.75 C 279.410156 67.75 360 52.640625 360 34 C 360 15.359375 279.410156 0.25 180 0.25 Z M 180 0.25 " clip-rule="nonzero"/></clipPath><clipPath id="7e0a39551e"><rect x="0" width="360" y="0" height="68"/></clipPath></defs><path stroke-linecap="butt" transform="matrix(0.75, 0, 0, 0.75, 45.000005, 223.499983)" fill="none" stroke-linejoin="miter" d="M -0.00000619333 2.000023 L 480.000031 2.000023 " stroke="#000000" stroke-width="4" stroke-opacity="1" stroke-miterlimit="4"/><path stroke-linecap="butt" transform="matrix(0, 0.75, -0.75, 0, 226.499991, 44.999996)" fill="none" stroke-linejoin="miter" d="M 0.00000467333 1.999987 L 480.000042 1.999987 " stroke="#000000" stroke-width="4" stroke-opacity="1" stroke-miterlimit="4"/><g clip-path="url(#e2c57cd5d7)"><g clip-path="url(#80c3a4de95)"><g transform="matrix(1, 0, 0, 1, 45, 371)"><g clip-path="url(#7e0a39551e)"><g clip-path="url(#4923cc6fa5)"><g clip-path="url(#638ccf721d)"><path fill="#374151" d="M 0 0.25 L 359.910156 0.25 L 359.910156 67.75 L 0 67.75 Z M 0 0.25 " fill-opacity="1" fill-rule="nonzero"/></g></g></g></g></g></g></svg>