<svg xmlns="http://www.w3.org/2000/svg" xmlns:xlink="http://www.w3.org/1999/xlink" width="600" zoomAndPan="magnify" viewBox="0 0 450 449.999984" height="600" preserveAspectRatio="xMidYMid meet" version="1.0"><defs><clipPath id="8c20f46a80"><path d="M 0 0 L 360 0 L 360 360 L 0 360 Z M 0 0 " clip-rule="nonzero"/></clipPath><clipPath id="ed62005a42"><rect x="0" width="360" y="0" height="360"/></clipPath><clipPath id="c6088388c4"><path d="M 45 45 L 405 45 L 405 405 L 45 405 Z M 45 45 " clip-rule="nonzero"/></clipPath><clipPath id="f1117ca587"><path d="M 117.6875 114.316406 L 193.675781 114.316406 L 193.675781 283.507812 L 117.6875 283.507812 Z M 117.6875 114.316406 " clip-rule="nonzero"/></clipPath><clipPath id="3b6475f0f4"><path d="M 159.214844 164.210938 L 159.214844 283.441406 L 152.148438 283.441406 L 152.148438 164.210938 L 117.6875 177.316406 L 155.679688 114.316406 L 193.675781 177.316406 Z M 159.214844 164.210938 " clip-rule="nonzero"/></clipPath><clipPath id="6b3ab66eaa"><path d="M 0.6875 0.316406 L 76.675781 0.316406 L 76.675781 169.441406 L 0.6875 169.441406 Z M 0.6875 0.316406 " clip-rule="nonzero"/></clipPath><clipPath id="38cee9cf74"><path d="M 42.214844 50.210938 L 42.214844 169.441406 L 35.148438 169.441406 L 35.148438 50.210938 L 0.6875 63.316406 L 38.679688 0.316406 L 76.675781 63.316406 Z M 42.214844 50.210938 " clip-rule="nonzero"/></clipPath><clipPath id="5e45a44ef3"><rect x="0" width="77" y="0" height="170"/></clipPath><clipPath id="df776fe8ea"><path d="M 271.515625 114.238281 L 347.5 114.238281 L 347.5 283.429688 L 271.515625 283.429688 Z M 271.515625 114.238281 " clip-rule="nonzero"/></clipPath><clipPath id="f9fc25e2d4"><path d="M 305.972656 233.535156 L 305.972656 114.304688 L 313.042969 114.304688 L 313.042969 233.539062 L 347.5 220.429688 L 309.507812 283.429688 L 271.515625 220.429688 Z M 305.972656 233.535156 " clip-rule="nonzero"/></clipPath><clipPath id="dfd767adb8"><path d="M 0.515625 0.238281 L 76.5 0.238281 L 76.5 169.429688 L 0.515625 169.429688 Z M 0.515625 0.238281 " clip-rule="nonzero"/></clipPath><clipPath id="6383a0ca1f"><path d="M 34.972656 119.535156 L 34.972656 0.304688 L 42.042969 0.304688 L 42.042969 119.539062 L 76.5 106.429688 L 38.507812 169.429688 L 0.515625 106.429688 Z M 34.972656 119.535156 " clip-rule="nonzero"/></clipPath><clipPath id="ee5e7c9e79"><rect x="0" width="77" y="0" height="170"/></clipPath></defs><g transform="matrix(1, 0, 0, 1, 45, 45)"><g clip-path="url(#ed62005a42)"><g clip-path="url(#8c20f46a80)"><rect x="-144" width="648" fill="#ffffff" height="647.999977" y="-143.999996" fill-opacity="1"/></g></g></g><g clip-path="url(#c6088388c4)"><path stroke-linecap="butt" transform="matrix(0.75, 0, 0, 0.75, 45.000005, 44.999996)" fill="none" stroke-linejoin="miter" d="M -0.00000619333 0.00000467333 L 480.000031 0.00000467333 L 480.000031 480.000042 L -0.00000619333 480.000042 Z M -0.00000619333 0.00000467333 " stroke="#000000" stroke-width="8" stroke-opacity="1" stroke-miterlimit="4"/></g><g clip-path="url(#f1117ca587)"><g clip-path="url(#3b6475f0f4)"><g transform="matrix(1, 0, 0, 1, 117, 114)"><g clip-path="url(#5e45a44ef3)"><g clip-path="url(#6b3ab66eaa)"><g clip-path="url(#38cee9cf74)"><path fill="#111827" d="M 76.675781 0.316406 L 76.675781 169.507812 L 0.6875 169.507812 L 0.6875 0.316406 Z M 76.675781 0.316406 " fill-opacity="1" fill-rule="nonzero"/></g></g></g></g></g></g><g clip-path="url(#df776fe8ea)"><g clip-path="url(#f9fc25e2d4)"><g transform="matrix(1, 0, 0, 1, 271, 114)"><g clip-path="url(#ee5e7c9e79)"><g clip-path="url(#dfd767adb8)"><g clip-path="url(#6383a0ca1f)"><path fill="#111827" d="M 0.515625 169.429688 L 0.515625 0.238281 L 76.5 0.238281 L 76.5 169.429688 Z M 0.515625 169.429688 " fill-opacity="1" fill-rule="nonzero"/></g></g></g></g></g></g></svg>