<svg xmlns="http://www.w3.org/2000/svg" xmlns:xlink="http://www.w3.org/1999/xlink" width="600" zoomAndPan="magnify" viewBox="0 0 450 449.999984" height="600" preserveAspectRatio="xMidYMid meet" version="1.0"><defs><clipPath id="40efa01540"><path d="M 0 0 L 360 0 L 360 360 L 0 360 Z M 0 0 " clip-rule="nonzero"/></clipPath><clipPath id="647b6d6176"><rect x="0" width="360" y="0" height="360"/></clipPath><clipPath id="9926916b2b"><path d="M 45 45 L 405 45 L 405 405 L 45 405 Z M 45 45 " clip-rule="nonzero"/></clipPath><clipPath id="35c9f04b44"><path d="M 117.691406 114.238281 L 193.675781 114.238281 L 193.675781 283.429688 L 117.691406 283.429688 Z M 117.691406 114.238281 " clip-rule="nonzero"/></clipPath><clipPath id="e606ad5f05"><path d="M 152.148438 233.535156 L 152.148438 114.304688 L 159.21875 114.304688 L 159.21875 233.539062 L 193.675781 220.429688 L 155.683594 283.429688 L 117.691406 220.429688 Z M 152.148438 233.535156 " clip-rule="nonzero"/></clipPath><clipPath id="a817f4a7f6"><path d="M 0.691406 0.238281 L 76.675781 0.238281 L 76.675781 169.429688 L 0.691406 169.429688 Z M 0.691406 0.238281 " clip-rule="nonzero"/></clipPath><clipPath id="c925861221"><path d="M 35.148438 119.535156 L 35.148438 0.304688 L 42.21875 0.304688 L 42.21875 119.539062 L 76.675781 106.429688 L 38.683594 169.429688 L 0.691406 106.429688 Z M 35.148438 119.535156 " clip-rule="nonzero"/></clipPath><clipPath id="e933947e26"><rect x="0" width="77" y="0" height="170"/></clipPath><clipPath id="b36f340ce6"><path d="M 271.511719 114.316406 L 347.5 114.316406 L 347.5 283.507812 L 271.511719 283.507812 Z M 271.511719 114.316406 " clip-rule="nonzero"/></clipPath><clipPath id="74226e1425"><path d="M 313.039062 164.210938 L 313.039062 283.441406 L 305.972656 283.441406 L 305.972656 164.210938 L 271.511719 177.316406 L 309.503906 114.316406 L 347.5 177.316406 Z M 313.039062 164.210938 " clip-rule="nonzero"/></clipPath><clipPath id="897fc61cfc"><path d="M 0.511719 0.316406 L 76.5 0.316406 L 76.5 169.441406 L 0.511719 169.441406 Z M 0.511719 0.316406 " clip-rule="nonzero"/></clipPath><clipPath id="f8e89e8f1b"><path d="M 42.039062 50.210938 L 42.039062 169.441406 L 34.972656 169.441406 L 34.972656 50.210938 L 0.511719 63.316406 L 38.503906 0.316406 L 76.5 63.316406 Z M 42.039062 50.210938 " clip-rule="nonzero"/></clipPath><clipPath id="d441d88a9c"><rect x="0" width="77" y="0" height="170"/></clipPath></defs><g transform="matrix(1, 0, 0, 1, 45, 45)"><g clip-path="url(#647b6d6176)"><g clip-path="url(#40efa01540)"><rect x="-144" width="648" fill="#ffffff" height="647.999977" y="-143.999996" fill-opacity="1"/></g></g></g><g clip-path="url(#9926916b2b)"><path stroke-linecap="butt" transform="matrix(0.75, 0, 0, 0.75, 45.000005, 44.999996)" fill="none" stroke-linejoin="miter" d="M -0.00000619333 0.00000467333 L 480.000031 0.00000467333 L 480.000031 480.000042 L -0.00000619333 480.000042 Z M -0.00000619333 0.00000467333 " stroke="#000000" stroke-width="8" stroke-opacity="1" stroke-miterlimit="4"/></g><g clip-path="url(#35c9f04b44)"><g clip-path="url(#e606ad5f05)"><g transform="matrix(1, 0, 0, 1, 117, 114)"><g clip-path="url(#e933947e26)"><g clip-path="url(#a817f4a7f6)"><g clip-path="url(#c925861221)"><path fill="#111827" d="M 0.691406 169.429688 L 0.691406 0.238281 L 76.675781 0.238281 L 76.675781 169.429688 Z M 0.691406 169.429688 " fill-opacity="1" fill-rule="nonzero"/></g></g></g></g></g></g><g clip-path="url(#b36f340ce6)"><g clip-path="url(#74226e1425)"><g transform="matrix(1, 0, 0, 1, 271, 114)"><g clip-path="url(#d441d88a9c)"><g clip-path="url(#897fc61cfc)"><g clip-path="url(#f8e89e8f1b)"><path fill="#111827" d="M 76.5 0.316406 L 76.5 169.507812 L 0.511719 169.507812 L 0.511719 0.316406 Z M 76.5 0.316406 " fill-opacity="1" fill-rule="nonzero"/></g></g></g></g></g></g></svg>