<svg xmlns="http://www.w3.org/2000/svg" xmlns:xlink="http://www.w3.org/1999/xlink" width="600" zoomAndPan="magnify" viewBox="0 0 450 449.999984" height="600" preserveAspectRatio="xMidYMid meet" version="1.0"><defs><clipPath id="45292f0f78"><path d="M 0 0 L 360 0 L 360 360 L 0 360 Z M 0 0 " clip-rule="nonzero"/></clipPath><clipPath id="9ccec1fc6d"><rect x="0" width="360" y="0" height="360"/></clipPath><clipPath id="80ecdb229d"><path d="M 45 45 L 405 45 L 405 405 L 45 405 Z M 45 45 " clip-rule="nonzero"/></clipPath><clipPath id="32cb3ab463"><path d="M 117.6875 114.316406 L 193.675781 114.316406 L 193.675781 283.507812 L 117.6875 283.507812 Z M 117.6875 114.316406 " clip-rule="nonzero"/></clipPath><clipPath id="3ac2601f54"><path d="M 159.214844 164.210938 L 159.214844 283.441406 L 152.148438 283.441406 L 152.148438 164.210938 L 117.6875 177.316406 L 155.679688 114.316406 L 193.675781 177.316406 Z M 159.214844 164.210938 " clip-rule="nonzero"/></clipPath><clipPath id="b94a012bc0"><path d="M 0.6875 0.316406 L 76.675781 0.316406 L 76.675781 169.441406 L 0.6875 169.441406 Z M 0.6875 0.316406 " clip-rule="nonzero"/></clipPath><clipPath id="73023ba89f"><path d="M 42.214844 50.210938 L 42.214844 169.441406 L 35.148438 169.441406 L 35.148438 50.210938 L 0.6875 63.316406 L 38.679688 0.316406 L 76.675781 63.316406 Z M 42.214844 50.210938 " clip-rule="nonzero"/></clipPath><clipPath id="5750c1f6e8"><rect x="0" width="77" y="0" height="170"/></clipPath><clipPath id="aa0ba46c13"><path d="M 224.875 160.878906 L 394.0625 160.878906 L 394.0625 236.867188 L 224.875 236.867188 Z M 224.875 160.878906 " clip-rule="nonzero"/></clipPath><clipPath id="f0551637eb"><path d="M 344.167969 202.40625 L 224.941406 202.40625 L 224.941406 195.339844 L 344.171875 195.339844 L 331.066406 160.878906 L 394.0625 198.871094 L 331.066406 236.867188 Z M 344.167969 202.40625 " clip-rule="nonzero"/></clipPath><clipPath id="ef28e2e49a"><path d="M 0.878906 0.878906 L 170.0625 0.878906 L 170.0625 76.867188 L 0.878906 76.867188 Z M 0.878906 0.878906 " clip-rule="nonzero"/></clipPath><clipPath id="3769086d1b"><path d="M 120.167969 42.40625 L 0.941406 42.40625 L 0.941406 35.339844 L 120.171875 35.339844 L 107.066406 0.878906 L 170.0625 38.871094 L 107.066406 76.867188 Z M 120.167969 42.40625 " clip-rule="nonzero"/></clipPath><clipPath id="52d4eb8d26"><rect x="0" width="171" y="0" height="77"/></clipPath></defs><g transform="matrix(1, 0, 0, 1, 45, 45)"><g clip-path="url(#9ccec1fc6d)"><g clip-path="url(#45292f0f78)"><rect x="-144" width="648" fill="#ffffff" height="647.999977" y="-143.999996" fill-opacity="1"/></g></g></g><g clip-path="url(#80ecdb229d)"><path stroke-linecap="butt" transform="matrix(0.75, 0, 0, 0.75, 45.000005, 44.999996)" fill="none" stroke-linejoin="miter" d="M -0.00000619333 0.00000467333 L 480.000031 0.00000467333 L 480.000031 480.000042 L -0.00000619333 480.000042 Z M -0.00000619333 0.00000467333 " stroke="#000000" stroke-width="8" stroke-opacity="1" stroke-miterlimit="4"/></g><g clip-path="url(#32cb3ab463)"><g clip-path="url(#3ac2601f54)"><g transform="matrix(1, 0, 0, 1, 117, 114)"><g clip-path="url(#5750c1f6e8)"><g clip-path="url(#b94a012bc0)"><g clip-path="url(#73023ba89f)"><path fill="#111827" d="M 76.675781 0.316406 L 76.675781 169.507812 L 0.6875 169.507812 L 0.6875 0.316406 Z M 76.675781 0.316406 " fill-opacity="1" fill-rule="nonzero"/></g></g></g></g></g></g><g clip-path="url(#aa0ba46c13)"><g clip-path="url(#f0551637eb)"><g transform="matrix(1, 0, 0, 1, 224, 160)"><g clip-path="url(#52d4eb8d26)"><g clip-path="url(#ef28e2e49a)"><g clip-path="url(#3769086d1b)"><path fill="#111827" d="M 170.0625 76.867188 L 0.875 76.867188 L 0.875 0.878906 L 170.0625 0.878906 Z M 170.0625 76.867188 " fill-opacity="1" fill-rule="nonzero"/></g></g></g></g></g></g></svg>