<svg xmlns="http://www.w3.org/2000/svg" xmlns:xlink="http://www.w3.org/1999/xlink" width="600" zoomAndPan="magnify" viewBox="0 0 450 449.999984" height="600" preserveAspectRatio="xMidYMid meet" version="1.0"><defs><clipPath id="9534ba36e3"><path d="M 0 0 L 360 0 L 360 360 L 0 360 Z M 0 0 " clip-rule="nonzero"/></clipPath><clipPath id="7655a3a9d0"><rect x="0" width="360" y="0" height="360"/></clipPath><clipPath id="070cb9ef03"><path d="M 45 45 L 405 45 L 405 405 L 45 405 Z M 45 45 " clip-rule="nonzero"/></clipPath><clipPath id="db5d50b0c9"><path d="M 117.6875 114.316406 L 193.675781 114.316406 L 193.675781 283.507812 L 117.6875 283.507812 Z M 117.6875 114.316406 " clip-rule="nonzero"/></clipPath><clipPath id="2f1c818890"><path d="M 159.214844 164.210938 L 159.214844 283.441406 L 152.148438 283.441406 L 152.148438 164.210938 L 117.6875 177.316406 L 155.679688 114.316406 L 193.675781 177.316406 Z M 159.214844 164.210938 " clip-rule="nonzero"/></clipPath><clipPath id="b06be91742"><path d="M 0.6875 0.316406 L 76.675781 0.316406 L 76.675781 169.441406 L 0.6875 169.441406 Z M 0.6875 0.316406 " clip-rule="nonzero"/></clipPath><clipPath id="97de284988"><path d="M 42.214844 50.210938 L 42.214844 169.441406 L 35.148438 169.441406 L 35.148438 50.210938 L 0.6875 63.316406 L 38.679688 0.316406 L 76.675781 63.316406 Z M 42.214844 50.210938 " clip-rule="nonzero"/></clipPath><clipPath id="f30510808e"><rect x="0" width="77" y="0" height="170"/></clipPath><clipPath id="6b5ceb9399"><path d="M 224.949219 160.882812 L 394.140625 160.882812 L 394.140625 236.867188 L 224.949219 236.867188 Z M 224.949219 160.882812 " clip-rule="nonzero"/></clipPath><clipPath id="cda01d8189"><path d="M 274.84375 195.339844 L 394.074219 195.339844 L 394.074219 202.410156 L 274.84375 202.410156 L 287.949219 236.867188 L 224.949219 198.875 L 287.949219 160.882812 Z M 274.84375 195.339844 " clip-rule="nonzero"/></clipPath><clipPath id="cad520f782"><path d="M 0.949219 0.882812 L 170.078125 0.882812 L 170.078125 76.867188 L 0.949219 76.867188 Z M 0.949219 0.882812 " clip-rule="nonzero"/></clipPath><clipPath id="51cef9317c"><path d="M 50.84375 35.339844 L 170.074219 35.339844 L 170.074219 42.410156 L 50.84375 42.410156 L 63.949219 76.867188 L 0.949219 38.875 L 63.949219 0.882812 Z M 50.84375 35.339844 " clip-rule="nonzero"/></clipPath><clipPath id="8e48274157"><rect x="0" width="171" y="0" height="77"/></clipPath></defs><g transform="matrix(1, 0, 0, 1, 45, 45)"><g clip-path="url(#7655a3a9d0)"><g clip-path="url(#9534ba36e3)"><rect x="-144" width="648" fill="#ffffff" height="647.999977" y="-143.999996" fill-opacity="1"/></g></g></g><g clip-path="url(#070cb9ef03)"><path stroke-linecap="butt" transform="matrix(0.75, 0, 0, 0.75, 45.000005, 44.999996)" fill="none" stroke-linejoin="miter" d="M -0.00000619333 0.00000467333 L 480.000031 0.00000467333 L 480.000031 480.000042 L -0.00000619333 480.000042 Z M -0.00000619333 0.00000467333 " stroke="#000000" stroke-width="8" stroke-opacity="1" stroke-miterlimit="4"/></g><g clip-path="url(#db5d50b0c9)"><g clip-path="url(#2f1c818890)"><g transform="matrix(1, 0, 0, 1, 117, 114)"><g clip-path="url(#f30510808e)"><g clip-path="url(#b06be91742)"><g clip-path="url(#97de284988)"><path fill="#111827" d="M 76.675781 0.316406 L 76.675781 169.507812 L 0.6875 169.507812 L 0.6875 0.316406 Z M 76.675781 0.316406 " fill-opacity="1" fill-rule="nonzero"/></g></g></g></g></g></g><g clip-path="url(#6b5ceb9399)"><g clip-path="url(#cda01d8189)"><g transform="matrix(1, 0, 0, 1, 224, 160)"><g clip-path="url(#8e48274157)"><g clip-path="url(#cad520f782)"><g clip-path="url(#51cef9317c)"><path fill="#111827" d="M 0.949219 0.882812 L 170.140625 0.882812 L 170.140625 76.867188 L 0.949219 76.867188 Z M 0.949219 0.882812 " fill-opacity="1" fill-rule="nonzero"/></g></g></g></g></g></g></svg>