<svg xmlns="http://www.w3.org/2000/svg" xmlns:xlink="http://www.w3.org/1999/xlink" width="600" zoomAndPan="magnify" viewBox="0 0 450 449.999984" height="600" preserveAspectRatio="xMidYMid meet" version="1.0"><defs><clipPath id="ef79d75338"><path d="M 0 0 L 360 0 L 360 360 L 0 360 Z M 0 0 " clip-rule="nonzero"/></clipPath><clipPath id="aa89a3bd05"><rect x="0" width="360" y="0" height="360"/></clipPath><clipPath id="1eb3eb6d56"><path d="M 45 45 L 405 45 L 405 405 L 45 405 Z M 45 45 " clip-rule="nonzero"/></clipPath><clipPath id="adfa0bb00c"><path d="M 117.691406 114.238281 L 193.675781 114.238281 L 193.675781 283.429688 L 117.691406 283.429688 Z M 117.691406 114.238281 " clip-rule="nonzero"/></clipPath><clipPath id="032b1fd8ac"><path d="M 152.148438 233.535156 L 152.148438 114.304688 L 159.21875 114.304688 L 159.21875 233.539062 L 193.675781 220.429688 L 155.683594 283.429688 L 117.691406 220.429688 Z M 152.148438 233.535156 " clip-rule="nonzero"/></clipPath><clipPath id="0b61b7a610"><path d="M 0.691406 0.238281 L 76.675781 0.238281 L 76.675781 169.429688 L 0.691406 169.429688 Z M 0.691406 0.238281 " clip-rule="nonzero"/></clipPath><clipPath id="2255cd03f8"><path d="M 35.148438 119.535156 L 35.148438 0.304688 L 42.21875 0.304688 L 42.21875 119.539062 L 76.675781 106.429688 L 38.683594 169.429688 L 0.691406 106.429688 Z M 35.148438 119.535156 " clip-rule="nonzero"/></clipPath><clipPath id="e3340ffbcf"><rect x="0" width="77" y="0" height="170"/></clipPath><clipPath id="25942ed69e"><path d="M 224.875 160.878906 L 394.0625 160.878906 L 394.0625 236.867188 L 224.875 236.867188 Z M 224.875 160.878906 " clip-rule="nonzero"/></clipPath><clipPath id="1184630e14"><path d="M 344.167969 202.40625 L 224.941406 202.40625 L 224.941406 195.339844 L 344.171875 195.339844 L 331.066406 160.878906 L 394.0625 198.871094 L 331.066406 236.867188 Z M 344.167969 202.40625 " clip-rule="nonzero"/></clipPath><clipPath id="8c335aa700"><path d="M 0.878906 0.878906 L 170.0625 0.878906 L 170.0625 76.867188 L 0.878906 76.867188 Z M 0.878906 0.878906 " clip-rule="nonzero"/></clipPath><clipPath id="86b58c816a"><path d="M 120.167969 42.40625 L 0.941406 42.40625 L 0.941406 35.339844 L 120.171875 35.339844 L 107.066406 0.878906 L 170.0625 38.871094 L 107.066406 76.867188 Z M 120.167969 42.40625 " clip-rule="nonzero"/></clipPath><clipPath id="73f41d6cdd"><rect x="0" width="171" y="0" height="77"/></clipPath></defs><g transform="matrix(1, 0, 0, 1, 45, 45)"><g clip-path="url(#aa89a3bd05)"><g clip-path="url(#ef79d75338)"><rect x="-144" width="648" fill="#ffffff" height="647.999977" y="-143.999996" fill-opacity="1"/></g></g></g><g clip-path="url(#1eb3eb6d56)"><path stroke-linecap="butt" transform="matrix(0.75, 0, 0, 0.75, 45.000005, 44.999996)" fill="none" stroke-linejoin="miter" d="M -0.00000619333 0.00000467333 L 480.000031 0.00000467333 L 480.000031 480.000042 L -0.00000619333 480.000042 Z M -0.00000619333 0.00000467333 " stroke="#000000" stroke-width="8" stroke-opacity="1" stroke-miterlimit="4"/></g><g clip-path="url(#adfa0bb00c)"><g clip-path="url(#032b1fd8ac)"><g transform="matrix(1, 0, 0, 1, 117, 114)"><g clip-path="url(#e3340ffbcf)"><g clip-path="url(#0b61b7a610)"><g clip-path="url(#2255cd03f8)"><path fill="#111827" d="M 0.691406 169.429688 L 0.691406 0.238281 L 76.675781 0.238281 L 76.675781 169.429688 Z M 0.691406 169.429688 " fill-opacity="1" fill-rule="nonzero"/></g></g></g></g></g></g><g clip-path="url(#25942ed69e)"><g clip-path="url(#1184630e14)"><g transform="matrix(1, 0, 0, 1, 224, 160)"><g clip-path="url(#73f41d6cdd)"><g clip-path="url(#8c335aa700)"><g clip-path="url(#86b58c816a)"><path fill="#111827" d="M 170.0625 76.867188 L 0.875 76.867188 L 0.875 0.878906 L 170.0625 0.878906 Z M 170.0625 76.867188 " fill-opacity="1" fill-rule="nonzero"/></g></g></g></g></g></g></svg>