<svg xmlns="http://www.w3.org/2000/svg" xmlns:xlink="http://www.w3.org/1999/xlink" width="600" zoomAndPan="magnify" viewBox="0 0 450 449.999984" height="600" preserveAspectRatio="xMidYMid meet" version="1.0"><defs><clipPath id="0a946b8ff6"><path d="M 0 0 L 360 0 L 360 360 L 0 360 Z M 0 0 " clip-rule="nonzero"/></clipPath><clipPath id="3462f14967"><rect x="0" width="360" y="0" height="360"/></clipPath><clipPath id="99906b1bc8"><path d="M 45 45 L 405 45 L 405 405 L 45 405 Z M 45 45 " clip-rule="nonzero"/></clipPath><clipPath id="1f56194402"><path d="M 117.691406 114.242188 L 193.675781 114.242188 L 193.675781 283.429688 L 117.691406 283.429688 Z M 117.691406 114.242188 " clip-rule="nonzero"/></clipPath><clipPath id="c47fa5829a"><path d="M 152.148438 233.535156 L 152.148438 114.308594 L 159.21875 114.308594 L 159.21875 233.539062 L 193.675781 220.429688 L 155.683594 283.429688 L 117.691406 220.429688 Z M 152.148438 233.535156 " clip-rule="nonzero"/></clipPath><clipPath id="1363694686"><path d="M 0.691406 0.242188 L 76.675781 0.242188 L 76.675781 169.429688 L 0.691406 169.429688 Z M 0.691406 0.242188 " clip-rule="nonzero"/></clipPath><clipPath id="02de762b31"><path d="M 35.148438 119.535156 L 35.148438 0.308594 L 42.21875 0.308594 L 42.21875 119.539062 L 76.675781 106.429688 L 38.683594 169.429688 L 0.691406 106.429688 Z M 35.148438 119.535156 " clip-rule="nonzero"/></clipPath><clipPath id="43a8a3c381"><rect x="0" width="77" y="0" height="170"/></clipPath><clipPath id="09bdb700d5"><path d="M 271.515625 114.242188 L 347.5 114.242188 L 347.5 283.429688 L 271.515625 283.429688 Z M 271.515625 114.242188 " clip-rule="nonzero"/></clipPath><clipPath id="b108384015"><path d="M 305.972656 233.535156 L 305.972656 114.308594 L 313.042969 114.308594 L 313.042969 233.539062 L 347.5 220.429688 L 309.507812 283.429688 L 271.515625 220.429688 Z M 305.972656 233.535156 " clip-rule="nonzero"/></clipPath><clipPath id="aff02fdbca"><path d="M 0.515625 0.242188 L 76.5 0.242188 L 76.5 169.429688 L 0.515625 169.429688 Z M 0.515625 0.242188 " clip-rule="nonzero"/></clipPath><clipPath id="b22fb0e1f2"><path d="M 34.972656 119.535156 L 34.972656 0.308594 L 42.042969 0.308594 L 42.042969 119.539062 L 76.5 106.429688 L 38.507812 169.429688 L 0.515625 106.429688 Z M 34.972656 119.535156 " clip-rule="nonzero"/></clipPath><clipPath id="6e93610c09"><rect x="0" width="77" y="0" height="170"/></clipPath></defs><g transform="matrix(1, 0, 0, 1, 45, 45)"><g clip-path="url(#3462f14967)"><g clip-path="url(#0a946b8ff6)"><rect x="-144" width="648" fill="#ffffff" height="647.999977" y="-143.999996" fill-opacity="1"/></g></g></g><g clip-path="url(#99906b1bc8)"><path stroke-linecap="butt" transform="matrix(0.75, 0, 0, 0.75, 45.000005, 44.999996)" fill="none" stroke-linejoin="miter" d="M -0.00000619333 0.00000467333 L 480.000031 0.00000467333 L 480.000031 480.000042 L -0.00000619333 480.000042 Z M -0.00000619333 0.00000467333 " stroke="#000000" stroke-width="8" stroke-opacity="1" stroke-miterlimit="4"/></g><g clip-path="url(#1f56194402)"><g clip-path="url(#c47fa5829a)"><g transform="matrix(1, 0, 0, 1, 117, 114)"><g clip-path="url(#43a8a3c381)"><g clip-path="url(#1363694686)"><g clip-path="url(#02de762b31)"><path fill="#111827" d="M 0.691406 169.429688 L 0.691406 0.242188 L 76.675781 0.242188 L 76.675781 169.429688 Z M 0.691406 169.429688 " fill-opacity="1" fill-rule="nonzero"/></g></g></g></g></g></g><g clip-path="url(#09bdb700d5)"><g clip-path="url(#b108384015)"><g transform="matrix(1, 0, 0, 1, 271, 114)"><g clip-path="url(#6e93610c09)"><g clip-path="url(#aff02fdbca)"><g clip-path="url(#b22fb0e1f2)"><path fill="#111827" d="M 0.515625 169.429688 L 0.515625 0.242188 L 76.5 0.242188 L 76.5 169.429688 Z M 0.515625 169.429688 " fill-opacity="1" fill-rule="nonzero"/></g></g></g></g></g></g></svg>