<svg xmlns="http://www.w3.org/2000/svg" xmlns:xlink="http://www.w3.org/1999/xlink" width="600" zoomAndPan="magnify" viewBox="0 0 450 449.999984" height="600" preserveAspectRatio="xMidYMid meet" version="1.0"><defs><clipPath id="f367b0b7ac"><path d="M 0 0 L 360 0 L 360 360 L 0 360 Z M 0 0 " clip-rule="nonzero"/></clipPath><clipPath id="31eb6f9e00"><rect x="0" width="360" y="0" height="360"/></clipPath><clipPath id="6cae79dd69"><path d="M 45 45 L 405 45 L 405 405 L 45 405 Z M 45 45 " clip-rule="nonzero"/></clipPath><clipPath id="a2c229d980"><path d="M 117.691406 114.242188 L 193.675781 114.242188 L 193.675781 283.429688 L 117.691406 283.429688 Z M 117.691406 114.242188 " clip-rule="nonzero"/></clipPath><clipPath id="823aa67497"><path d="M 152.148438 233.535156 L 152.148438 114.308594 L 159.21875 114.308594 L 159.21875 233.539062 L 193.675781 220.429688 L 155.683594 283.429688 L 117.691406 220.429688 Z M 152.148438 233.535156 " clip-rule="nonzero"/></clipPath><clipPath id="a915b15e5e"><path d="M 0.691406 0.242188 L 76.675781 0.242188 L 76.675781 169.429688 L 0.691406 169.429688 Z M 0.691406 0.242188 " clip-rule="nonzero"/></clipPath><clipPath id="93a09a7dbe"><path d="M 35.148438 119.535156 L 35.148438 0.308594 L 42.21875 0.308594 L 42.21875 119.539062 L 76.675781 106.429688 L 38.683594 169.429688 L 0.691406 106.429688 Z M 35.148438 119.535156 " clip-rule="nonzero"/></clipPath><clipPath id="487756a9c3"><rect x="0" width="77" y="0" height="170"/></clipPath><clipPath id="a4f30b2b0b"><path d="M 271.511719 114.316406 L 347.5 114.316406 L 347.5 283.507812 L 271.511719 283.507812 Z M 271.511719 114.316406 " clip-rule="nonzero"/></clipPath><clipPath id="3c01a8a72e"><path d="M 313.039062 164.210938 L 313.039062 283.441406 L 305.972656 283.441406 L 305.972656 164.210938 L 271.511719 177.316406 L 309.503906 114.316406 L 347.5 177.316406 Z M 313.039062 164.210938 " clip-rule="nonzero"/></clipPath><clipPath id="f63164d1ab"><path d="M 0.511719 0.316406 L 76.5 0.316406 L 76.5 169.441406 L 0.511719 169.441406 Z M 0.511719 0.316406 " clip-rule="nonzero"/></clipPath><clipPath id="b11087775a"><path d="M 42.039062 50.210938 L 42.039062 169.441406 L 34.972656 169.441406 L 34.972656 50.210938 L 0.511719 63.316406 L 38.503906 0.316406 L 76.5 63.316406 Z M 42.039062 50.210938 " clip-rule="nonzero"/></clipPath><clipPath id="5f91a6bf73"><rect x="0" width="77" y="0" height="170"/></clipPath></defs><g transform="matrix(1, 0, 0, 1, 45, 45)"><g clip-path="url(#31eb6f9e00)"><g clip-path="url(#f367b0b7ac)"><rect x="-144" width="648" fill="#ffffff" height="647.999977" y="-143.999996" fill-opacity="1"/></g></g></g><g clip-path="url(#6cae79dd69)"><path stroke-linecap="butt" transform="matrix(0.75, 0, 0, 0.75, 45.000005, 44.999996)" fill="none" stroke-linejoin="miter" d="M -0.00000619333 0.00000467333 L 480.000031 0.00000467333 L 480.000031 480.000042 L -0.00000619333 480.000042 Z M -0.00000619333 0.00000467333 " stroke="#000000" stroke-width="8" stroke-opacity="1" stroke-miterlimit="4"/></g><g clip-path="url(#a2c229d980)"><g clip-path="url(#823aa67497)"><g transform="matrix(1, 0, 0, 1, 117, 114)"><g clip-path="url(#487756a9c3)"><g clip-path="url(#a915b15e5e)"><g clip-path="url(#93a09a7dbe)"><path fill="#111827" d="M 0.691406 169.429688 L 0.691406 0.242188 L 76.675781 0.242188 L 76.675781 169.429688 Z M 0.691406 169.429688 " fill-opacity="1" fill-rule="nonzero"/></g></g></g></g></g></g><g clip-path="url(#a4f30b2b0b)"><g clip-path="url(#3c01a8a72e)"><g transform="matrix(1, 0, 0, 1, 271, 114)"><g clip-path="url(#5f91a6bf73)"><g clip-path="url(#f63164d1ab)"><g clip-path="url(#b11087775a)"><path fill="#111827" d="M 76.5 0.316406 L 76.5 169.507812 L 0.511719 169.507812 L 0.511719 0.316406 Z M 76.5 0.316406 " fill-opacity="1" fill-rule="nonzero"/></g></g></g></g></g></g></svg>