<svg xmlns="http://www.w3.org/2000/svg" xmlns:xlink="http://www.w3.org/1999/xlink" width="600" zoomAndPan="magnify" viewBox="0 0 450 449.999984" height="600" preserveAspectRatio="xMidYMid meet" version="1.0"><defs><clipPath id="b538e23f1b"><path d="M 0 0 L 360 0 L 360 360 L 0 360 Z M 0 0 " clip-rule="nonzero"/></clipPath><clipPath id="2eceeb49ca"><rect x="0" width="360" y="0" height="360"/></clipPath><clipPath id="fff7ebcc11"><path d="M 45 45 L 405 45 L 405 405 L 45 405 Z M 45 45 " clip-rule="nonzero"/></clipPath><clipPath id="e9d587a63a"><path d="M 117.6875 114.316406 L 193.675781 114.316406 L 193.675781 283.507812 L 117.6875 283.507812 Z M 117.6875 114.316406 " clip-rule="nonzero"/></clipPath><clipPath id="c9aaee180a"><path d="M 159.214844 164.210938 L 159.214844 283.441406 L 152.148438 283.441406 L 152.148438 164.210938 L 117.6875 177.316406 L 155.679688 114.316406 L 193.675781 177.316406 Z M 159.214844 164.210938 " clip-rule="nonzero"/></clipPath><clipPath id="6c01c3c7a4"><path d="M 0.6875 0.316406 L 76.675781 0.316406 L 76.675781 169.441406 L 0.6875 169.441406 Z M 0.6875 0.316406 " clip-rule="nonzero"/></clipPath><clipPath id="1b54fcde72"><path d="M 42.214844 50.210938 L 42.214844 169.441406 L 35.148438 169.441406 L 35.148438 50.210938 L 0.6875 63.316406 L 38.679688 0.316406 L 76.675781 63.316406 Z M 42.214844 50.210938 " clip-rule="nonzero"/></clipPath><clipPath id="00913c3fa0"><rect x="0" width="77" y="0" height="170"/></clipPath><clipPath id="ae0680b53e"><path d="M 224.875 160.878906 L 394.0625 160.878906 L 394.0625 236.867188 L 224.875 236.867188 Z M 224.875 160.878906 " clip-rule="nonzero"/></clipPath><clipPath id="d3198ee225"><path d="M 344.167969 202.40625 L 224.941406 202.40625 L 224.941406 195.339844 L 344.171875 195.339844 L 331.066406 160.878906 L 394.0625 198.871094 L 331.066406 236.867188 Z M 344.167969 202.40625 " clip-rule="nonzero"/></clipPath><clipPath id="0358fed9b9"><path d="M 0.878906 0.878906 L 170.0625 0.878906 L 170.0625 76.867188 L 0.878906 76.867188 Z M 0.878906 0.878906 " clip-rule="nonzero"/></clipPath><clipPath id="0f966d696a"><path d="M 120.167969 42.40625 L 0.941406 42.40625 L 0.941406 35.339844 L 120.171875 35.339844 L 107.066406 0.878906 L 170.0625 38.871094 L 107.066406 76.867188 Z M 120.167969 42.40625 " clip-rule="nonzero"/></clipPath><clipPath id="bfbc64607e"><rect x="0" width="171" y="0" height="77"/></clipPath></defs><g transform="matrix(1, 0, 0, 1, 45, 45)"><g clip-path="url(#2eceeb49ca)"><g clip-path="url(#b538e23f1b)"><rect x="-144" width="648" fill="#ffffff" height="647.999977" y="-143.999996" fill-opacity="1"/></g></g></g><g clip-path="url(#fff7ebcc11)"><path stroke-linecap="butt" transform="matrix(0.75, 0, 0, 0.75, 45.000005, 44.999996)" fill="none" stroke-linejoin="miter" d="M -0.00000619333 0.00000467333 L 480.000031 0.00000467333 L 480.000031 480.000042 L -0.00000619333 480.000042 Z M -0.00000619333 0.00000467333 " stroke="#000000" stroke-width="8" stroke-opacity="1" stroke-miterlimit="4"/></g><g clip-path="url(#e9d587a63a)"><g clip-path="url(#c9aaee180a)"><g transform="matrix(1, 0, 0, 1, 117, 114)"><g clip-path="url(#00913c3fa0)"><g clip-path="url(#6c01c3c7a4)"><g clip-path="url(#1b54fcde72)"><path fill="#111827" d="M 76.675781 0.316406 L 76.675781 169.507812 L 0.6875 169.507812 L 0.6875 0.316406 Z M 76.675781 0.316406 " fill-opacity="1" fill-rule="nonzero"/></g></g></g></g></g></g><g clip-path="url(#ae0680b53e)"><g clip-path="url(#d3198ee225)"><g transform="matrix(1, 0, 0, 1, 224, 160)"><g clip-path="url(#bfbc64607e)"><g clip-path="url(#0358fed9b9)"><g clip-path="url(#0f966d696a)"><path fill="#111827" d="M 170.0625 76.867188 L 0.875 76.867188 L 0.875 0.878906 L 170.0625 0.878906 Z M 170.0625 76.867188 " fill-opacity="1" fill-rule="nonzero"/></g></g></g></g></g></g></svg>