<svg xmlns="http://www.w3.org/2000/svg" xmlns:xlink="http://www.w3.org/1999/xlink" width="40" zoomAndPan="magnify" viewBox="0 0 30 30.000001" height="40" preserveAspectRatio="xMidYMid meet" version="1.0"><defs><clipPath id="23a9d52b9d"><path d="M 0.484375 0 L 29.515625 0 L 29.515625 29.03125 L 0.484375 29.03125 Z M 0.484375 0 " clip-rule="nonzero"/></clipPath><clipPath id="323a685252"><path d="M 3.300781 2.902344 L 26.527344 2.902344 L 26.527344 26.128906 L 3.300781 26.128906 Z M 3.300781 2.902344 " clip-rule="nonzero"/></clipPath></defs><g clip-path="url(#23a9d52b9d)"><path fill="#ffffff" d="M 0.484375 0 L 29.515625 0 L 29.515625 29.03125 L 0.484375 29.03125 Z M 0.484375 0 " fill-opacity="1" fill-rule="nonzero"/><path fill="#9d174d" d="M 0.484375 0 L 29.515625 0 L 29.515625 29.03125 L 0.484375 29.03125 Z M 0.484375 0 " fill-opacity="1" fill-rule="nonzero"/></g><g clip-path="url(#323a685252)"><path fill="#ffffff" d="M 26.53125 14.558594 C 26.53125 8.121094 21.332031 2.90625 14.917969 2.90625 C 8.503906 2.90625 3.300781 8.121094 3.300781 14.558594 C 3.300781 20.027344 7.050781 24.613281 12.109375 25.871094 L 12.109375 18.121094 L 9.714844 18.121094 L 9.714844 14.558594 L 12.109375 14.558594 L 12.109375 13.027344 C 12.109375 9.058594 13.898438 7.21875 17.78125 7.21875 C 18.515625 7.21875 19.785156 7.363281 20.304688 7.511719 L 20.304688 10.738281 C 20.03125 10.707031 19.554688 10.695312 18.964844 10.695312 C 17.058594 10.695312 16.324219 11.417969 16.324219 13.300781 L 16.324219 14.558594 L 20.117188 14.558594 L 19.464844 18.121094 L 16.324219 18.121094 L 16.324219 26.128906 C 22.074219 25.429688 26.53125 20.515625 26.53125 14.558594 Z M 26.53125 14.558594 " fill-opacity="1" fill-rule="nonzero"/></g></svg>