<svg xmlns="http://www.w3.org/2000/svg" xmlns:xlink="http://www.w3.org/1999/xlink" width="40" zoomAndPan="magnify" viewBox="0 0 30 30.000001" height="40" preserveAspectRatio="xMidYMid meet" version="1.0"><defs><clipPath id="c6182a765e"><path d="M 0.484375 0 L 29.515625 0 L 29.515625 29.03125 L 0.484375 29.03125 Z M 0.484375 0 " clip-rule="nonzero"/></clipPath><clipPath id="b8b86062a5"><path d="M 1.382812 2.902344 L 25 2.902344 L 25 26 L 1.382812 26 Z M 1.382812 2.902344 " clip-rule="nonzero"/></clipPath><clipPath id="925b7f21d1"><path d="M 25 22 L 28.960938 22 L 28.960938 26.128906 L 25 26.128906 Z M 25 22 " clip-rule="nonzero"/></clipPath></defs><g clip-path="url(#c6182a765e)"><path fill="#ffffff" d="M 0.484375 0 L 29.515625 0 L 29.515625 29.03125 L 0.484375 29.03125 Z M 0.484375 0 " fill-opacity="1" fill-rule="nonzero"/><path fill="#9d174d" d="M 0.484375 0 L 29.515625 0 L 29.515625 29.03125 L 0.484375 29.03125 Z M 0.484375 0 " fill-opacity="1" fill-rule="nonzero"/></g><path fill="#ffffff" d="M 27.265625 24.636719 C 27.5 24.640625 27.695312 24.453125 27.695312 24.214844 C 27.695312 24.207031 27.695312 24.195312 27.695312 24.1875 C 27.695312 23.867188 27.503906 23.714844 27.105469 23.714844 L 26.46875 23.714844 L 26.46875 25.386719 L 26.707031 25.386719 L 26.707031 24.65625 L 27.003906 24.65625 L 27.011719 24.667969 L 27.46875 25.386719 L 27.726562 25.386719 L 27.234375 24.640625 Z M 26.988281 24.46875 L 26.707031 24.46875 L 26.707031 23.902344 L 27.0625 23.902344 C 27.246094 23.902344 27.453125 23.933594 27.453125 24.171875 C 27.453125 24.449219 27.242188 24.46875 26.988281 24.46875 " fill-opacity="1" fill-rule="nonzero"/><g clip-path="url(#b8b86062a5)"><path fill="#ffffff" d="M 20.992188 22.539062 L 17.582031 22.539062 L 17.582031 17.199219 C 17.582031 15.925781 17.558594 14.289062 15.808594 14.289062 C 14.054688 14.289062 13.757812 15.675781 13.757812 17.109375 L 13.757812 22.539062 L 10.347656 22.539062 L 10.347656 11.558594 L 13.621094 11.558594 L 13.621094 13.058594 L 13.667969 13.058594 C 14.335938 11.917969 15.578125 11.234375 16.898438 11.285156 C 20.355469 11.285156 20.992188 13.558594 20.992188 16.515625 L 20.992188 22.542969 Z M 6.5 10.054688 C 5.410156 10.054688 4.523438 9.171875 4.523438 8.078125 C 4.519531 6.984375 5.40625 6.097656 6.5 6.097656 C 7.59375 6.097656 8.480469 6.984375 8.480469 8.078125 C 8.480469 9.171875 7.59375 10.054688 6.5 10.054688 M 8.207031 22.539062 L 4.792969 22.539062 L 4.792969 11.558594 L 8.207031 11.558594 Z M 22.691406 2.929688 L 3.082031 2.929688 C 2.152344 2.921875 1.390625 3.664062 1.382812 4.589844 L 1.382812 24.285156 C 1.390625 25.210938 2.152344 25.957031 3.082031 25.945312 L 22.691406 25.945312 C 23.621094 25.957031 24.386719 25.214844 24.398438 24.285156 L 24.398438 4.589844 C 24.382812 3.660156 23.621094 2.917969 22.691406 2.929688 " fill-opacity="1" fill-rule="nonzero"/></g><g clip-path="url(#925b7f21d1)"><path fill="#ffffff" d="M 27.015625 22.96875 C 26.148438 22.976562 25.453125 23.6875 25.460938 24.554688 C 25.472656 25.421875 26.179688 26.117188 27.046875 26.109375 C 27.914062 26.101562 28.609375 25.390625 28.601562 24.523438 C 28.59375 23.667969 27.902344 22.976562 27.046875 22.96875 L 27.015625 22.96875 M 27.015625 25.929688 C 26.257812 25.941406 25.628906 25.335938 25.617188 24.574219 C 25.605469 23.816406 26.210938 23.1875 26.96875 23.175781 C 27.730469 23.164062 28.355469 23.769531 28.371094 24.527344 L 28.371094 24.550781 C 28.386719 25.296875 27.796875 25.910156 27.050781 25.925781 L 27.015625 25.925781 " fill-opacity="1" fill-rule="nonzero"/></g></svg>