<svg xmlns="http://www.w3.org/2000/svg" xmlns:xlink="http://www.w3.org/1999/xlink" width="40" zoomAndPan="magnify" viewBox="0 0 30 30.000001" height="40" preserveAspectRatio="xMidYMid meet" version="1.0"><defs><clipPath id="275e971f39"><path d="M 0.484375 0 L 29.515625 0 L 29.515625 29.03125 L 0.484375 29.03125 Z M 0.484375 0 " clip-rule="nonzero"/></clipPath><clipPath id="f7b67b0809"><path d="M 6.785156 2.902344 L 23.476562 2.902344 L 23.476562 26.128906 L 6.785156 26.128906 Z M 6.785156 2.902344 " clip-rule="nonzero"/></clipPath></defs><g clip-path="url(#275e971f39)"><path fill="#ffffff" d="M 0.484375 0 L 29.515625 0 L 29.515625 29.03125 L 0.484375 29.03125 Z M 0.484375 0 " fill-opacity="1" fill-rule="nonzero"/><path fill="#9d174d" d="M 0.484375 0 L 29.515625 0 L 29.515625 29.03125 L 0.484375 29.03125 Z M 0.484375 0 " fill-opacity="1" fill-rule="nonzero"/></g><g clip-path="url(#f7b67b0809)"><path fill="#ffffff" d="M 18.617188 20.742188 C 17.113281 22.902344 15.597656 24.578125 14.996094 25.214844 C 14.398438 24.578125 12.878906 22.902344 11.378906 20.742188 C 9.625 18.21875 7.535156 14.503906 7.535156 11.121094 C 7.535156 7.003906 10.882812 3.65625 14.996094 3.65625 C 19.113281 3.65625 22.460938 7.003906 22.460938 11.121094 C 22.460938 14.503906 20.371094 18.21875 18.617188 20.742188 Z M 14.996094 2.910156 C 10.46875 2.910156 6.785156 6.59375 6.785156 11.121094 C 6.785156 13.996094 8.125 17.378906 10.773438 21.179688 C 12.726562 23.988281 14.710938 26 14.730469 26.019531 C 14.800781 26.089844 14.898438 26.128906 14.996094 26.128906 C 15.097656 26.128906 15.191406 26.089844 15.261719 26.019531 C 15.28125 26 17.269531 23.988281 19.222656 21.179688 C 21.867188 17.378906 23.210938 13.996094 23.210938 11.121094 C 23.210938 6.59375 19.527344 2.910156 14.996094 2.910156 " fill-opacity="1" fill-rule="nonzero"/></g><path fill="#ffffff" d="M 15.039062 14.5 C 13.300781 14.5 11.886719 13.085938 11.886719 11.347656 C 11.886719 9.609375 13.300781 8.195312 15.039062 8.195312 C 16.777344 8.195312 18.191406 9.609375 18.191406 11.347656 C 18.191406 13.085938 16.777344 14.5 15.039062 14.5 Z M 15.039062 7.449219 C 12.886719 7.449219 11.140625 9.195312 11.140625 11.347656 C 11.140625 13.496094 12.886719 15.246094 15.039062 15.246094 C 17.1875 15.246094 18.9375 13.496094 18.9375 11.347656 C 18.9375 9.195312 17.1875 7.449219 15.039062 7.449219 " fill-opacity="1" fill-rule="nonzero"/></svg>