<svg xmlns="http://www.w3.org/2000/svg" xmlns:xlink="http://www.w3.org/1999/xlink" width="40" zoomAndPan="magnify" viewBox="0 0 30 30.000001" height="40" preserveAspectRatio="xMidYMid meet" version="1.0"><defs><clipPath id="80e6f52d9f"><path d="M 0.484375 0 L 29.515625 0 L 29.515625 29.03125 L 0.484375 29.03125 Z M 0.484375 0 " clip-rule="nonzero"/></clipPath><clipPath id="a2dfaea99a"><path d="M 3.621094 2.902344 L 26.121094 2.902344 L 26.121094 26.128906 L 3.621094 26.128906 Z M 3.621094 2.902344 " clip-rule="nonzero"/></clipPath></defs><g clip-path="url(#80e6f52d9f)"><path fill="#ffffff" d="M 0.484375 0 L 29.515625 0 L 29.515625 29.03125 L 0.484375 29.03125 Z M 0.484375 0 " fill-opacity="1" fill-rule="nonzero"/><path fill="#9d174d" d="M 0.484375 0 L 29.515625 0 L 29.515625 29.03125 L 0.484375 29.03125 Z M 0.484375 0 " fill-opacity="1" fill-rule="nonzero"/></g><g clip-path="url(#a2dfaea99a)"><path fill="#ffffff" d="M 17.164062 12.738281 L 25.625 2.902344 L 23.621094 2.902344 L 16.273438 11.445312 L 10.40625 2.902344 L 3.636719 2.902344 L 12.511719 15.820312 L 3.636719 26.132812 L 5.640625 26.132812 L 13.402344 17.113281 L 19.597656 26.132812 L 26.367188 26.132812 Z M 14.417969 15.933594 L 13.519531 14.644531 L 6.363281 4.414062 L 9.445312 4.414062 L 15.21875 12.671875 L 16.117188 13.957031 L 23.621094 24.691406 L 20.542969 24.691406 L 14.417969 15.929688 Z M 14.417969 15.933594 " fill-opacity="1" fill-rule="nonzero"/></g></svg>