<svg xmlns="http://www.w3.org/2000/svg" xmlns:xlink="http://www.w3.org/1999/xlink" width="40" zoomAndPan="magnify" viewBox="0 0 30 30.000001" height="40" preserveAspectRatio="xMidYMid meet" version="1.0"><defs><clipPath id="2ee62869bc"><path d="M 0.484375 0 L 29.515625 0 L 29.515625 29.03125 L 0.484375 29.03125 Z M 0.484375 0 " clip-rule="nonzero"/></clipPath><clipPath id="f4d4d4154e"><path d="M 3.386719 2.902344 L 26.613281 2.902344 L 26.613281 26.128906 L 3.386719 26.128906 Z M 3.386719 2.902344 " clip-rule="nonzero"/></clipPath></defs><g clip-path="url(#2ee62869bc)"><path fill="#ffffff" d="M 0.484375 0 L 29.515625 0 L 29.515625 29.03125 L 0.484375 29.03125 Z M 0.484375 0 " fill-opacity="1" fill-rule="nonzero"/><path fill="#9d174d" d="M 0.484375 0 L 29.515625 0 L 29.515625 29.03125 L 0.484375 29.03125 Z M 0.484375 0 " fill-opacity="1" fill-rule="nonzero"/></g><path fill="#ffffff" d="M 20.859375 11.667969 C 20.742188 10.914062 20.097656 10.378906 19.34375 10.378906 L 10.664062 10.378906 C 9.914062 10.378906 9.265625 10.925781 9.148438 11.667969 C 9.042969 12.363281 8.933594 13.332031 8.933594 14.515625 C 8.945312 15.699219 9.042969 16.667969 9.148438 17.363281 C 9.265625 18.105469 9.914062 18.65625 10.664062 18.65625 L 19.335938 18.65625 C 20.085938 18.65625 20.742188 18.105469 20.851562 17.363281 C 20.957031 16.660156 21.066406 15.699219 21.066406 14.515625 C 21.066406 13.332031 20.96875 12.363281 20.859375 11.667969 Z M 13.71875 16.167969 L 13.71875 12.871094 L 16.789062 14.527344 Z M 13.71875 16.167969 " fill-opacity="1" fill-rule="nonzero"/><g clip-path="url(#f4d4d4154e)"><path fill="#ffffff" d="M 15 26.128906 C 8.601562 26.128906 3.386719 20.925781 3.386719 14.515625 C 3.386719 8.117188 8.601562 2.902344 15 2.902344 C 21.398438 2.902344 26.613281 8.117188 26.613281 14.515625 C 26.613281 20.925781 21.40625 26.128906 15 26.128906 Z M 15 3.539062 C 8.945312 3.539062 4.023438 8.460938 4.023438 14.515625 C 4.023438 20.570312 8.945312 25.492188 15 25.492188 C 21.054688 25.492188 25.976562 20.570312 25.976562 14.515625 C 25.976562 8.460938 21.054688 3.539062 15 3.539062 Z M 15 3.539062 " fill-opacity="1" fill-rule="nonzero"/></g></svg>