<svg xmlns="http://www.w3.org/2000/svg" xmlns:xlink="http://www.w3.org/1999/xlink" width="600" zoomAndPan="magnify" viewBox="0 0 450 449.999984" height="600" preserveAspectRatio="xMidYMid meet" version="1.0"><defs><clipPath id="c1c73098e3"><path d="M 45 67.5 L 405 67.5 L 405 382.5 L 45 382.5 Z M 45 67.5 " clip-rule="nonzero"/></clipPath><clipPath id="1f05986ce7"><path d="M 225 67.5 L 405 382.5 L 45 382.5 Z M 225 67.5 " clip-rule="nonzero"/></clipPath><clipPath id="85192dd4bc"><path d="M 0 0.5 L 360 0.5 L 360 315.5 L 0 315.5 Z M 0 0.5 " clip-rule="nonzero"/></clipPath><clipPath id="ea7d6ba462"><path d="M 180 0.5 L 360 315.5 L 0 315.5 Z M 180 0.5 " clip-rule="nonzero"/></clipPath><clipPath id="d4efefdec9"><rect x="0" width="360" y="0" height="316"/></clipPath><clipPath id="b40467efad"><path d="M 168.695312 225 L 281.304688 225 L 281.304688 328.007812 L 168.695312 328.007812 Z M 168.695312 225 " clip-rule="nonzero"/></clipPath><clipPath id="1445984df3"><path d="M 0.695312 0 L 113.304688 0 L 113.304688 103.007812 L 0.695312 103.007812 Z M 0.695312 0 " clip-rule="nonzero"/></clipPath><clipPath id="a0cc510ab1"><rect x="0" width="114" y="0" height="104"/></clipPath><clipPath id="380f917629"><path d="M 168.695312 225 L 281.195312 225 L 281.195312 327.75 L 168.695312 327.75 Z M 168.695312 225 " clip-rule="nonzero"/></clipPath></defs><g clip-path="url(#c1c73098e3)"><g clip-path="url(#1f05986ce7)"><g transform="matrix(1, 0, 0, 1, 45, 67)"><g clip-path="url(#d4efefdec9)"><g clip-path="url(#85192dd4bc)"><g clip-path="url(#ea7d6ba462)"><path fill="#ffffff" d="M 0 0.5 L 360.527344 0.5 L 360.527344 315.5 L 0 315.5 Z M 0 0.5 " fill-opacity="1" fill-rule="nonzero"/></g></g></g></g><path stroke-linecap="butt" transform="matrix(0.75, 0, 0, 0.75, 45.000005, 67.499995)" fill="none" stroke-linejoin="miter" d="M 239.999997 0.00000701 L 480 420.000013 L -0.00000619333 420.000013 Z M 239.999997 0.00000701 " stroke="#000000" stroke-width="4" stroke-opacity="1" stroke-miterlimit="4"/></g></g><g clip-path="url(#b40467efad)"><g transform="matrix(1, 0, 0, 1, 168, 225)"><g clip-path="url(#a0cc510ab1)"><g clip-path="url(#1445984df3)"><path fill="#f3f4f6" d="M 0.695312 0 L 113.363281 0 L 113.363281 103.007812 L 0.695312 103.007812 Z M 0.695312 0 " fill-opacity="1" fill-rule="nonzero"/></g></g></g></g><g clip-path="url(#380f917629)"><path stroke-linecap="butt" transform="matrix(0.75, 0, 0, 0.75, 168.696996, 224.999982)" fill="none" stroke-linejoin="miter" d="M -0.00224441 0.0000233667 L 150.138383 0.0000233667 L 150.138383 137.343775 L -0.00224441 137.343775 Z M -0.00224441 0.0000233667 " stroke="#000000" stroke-width="4" stroke-opacity="1" stroke-miterlimit="4"/></g></svg>