<svg xmlns="http://www.w3.org/2000/svg" xmlns:xlink="http://www.w3.org/1999/xlink" width="600" zoomAndPan="magnify" viewBox="0 0 450 449.999984" height="600" preserveAspectRatio="xMidYMid meet" version="1.0"><defs><clipPath id="6ad04baef2"><path d="M 0 0 L 360 0 L 360 360 L 0 360 Z M 0 0 " clip-rule="nonzero"/></clipPath><clipPath id="5a276024b5"><rect x="0" width="360" y="0" height="360"/></clipPath><clipPath id="5d24487429"><path d="M 45 45 L 405 45 L 405 405 L 45 405 Z M 45 45 " clip-rule="nonzero"/></clipPath><clipPath id="53c3ba075a"><path d="M 125.777344 125.777344 L 324.222656 125.777344 L 324.222656 324.222656 L 125.777344 324.222656 Z M 125.777344 125.777344 " clip-rule="nonzero"/></clipPath><clipPath id="18f0aa36f4"><path d="M 225 125.777344 C 170.199219 125.777344 125.777344 170.199219 125.777344 225 C 125.777344 279.800781 170.199219 324.222656 225 324.222656 C 279.800781 324.222656 324.222656 279.800781 324.222656 225 C 324.222656 170.199219 279.800781 125.777344 225 125.777344 Z M 225 125.777344 " clip-rule="nonzero"/></clipPath><clipPath id="b75b55da09"><path d="M 0.777344 0.777344 L 199.222656 0.777344 L 199.222656 199.222656 L 0.777344 199.222656 Z M 0.777344 0.777344 " clip-rule="nonzero"/></clipPath><clipPath id="d7f7d690dc"><path d="M 100 0.777344 C 45.199219 0.777344 0.777344 45.199219 0.777344 100 C 0.777344 154.800781 45.199219 199.222656 100 199.222656 C 154.800781 199.222656 199.222656 154.800781 199.222656 100 C 199.222656 45.199219 154.800781 0.777344 100 0.777344 Z M 100 0.777344 " clip-rule="nonzero"/></clipPath><clipPath id="1086658bd3"><rect x="0" width="200" y="0" height="200"/></clipPath><clipPath id="a2a46ad55d"><path d="M 125.777344 125.777344 L 324.222656 125.777344 L 324.222656 324.222656 L 125.777344 324.222656 Z M 125.777344 125.777344 " clip-rule="nonzero"/></clipPath><clipPath id="2165c96413"><path d="M 225 125.777344 C 170.199219 125.777344 125.777344 170.199219 125.777344 225 C 125.777344 279.796875 170.199219 324.222656 225 324.222656 C 279.796875 324.222656 324.222656 279.796875 324.222656 225 C 324.222656 170.199219 279.796875 125.777344 225 125.777344 Z M 225 125.777344 " clip-rule="nonzero"/></clipPath></defs><g transform="matrix(1, 0, 0, 1, 45, 45)"><g clip-path="url(#5a276024b5)"><g clip-path="url(#6ad04baef2)"><rect x="-144" width="648" fill="#ffffff" height="647.999977" y="-143.999996" fill-opacity="1"/></g></g></g><g clip-path="url(#5d24487429)"><path stroke-linecap="butt" transform="matrix(0.75, 0, 0, 0.75, 45.000005, 44.999996)" fill="none" stroke-linejoin="miter" d="M -0.00000619333 0.00000467333 L 480.000031 0.00000467333 L 480.000031 480.000042 L -0.00000619333 480.000042 Z M -0.00000619333 0.00000467333 " stroke="#000000" stroke-width="4" stroke-opacity="1" stroke-miterlimit="4"/></g><g clip-path="url(#53c3ba075a)"><g clip-path="url(#18f0aa36f4)"><g transform="matrix(1, 0, 0, 1, 125, 125)"><g clip-path="url(#1086658bd3)"><g clip-path="url(#b75b55da09)"><g clip-path="url(#d7f7d690dc)"><path fill="#45734b" d="M 0.777344 0.777344 L 199.222656 0.777344 L 199.222656 199.222656 L 0.777344 199.222656 Z M 0.777344 0.777344 " fill-opacity="1" fill-rule="nonzero"/></g></g></g></g></g></g><g clip-path="url(#a2a46ad55d)"><g clip-path="url(#2165c96413)"><path stroke-linecap="butt" transform="matrix(0.75, 0, 0, 0.75, 125.776052, 125.776044)" fill="none" stroke-linejoin="miter" d="M 132.298608 0.00173326 C 59.230894 0.00173326 0.0017224 59.230905 0.0017224 132.298619 C 0.0017224 205.361124 59.230894 264.595504 132.298608 264.595504 C 205.361113 264.595504 264.595493 205.361124 264.595493 132.298619 C 264.595493 59.230905 205.361113 0.00173326 132.298608 0.00173326 Z M 132.298608 0.00173326 " stroke="#000000" stroke-width="4" stroke-opacity="1" stroke-miterlimit="4"/></g></g></svg>