<svg xmlns="http://www.w3.org/2000/svg" xmlns:xlink="http://www.w3.org/1999/xlink" width="600" zoomAndPan="magnify" viewBox="0 0 450 449.999984" height="600" preserveAspectRatio="xMidYMid meet" version="1.0"><defs><clipPath id="a4ac93bbc3"><path d="M 45 45 L 405 45 L 405 405 L 45 405 Z M 45 45 " clip-rule="nonzero"/></clipPath><clipPath id="2e17fdee0a"><path d="M 225 45 C 125.589844 45 45 125.589844 45 225 C 45 324.410156 125.589844 405 225 405 C 324.410156 405 405 324.410156 405 225 C 405 125.589844 324.410156 45 225 45 Z M 225 45 " clip-rule="nonzero"/></clipPath><clipPath id="e26220a7c0"><path d="M 0 0 L 360 0 L 360 360 L 0 360 Z M 0 0 " clip-rule="nonzero"/></clipPath><clipPath id="c8f49ed488"><path d="M 180 0 C 80.589844 0 0 80.589844 0 180 C 0 279.410156 80.589844 360 180 360 C 279.410156 360 360 279.410156 360 180 C 360 80.589844 279.410156 0 180 0 Z M 180 0 " clip-rule="nonzero"/></clipPath><clipPath id="cb9b6559b8"><rect x="0" width="360" y="0" height="360"/></clipPath><clipPath id="3127bd80c6"><path d="M 138.285156 149.125 L 311.96875 149.125 L 311.96875 300.875 L 138.285156 300.875 Z M 138.285156 149.125 " clip-rule="nonzero"/></clipPath><clipPath id="6516eae2f5"><path d="M 225 149.125 L 311.714844 300.875 L 138.285156 300.875 Z M 225 149.125 " clip-rule="nonzero"/></clipPath><clipPath id="cd406a0fb7"><path d="M 0.285156 0.125 L 173.761719 0.125 L 173.761719 151.875 L 0.285156 151.875 Z M 0.285156 0.125 " clip-rule="nonzero"/></clipPath><clipPath id="105e6a107f"><path d="M 87 0.125 L 173.714844 151.875 L 0.285156 151.875 Z M 87 0.125 " clip-rule="nonzero"/></clipPath><clipPath id="4219b9d1e0"><rect x="0" width="174" y="0" height="152"/></clipPath><clipPath id="0ab3bf559e"><path d="M 138.289062 149.125 L 311.535156 149.125 L 311.535156 300.625 L 138.289062 300.625 Z M 138.289062 149.125 " clip-rule="nonzero"/></clipPath><clipPath id="abd77661b7"><path d="M 225 149.125 L 311.710938 300.871094 L 138.289062 300.871094 Z M 225 149.125 " clip-rule="nonzero"/></clipPath></defs><g clip-path="url(#a4ac93bbc3)"><g clip-path="url(#2e17fdee0a)"><g transform="matrix(1, 0, 0, 1, 45, 45)"><g clip-path="url(#cb9b6559b8)"><g clip-path="url(#e26220a7c0)"><g clip-path="url(#c8f49ed488)"><rect x="-144" width="648" fill="#ffffff" height="647.999977" y="-143.999996" fill-opacity="1"/></g></g></g></g><path stroke-linecap="butt" transform="matrix(0.75, 0, 0, 0.75, 45.000005, 44.999996)" fill="none" stroke-linejoin="miter" d="M 239.999997 0.00000467333 C 107.45312 0.00000467333 -0.00000619333 107.453131 -0.00000619333 240.000008 C -0.00000619333 372.546885 107.45312 480.000011 239.999997 480.000011 C 372.546874 480.000011 480 372.546885 480 240.000008 C 480 107.453131 372.546874 0.00000467333 239.999997 0.00000467333 Z M 239.999997 0.00000467333 " stroke="#000000" stroke-width="4" stroke-opacity="1" stroke-miterlimit="4"/></g></g><g clip-path="url(#3127bd80c6)"><g clip-path="url(#6516eae2f5)"><g transform="matrix(1, 0, 0, 1, 138, 149)"><g clip-path="url(#4219b9d1e0)"><g clip-path="url(#cd406a0fb7)"><g clip-path="url(#105e6a107f)"><path fill="#f3f4f6" d="M 0.285156 0.125 L 173.96875 0.125 L 173.96875 151.875 L 0.285156 151.875 Z M 0.285156 0.125 " fill-opacity="1" fill-rule="nonzero"/></g></g></g></g></g></g><g clip-path="url(#0ab3bf559e)"><g clip-path="url(#abd77661b7)"><path stroke-linecap="butt" transform="matrix(0.75, 0, 0, 0.75, 138.287649, 149.125944)" fill="none" stroke-linejoin="miter" d="M 115.616477 -0.00125918 L 231.231069 202.326882 L 0.00188416 202.326882 Z M 115.616477 -0.00125918 " stroke="#000000" stroke-width="4" stroke-opacity="1" stroke-miterlimit="4"/></g></g></svg>