<svg xmlns="http://www.w3.org/2000/svg" xmlns:xlink="http://www.w3.org/1999/xlink" width="600" zoomAndPan="magnify" viewBox="0 0 450 449.999984" height="600" preserveAspectRatio="xMidYMid meet" version="1.0"><defs><clipPath id="30c663117d"><path d="M 0 0 L 360 0 L 360 360 L 0 360 Z M 0 0 " clip-rule="nonzero"/></clipPath><clipPath id="25f3ff45f5"><rect x="0" width="360" y="0" height="360"/></clipPath><clipPath id="49980840d7"><path d="M 45 45 L 405 45 L 405 405 L 45 405 Z M 45 45 " clip-rule="nonzero"/></clipPath><clipPath id="391fcee9f9"><path d="M 125.777344 125.777344 L 324.222656 125.777344 L 324.222656 324.222656 L 125.777344 324.222656 Z M 125.777344 125.777344 " clip-rule="nonzero"/></clipPath><clipPath id="591ebba916"><path d="M 225 125.777344 C 170.199219 125.777344 125.777344 170.199219 125.777344 225 C 125.777344 279.800781 170.199219 324.222656 225 324.222656 C 279.800781 324.222656 324.222656 279.800781 324.222656 225 C 324.222656 170.199219 279.800781 125.777344 225 125.777344 Z M 225 125.777344 " clip-rule="nonzero"/></clipPath><clipPath id="dd44916518"><path d="M 0.777344 0.777344 L 199.222656 0.777344 L 199.222656 199.222656 L 0.777344 199.222656 Z M 0.777344 0.777344 " clip-rule="nonzero"/></clipPath><clipPath id="8b15517c04"><path d="M 100 0.777344 C 45.199219 0.777344 0.777344 45.199219 0.777344 100 C 0.777344 154.800781 45.199219 199.222656 100 199.222656 C 154.800781 199.222656 199.222656 154.800781 199.222656 100 C 199.222656 45.199219 154.800781 0.777344 100 0.777344 Z M 100 0.777344 " clip-rule="nonzero"/></clipPath><clipPath id="aa9f9336d2"><rect x="0" width="200" y="0" height="200"/></clipPath><clipPath id="46de3377a9"><path d="M 125.777344 125.777344 L 324.222656 125.777344 L 324.222656 324.222656 L 125.777344 324.222656 Z M 125.777344 125.777344 " clip-rule="nonzero"/></clipPath><clipPath id="4cea117cb9"><path d="M 225 125.777344 C 170.199219 125.777344 125.777344 170.199219 125.777344 225 C 125.777344 279.796875 170.199219 324.222656 225 324.222656 C 279.796875 324.222656 324.222656 279.796875 324.222656 225 C 324.222656 170.199219 279.796875 125.777344 225 125.777344 Z M 225 125.777344 " clip-rule="nonzero"/></clipPath></defs><g transform="matrix(1, 0, 0, 1, 45, 45)"><g clip-path="url(#25f3ff45f5)"><g clip-path="url(#30c663117d)"><rect x="-144" width="648" fill="#ffffff" height="647.999977" y="-143.999996" fill-opacity="1"/></g></g></g><g clip-path="url(#49980840d7)"><path stroke-linecap="butt" transform="matrix(0.75, 0, 0, 0.75, 45.000005, 44.999996)" fill="none" stroke-linejoin="miter" d="M -0.00000619333 0.00000467333 L 480.000031 0.00000467333 L 480.000031 480.000042 L -0.00000619333 480.000042 Z M -0.00000619333 0.00000467333 " stroke="#000000" stroke-width="4" stroke-opacity="1" stroke-miterlimit="4"/></g><g clip-path="url(#391fcee9f9)"><g clip-path="url(#591ebba916)"><g transform="matrix(1, 0, 0, 1, 125, 125)"><g clip-path="url(#aa9f9336d2)"><g clip-path="url(#dd44916518)"><g clip-path="url(#8b15517c04)"><path fill="#45734b" d="M 0.777344 0.777344 L 199.222656 0.777344 L 199.222656 199.222656 L 0.777344 199.222656 Z M 0.777344 0.777344 " fill-opacity="1" fill-rule="nonzero"/></g></g></g></g></g></g><g clip-path="url(#46de3377a9)"><g clip-path="url(#4cea117cb9)"><path stroke-linecap="butt" transform="matrix(0.75, 0, 0, 0.75, 125.776052, 125.776044)" fill="none" stroke-linejoin="miter" d="M 132.298608 0.00173326 C 59.230894 0.00173326 0.0017224 59.230905 0.0017224 132.298619 C 0.0017224 205.361124 59.230894 264.595504 132.298608 264.595504 C 205.361113 264.595504 264.595493 205.361124 264.595493 132.298619 C 264.595493 59.230905 205.361113 0.00173326 132.298608 0.00173326 Z M 132.298608 0.00173326 " stroke="#000000" stroke-width="4" stroke-opacity="1" stroke-miterlimit="4"/></g></g></svg>