<svg xmlns="http://www.w3.org/2000/svg" xmlns:xlink="http://www.w3.org/1999/xlink" width="600" zoomAndPan="magnify" viewBox="0 0 450 449.999984" height="600" preserveAspectRatio="xMidYMid meet" version="1.0"><defs><clipPath id="dbf3765538"><path d="M 45 45 L 405 45 L 405 405 L 45 405 Z M 45 45 " clip-rule="nonzero"/></clipPath><clipPath id="72653008aa"><path d="M 225 45 C 125.589844 45 45 125.589844 45 225 C 45 324.410156 125.589844 405 225 405 C 324.410156 405 405 324.410156 405 225 C 405 125.589844 324.410156 45 225 45 Z M 225 45 " clip-rule="nonzero"/></clipPath><clipPath id="9845ec5ec7"><path d="M 0 0 L 360 0 L 360 360 L 0 360 Z M 0 0 " clip-rule="nonzero"/></clipPath><clipPath id="c3fc0c2203"><path d="M 180 0 C 80.589844 0 0 80.589844 0 180 C 0 279.410156 80.589844 360 180 360 C 279.410156 360 360 279.410156 360 180 C 360 80.589844 279.410156 0 180 0 Z M 180 0 " clip-rule="nonzero"/></clipPath><clipPath id="8f691ff55c"><rect x="0" width="360" y="0" height="360"/></clipPath><clipPath id="95d44f19bf"><path d="M 138.285156 149.125 L 311.96875 149.125 L 311.96875 300.875 L 138.285156 300.875 Z M 138.285156 149.125 " clip-rule="nonzero"/></clipPath><clipPath id="e2d272d958"><path d="M 225 149.125 L 311.714844 300.875 L 138.285156 300.875 Z M 225 149.125 " clip-rule="nonzero"/></clipPath><clipPath id="808d6daa26"><path d="M 0.285156 0.125 L 173.761719 0.125 L 173.761719 151.875 L 0.285156 151.875 Z M 0.285156 0.125 " clip-rule="nonzero"/></clipPath><clipPath id="a4b81cdb67"><path d="M 87 0.125 L 173.714844 151.875 L 0.285156 151.875 Z M 87 0.125 " clip-rule="nonzero"/></clipPath><clipPath id="bd113db40a"><rect x="0" width="174" y="0" height="152"/></clipPath><clipPath id="4caff9ec9e"><path d="M 138.289062 149.125 L 311.535156 149.125 L 311.535156 300.625 L 138.289062 300.625 Z M 138.289062 149.125 " clip-rule="nonzero"/></clipPath><clipPath id="2201c3d3b8"><path d="M 225 149.125 L 311.710938 300.871094 L 138.289062 300.871094 Z M 225 149.125 " clip-rule="nonzero"/></clipPath></defs><g clip-path="url(#dbf3765538)"><g clip-path="url(#72653008aa)"><g transform="matrix(1, 0, 0, 1, 45, 45)"><g clip-path="url(#8f691ff55c)"><g clip-path="url(#9845ec5ec7)"><g clip-path="url(#c3fc0c2203)"><rect x="-144" width="648" fill="#ffffff" height="647.999977" y="-143.999996" fill-opacity="1"/></g></g></g></g><path stroke-linecap="butt" transform="matrix(0.75, 0, 0, 0.75, 45.000005, 44.999996)" fill="none" stroke-linejoin="miter" d="M 239.999997 0.00000467333 C 107.45312 0.00000467333 -0.00000619333 107.453131 -0.00000619333 240.000008 C -0.00000619333 372.546885 107.45312 480.000011 239.999997 480.000011 C 372.546874 480.000011 480 372.546885 480 240.000008 C 480 107.453131 372.546874 0.00000467333 239.999997 0.00000467333 Z M 239.999997 0.00000467333 " stroke="#000000" stroke-width="4" stroke-opacity="1" stroke-miterlimit="4"/></g></g><g clip-path="url(#95d44f19bf)"><g clip-path="url(#e2d272d958)"><g transform="matrix(1, 0, 0, 1, 138, 149)"><g clip-path="url(#bd113db40a)"><g clip-path="url(#808d6daa26)"><g clip-path="url(#a4b81cdb67)"><path fill="#f3f4f6" d="M 0.285156 0.125 L 173.96875 0.125 L 173.96875 151.875 L 0.285156 151.875 Z M 0.285156 0.125 " fill-opacity="1" fill-rule="nonzero"/></g></g></g></g></g></g><g clip-path="url(#4caff9ec9e)"><g clip-path="url(#2201c3d3b8)"><path stroke-linecap="butt" transform="matrix(0.75, 0, 0, 0.75, 138.287649, 149.125887)" fill="none" stroke-linejoin="miter" d="M 115.616477 -0.00118238 L 231.231069 202.326958 L 0.00188416 202.326958 Z M 115.616477 -0.00118238 " stroke="#000000" stroke-width="4" stroke-opacity="1" stroke-miterlimit="4"/></g></g></svg>