<svg xmlns="http://www.w3.org/2000/svg" xmlns:xlink="http://www.w3.org/1999/xlink" width="600" zoomAndPan="magnify" viewBox="0 0 450 449.999984" height="600" preserveAspectRatio="xMidYMid meet" version="1.0"><defs><clipPath id="f2f8d766f3"><path d="M 45 67.5 L 405 67.5 L 405 382.5 L 45 382.5 Z M 45 67.5 " clip-rule="nonzero"/></clipPath><clipPath id="9124b848ec"><path d="M 225 382.5 L 45 67.5 L 405 67.5 Z M 225 382.5 " clip-rule="nonzero"/></clipPath><clipPath id="3f510bf6f6"><path d="M 0 0.5 L 360 0.5 L 360 315.5 L 0 315.5 Z M 0 0.5 " clip-rule="nonzero"/></clipPath><clipPath id="dd07504b7e"><path d="M 180 315.5 L 0 0.5 L 360 0.5 Z M 180 315.5 " clip-rule="nonzero"/></clipPath><clipPath id="ab861b2a4f"><rect x="0" width="360" y="0" height="316"/></clipPath><clipPath id="7789ad3996"><path d="M 155.261719 155.261719 L 294.738281 155.261719 L 294.738281 294.738281 L 155.261719 294.738281 Z M 155.261719 155.261719 " clip-rule="nonzero"/></clipPath><clipPath id="d99d3ae942"><path d="M 225 155.261719 C 186.484375 155.261719 155.261719 186.484375 155.261719 225 C 155.261719 263.515625 186.484375 294.738281 225 294.738281 C 263.515625 294.738281 294.738281 263.515625 294.738281 225 C 294.738281 186.484375 263.515625 155.261719 225 155.261719 Z M 225 155.261719 " clip-rule="nonzero"/></clipPath><clipPath id="2c6fa327fd"><path d="M 0.261719 0.261719 L 139.738281 0.261719 L 139.738281 139.738281 L 0.261719 139.738281 Z M 0.261719 0.261719 " clip-rule="nonzero"/></clipPath><clipPath id="77321ca9db"><path d="M 70 0.261719 C 31.484375 0.261719 0.261719 31.484375 0.261719 70 C 0.261719 108.515625 31.484375 139.738281 70 139.738281 C 108.515625 139.738281 139.738281 108.515625 139.738281 70 C 139.738281 31.484375 108.515625 0.261719 70 0.261719 Z M 70 0.261719 " clip-rule="nonzero"/></clipPath><clipPath id="a408af6a0b"><rect x="0" width="140" y="0" height="140"/></clipPath><clipPath id="5f04431220"><path d="M 155.261719 155.261719 L 294.726562 155.261719 L 294.726562 294.726562 L 155.261719 294.726562 Z M 155.261719 155.261719 " clip-rule="nonzero"/></clipPath><clipPath id="cd22d9c933"><path d="M 224.996094 155.261719 C 186.484375 155.261719 155.261719 186.484375 155.261719 224.996094 C 155.261719 263.507812 186.484375 294.726562 224.996094 294.726562 C 263.507812 294.726562 294.726562 263.507812 294.726562 224.996094 C 294.726562 186.484375 263.507812 155.261719 224.996094 155.261719 Z M 224.996094 155.261719 " clip-rule="nonzero"/></clipPath></defs><g clip-path="url(#f2f8d766f3)"><g clip-path="url(#9124b848ec)"><g transform="matrix(1, 0, 0, 1, 45, 67)"><g clip-path="url(#ab861b2a4f)"><g clip-path="url(#3f510bf6f6)"><g clip-path="url(#dd07504b7e)"><path fill="#ffffff" d="M 360 315.5 L -0.527344 315.5 L -0.527344 0.5 L 360 0.5 Z M 360 315.5 " fill-opacity="1" fill-rule="nonzero"/></g></g></g></g><path stroke-linecap="butt" transform="matrix(-0.75, 0, 0, -0.75, 404.999977, 382.49997)" fill="none" stroke-linejoin="miter" d="M 239.999972 -0.0000397233 L 479.999975 419.999966 L -0.0000311933 419.999966 Z M 239.999972 -0.0000397233 " stroke="#000000" stroke-width="4" stroke-opacity="1" stroke-miterlimit="4"/></g></g><g clip-path="url(#7789ad3996)"><g clip-path="url(#d99d3ae942)"><g transform="matrix(1, 0, 0, 1, 155, 155)"><g clip-path="url(#a408af6a0b)"><g clip-path="url(#2c6fa327fd)"><g clip-path="url(#77321ca9db)"><path fill="#f3f4f6" d="M 0.261719 0.261719 L 139.738281 0.261719 L 139.738281 139.738281 L 0.261719 139.738281 Z M 0.261719 0.261719 " fill-opacity="1" fill-rule="nonzero"/></g></g></g></g></g></g><g clip-path="url(#5f04431220)"><g clip-path="url(#cd22d9c933)"><path stroke-linecap="butt" transform="matrix(0.75, 0, 0, 0.75, 155.262433, 155.26241)" fill="none" stroke-linejoin="miter" d="M 92.978222 -0.000922076 C 41.629259 -0.000922076 -0.000952142 41.62929 -0.000952142 92.978252 C -0.000952142 144.327214 41.629259 185.952217 92.978222 185.952217 C 144.327184 185.952217 185.952187 144.327214 185.952187 92.978252 C 185.952187 41.62929 144.327184 -0.000922076 92.978222 -0.000922076 Z M 92.978222 -0.000922076 " stroke="#000000" stroke-width="4" stroke-opacity="1" stroke-miterlimit="4"/></g></g></svg>