<svg xmlns="http://www.w3.org/2000/svg" xmlns:xlink="http://www.w3.org/1999/xlink" width="600" zoomAndPan="magnify" viewBox="0 0 450 449.999984" height="600" preserveAspectRatio="xMidYMid meet" version="1.0"><defs><clipPath id="ddccd905c2"><path d="M 45 67.5 L 405 67.5 L 405 382.5 L 45 382.5 Z M 45 67.5 " clip-rule="nonzero"/></clipPath><clipPath id="87a7747455"><path d="M 225 67.5 L 405 382.5 L 45 382.5 Z M 225 67.5 " clip-rule="nonzero"/></clipPath><clipPath id="32a947b02c"><path d="M 0 0.5 L 360 0.5 L 360 315.5 L 0 315.5 Z M 0 0.5 " clip-rule="nonzero"/></clipPath><clipPath id="508b0588cb"><path d="M 180 0.5 L 360 315.5 L 0 315.5 Z M 180 0.5 " clip-rule="nonzero"/></clipPath><clipPath id="3d906ee282"><rect x="0" width="360" y="0" height="316"/></clipPath><clipPath id="280f3d7f3f"><path d="M 155.261719 193.652344 L 294.738281 193.652344 L 294.738281 333.125 L 155.261719 333.125 Z M 155.261719 193.652344 " clip-rule="nonzero"/></clipPath><clipPath id="edcfc0b45a"><path d="M 225 193.652344 C 186.484375 193.652344 155.261719 224.875 155.261719 263.390625 C 155.261719 301.902344 186.484375 333.125 225 333.125 C 263.515625 333.125 294.738281 301.902344 294.738281 263.390625 C 294.738281 224.875 263.515625 193.652344 225 193.652344 Z M 225 193.652344 " clip-rule="nonzero"/></clipPath><clipPath id="fe4e156610"><path d="M 0.261719 0.652344 L 139.738281 0.652344 L 139.738281 140.125 L 0.261719 140.125 Z M 0.261719 0.652344 " clip-rule="nonzero"/></clipPath><clipPath id="0b1f6b07e1"><path d="M 70 0.652344 C 31.484375 0.652344 0.261719 31.875 0.261719 70.390625 C 0.261719 108.902344 31.484375 140.125 70 140.125 C 108.515625 140.125 139.738281 108.902344 139.738281 70.390625 C 139.738281 31.875 108.515625 0.652344 70 0.652344 Z M 70 0.652344 " clip-rule="nonzero"/></clipPath><clipPath id="09701f8741"><rect x="0" width="140" y="0" height="141"/></clipPath><clipPath id="1c17ae5c8f"><path d="M 155.261719 193.652344 L 294.726562 193.652344 L 294.726562 333.117188 L 155.261719 333.117188 Z M 155.261719 193.652344 " clip-rule="nonzero"/></clipPath><clipPath id="768233e4eb"><path d="M 224.996094 193.652344 C 186.484375 193.652344 155.261719 224.871094 155.261719 263.382812 C 155.261719 301.894531 186.484375 333.117188 224.996094 333.117188 C 263.507812 333.117188 294.726562 301.894531 294.726562 263.382812 C 294.726562 224.871094 263.507812 193.652344 224.996094 193.652344 Z M 224.996094 193.652344 " clip-rule="nonzero"/></clipPath></defs><g clip-path="url(#ddccd905c2)"><g clip-path="url(#87a7747455)"><g transform="matrix(1, 0, 0, 1, 45, 67)"><g clip-path="url(#3d906ee282)"><g clip-path="url(#32a947b02c)"><g clip-path="url(#508b0588cb)"><path fill="#ffffff" d="M 0 0.5 L 360.527344 0.5 L 360.527344 315.5 L 0 315.5 Z M 0 0.5 " fill-opacity="1" fill-rule="nonzero"/></g></g></g></g><path stroke-linecap="butt" transform="matrix(0.75, 0, 0, 0.75, 45.000005, 67.499995)" fill="none" stroke-linejoin="miter" d="M 239.999997 0.00000701 L 480 420.000013 L -0.00000619333 420.000013 Z M 239.999997 0.00000701 " stroke="#000000" stroke-width="4" stroke-opacity="1" stroke-miterlimit="4"/></g></g><g clip-path="url(#280f3d7f3f)"><g clip-path="url(#edcfc0b45a)"><g transform="matrix(1, 0, 0, 1, 155, 193)"><g clip-path="url(#09701f8741)"><g clip-path="url(#fe4e156610)"><g clip-path="url(#0b1f6b07e1)"><path fill="#45734b" d="M 0.261719 0.652344 L 139.738281 0.652344 L 139.738281 140.125 L 0.261719 140.125 Z M 0.261719 0.652344 " fill-opacity="1" fill-rule="nonzero"/></g></g></g></g></g></g><g clip-path="url(#1c17ae5c8f)"><g clip-path="url(#768233e4eb)"><path stroke-linecap="butt" transform="matrix(0.75, 0, 0, 0.75, 155.262433, 193.651156)" fill="none" stroke-linejoin="miter" d="M 92.978222 0.00158351 C 41.629259 0.00158351 -0.000952142 41.626587 -0.000952142 92.975549 C -0.000952142 144.324511 41.629259 185.954723 92.978222 185.954723 C 144.327184 185.954723 185.952187 144.324511 185.952187 92.975549 C 185.952187 41.626587 144.327184 0.00158351 92.978222 0.00158351 Z M 92.978222 0.00158351 " stroke="#000000" stroke-width="4" stroke-opacity="1" stroke-miterlimit="4"/></g></g></svg>