<svg xmlns="http://www.w3.org/2000/svg" xmlns:xlink="http://www.w3.org/1999/xlink" width="600" zoomAndPan="magnify" viewBox="0 0 450 449.999984" height="600" preserveAspectRatio="xMidYMid meet" version="1.0"><defs><clipPath id="3023bebfd5"><path d="M 45 67.5 L 405 67.5 L 405 382.5 L 45 382.5 Z M 45 67.5 " clip-rule="nonzero"/></clipPath><clipPath id="e933acb5d4"><path d="M 225 67.5 L 405 382.5 L 45 382.5 Z M 225 67.5 " clip-rule="nonzero"/></clipPath><clipPath id="030dab31ad"><path d="M 0 0.5 L 360 0.5 L 360 315.5 L 0 315.5 Z M 0 0.5 " clip-rule="nonzero"/></clipPath><clipPath id="32b35f976f"><path d="M 180 0.5 L 360 315.5 L 0 315.5 Z M 180 0.5 " clip-rule="nonzero"/></clipPath><clipPath id="70ba2b77a4"><rect x="0" width="360" y="0" height="316"/></clipPath><clipPath id="4e4f00bbb9"><path d="M 180.695312 237 L 293.304688 237 L 293.304688 340.007812 L 180.695312 340.007812 Z M 180.695312 237 " clip-rule="nonzero"/></clipPath><clipPath id="e0c2d9c8fb"><path d="M 0.695312 0 L 113.304688 0 L 113.304688 103.007812 L 0.695312 103.007812 Z M 0.695312 0 " clip-rule="nonzero"/></clipPath><clipPath id="3eaa6e2659"><rect x="0" width="114" y="0" height="104"/></clipPath><clipPath id="2bdd5025df"><path d="M 180.695312 237 L 293.195312 237 L 293.195312 339.75 L 180.695312 339.75 Z M 180.695312 237 " clip-rule="nonzero"/></clipPath></defs><g clip-path="url(#3023bebfd5)"><g clip-path="url(#e933acb5d4)"><g transform="matrix(1, 0, 0, 1, 45, 67)"><g clip-path="url(#70ba2b77a4)"><g clip-path="url(#030dab31ad)"><g clip-path="url(#32b35f976f)"><path fill="#ffffff" d="M 0 0.5 L 360.527344 0.5 L 360.527344 315.5 L 0 315.5 Z M 0 0.5 " fill-opacity="1" fill-rule="nonzero"/></g></g></g></g><path stroke-linecap="butt" transform="matrix(0.75, 0, 0, 0.75, 45.000005, 67.499995)" fill="none" stroke-linejoin="miter" d="M 239.999997 0.00000701 L 480 420.000013 L -0.00000619333 420.000013 Z M 239.999997 0.00000701 " stroke="#000000" stroke-width="4" stroke-opacity="1" stroke-miterlimit="4"/></g></g><g clip-path="url(#4e4f00bbb9)"><g transform="matrix(1, 0, 0, 1, 180, 237)"><g clip-path="url(#3eaa6e2659)"><g clip-path="url(#e0c2d9c8fb)"><path fill="#2d4d31" d="M 0.695312 0 L 113.363281 0 L 113.363281 103.007812 L 0.695312 103.007812 Z M 0.695312 0 " fill-opacity="1" fill-rule="nonzero"/></g></g></g></g><g clip-path="url(#2bdd5025df)"><path stroke-linecap="butt" transform="matrix(0.75, 0, 0, 0.75, 180.696995, 236.999982)" fill="none" stroke-linejoin="miter" d="M -0.00224317 0.0000246129 L 150.138384 0.0000246129 L 150.138384 137.343777 L -0.00224317 137.343777 Z M -0.00224317 0.0000246129 " stroke="#000000" stroke-width="4" stroke-opacity="1" stroke-miterlimit="4"/></g></svg>